<?xml version="1.0" encoding="utf-8" standalone="no"?>
<!DOCTYPE svg PUBLIC "-//W3C//DTD SVG 1.1//EN"
  "http://www.w3.org/Graphics/SVG/1.1/DTD/svg11.dtd">
<svg xmlns:xlink="http://www.w3.org/1999/xlink" width="748.740781pt" height="500.592pt" viewBox="0 0 748.740781 500.592" xmlns="http://www.w3.org/2000/svg" version="1.1">
 <metadata>
  <rdf:RDF xmlns:dc="http://purl.org/dc/elements/1.1/" xmlns:cc="http://creativecommons.org/ns#" xmlns:rdf="http://www.w3.org/1999/02/22-rdf-syntax-ns#">
   <cc:Work>
    <dc:type rdf:resource="http://purl.org/dc/dcmitype/StillImage"/>
    <dc:date>2026-06-30T11:19:11.741318</dc:date>
    <dc:format>image/svg+xml</dc:format>
    <dc:creator>
     <cc:Agent>
      <dc:title>Matplotlib v3.11.0, https://matplotlib.org/</dc:title>
     </cc:Agent>
    </dc:creator>
   </cc:Work>
  </rdf:RDF>
 </metadata>
 <defs>
  <style type="text/css">*{stroke-linejoin: round; stroke-linecap: butt}</style>
 </defs>
 <g id="figure_1">
  <g id="patch_1">
   <path d="M 0 500.592 
L 748.740781 500.592 
L 748.740781 0 
L 0 0 
z
" style="fill: #ffffff"/>
  </g>
  <g id="axes_1">
   <g id="patch_2">
    <path d="M 44.040781 234.082723 
L 349.961834 234.082723 
L 349.961834 64.224 
L 44.040781 64.224 
z
" style="fill: #ffffff"/>
   </g>
   <g id="FillBetweenPolyCollection_1">
    <defs>
     <path id="m94f222ebc7" d="M 57.946284 -361.854154 
L 57.946284 -344.867662 
L 83.229015 -375.426073 
L 108.511747 -375.524993 
L 133.794479 -396.77336 
L 159.07721 -389.811535 
L 184.359942 -373.79514 
L 209.642673 -371.905721 
L 234.925405 -375.537852 
L 260.208137 -381.444762 
L 285.490868 -389.121291 
L 310.7736 -384.117985 
L 336.056331 -379.774922 
L 336.056331 -390.73129 
L 336.056331 -390.73129 
L 310.7736 -394.688937 
L 285.490868 -397.112582 
L 260.208137 -389.49833 
L 234.925405 -386.230772 
L 209.642673 -383.746591 
L 184.359942 -382.730931 
L 159.07721 -397.732976 
L 133.794479 -404.751293 
L 108.511747 -383.622355 
L 83.229015 -384.595033 
L 57.946284 -361.854154 
z
" style="stroke: #e76f51; stroke-opacity: 0.18"/>
    </defs>
    <g clip-path="url(#p996db7edae)">
     <use xlink:href="#m94f222ebc7" x="0" y="500.592" style="fill: #e76f51; fill-opacity: 0.18; stroke: #e76f51; stroke-opacity: 0.18"/>
    </g>
   </g>
   <g id="FillBetweenPolyCollection_2">
    <defs>
     <path id="m08c55f76c1" d="M 57.946284 -361.625092 
L 57.946284 -350.4641 
L 83.229015 -373.700715 
L 108.511747 -381.893312 
L 133.794479 -396.043948 
L 159.07721 -405.594493 
L 184.359942 -402.575499 
L 209.642673 -406.507682 
L 234.925405 -413.774705 
L 260.208137 -423.784341 
L 285.490868 -421.601263 
L 310.7736 -420.780952 
L 336.056331 -424.337874 
L 336.056331 -426.491743 
L 336.056331 -426.491743 
L 310.7736 -424.712495 
L 285.490868 -424.173035 
L 260.208137 -425.921872 
L 234.925405 -418.799593 
L 209.642673 -413.99002 
L 184.359942 -409.777522 
L 159.07721 -410.971295 
L 133.794479 -402.828222 
L 108.511747 -388.612901 
L 83.229015 -380.516137 
L 57.946284 -361.625092 
z
" style="stroke: #2a9d8f; stroke-opacity: 0.18"/>
    </defs>
    <g clip-path="url(#p996db7edae)">
     <use xlink:href="#m08c55f76c1" x="0" y="500.592" style="fill: #2a9d8f; fill-opacity: 0.18; stroke: #2a9d8f; stroke-opacity: 0.18"/>
    </g>
   </g>
   <g id="matplotlib.axis_1">
    <g id="xtick_1">
     <g id="line2d_1">
      <path d="M 83.229015 234.082723 
L 83.229015 64.224 
" clip-path="url(#p996db7edae)" style="fill: none; stroke: #d9dee5; stroke-opacity: 0.55; stroke-width: 0.8; stroke-linecap: square"/>
     </g>
     <g id="line2d_2">
      <defs>
       <path id="mf6361829ca" d="M 0 0 
L 0 3.5 
" style="stroke: #000000; stroke-width: 0.8"/>
      </defs>
      <g>
       <use xlink:href="#mf6361829ca" x="83.229015" y="234.082723" style="stroke: #000000; stroke-width: 0.8"/>
      </g>
     </g>
     <g id="text_1">
      <!-- 100 -->
      <g transform="translate(74.63964 247.920614) scale(0.09 -0.09)">
       <defs>
        <path id="DejaVuSans-14" d="M 794 531 
L 1825 531 
L 1825 4091 
L 703 3866 
L 703 4441 
L 1819 4666 
L 2450 4666 
L 2450 531 
L 3481 531 
L 3481 0 
L 794 0 
L 794 531 
z
" transform="scale(0.015625)"/>
        <path id="DejaVuSans-13" d="M 2034 4250 
Q 1547 4250 1301 3770 
Q 1056 3291 1056 2328 
Q 1056 1369 1301 889 
Q 1547 409 2034 409 
Q 2525 409 2770 889 
Q 3016 1369 3016 2328 
Q 3016 3291 2770 3770 
Q 2525 4250 2034 4250 
z
M 2034 4750 
Q 2819 4750 3233 4129 
Q 3647 3509 3647 2328 
Q 3647 1150 3233 529 
Q 2819 -91 2034 -91 
Q 1250 -91 836 529 
Q 422 1150 422 2328 
Q 422 3509 836 4129 
Q 1250 4750 2034 4750 
z
" transform="scale(0.015625)"/>
       </defs>
       <use xlink:href="#DejaVuSans-14"/>
       <use xlink:href="#DejaVuSans-13" transform="translate(63.625 0)"/>
       <use xlink:href="#DejaVuSans-13" transform="translate(127.25 0)"/>
      </g>
     </g>
    </g>
    <g id="xtick_2">
     <g id="line2d_3">
      <path d="M 133.794479 234.082723 
L 133.794479 64.224 
" clip-path="url(#p996db7edae)" style="fill: none; stroke: #d9dee5; stroke-opacity: 0.55; stroke-width: 0.8; stroke-linecap: square"/>
     </g>
     <g id="line2d_4">
      <g>
       <use xlink:href="#mf6361829ca" x="133.794479" y="234.082723" style="stroke: #000000; stroke-width: 0.8"/>
      </g>
     </g>
     <g id="text_2">
      <!-- 200 -->
      <g transform="translate(125.205104 247.920614) scale(0.09 -0.09)">
       <defs>
        <path id="DejaVuSans-15" d="M 1228 531 
L 3431 531 
L 3431 0 
L 469 0 
L 469 531 
Q 828 903 1448 1529 
Q 2069 2156 2228 2338 
Q 2531 2678 2651 2914 
Q 2772 3150 2772 3378 
Q 2772 3750 2511 3984 
Q 2250 4219 1831 4219 
Q 1534 4219 1204 4116 
Q 875 4013 500 3803 
L 500 4441 
Q 881 4594 1212 4672 
Q 1544 4750 1819 4750 
Q 2544 4750 2975 4387 
Q 3406 4025 3406 3419 
Q 3406 3131 3298 2873 
Q 3191 2616 2906 2266 
Q 2828 2175 2409 1742 
Q 1991 1309 1228 531 
z
" transform="scale(0.015625)"/>
       </defs>
       <use xlink:href="#DejaVuSans-15"/>
       <use xlink:href="#DejaVuSans-13" transform="translate(63.625 0)"/>
       <use xlink:href="#DejaVuSans-13" transform="translate(127.25 0)"/>
      </g>
     </g>
    </g>
    <g id="xtick_3">
     <g id="line2d_5">
      <path d="M 184.359942 234.082723 
L 184.359942 64.224 
" clip-path="url(#p996db7edae)" style="fill: none; stroke: #d9dee5; stroke-opacity: 0.55; stroke-width: 0.8; stroke-linecap: square"/>
     </g>
     <g id="line2d_6">
      <g>
       <use xlink:href="#mf6361829ca" x="184.359942" y="234.082723" style="stroke: #000000; stroke-width: 0.8"/>
      </g>
     </g>
     <g id="text_3">
      <!-- 300 -->
      <g transform="translate(175.770567 247.920614) scale(0.09 -0.09)">
       <defs>
        <path id="DejaVuSans-16" d="M 2597 2516 
Q 3050 2419 3304 2112 
Q 3559 1806 3559 1356 
Q 3559 666 3084 287 
Q 2609 -91 1734 -91 
Q 1441 -91 1130 -33 
Q 819 25 488 141 
L 488 750 
Q 750 597 1062 519 
Q 1375 441 1716 441 
Q 2309 441 2620 675 
Q 2931 909 2931 1356 
Q 2931 1769 2642 2001 
Q 2353 2234 1838 2234 
L 1294 2234 
L 1294 2753 
L 1863 2753 
Q 2328 2753 2575 2939 
Q 2822 3125 2822 3475 
Q 2822 3834 2567 4026 
Q 2313 4219 1838 4219 
Q 1578 4219 1281 4162 
Q 984 4106 628 3988 
L 628 4550 
Q 988 4650 1302 4700 
Q 1616 4750 1894 4750 
Q 2613 4750 3031 4423 
Q 3450 4097 3450 3541 
Q 3450 3153 3228 2886 
Q 3006 2619 2597 2516 
z
" transform="scale(0.015625)"/>
       </defs>
       <use xlink:href="#DejaVuSans-16"/>
       <use xlink:href="#DejaVuSans-13" transform="translate(63.625 0)"/>
       <use xlink:href="#DejaVuSans-13" transform="translate(127.25 0)"/>
      </g>
     </g>
    </g>
    <g id="xtick_4">
     <g id="line2d_7">
      <path d="M 234.925405 234.082723 
L 234.925405 64.224 
" clip-path="url(#p996db7edae)" style="fill: none; stroke: #d9dee5; stroke-opacity: 0.55; stroke-width: 0.8; stroke-linecap: square"/>
     </g>
     <g id="line2d_8">
      <g>
       <use xlink:href="#mf6361829ca" x="234.925405" y="234.082723" style="stroke: #000000; stroke-width: 0.8"/>
      </g>
     </g>
     <g id="text_4">
      <!-- 400 -->
      <g transform="translate(226.33603 247.920614) scale(0.09 -0.09)">
       <defs>
        <path id="DejaVuSans-17" d="M 2419 4116 
L 825 1625 
L 2419 1625 
L 2419 4116 
z
M 2253 4666 
L 3047 4666 
L 3047 1625 
L 3713 1625 
L 3713 1100 
L 3047 1100 
L 3047 0 
L 2419 0 
L 2419 1100 
L 313 1100 
L 313 1709 
L 2253 4666 
z
" transform="scale(0.015625)"/>
       </defs>
       <use xlink:href="#DejaVuSans-17"/>
       <use xlink:href="#DejaVuSans-13" transform="translate(63.625 0)"/>
       <use xlink:href="#DejaVuSans-13" transform="translate(127.25 0)"/>
      </g>
     </g>
    </g>
    <g id="xtick_5">
     <g id="line2d_9">
      <path d="M 285.490868 234.082723 
L 285.490868 64.224 
" clip-path="url(#p996db7edae)" style="fill: none; stroke: #d9dee5; stroke-opacity: 0.55; stroke-width: 0.8; stroke-linecap: square"/>
     </g>
     <g id="line2d_10">
      <g>
       <use xlink:href="#mf6361829ca" x="285.490868" y="234.082723" style="stroke: #000000; stroke-width: 0.8"/>
      </g>
     </g>
     <g id="text_5">
      <!-- 500 -->
      <g transform="translate(276.901493 247.920614) scale(0.09 -0.09)">
       <defs>
        <path id="DejaVuSans-18" d="M 691 4666 
L 3169 4666 
L 3169 4134 
L 1269 4134 
L 1269 2991 
Q 1406 3038 1543 3061 
Q 1681 3084 1819 3084 
Q 2600 3084 3056 2656 
Q 3513 2228 3513 1497 
Q 3513 744 3044 326 
Q 2575 -91 1722 -91 
Q 1428 -91 1123 -41 
Q 819 9 494 109 
L 494 744 
Q 775 591 1075 516 
Q 1375 441 1709 441 
Q 2250 441 2565 725 
Q 2881 1009 2881 1497 
Q 2881 1984 2565 2268 
Q 2250 2553 1709 2553 
Q 1456 2553 1204 2497 
Q 953 2441 691 2322 
L 691 4666 
z
" transform="scale(0.015625)"/>
       </defs>
       <use xlink:href="#DejaVuSans-18"/>
       <use xlink:href="#DejaVuSans-13" transform="translate(63.625 0)"/>
       <use xlink:href="#DejaVuSans-13" transform="translate(127.25 0)"/>
      </g>
     </g>
    </g>
    <g id="xtick_6">
     <g id="line2d_11">
      <path d="M 336.056331 234.082723 
L 336.056331 64.224 
" clip-path="url(#p996db7edae)" style="fill: none; stroke: #d9dee5; stroke-opacity: 0.55; stroke-width: 0.8; stroke-linecap: square"/>
     </g>
     <g id="line2d_12">
      <g>
       <use xlink:href="#mf6361829ca" x="336.056331" y="234.082723" style="stroke: #000000; stroke-width: 0.8"/>
      </g>
     </g>
     <g id="text_6">
      <!-- 600 -->
      <g transform="translate(327.466956 247.920614) scale(0.09 -0.09)">
       <defs>
        <path id="DejaVuSans-19" d="M 2113 2584 
Q 1688 2584 1439 2293 
Q 1191 2003 1191 1497 
Q 1191 994 1439 701 
Q 1688 409 2113 409 
Q 2538 409 2786 701 
Q 3034 994 3034 1497 
Q 3034 2003 2786 2293 
Q 2538 2584 2113 2584 
z
M 3366 4563 
L 3366 3988 
Q 3128 4100 2886 4159 
Q 2644 4219 2406 4219 
Q 1781 4219 1451 3797 
Q 1122 3375 1075 2522 
Q 1259 2794 1537 2939 
Q 1816 3084 2150 3084 
Q 2853 3084 3261 2657 
Q 3669 2231 3669 1497 
Q 3669 778 3244 343 
Q 2819 -91 2113 -91 
Q 1303 -91 875 529 
Q 447 1150 447 2328 
Q 447 3434 972 4092 
Q 1497 4750 2381 4750 
Q 2619 4750 2861 4703 
Q 3103 4656 3366 4563 
z
" transform="scale(0.015625)"/>
       </defs>
       <use xlink:href="#DejaVuSans-19"/>
       <use xlink:href="#DejaVuSans-13" transform="translate(63.625 0)"/>
       <use xlink:href="#DejaVuSans-13" transform="translate(127.25 0)"/>
      </g>
     </g>
    </g>
    <g id="text_7">
     <!-- step -->
     <g transform="translate(186.185683 261.68038) scale(0.1 -0.1)">
      <defs>
       <path id="DejaVuSans-56" d="M 2834 3397 
L 2834 2853 
Q 2591 2978 2328 3040 
Q 2066 3103 1784 3103 
Q 1356 3103 1142 2972 
Q 928 2841 928 2578 
Q 928 2378 1081 2264 
Q 1234 2150 1697 2047 
L 1894 2003 
Q 2506 1872 2764 1633 
Q 3022 1394 3022 966 
Q 3022 478 2636 193 
Q 2250 -91 1575 -91 
Q 1294 -91 989 -36 
Q 684 19 347 128 
L 347 722 
Q 666 556 975 473 
Q 1284 391 1588 391 
Q 1994 391 2212 530 
Q 2431 669 2431 922 
Q 2431 1156 2273 1281 
Q 2116 1406 1581 1522 
L 1381 1569 
Q 847 1681 609 1914 
Q 372 2147 372 2553 
Q 372 3047 722 3315 
Q 1072 3584 1716 3584 
Q 2034 3584 2315 3537 
Q 2597 3491 2834 3397 
z
" transform="scale(0.015625)"/>
       <path id="DejaVuSans-57" d="M 1172 4494 
L 1172 3500 
L 2356 3500 
L 2356 3053 
L 1172 3053 
L 1172 1153 
Q 1172 725 1289 603 
Q 1406 481 1766 481 
L 2356 481 
L 2356 0 
L 1766 0 
Q 1100 0 847 248 
Q 594 497 594 1153 
L 594 3053 
L 172 3053 
L 172 3500 
L 594 3500 
L 594 4494 
L 1172 4494 
z
" transform="scale(0.015625)"/>
       <path id="DejaVuSans-48" d="M 3597 1894 
L 3597 1613 
L 953 1613 
Q 991 1019 1311 708 
Q 1631 397 2203 397 
Q 2534 397 2845 478 
Q 3156 559 3463 722 
L 3463 178 
Q 3153 47 2828 -22 
Q 2503 -91 2169 -91 
Q 1331 -91 842 396 
Q 353 884 353 1716 
Q 353 2575 817 3079 
Q 1281 3584 2069 3584 
Q 2775 3584 3186 3129 
Q 3597 2675 3597 1894 
z
M 3022 2063 
Q 3016 2534 2758 2815 
Q 2500 3097 2075 3097 
Q 1594 3097 1305 2825 
Q 1016 2553 972 2059 
L 3022 2063 
z
" transform="scale(0.015625)"/>
       <path id="DejaVuSans-53" d="M 1159 525 
L 1159 -1331 
L 581 -1331 
L 581 3500 
L 1159 3500 
L 1159 2969 
Q 1341 3281 1617 3432 
Q 1894 3584 2278 3584 
Q 2916 3584 3314 3078 
Q 3713 2572 3713 1747 
Q 3713 922 3314 415 
Q 2916 -91 2278 -91 
Q 1894 -91 1617 61 
Q 1341 213 1159 525 
z
M 3116 1747 
Q 3116 2381 2855 2742 
Q 2594 3103 2138 3103 
Q 1681 3103 1420 2742 
Q 1159 2381 1159 1747 
Q 1159 1113 1420 752 
Q 1681 391 2138 391 
Q 2594 391 2855 752 
Q 3116 1113 3116 1747 
z
" transform="scale(0.015625)"/>
      </defs>
      <use xlink:href="#DejaVuSans-56"/>
      <use xlink:href="#DejaVuSans-57" transform="translate(52.09375 0)"/>
      <use xlink:href="#DejaVuSans-48" transform="translate(91.296875 0)"/>
      <use xlink:href="#DejaVuSans-53" transform="translate(152.828125 0)"/>
     </g>
    </g>
   </g>
   <g id="matplotlib.axis_2">
    <g id="ytick_1">
     <g id="line2d_13">
      <path d="M 44.040781 229.364426 
L 349.961834 229.364426 
" clip-path="url(#p996db7edae)" style="fill: none; stroke: #d9dee5; stroke-opacity: 0.55; stroke-width: 0.8; stroke-linecap: square"/>
     </g>
     <g id="line2d_14">
      <defs>
       <path id="m6dd4a92486" d="M 0 0 
L -3.5 0 
" style="stroke: #000000; stroke-width: 0.8"/>
      </defs>
      <g>
       <use xlink:href="#m6dd4a92486" x="44.040781" y="229.364426" style="stroke: #000000; stroke-width: 0.8"/>
      </g>
     </g>
     <g id="text_8">
      <!-- 0.0 -->
      <g transform="translate(22.727969 232.783371) scale(0.09 -0.09)">
       <defs>
        <path id="DejaVuSans-11" d="M 684 794 
L 1344 794 
L 1344 0 
L 684 0 
L 684 794 
z
" transform="scale(0.015625)"/>
       </defs>
       <use xlink:href="#DejaVuSans-13"/>
       <use xlink:href="#DejaVuSans-11" transform="translate(63.625 0)"/>
       <use xlink:href="#DejaVuSans-13" transform="translate(95.40625 0)"/>
      </g>
     </g>
    </g>
    <g id="ytick_2">
     <g id="line2d_15">
      <path d="M 44.040781 197.909106 
L 349.961834 197.909106 
" clip-path="url(#p996db7edae)" style="fill: none; stroke: #d9dee5; stroke-opacity: 0.55; stroke-width: 0.8; stroke-linecap: square"/>
     </g>
     <g id="line2d_16">
      <g>
       <use xlink:href="#m6dd4a92486" x="44.040781" y="197.909106" style="stroke: #000000; stroke-width: 0.8"/>
      </g>
     </g>
     <g id="text_9">
      <!-- 0.2 -->
      <g transform="translate(22.727969 201.328052) scale(0.09 -0.09)">
       <use xlink:href="#DejaVuSans-13"/>
       <use xlink:href="#DejaVuSans-11" transform="translate(63.625 0)"/>
       <use xlink:href="#DejaVuSans-15" transform="translate(95.40625 0)"/>
      </g>
     </g>
    </g>
    <g id="ytick_3">
     <g id="line2d_17">
      <path d="M 44.040781 166.453787 
L 349.961834 166.453787 
" clip-path="url(#p996db7edae)" style="fill: none; stroke: #d9dee5; stroke-opacity: 0.55; stroke-width: 0.8; stroke-linecap: square"/>
     </g>
     <g id="line2d_18">
      <g>
       <use xlink:href="#m6dd4a92486" x="44.040781" y="166.453787" style="stroke: #000000; stroke-width: 0.8"/>
      </g>
     </g>
     <g id="text_10">
      <!-- 0.4 -->
      <g transform="translate(22.727969 169.872733) scale(0.09 -0.09)">
       <use xlink:href="#DejaVuSans-13"/>
       <use xlink:href="#DejaVuSans-11" transform="translate(63.625 0)"/>
       <use xlink:href="#DejaVuSans-17" transform="translate(95.40625 0)"/>
      </g>
     </g>
    </g>
    <g id="ytick_4">
     <g id="line2d_19">
      <path d="M 44.040781 134.998468 
L 349.961834 134.998468 
" clip-path="url(#p996db7edae)" style="fill: none; stroke: #d9dee5; stroke-opacity: 0.55; stroke-width: 0.8; stroke-linecap: square"/>
     </g>
     <g id="line2d_20">
      <g>
       <use xlink:href="#m6dd4a92486" x="44.040781" y="134.998468" style="stroke: #000000; stroke-width: 0.8"/>
      </g>
     </g>
     <g id="text_11">
      <!-- 0.6 -->
      <g transform="translate(22.727969 138.417413) scale(0.09 -0.09)">
       <use xlink:href="#DejaVuSans-13"/>
       <use xlink:href="#DejaVuSans-11" transform="translate(63.625 0)"/>
       <use xlink:href="#DejaVuSans-19" transform="translate(95.40625 0)"/>
      </g>
     </g>
    </g>
    <g id="ytick_5">
     <g id="line2d_21">
      <path d="M 44.040781 103.543149 
L 349.961834 103.543149 
" clip-path="url(#p996db7edae)" style="fill: none; stroke: #d9dee5; stroke-opacity: 0.55; stroke-width: 0.8; stroke-linecap: square"/>
     </g>
     <g id="line2d_22">
      <g>
       <use xlink:href="#m6dd4a92486" x="44.040781" y="103.543149" style="stroke: #000000; stroke-width: 0.8"/>
      </g>
     </g>
     <g id="text_12">
      <!-- 0.8 -->
      <g transform="translate(22.727969 106.962094) scale(0.09 -0.09)">
       <defs>
        <path id="DejaVuSans-1b" d="M 2034 2216 
Q 1584 2216 1326 1975 
Q 1069 1734 1069 1313 
Q 1069 891 1326 650 
Q 1584 409 2034 409 
Q 2484 409 2743 651 
Q 3003 894 3003 1313 
Q 3003 1734 2745 1975 
Q 2488 2216 2034 2216 
z
M 1403 2484 
Q 997 2584 770 2862 
Q 544 3141 544 3541 
Q 544 4100 942 4425 
Q 1341 4750 2034 4750 
Q 2731 4750 3128 4425 
Q 3525 4100 3525 3541 
Q 3525 3141 3298 2862 
Q 3072 2584 2669 2484 
Q 3125 2378 3379 2068 
Q 3634 1759 3634 1313 
Q 3634 634 3220 271 
Q 2806 -91 2034 -91 
Q 1263 -91 848 271 
Q 434 634 434 1313 
Q 434 1759 690 2068 
Q 947 2378 1403 2484 
z
M 1172 3481 
Q 1172 3119 1398 2916 
Q 1625 2713 2034 2713 
Q 2441 2713 2670 2916 
Q 2900 3119 2900 3481 
Q 2900 3844 2670 4047 
Q 2441 4250 2034 4250 
Q 1625 4250 1398 4047 
Q 1172 3844 1172 3481 
z
" transform="scale(0.015625)"/>
       </defs>
       <use xlink:href="#DejaVuSans-13"/>
       <use xlink:href="#DejaVuSans-11" transform="translate(63.625 0)"/>
       <use xlink:href="#DejaVuSans-1b" transform="translate(95.40625 0)"/>
      </g>
     </g>
    </g>
    <g id="ytick_6">
     <g id="line2d_23">
      <path d="M 44.040781 72.08783 
L 349.961834 72.08783 
" clip-path="url(#p996db7edae)" style="fill: none; stroke: #d9dee5; stroke-opacity: 0.55; stroke-width: 0.8; stroke-linecap: square"/>
     </g>
     <g id="line2d_24">
      <g>
       <use xlink:href="#m6dd4a92486" x="44.040781" y="72.08783" style="stroke: #000000; stroke-width: 0.8"/>
      </g>
     </g>
     <g id="text_13">
      <!-- 1.0 -->
      <g transform="translate(22.727969 75.506775) scale(0.09 -0.09)">
       <use xlink:href="#DejaVuSans-14"/>
       <use xlink:href="#DejaVuSans-11" transform="translate(63.625 0)"/>
       <use xlink:href="#DejaVuSans-13" transform="translate(95.40625 0)"/>
      </g>
     </g>
    </g>
    <g id="text_14">
     <!-- eval_exact -->
     <g transform="translate(16.325625 175.864299) rotate(-90) scale(0.1 -0.1)">
      <defs>
       <path id="DejaVuSans-59" d="M 191 3500 
L 800 3500 
L 1894 563 
L 2988 3500 
L 3597 3500 
L 2284 0 
L 1503 0 
L 191 3500 
z
" transform="scale(0.015625)"/>
       <path id="DejaVuSans-44" d="M 2194 1759 
Q 1497 1759 1228 1600 
Q 959 1441 959 1056 
Q 959 750 1161 570 
Q 1363 391 1709 391 
Q 2188 391 2477 730 
Q 2766 1069 2766 1631 
L 2766 1759 
L 2194 1759 
z
M 3341 1997 
L 3341 0 
L 2766 0 
L 2766 531 
Q 2569 213 2275 61 
Q 1981 -91 1556 -91 
Q 1019 -91 701 211 
Q 384 513 384 1019 
Q 384 1609 779 1909 
Q 1175 2209 1959 2209 
L 2766 2209 
L 2766 2266 
Q 2766 2663 2505 2880 
Q 2244 3097 1772 3097 
Q 1472 3097 1187 3025 
Q 903 2953 641 2809 
L 641 3341 
Q 956 3463 1253 3523 
Q 1550 3584 1831 3584 
Q 2591 3584 2966 3190 
Q 3341 2797 3341 1997 
z
" transform="scale(0.015625)"/>
       <path id="DejaVuSans-4f" d="M 603 4863 
L 1178 4863 
L 1178 0 
L 603 0 
L 603 4863 
z
" transform="scale(0.015625)"/>
       <path id="DejaVuSans-42" d="M 3263 -1063 
L 3263 -1509 
L -63 -1509 
L -63 -1063 
L 3263 -1063 
z
" transform="scale(0.015625)"/>
       <path id="DejaVuSans-5b" d="M 3513 3500 
L 2247 1797 
L 3578 0 
L 2900 0 
L 1881 1375 
L 863 0 
L 184 0 
L 1544 1831 
L 300 3500 
L 978 3500 
L 1906 2253 
L 2834 3500 
L 3513 3500 
z
" transform="scale(0.015625)"/>
       <path id="DejaVuSans-46" d="M 3122 3366 
L 3122 2828 
Q 2878 2963 2633 3030 
Q 2388 3097 2138 3097 
Q 1578 3097 1268 2742 
Q 959 2388 959 1747 
Q 959 1106 1268 751 
Q 1578 397 2138 397 
Q 2388 397 2633 464 
Q 2878 531 3122 666 
L 3122 134 
Q 2881 22 2623 -34 
Q 2366 -91 2075 -91 
Q 1284 -91 818 406 
Q 353 903 353 1747 
Q 353 2603 823 3093 
Q 1294 3584 2113 3584 
Q 2378 3584 2631 3529 
Q 2884 3475 3122 3366 
z
" transform="scale(0.015625)"/>
      </defs>
      <use xlink:href="#DejaVuSans-48"/>
      <use xlink:href="#DejaVuSans-59" transform="translate(61.53125 0)"/>
      <use xlink:href="#DejaVuSans-44" transform="translate(120.71875 0)"/>
      <use xlink:href="#DejaVuSans-4f" transform="translate(182 0)"/>
      <use xlink:href="#DejaVuSans-42" transform="translate(209.78125 0)"/>
      <use xlink:href="#DejaVuSans-48" transform="translate(259.78125 0)"/>
      <use xlink:href="#DejaVuSans-5b" transform="translate(319.5625 0)"/>
      <use xlink:href="#DejaVuSans-44" transform="translate(378.75 0)"/>
      <use xlink:href="#DejaVuSans-46" transform="translate(440.03125 0)"/>
      <use xlink:href="#DejaVuSans-57" transform="translate(495.015625 0)"/>
     </g>
    </g>
   </g>
   <g id="line2d_25">
    <path d="M 57.946284 147.231092 
L 83.229015 120.581447 
L 108.511747 121.018326 
L 133.794479 99.829674 
L 159.07721 106.819745 
L 184.359942 122.328965 
L 209.642673 122.765844 
L 234.925405 119.707688 
L 260.208137 115.120454 
L 285.490868 107.475064 
L 310.7736 111.188539 
L 336.056331 115.338894 
" clip-path="url(#p996db7edae)" style="fill: none; stroke: #e76f51; stroke-width: 2.2; stroke-linecap: square"/>
   </g>
   <g id="line2d_26">
    <path d="M 57.946284 135.584267 
L 83.229015 125.534503 
L 83.229015 125.534503 
L 108.511747 114.972851 
L 108.511747 114.972851 
L 133.794479 107.547704 
L 133.794479 107.547704 
L 159.07721 108.909397 
L 159.07721 108.909397 
L 184.359942 116.68473 
L 184.359942 116.68473 
L 209.642673 119.195954 
L 209.642673 119.195954 
L 234.925405 116.640821 
L 234.925405 116.640821 
L 260.208137 113.62231 
L 260.208137 113.62231 
L 285.490868 111.312346 
L 285.490868 111.312346 
L 310.7736 112.031014 
L 310.7736 112.031014 
L 336.056331 113.256967 
L 336.056331 113.256967 
" clip-path="url(#p996db7edae)" style="fill: none; stroke-dasharray: 4.81,2.08; stroke-dashoffset: 0; stroke: #e76f51; stroke-opacity: 0.85; stroke-width: 1.3"/>
   </g>
   <g id="line2d_27">
    <path d="M 57.946284 144.547404 
L 83.229015 123.483574 
L 108.511747 115.338894 
L 133.794479 101.155915 
L 159.07721 92.309106 
L 184.359942 94.415489 
L 209.642673 90.343149 
L 234.925405 84.304851 
L 260.208137 75.738894 
L 285.490868 77.704851 
L 310.7736 77.845277 
L 336.056331 75.177191 
" clip-path="url(#p996db7edae)" style="fill: none; stroke: #2a9d8f; stroke-width: 2.2; stroke-linecap: square"/>
   </g>
   <g id="line2d_28">
    <path d="M 57.946284 141.196241 
L 108.511747 112.303506 
L 108.511747 112.303506 
L 133.794479 99.873022 
L 133.794479 99.873022 
L 159.07721 91.811585 
L 159.07721 91.811585 
L 184.359942 88.016315 
L 184.359942 88.016315 
L 209.642673 84.958692 
L 209.642673 84.958692 
L 234.925405 80.834559 
L 234.925405 80.834559 
L 260.208137 77.743157 
L 260.208137 77.743157 
L 285.490868 76.486982 
L 285.490868 76.486982 
L 310.7736 75.875557 
L 310.7736 75.875557 
L 336.056331 75.093183 
L 336.056331 75.093183 
" clip-path="url(#p996db7edae)" style="fill: none; stroke-dasharray: 4.81,2.08; stroke-dashoffset: 0; stroke: #2a9d8f; stroke-opacity: 0.85; stroke-width: 1.3"/>
   </g>
   <g id="patch_3">
    <path d="M 44.040781 234.082723 
L 44.040781 64.224 
" style="fill: none; stroke: #000000; stroke-width: 0.8; stroke-linejoin: miter; stroke-linecap: square"/>
   </g>
   <g id="patch_4">
    <path d="M 44.040781 234.082723 
L 349.961834 234.082723 
" style="fill: none; stroke: #000000; stroke-width: 0.8; stroke-linejoin: miter; stroke-linecap: square"/>
   </g>
   <g id="text_15">
    <!-- Evaluation exact -->
    <g transform="translate(146.969745 58.224) scale(0.12 -0.12)">
     <defs>
      <path id="DejaVuSans-28" d="M 628 4666 
L 3578 4666 
L 3578 4134 
L 1259 4134 
L 1259 2753 
L 3481 2753 
L 3481 2222 
L 1259 2222 
L 1259 531 
L 3634 531 
L 3634 0 
L 628 0 
L 628 4666 
z
" transform="scale(0.015625)"/>
      <path id="DejaVuSans-58" d="M 544 1381 
L 544 3500 
L 1119 3500 
L 1119 1403 
Q 1119 906 1312 657 
Q 1506 409 1894 409 
Q 2359 409 2629 706 
Q 2900 1003 2900 1516 
L 2900 3500 
L 3475 3500 
L 3475 0 
L 2900 0 
L 2900 538 
Q 2691 219 2414 64 
Q 2138 -91 1772 -91 
Q 1169 -91 856 284 
Q 544 659 544 1381 
z
M 1991 3584 
L 1991 3584 
z
" transform="scale(0.015625)"/>
      <path id="DejaVuSans-4c" d="M 603 3500 
L 1178 3500 
L 1178 0 
L 603 0 
L 603 3500 
z
M 603 4863 
L 1178 4863 
L 1178 4134 
L 603 4134 
L 603 4863 
z
" transform="scale(0.015625)"/>
      <path id="DejaVuSans-52" d="M 1959 3097 
Q 1497 3097 1228 2736 
Q 959 2375 959 1747 
Q 959 1119 1226 758 
Q 1494 397 1959 397 
Q 2419 397 2687 759 
Q 2956 1122 2956 1747 
Q 2956 2369 2687 2733 
Q 2419 3097 1959 3097 
z
M 1959 3584 
Q 2709 3584 3137 3096 
Q 3566 2609 3566 1747 
Q 3566 888 3137 398 
Q 2709 -91 1959 -91 
Q 1206 -91 779 398 
Q 353 888 353 1747 
Q 353 2609 779 3096 
Q 1206 3584 1959 3584 
z
" transform="scale(0.015625)"/>
      <path id="DejaVuSans-51" d="M 3513 2113 
L 3513 0 
L 2938 0 
L 2938 2094 
Q 2938 2591 2744 2837 
Q 2550 3084 2163 3084 
Q 1697 3084 1428 2787 
Q 1159 2491 1159 1978 
L 1159 0 
L 581 0 
L 581 3500 
L 1159 3500 
L 1159 2956 
Q 1366 3272 1645 3428 
Q 1925 3584 2291 3584 
Q 2894 3584 3203 3211 
Q 3513 2838 3513 2113 
z
" transform="scale(0.015625)"/>
      <path id="DejaVuSans-3" transform="scale(0.015625)"/>
     </defs>
     <use xlink:href="#DejaVuSans-28"/>
     <use xlink:href="#DejaVuSans-59" transform="translate(63.1875 0)"/>
     <use xlink:href="#DejaVuSans-44" transform="translate(122.375 0)"/>
     <use xlink:href="#DejaVuSans-4f" transform="translate(183.65625 0)"/>
     <use xlink:href="#DejaVuSans-58" transform="translate(211.4375 0)"/>
     <use xlink:href="#DejaVuSans-44" transform="translate(274.8125 0)"/>
     <use xlink:href="#DejaVuSans-57" transform="translate(336.09375 0)"/>
     <use xlink:href="#DejaVuSans-4c" transform="translate(375.296875 0)"/>
     <use xlink:href="#DejaVuSans-52" transform="translate(403.078125 0)"/>
     <use xlink:href="#DejaVuSans-51" transform="translate(464.265625 0)"/>
     <use xlink:href="#DejaVuSans-3" transform="translate(527.640625 0)"/>
     <use xlink:href="#DejaVuSans-48" transform="translate(559.421875 0)"/>
     <use xlink:href="#DejaVuSans-5b" transform="translate(619.203125 0)"/>
     <use xlink:href="#DejaVuSans-44" transform="translate(678.390625 0)"/>
     <use xlink:href="#DejaVuSans-46" transform="translate(739.671875 0)"/>
     <use xlink:href="#DejaVuSans-57" transform="translate(794.65625 0)"/>
    </g>
   </g>
   <g id="legend_1">
    <g id="patch_5">
     <path d="M 49.640781 94.62525 
L 96.463281 94.62525 
Q 98.063281 94.62525 98.063281 93.02525 
L 98.063281 69.824 
Q 98.063281 68.224 96.463281 68.224 
L 49.640781 68.224 
Q 48.040781 68.224 48.040781 69.824 
L 48.040781 93.02525 
Q 48.040781 94.62525 49.640781 94.62525 
z
" style="fill: #ffffff; opacity: 0.8; stroke: #cccccc; stroke-linejoin: miter"/>
    </g>
    <g id="line2d_29">
     <path d="M 51.240781 74.70275 
L 59.240781 74.70275 
L 67.240781 74.70275 
" style="fill: none; stroke: #e76f51; stroke-width: 2.2; stroke-linecap: square"/>
    </g>
    <g id="text_16">
     <!-- tf200 -->
     <g transform="translate(73.640781 77.50275) scale(0.08 -0.08)">
      <defs>
       <path id="DejaVuSans-49" d="M 2375 4863 
L 2375 4384 
L 1825 4384 
Q 1516 4384 1395 4259 
Q 1275 4134 1275 3809 
L 1275 3500 
L 2222 3500 
L 2222 3053 
L 1275 3053 
L 1275 0 
L 697 0 
L 697 3053 
L 147 3053 
L 147 3500 
L 697 3500 
L 697 3744 
Q 697 4328 969 4595 
Q 1241 4863 1831 4863 
L 2375 4863 
z
" transform="scale(0.015625)"/>
      </defs>
      <use xlink:href="#DejaVuSans-57"/>
      <use xlink:href="#DejaVuSans-49" transform="translate(39.203125 0)"/>
      <use xlink:href="#DejaVuSans-15" transform="translate(74.40625 0)"/>
      <use xlink:href="#DejaVuSans-13" transform="translate(138.03125 0)"/>
      <use xlink:href="#DejaVuSans-13" transform="translate(201.65625 0)"/>
     </g>
    </g>
    <g id="line2d_30">
     <path d="M 51.240781 86.703375 
L 59.240781 86.703375 
L 67.240781 86.703375 
" style="fill: none; stroke: #2a9d8f; stroke-width: 2.2; stroke-linecap: square"/>
    </g>
    <g id="text_17">
     <!-- tf600 -->
     <g transform="translate(73.640781 89.503375) scale(0.08 -0.08)">
      <use xlink:href="#DejaVuSans-57"/>
      <use xlink:href="#DejaVuSans-49" transform="translate(39.203125 0)"/>
      <use xlink:href="#DejaVuSans-19" transform="translate(74.40625 0)"/>
      <use xlink:href="#DejaVuSans-13" transform="translate(138.03125 0)"/>
      <use xlink:href="#DejaVuSans-13" transform="translate(201.65625 0)"/>
     </g>
    </g>
   </g>
  </g>
  <g id="axes_2">
   <g id="patch_6">
    <path d="M 435.619729 234.082723 
L 741.540781 234.082723 
L 741.540781 64.224 
L 435.619729 64.224 
z
" style="fill: #ffffff"/>
   </g>
   <g id="FillBetweenPolyCollection_3">
    <defs>
     <path id="m75f304c45d" d="M 449.525231 -354.249905 
L 449.525231 -344.391388 
L 474.807963 -372.879552 
L 500.090694 -385.305495 
L 525.373426 -390.728137 
L 550.656158 -380.962199 
L 575.938889 -385.873191 
L 601.221621 -380.153167 
L 626.504352 -388.47913 
L 651.787084 -385.471945 
L 677.069816 -384.897677 
L 702.352547 -382.315255 
L 727.635279 -385.908426 
L 727.635279 -392.461617 
L 727.635279 -392.461617 
L 702.352547 -391.137273 
L 677.069816 -394.561069 
L 651.787084 -393.990296 
L 626.504352 -395.897131 
L 601.221621 -392.20891 
L 575.938889 -391.949879 
L 550.656158 -390.856399 
L 525.373426 -399.110865 
L 500.090694 -395.248945 
L 474.807963 -380.915149 
L 449.525231 -354.249905 
z
" style="stroke: #e76f51; stroke-opacity: 0.18"/>
    </defs>
    <g clip-path="url(#p22f46ffec2)">
     <use xlink:href="#m75f304c45d" x="0" y="500.592" style="fill: #e76f51; fill-opacity: 0.18; stroke: #e76f51; stroke-opacity: 0.18"/>
    </g>
   </g>
   <g id="FillBetweenPolyCollection_4">
    <defs>
     <path id="mfa1fcb2676" d="M 449.525231 -359.187688 
L 449.525231 -351.779223 
L 474.807963 -371.343946 
L 500.090694 -384.393755 
L 525.373426 -392.172831 
L 550.656158 -400.544802 
L 575.938889 -403.379554 
L 601.221621 -416.072987 
L 626.504352 -411.513608 
L 651.787084 -424.266904 
L 677.069816 -417.764979 
L 702.352547 -422.508778 
L 727.635279 -423.635547 
L 727.635279 -426.351517 
L 727.635279 -426.351517 
L 702.352547 -426.426779 
L 677.069816 -422.044042 
L 651.787084 -426.424534 
L 626.504352 -417.060247 
L 601.221621 -420.222025 
L 575.938889 -408.342114 
L 550.656158 -405.912594 
L 525.373426 -397.781757 
L 500.090694 -391.519403 
L 474.807963 -377.185109 
L 449.525231 -359.187688 
z
" style="stroke: #2a9d8f; stroke-opacity: 0.18"/>
    </defs>
    <g clip-path="url(#p22f46ffec2)">
     <use xlink:href="#mfa1fcb2676" x="0" y="500.592" style="fill: #2a9d8f; fill-opacity: 0.18; stroke: #2a9d8f; stroke-opacity: 0.18"/>
    </g>
   </g>
   <g id="matplotlib.axis_3">
    <g id="xtick_7">
     <g id="line2d_31">
      <path d="M 474.807963 234.082723 
L 474.807963 64.224 
" clip-path="url(#p22f46ffec2)" style="fill: none; stroke: #d9dee5; stroke-opacity: 0.55; stroke-width: 0.8; stroke-linecap: square"/>
     </g>
     <g id="line2d_32">
      <g>
       <use xlink:href="#mf6361829ca" x="474.807963" y="234.082723" style="stroke: #000000; stroke-width: 0.8"/>
      </g>
     </g>
     <g id="text_18">
      <!-- 100 -->
      <g transform="translate(466.218588 247.920614) scale(0.09 -0.09)">
       <use xlink:href="#DejaVuSans-14"/>
       <use xlink:href="#DejaVuSans-13" transform="translate(63.625 0)"/>
       <use xlink:href="#DejaVuSans-13" transform="translate(127.25 0)"/>
      </g>
     </g>
    </g>
    <g id="xtick_8">
     <g id="line2d_33">
      <path d="M 525.373426 234.082723 
L 525.373426 64.224 
" clip-path="url(#p22f46ffec2)" style="fill: none; stroke: #d9dee5; stroke-opacity: 0.55; stroke-width: 0.8; stroke-linecap: square"/>
     </g>
     <g id="line2d_34">
      <g>
       <use xlink:href="#mf6361829ca" x="525.373426" y="234.082723" style="stroke: #000000; stroke-width: 0.8"/>
      </g>
     </g>
     <g id="text_19">
      <!-- 200 -->
      <g transform="translate(516.784051 247.920614) scale(0.09 -0.09)">
       <use xlink:href="#DejaVuSans-15"/>
       <use xlink:href="#DejaVuSans-13" transform="translate(63.625 0)"/>
       <use xlink:href="#DejaVuSans-13" transform="translate(127.25 0)"/>
      </g>
     </g>
    </g>
    <g id="xtick_9">
     <g id="line2d_35">
      <path d="M 575.938889 234.082723 
L 575.938889 64.224 
" clip-path="url(#p22f46ffec2)" style="fill: none; stroke: #d9dee5; stroke-opacity: 0.55; stroke-width: 0.8; stroke-linecap: square"/>
     </g>
     <g id="line2d_36">
      <g>
       <use xlink:href="#mf6361829ca" x="575.938889" y="234.082723" style="stroke: #000000; stroke-width: 0.8"/>
      </g>
     </g>
     <g id="text_20">
      <!-- 300 -->
      <g transform="translate(567.349514 247.920614) scale(0.09 -0.09)">
       <use xlink:href="#DejaVuSans-16"/>
       <use xlink:href="#DejaVuSans-13" transform="translate(63.625 0)"/>
       <use xlink:href="#DejaVuSans-13" transform="translate(127.25 0)"/>
      </g>
     </g>
    </g>
    <g id="xtick_10">
     <g id="line2d_37">
      <path d="M 626.504352 234.082723 
L 626.504352 64.224 
" clip-path="url(#p22f46ffec2)" style="fill: none; stroke: #d9dee5; stroke-opacity: 0.55; stroke-width: 0.8; stroke-linecap: square"/>
     </g>
     <g id="line2d_38">
      <g>
       <use xlink:href="#mf6361829ca" x="626.504352" y="234.082723" style="stroke: #000000; stroke-width: 0.8"/>
      </g>
     </g>
     <g id="text_21">
      <!-- 400 -->
      <g transform="translate(617.914977 247.920614) scale(0.09 -0.09)">
       <use xlink:href="#DejaVuSans-17"/>
       <use xlink:href="#DejaVuSans-13" transform="translate(63.625 0)"/>
       <use xlink:href="#DejaVuSans-13" transform="translate(127.25 0)"/>
      </g>
     </g>
    </g>
    <g id="xtick_11">
     <g id="line2d_39">
      <path d="M 677.069816 234.082723 
L 677.069816 64.224 
" clip-path="url(#p22f46ffec2)" style="fill: none; stroke: #d9dee5; stroke-opacity: 0.55; stroke-width: 0.8; stroke-linecap: square"/>
     </g>
     <g id="line2d_40">
      <g>
       <use xlink:href="#mf6361829ca" x="677.069816" y="234.082723" style="stroke: #000000; stroke-width: 0.8"/>
      </g>
     </g>
     <g id="text_22">
      <!-- 500 -->
      <g transform="translate(668.480441 247.920614) scale(0.09 -0.09)">
       <use xlink:href="#DejaVuSans-18"/>
       <use xlink:href="#DejaVuSans-13" transform="translate(63.625 0)"/>
       <use xlink:href="#DejaVuSans-13" transform="translate(127.25 0)"/>
      </g>
     </g>
    </g>
    <g id="xtick_12">
     <g id="line2d_41">
      <path d="M 727.635279 234.082723 
L 727.635279 64.224 
" clip-path="url(#p22f46ffec2)" style="fill: none; stroke: #d9dee5; stroke-opacity: 0.55; stroke-width: 0.8; stroke-linecap: square"/>
     </g>
     <g id="line2d_42">
      <g>
       <use xlink:href="#mf6361829ca" x="727.635279" y="234.082723" style="stroke: #000000; stroke-width: 0.8"/>
      </g>
     </g>
     <g id="text_23">
      <!-- 600 -->
      <g transform="translate(719.045904 247.920614) scale(0.09 -0.09)">
       <use xlink:href="#DejaVuSans-19"/>
       <use xlink:href="#DejaVuSans-13" transform="translate(63.625 0)"/>
       <use xlink:href="#DejaVuSans-13" transform="translate(127.25 0)"/>
      </g>
     </g>
    </g>
    <g id="text_24">
     <!-- step -->
     <g transform="translate(577.76463 261.68038) scale(0.1 -0.1)">
      <use xlink:href="#DejaVuSans-56"/>
      <use xlink:href="#DejaVuSans-57" transform="translate(52.09375 0)"/>
      <use xlink:href="#DejaVuSans-48" transform="translate(91.296875 0)"/>
      <use xlink:href="#DejaVuSans-53" transform="translate(152.828125 0)"/>
     </g>
    </g>
   </g>
   <g id="matplotlib.axis_4">
    <g id="ytick_7">
     <g id="line2d_43">
      <path d="M 435.619729 229.364426 
L 741.540781 229.364426 
" clip-path="url(#p22f46ffec2)" style="fill: none; stroke: #d9dee5; stroke-opacity: 0.55; stroke-width: 0.8; stroke-linecap: square"/>
     </g>
     <g id="line2d_44">
      <g>
       <use xlink:href="#m6dd4a92486" x="435.619729" y="229.364426" style="stroke: #000000; stroke-width: 0.8"/>
      </g>
     </g>
     <g id="text_25">
      <!-- 0.0 -->
      <g transform="translate(414.306916 232.783371) scale(0.09 -0.09)">
       <use xlink:href="#DejaVuSans-13"/>
       <use xlink:href="#DejaVuSans-11" transform="translate(63.625 0)"/>
       <use xlink:href="#DejaVuSans-13" transform="translate(95.40625 0)"/>
      </g>
     </g>
    </g>
    <g id="ytick_8">
     <g id="line2d_45">
      <path d="M 435.619729 197.909106 
L 741.540781 197.909106 
" clip-path="url(#p22f46ffec2)" style="fill: none; stroke: #d9dee5; stroke-opacity: 0.55; stroke-width: 0.8; stroke-linecap: square"/>
     </g>
     <g id="line2d_46">
      <g>
       <use xlink:href="#m6dd4a92486" x="435.619729" y="197.909106" style="stroke: #000000; stroke-width: 0.8"/>
      </g>
     </g>
     <g id="text_26">
      <!-- 0.2 -->
      <g transform="translate(414.306916 201.328052) scale(0.09 -0.09)">
       <use xlink:href="#DejaVuSans-13"/>
       <use xlink:href="#DejaVuSans-11" transform="translate(63.625 0)"/>
       <use xlink:href="#DejaVuSans-15" transform="translate(95.40625 0)"/>
      </g>
     </g>
    </g>
    <g id="ytick_9">
     <g id="line2d_47">
      <path d="M 435.619729 166.453787 
L 741.540781 166.453787 
" clip-path="url(#p22f46ffec2)" style="fill: none; stroke: #d9dee5; stroke-opacity: 0.55; stroke-width: 0.8; stroke-linecap: square"/>
     </g>
     <g id="line2d_48">
      <g>
       <use xlink:href="#m6dd4a92486" x="435.619729" y="166.453787" style="stroke: #000000; stroke-width: 0.8"/>
      </g>
     </g>
     <g id="text_27">
      <!-- 0.4 -->
      <g transform="translate(414.306916 169.872733) scale(0.09 -0.09)">
       <use xlink:href="#DejaVuSans-13"/>
       <use xlink:href="#DejaVuSans-11" transform="translate(63.625 0)"/>
       <use xlink:href="#DejaVuSans-17" transform="translate(95.40625 0)"/>
      </g>
     </g>
    </g>
    <g id="ytick_10">
     <g id="line2d_49">
      <path d="M 435.619729 134.998468 
L 741.540781 134.998468 
" clip-path="url(#p22f46ffec2)" style="fill: none; stroke: #d9dee5; stroke-opacity: 0.55; stroke-width: 0.8; stroke-linecap: square"/>
     </g>
     <g id="line2d_50">
      <g>
       <use xlink:href="#m6dd4a92486" x="435.619729" y="134.998468" style="stroke: #000000; stroke-width: 0.8"/>
      </g>
     </g>
     <g id="text_28">
      <!-- 0.6 -->
      <g transform="translate(414.306916 138.417413) scale(0.09 -0.09)">
       <use xlink:href="#DejaVuSans-13"/>
       <use xlink:href="#DejaVuSans-11" transform="translate(63.625 0)"/>
       <use xlink:href="#DejaVuSans-19" transform="translate(95.40625 0)"/>
      </g>
     </g>
    </g>
    <g id="ytick_11">
     <g id="line2d_51">
      <path d="M 435.619729 103.543149 
L 741.540781 103.543149 
" clip-path="url(#p22f46ffec2)" style="fill: none; stroke: #d9dee5; stroke-opacity: 0.55; stroke-width: 0.8; stroke-linecap: square"/>
     </g>
     <g id="line2d_52">
      <g>
       <use xlink:href="#m6dd4a92486" x="435.619729" y="103.543149" style="stroke: #000000; stroke-width: 0.8"/>
      </g>
     </g>
     <g id="text_29">
      <!-- 0.8 -->
      <g transform="translate(414.306916 106.962094) scale(0.09 -0.09)">
       <use xlink:href="#DejaVuSans-13"/>
       <use xlink:href="#DejaVuSans-11" transform="translate(63.625 0)"/>
       <use xlink:href="#DejaVuSans-1b" transform="translate(95.40625 0)"/>
      </g>
     </g>
    </g>
    <g id="ytick_12">
     <g id="line2d_53">
      <path d="M 435.619729 72.08783 
L 741.540781 72.08783 
" clip-path="url(#p22f46ffec2)" style="fill: none; stroke: #d9dee5; stroke-opacity: 0.55; stroke-width: 0.8; stroke-linecap: square"/>
     </g>
     <g id="line2d_54">
      <g>
       <use xlink:href="#m6dd4a92486" x="435.619729" y="72.08783" style="stroke: #000000; stroke-width: 0.8"/>
      </g>
     </g>
     <g id="text_30">
      <!-- 1.0 -->
      <g transform="translate(414.306916 75.506775) scale(0.09 -0.09)">
       <use xlink:href="#DejaVuSans-14"/>
       <use xlink:href="#DejaVuSans-11" transform="translate(63.625 0)"/>
       <use xlink:href="#DejaVuSans-13" transform="translate(95.40625 0)"/>
      </g>
     </g>
    </g>
    <g id="text_31">
     <!-- writer_recall -->
     <g transform="translate(407.904572 179.892424) rotate(-90) scale(0.1 -0.1)">
      <defs>
       <path id="DejaVuSans-5a" d="M 269 3500 
L 844 3500 
L 1563 769 
L 2278 3500 
L 2956 3500 
L 3675 769 
L 4391 3500 
L 4966 3500 
L 4050 0 
L 3372 0 
L 2619 2869 
L 1863 0 
L 1184 0 
L 269 3500 
z
" transform="scale(0.015625)"/>
       <path id="DejaVuSans-55" d="M 2631 2963 
Q 2534 3019 2420 3045 
Q 2306 3072 2169 3072 
Q 1681 3072 1420 2755 
Q 1159 2438 1159 1844 
L 1159 0 
L 581 0 
L 581 3500 
L 1159 3500 
L 1159 2956 
Q 1341 3275 1631 3429 
Q 1922 3584 2338 3584 
Q 2397 3584 2469 3576 
Q 2541 3569 2628 3553 
L 2631 2963 
z
" transform="scale(0.015625)"/>
      </defs>
      <use xlink:href="#DejaVuSans-5a"/>
      <use xlink:href="#DejaVuSans-55" transform="translate(81.78125 0)"/>
      <use xlink:href="#DejaVuSans-4c" transform="translate(122.890625 0)"/>
      <use xlink:href="#DejaVuSans-57" transform="translate(150.671875 0)"/>
      <use xlink:href="#DejaVuSans-48" transform="translate(189.875 0)"/>
      <use xlink:href="#DejaVuSans-55" transform="translate(251.40625 0)"/>
      <use xlink:href="#DejaVuSans-42" transform="translate(292.515625 0)"/>
      <use xlink:href="#DejaVuSans-55" transform="translate(342.515625 0)"/>
      <use xlink:href="#DejaVuSans-48" transform="translate(381.421875 0)"/>
      <use xlink:href="#DejaVuSans-46" transform="translate(442.953125 0)"/>
      <use xlink:href="#DejaVuSans-44" transform="translate(497.9375 0)"/>
      <use xlink:href="#DejaVuSans-4f" transform="translate(559.21875 0)"/>
      <use xlink:href="#DejaVuSans-4f" transform="translate(587 0)"/>
     </g>
    </g>
   </g>
   <g id="line2d_55">
    <path d="M 449.525231 151.271353 
L 474.807963 123.69465 
L 500.090694 110.31478 
L 525.373426 105.672499 
L 550.656158 114.682701 
L 575.938889 111.680465 
L 601.221621 114.410962 
L 626.504352 108.40387 
L 651.787084 110.860879 
L 677.069816 110.862627 
L 702.352547 113.865736 
L 727.635279 111.406979 
" clip-path="url(#p22f46ffec2)" style="fill: none; stroke: #e76f51; stroke-width: 2.2; stroke-linecap: square"/>
   </g>
   <g id="line2d_56">
    <path d="M 449.525231 144.158562 
L 474.807963 127.357841 
L 474.807963 127.357841 
L 500.090694 111.913899 
L 500.090694 111.913899 
L 525.373426 107.686284 
L 525.373426 107.686284 
L 550.656158 109.331753 
L 550.656158 109.331753 
L 575.938889 109.752284 
L 575.938889 109.752284 
L 601.221621 108.63307 
L 601.221621 108.63307 
L 626.504352 108.135027 
L 626.504352 108.135027 
L 651.787084 109.122445 
L 651.787084 109.122445 
L 677.069816 110.267852 
L 677.069816 110.267852 
L 727.635279 111.937106 
L 727.635279 111.937106 
" clip-path="url(#p22f46ffec2)" style="fill: none; stroke-dasharray: 4.81,2.08; stroke-dashoffset: 0; stroke: #e76f51; stroke-opacity: 0.85; stroke-width: 1.3"/>
   </g>
   <g id="line2d_57">
    <path d="M 449.525231 145.108545 
L 474.807963 126.327472 
L 500.090694 112.635421 
L 525.373426 105.614706 
L 550.656158 97.363302 
L 575.938889 94.731166 
L 601.221621 82.444494 
L 626.504352 86.305072 
L 651.787084 75.246281 
L 677.069816 80.687489 
L 702.352547 76.124221 
L 727.635279 75.598468 
" clip-path="url(#p22f46ffec2)" style="fill: none; stroke: #2a9d8f; stroke-width: 2.2; stroke-linecap: square"/>
   </g>
   <g id="line2d_58">
    <path d="M 449.525231 137.137532 
L 474.807963 124.658803 
L 474.807963 124.658803 
L 500.090694 112.797577 
L 500.090694 112.797577 
L 525.373426 103.858852 
L 525.373426 103.858852 
L 550.656158 97.679413 
L 550.656158 97.679413 
L 575.938889 90.138744 
L 575.938889 90.138744 
L 601.221621 84.644828 
L 601.221621 84.644828 
L 626.504352 79.946606 
L 626.504352 79.946606 
L 677.069816 75.473247 
L 677.069816 75.473247 
L 702.352547 74.816504 
L 702.352547 74.816504 
L 727.635279 74.022238 
L 727.635279 74.022238 
" clip-path="url(#p22f46ffec2)" style="fill: none; stroke-dasharray: 4.81,2.08; stroke-dashoffset: 0; stroke: #2a9d8f; stroke-opacity: 0.85; stroke-width: 1.3"/>
   </g>
   <g id="patch_7">
    <path d="M 435.619729 234.082723 
L 435.619729 64.224 
" style="fill: none; stroke: #000000; stroke-width: 0.8; stroke-linejoin: miter; stroke-linecap: square"/>
   </g>
   <g id="patch_8">
    <path d="M 435.619729 234.082723 
L 741.540781 234.082723 
" style="fill: none; stroke: #000000; stroke-width: 0.8; stroke-linejoin: miter; stroke-linecap: square"/>
   </g>
   <g id="text_32">
    <!-- Writer recall -->
    <g transform="translate(552.029942 58.224) scale(0.12 -0.12)">
     <defs>
      <path id="DejaVuSans-3a" d="M 213 4666 
L 850 4666 
L 1831 722 
L 2809 4666 
L 3519 4666 
L 4500 722 
L 5478 4666 
L 6119 4666 
L 4947 0 
L 4153 0 
L 3169 4050 
L 2175 0 
L 1381 0 
L 213 4666 
z
" transform="scale(0.015625)"/>
     </defs>
     <use xlink:href="#DejaVuSans-3a"/>
     <use xlink:href="#DejaVuSans-55" transform="translate(94.390625 0)"/>
     <use xlink:href="#DejaVuSans-4c" transform="translate(135.5 0)"/>
     <use xlink:href="#DejaVuSans-57" transform="translate(163.28125 0)"/>
     <use xlink:href="#DejaVuSans-48" transform="translate(202.484375 0)"/>
     <use xlink:href="#DejaVuSans-55" transform="translate(264.015625 0)"/>
     <use xlink:href="#DejaVuSans-3" transform="translate(305.125 0)"/>
     <use xlink:href="#DejaVuSans-55" transform="translate(336.90625 0)"/>
     <use xlink:href="#DejaVuSans-48" transform="translate(375.8125 0)"/>
     <use xlink:href="#DejaVuSans-46" transform="translate(437.34375 0)"/>
     <use xlink:href="#DejaVuSans-44" transform="translate(492.328125 0)"/>
     <use xlink:href="#DejaVuSans-4f" transform="translate(553.609375 0)"/>
     <use xlink:href="#DejaVuSans-4f" transform="translate(581.390625 0)"/>
    </g>
   </g>
   <g id="legend_2">
    <g id="patch_9">
     <path d="M 441.219729 94.62525 
L 488.042229 94.62525 
Q 489.642229 94.62525 489.642229 93.02525 
L 489.642229 69.824 
Q 489.642229 68.224 488.042229 68.224 
L 441.219729 68.224 
Q 439.619729 68.224 439.619729 69.824 
L 439.619729 93.02525 
Q 439.619729 94.62525 441.219729 94.62525 
z
" style="fill: #ffffff; opacity: 0.8; stroke: #cccccc; stroke-linejoin: miter"/>
    </g>
    <g id="line2d_59">
     <path d="M 442.819729 74.70275 
L 450.819729 74.70275 
L 458.819729 74.70275 
" style="fill: none; stroke: #e76f51; stroke-width: 2.2; stroke-linecap: square"/>
    </g>
    <g id="text_33">
     <!-- tf200 -->
     <g transform="translate(465.219729 77.50275) scale(0.08 -0.08)">
      <use xlink:href="#DejaVuSans-57"/>
      <use xlink:href="#DejaVuSans-49" transform="translate(39.203125 0)"/>
      <use xlink:href="#DejaVuSans-15" transform="translate(74.40625 0)"/>
      <use xlink:href="#DejaVuSans-13" transform="translate(138.03125 0)"/>
      <use xlink:href="#DejaVuSans-13" transform="translate(201.65625 0)"/>
     </g>
    </g>
    <g id="line2d_60">
     <path d="M 442.819729 86.703375 
L 450.819729 86.703375 
L 458.819729 86.703375 
" style="fill: none; stroke: #2a9d8f; stroke-width: 2.2; stroke-linecap: square"/>
    </g>
    <g id="text_34">
     <!-- tf600 -->
     <g transform="translate(465.219729 89.503375) scale(0.08 -0.08)">
      <use xlink:href="#DejaVuSans-57"/>
      <use xlink:href="#DejaVuSans-49" transform="translate(39.203125 0)"/>
      <use xlink:href="#DejaVuSans-19" transform="translate(74.40625 0)"/>
      <use xlink:href="#DejaVuSans-13" transform="translate(138.03125 0)"/>
      <use xlink:href="#DejaVuSans-13" transform="translate(201.65625 0)"/>
     </g>
    </g>
   </g>
  </g>
  <g id="axes_3">
   <g id="patch_10">
    <path d="M 44.040781 463.392 
L 349.961834 463.392 
L 349.961834 293.533277 
L 44.040781 293.533277 
z
" style="fill: #ffffff"/>
   </g>
   <g id="FillBetweenPolyCollection_5">
    <defs>
     <path id="mcba9a12a76" d="M 57.946284 -199.337872 
L 57.946284 -186.196767 
L 83.229015 -175.857674 
L 108.511747 -183.809061 
L 133.794479 -161.1215 
L 159.07721 -134.48383 
L 184.359942 -129.69011 
L 209.642673 -125.797397 
L 234.925405 -117.372978 
L 260.208137 -111.311118 
L 285.490868 -110.208677 
L 310.7736 -89.810574 
L 336.056331 -101.721103 
L 336.056331 -115.334351 
L 336.056331 -115.334351 
L 310.7736 -103.659593 
L 285.490868 -124.849459 
L 260.208137 -121.361514 
L 234.925405 -128.970204 
L 209.642673 -137.27924 
L 184.359942 -145.514874 
L 159.07721 -146.997618 
L 133.794479 -177.904322 
L 108.511747 -191.763403 
L 83.229015 -189.247746 
L 57.946284 -199.337872 
z
" style="stroke: #e76f51; stroke-opacity: 0.18"/>
    </defs>
    <g clip-path="url(#p3aa6844579)">
     <use xlink:href="#mcba9a12a76" x="0" y="500.592" style="fill: #e76f51; fill-opacity: 0.18; stroke: #e76f51; stroke-opacity: 0.18"/>
    </g>
   </g>
   <g id="FillBetweenPolyCollection_6">
    <defs>
     <path id="med65a82ab4" d="M 57.946284 -193.787226 
L 57.946284 -184.116267 
L 83.229015 -179.362319 
L 108.511747 -178.732483 
L 133.794479 -164.961587 
L 159.07721 -151.028163 
L 184.359942 -152.070045 
L 209.642673 -142.265905 
L 234.925405 -122.396167 
L 260.208137 -63.233348 
L 285.490868 -84.694123 
L 310.7736 -78.504442 
L 336.056331 -44.920851 
L 336.056331 -77.52229 
L 336.056331 -77.52229 
L 310.7736 -109.990256 
L 285.490868 -107.657976 
L 260.208137 -92.378512 
L 234.925405 -140.147743 
L 209.642673 -162.977667 
L 184.359942 -167.797592 
L 159.07721 -164.34808 
L 133.794479 -177.914552 
L 108.511747 -186.540415 
L 83.229015 -188.501195 
L 57.946284 -193.787226 
z
" style="stroke: #2a9d8f; stroke-opacity: 0.18"/>
    </defs>
    <g clip-path="url(#p3aa6844579)">
     <use xlink:href="#med65a82ab4" x="0" y="500.592" style="fill: #2a9d8f; fill-opacity: 0.18; stroke: #2a9d8f; stroke-opacity: 0.18"/>
    </g>
   </g>
   <g id="matplotlib.axis_5">
    <g id="xtick_13">
     <g id="line2d_61">
      <path d="M 83.229015 463.392 
L 83.229015 293.533277 
" clip-path="url(#p3aa6844579)" style="fill: none; stroke: #d9dee5; stroke-opacity: 0.55; stroke-width: 0.8; stroke-linecap: square"/>
     </g>
     <g id="line2d_62">
      <g>
       <use xlink:href="#mf6361829ca" x="83.229015" y="463.392" style="stroke: #000000; stroke-width: 0.8"/>
      </g>
     </g>
     <g id="text_35">
      <!-- 100 -->
      <g transform="translate(74.63964 477.229891) scale(0.09 -0.09)">
       <use xlink:href="#DejaVuSans-14"/>
       <use xlink:href="#DejaVuSans-13" transform="translate(63.625 0)"/>
       <use xlink:href="#DejaVuSans-13" transform="translate(127.25 0)"/>
      </g>
     </g>
    </g>
    <g id="xtick_14">
     <g id="line2d_63">
      <path d="M 133.794479 463.392 
L 133.794479 293.533277 
" clip-path="url(#p3aa6844579)" style="fill: none; stroke: #d9dee5; stroke-opacity: 0.55; stroke-width: 0.8; stroke-linecap: square"/>
     </g>
     <g id="line2d_64">
      <g>
       <use xlink:href="#mf6361829ca" x="133.794479" y="463.392" style="stroke: #000000; stroke-width: 0.8"/>
      </g>
     </g>
     <g id="text_36">
      <!-- 200 -->
      <g transform="translate(125.205104 477.229891) scale(0.09 -0.09)">
       <use xlink:href="#DejaVuSans-15"/>
       <use xlink:href="#DejaVuSans-13" transform="translate(63.625 0)"/>
       <use xlink:href="#DejaVuSans-13" transform="translate(127.25 0)"/>
      </g>
     </g>
    </g>
    <g id="xtick_15">
     <g id="line2d_65">
      <path d="M 184.359942 463.392 
L 184.359942 293.533277 
" clip-path="url(#p3aa6844579)" style="fill: none; stroke: #d9dee5; stroke-opacity: 0.55; stroke-width: 0.8; stroke-linecap: square"/>
     </g>
     <g id="line2d_66">
      <g>
       <use xlink:href="#mf6361829ca" x="184.359942" y="463.392" style="stroke: #000000; stroke-width: 0.8"/>
      </g>
     </g>
     <g id="text_37">
      <!-- 300 -->
      <g transform="translate(175.770567 477.229891) scale(0.09 -0.09)">
       <use xlink:href="#DejaVuSans-16"/>
       <use xlink:href="#DejaVuSans-13" transform="translate(63.625 0)"/>
       <use xlink:href="#DejaVuSans-13" transform="translate(127.25 0)"/>
      </g>
     </g>
    </g>
    <g id="xtick_16">
     <g id="line2d_67">
      <path d="M 234.925405 463.392 
L 234.925405 293.533277 
" clip-path="url(#p3aa6844579)" style="fill: none; stroke: #d9dee5; stroke-opacity: 0.55; stroke-width: 0.8; stroke-linecap: square"/>
     </g>
     <g id="line2d_68">
      <g>
       <use xlink:href="#mf6361829ca" x="234.925405" y="463.392" style="stroke: #000000; stroke-width: 0.8"/>
      </g>
     </g>
     <g id="text_38">
      <!-- 400 -->
      <g transform="translate(226.33603 477.229891) scale(0.09 -0.09)">
       <use xlink:href="#DejaVuSans-17"/>
       <use xlink:href="#DejaVuSans-13" transform="translate(63.625 0)"/>
       <use xlink:href="#DejaVuSans-13" transform="translate(127.25 0)"/>
      </g>
     </g>
    </g>
    <g id="xtick_17">
     <g id="line2d_69">
      <path d="M 285.490868 463.392 
L 285.490868 293.533277 
" clip-path="url(#p3aa6844579)" style="fill: none; stroke: #d9dee5; stroke-opacity: 0.55; stroke-width: 0.8; stroke-linecap: square"/>
     </g>
     <g id="line2d_70">
      <g>
       <use xlink:href="#mf6361829ca" x="285.490868" y="463.392" style="stroke: #000000; stroke-width: 0.8"/>
      </g>
     </g>
     <g id="text_39">
      <!-- 500 -->
      <g transform="translate(276.901493 477.229891) scale(0.09 -0.09)">
       <use xlink:href="#DejaVuSans-18"/>
       <use xlink:href="#DejaVuSans-13" transform="translate(63.625 0)"/>
       <use xlink:href="#DejaVuSans-13" transform="translate(127.25 0)"/>
      </g>
     </g>
    </g>
    <g id="xtick_18">
     <g id="line2d_71">
      <path d="M 336.056331 463.392 
L 336.056331 293.533277 
" clip-path="url(#p3aa6844579)" style="fill: none; stroke: #d9dee5; stroke-opacity: 0.55; stroke-width: 0.8; stroke-linecap: square"/>
     </g>
     <g id="line2d_72">
      <g>
       <use xlink:href="#mf6361829ca" x="336.056331" y="463.392" style="stroke: #000000; stroke-width: 0.8"/>
      </g>
     </g>
     <g id="text_40">
      <!-- 600 -->
      <g transform="translate(327.466956 477.229891) scale(0.09 -0.09)">
       <use xlink:href="#DejaVuSans-19"/>
       <use xlink:href="#DejaVuSans-13" transform="translate(63.625 0)"/>
       <use xlink:href="#DejaVuSans-13" transform="translate(127.25 0)"/>
      </g>
     </g>
    </g>
    <g id="text_41">
     <!-- step -->
     <g transform="translate(186.185683 490.989656) scale(0.1 -0.1)">
      <use xlink:href="#DejaVuSans-56"/>
      <use xlink:href="#DejaVuSans-57" transform="translate(52.09375 0)"/>
      <use xlink:href="#DejaVuSans-48" transform="translate(91.296875 0)"/>
      <use xlink:href="#DejaVuSans-53" transform="translate(152.828125 0)"/>
     </g>
    </g>
   </g>
   <g id="matplotlib.axis_6">
    <g id="ytick_13">
     <g id="line2d_73">
      <path d="M 44.040781 454.668144 
L 349.961834 454.668144 
" clip-path="url(#p3aa6844579)" style="fill: none; stroke: #d9dee5; stroke-opacity: 0.55; stroke-width: 0.8; stroke-linecap: square"/>
     </g>
     <g id="line2d_74">
      <g>
       <use xlink:href="#m6dd4a92486" x="44.040781" y="454.668144" style="stroke: #000000; stroke-width: 0.8"/>
      </g>
     </g>
     <g id="text_42">
      <!-- $\mathdefault{10^{0}}$ -->
      <g transform="translate(21.200781 458.898144) scale(0.09 -0.09)">
       <use xlink:href="#DejaVuSans-14" transform="translate(0 0.746875)"/>
       <use xlink:href="#DejaVuSans-13" transform="translate(63.623047 0.746875)"/>
       <use xlink:href="#DejaVuSans-13" transform="translate(128.203125 42.046875) scale(0.7)"/>
      </g>
     </g>
    </g>
    <g id="ytick_14">
     <g id="line2d_75">
      <path d="M 44.040781 351.942599 
L 349.961834 351.942599 
" clip-path="url(#p3aa6844579)" style="fill: none; stroke: #d9dee5; stroke-opacity: 0.55; stroke-width: 0.8; stroke-linecap: square"/>
     </g>
     <g id="line2d_76">
      <g>
       <use xlink:href="#m6dd4a92486" x="44.040781" y="351.942599" style="stroke: #000000; stroke-width: 0.8"/>
      </g>
     </g>
     <g id="text_43">
      <!-- $\mathdefault{10^{1}}$ -->
      <g transform="translate(21.200781 356.127599) scale(0.09 -0.09)">
       <use xlink:href="#DejaVuSans-14" transform="translate(0 0.665625)"/>
       <use xlink:href="#DejaVuSans-13" transform="translate(63.623047 0.665625)"/>
       <use xlink:href="#DejaVuSans-14" transform="translate(128.203125 41.965625) scale(0.7)"/>
      </g>
     </g>
    </g>
    <g id="text_44">
     <!-- eval_ce -->
     <g transform="translate(14.798438 397.277482) rotate(-90) scale(0.1 -0.1)">
      <use xlink:href="#DejaVuSans-48"/>
      <use xlink:href="#DejaVuSans-59" transform="translate(61.53125 0)"/>
      <use xlink:href="#DejaVuSans-44" transform="translate(120.71875 0)"/>
      <use xlink:href="#DejaVuSans-4f" transform="translate(182 0)"/>
      <use xlink:href="#DejaVuSans-42" transform="translate(209.78125 0)"/>
      <use xlink:href="#DejaVuSans-46" transform="translate(259.78125 0)"/>
      <use xlink:href="#DejaVuSans-48" transform="translate(314.765625 0)"/>
     </g>
    </g>
   </g>
   <g id="line2d_77">
    <path d="M 57.946284 307.342569 
L 83.229015 317.538807 
L 108.511747 312.628724 
L 133.794479 330.294517 
L 159.07721 359.413949 
L 184.359942 362.291504 
L 209.642673 368.685319 
L 234.925405 377.044627 
L 260.208137 383.973263 
L 285.490868 382.465021 
L 310.7736 403.321675 
L 336.056331 391.547032 
" clip-path="url(#p3aa6844579)" style="fill: none; stroke: #e76f51; stroke-width: 2.2; stroke-linecap: square"/>
   </g>
   <g id="line2d_78">
    <path d="M 57.946284 314.258707 
L 83.229015 320.972963 
L 83.229015 320.972963 
L 108.511747 329.098489 
L 108.511747 329.098489 
L 133.794479 339.275038 
L 133.794479 339.275038 
L 159.07721 355.626771 
L 159.07721 355.626771 
L 184.359942 366.839666 
L 184.359942 366.839666 
L 209.642673 372.064423 
L 209.642673 372.064423 
L 234.925405 377.113681 
L 234.925405 377.113681 
L 260.208137 382.509575 
L 260.208137 382.509575 
L 285.490868 389.204425 
L 285.490868 389.204425 
L 336.056331 396.772444 
L 336.056331 396.772444 
" clip-path="url(#p3aa6844579)" style="fill: none; stroke-dasharray: 4.81,2.08; stroke-dashoffset: 0; stroke: #e76f51; stroke-opacity: 0.85; stroke-width: 1.3"/>
   </g>
   <g id="line2d_79">
    <path d="M 57.946284 311.378714 
L 83.229015 316.426642 
L 108.511747 317.784956 
L 133.794479 328.685477 
L 159.07721 342.408607 
L 184.359942 339.968683 
L 209.642673 346.778919 
L 234.925405 368.442889 
L 260.208137 420.447209 
L 285.490868 402.954448 
L 310.7736 403.622805 
L 336.056331 436.45645 
" clip-path="url(#p3aa6844579)" style="fill: none; stroke: #2a9d8f; stroke-width: 2.2; stroke-linecap: square"/>
   </g>
   <g id="line2d_80">
    <path d="M 57.946284 317.014825 
L 83.229015 321.363625 
L 83.229015 321.363625 
L 108.511747 326.982382 
L 108.511747 326.982382 
L 133.794479 336.891662 
L 133.794479 336.891662 
L 159.07721 349.13324 
L 159.07721 349.13324 
L 184.359942 357.137636 
L 184.359942 357.137636 
L 209.642673 365.783613 
L 209.642673 365.783613 
L 234.925405 380.797174 
L 234.925405 380.797174 
L 260.208137 400.079819 
L 260.208137 400.079819 
L 285.490868 412.75256 
L 285.490868 412.75256 
L 310.7736 420.250999 
L 310.7736 420.250999 
L 336.056331 432.085832 
L 336.056331 432.085832 
" clip-path="url(#p3aa6844579)" style="fill: none; stroke-dasharray: 4.81,2.08; stroke-dashoffset: 0; stroke: #2a9d8f; stroke-opacity: 0.85; stroke-width: 1.3"/>
   </g>
   <g id="patch_11">
    <path d="M 44.040781 463.392 
L 44.040781 293.533277 
" style="fill: none; stroke: #000000; stroke-width: 0.8; stroke-linejoin: miter; stroke-linecap: square"/>
   </g>
   <g id="patch_12">
    <path d="M 44.040781 463.392 
L 349.961834 463.392 
" style="fill: none; stroke: #000000; stroke-width: 0.8; stroke-linejoin: miter; stroke-linecap: square"/>
   </g>
   <g id="text_45">
    <!-- Answer CE -->
    <g transform="translate(165.015683 287.533277) scale(0.12 -0.12)">
     <defs>
      <path id="DejaVuSans-24" d="M 2188 4044 
L 1331 1722 
L 3047 1722 
L 2188 4044 
z
M 1831 4666 
L 2547 4666 
L 4325 0 
L 3669 0 
L 3244 1197 
L 1141 1197 
L 716 0 
L 50 0 
L 1831 4666 
z
" transform="scale(0.015625)"/>
      <path id="DejaVuSans-26" d="M 4122 4306 
L 4122 3641 
Q 3803 3938 3442 4084 
Q 3081 4231 2675 4231 
Q 1875 4231 1450 3742 
Q 1025 3253 1025 2328 
Q 1025 1406 1450 917 
Q 1875 428 2675 428 
Q 3081 428 3442 575 
Q 3803 722 4122 1019 
L 4122 359 
Q 3791 134 3420 21 
Q 3050 -91 2638 -91 
Q 1578 -91 968 557 
Q 359 1206 359 2328 
Q 359 3453 968 4101 
Q 1578 4750 2638 4750 
Q 3056 4750 3426 4639 
Q 3797 4528 4122 4306 
z
" transform="scale(0.015625)"/>
     </defs>
     <use xlink:href="#DejaVuSans-24"/>
     <use xlink:href="#DejaVuSans-51" transform="translate(68.40625 0)"/>
     <use xlink:href="#DejaVuSans-56" transform="translate(131.78125 0)"/>
     <use xlink:href="#DejaVuSans-5a" transform="translate(183.875 0)"/>
     <use xlink:href="#DejaVuSans-48" transform="translate(265.65625 0)"/>
     <use xlink:href="#DejaVuSans-55" transform="translate(327.1875 0)"/>
     <use xlink:href="#DejaVuSans-3" transform="translate(368.296875 0)"/>
     <use xlink:href="#DejaVuSans-26" transform="translate(400.078125 0)"/>
     <use xlink:href="#DejaVuSans-28" transform="translate(469.90625 0)"/>
    </g>
   </g>
   <g id="legend_3">
    <g id="patch_13">
     <path d="M 297.539334 323.934527 
L 344.361834 323.934527 
Q 345.961834 323.934527 345.961834 322.334527 
L 345.961834 299.133277 
Q 345.961834 297.533277 344.361834 297.533277 
L 297.539334 297.533277 
Q 295.939334 297.533277 295.939334 299.133277 
L 295.939334 322.334527 
Q 295.939334 323.934527 297.539334 323.934527 
z
" style="fill: #ffffff; opacity: 0.8; stroke: #cccccc; stroke-linejoin: miter"/>
    </g>
    <g id="line2d_81">
     <path d="M 299.139334 304.012027 
L 307.139334 304.012027 
L 315.139334 304.012027 
" style="fill: none; stroke: #e76f51; stroke-width: 2.2; stroke-linecap: square"/>
    </g>
    <g id="text_46">
     <!-- tf200 -->
     <g transform="translate(321.539334 306.812027) scale(0.08 -0.08)">
      <use xlink:href="#DejaVuSans-57"/>
      <use xlink:href="#DejaVuSans-49" transform="translate(39.203125 0)"/>
      <use xlink:href="#DejaVuSans-15" transform="translate(74.40625 0)"/>
      <use xlink:href="#DejaVuSans-13" transform="translate(138.03125 0)"/>
      <use xlink:href="#DejaVuSans-13" transform="translate(201.65625 0)"/>
     </g>
    </g>
    <g id="line2d_82">
     <path d="M 299.139334 316.012652 
L 307.139334 316.012652 
L 315.139334 316.012652 
" style="fill: none; stroke: #2a9d8f; stroke-width: 2.2; stroke-linecap: square"/>
    </g>
    <g id="text_47">
     <!-- tf600 -->
     <g transform="translate(321.539334 318.812652) scale(0.08 -0.08)">
      <use xlink:href="#DejaVuSans-57"/>
      <use xlink:href="#DejaVuSans-49" transform="translate(39.203125 0)"/>
      <use xlink:href="#DejaVuSans-19" transform="translate(74.40625 0)"/>
      <use xlink:href="#DejaVuSans-13" transform="translate(138.03125 0)"/>
      <use xlink:href="#DejaVuSans-13" transform="translate(201.65625 0)"/>
     </g>
    </g>
   </g>
  </g>
  <g id="axes_4">
   <g id="patch_14">
    <path d="M 435.619729 463.392 
L 741.540781 463.392 
L 741.540781 293.533277 
L 435.619729 293.533277 
z
" style="fill: #ffffff"/>
   </g>
   <g id="FillBetweenPolyCollection_7">
    <defs>
     <path id="m5bac76eead" d="M 449.525231 -80.753479 
L 449.525231 -76.295432 
L 474.807963 -58.083964 
L 500.090694 -52.193516 
L 525.373426 -49.40022 
L 550.656158 -171.044257 
L 575.938889 -189.600962 
L 601.221621 -171.067178 
L 626.504352 -187.411319 
L 651.787084 -158.79129 
L 677.069816 -167.786983 
L 702.352547 -173.697955 
L 727.635279 -162.266736 
L 727.635279 -173.833557 
L 727.635279 -173.833557 
L 702.352547 -186.408254 
L 677.069816 -183.12485 
L 651.787084 -174.282914 
L 626.504352 -197.191204 
L 601.221621 -185.260219 
L 575.938889 -199.337872 
L 550.656158 -183.176032 
L 525.373426 -49.992328 
L 500.090694 -52.818646 
L 474.807963 -59.008158 
L 449.525231 -80.753479 
z
" style="stroke: #e76f51; stroke-opacity: 0.18"/>
    </defs>
    <g clip-path="url(#p79d6d60b61)">
     <use xlink:href="#m5bac76eead" x="0" y="500.592" style="fill: #e76f51; fill-opacity: 0.18; stroke: #e76f51; stroke-opacity: 0.18"/>
    </g>
   </g>
   <g id="FillBetweenPolyCollection_8">
    <defs>
     <path id="m371fe69fb3" d="M 449.525231 -84.218984 
L 449.525231 -80.028654 
L 474.807963 -59.383365 
L 500.090694 -52.763538 
L 525.373426 -49.947481 
L 550.656158 -48.466616 
L 575.938889 -47.358699 
L 601.221621 -46.55818 
L 626.504352 -46.006083 
L 651.787084 -45.136446 
L 677.069816 -45.305864 
L 702.352547 -44.981485 
L 727.635279 -44.920851 
L 727.635279 -45.119368 
L 727.635279 -45.119368 
L 702.352547 -45.229409 
L 677.069816 -45.587728 
L 651.787084 -45.330459 
L 626.504352 -46.366687 
L 601.221621 -46.867083 
L 575.938889 -47.773309 
L 550.656158 -48.997942 
L 525.373426 -50.617663 
L 500.090694 -53.632984 
L 474.807963 -61.264475 
L 449.525231 -84.218984 
z
" style="stroke: #2a9d8f; stroke-opacity: 0.18"/>
    </defs>
    <g clip-path="url(#p79d6d60b61)">
     <use xlink:href="#m371fe69fb3" x="0" y="500.592" style="fill: #2a9d8f; fill-opacity: 0.18; stroke: #2a9d8f; stroke-opacity: 0.18"/>
    </g>
   </g>
   <g id="matplotlib.axis_7">
    <g id="xtick_19">
     <g id="line2d_83">
      <path d="M 474.807963 463.392 
L 474.807963 293.533277 
" clip-path="url(#p79d6d60b61)" style="fill: none; stroke: #d9dee5; stroke-opacity: 0.55; stroke-width: 0.8; stroke-linecap: square"/>
     </g>
     <g id="line2d_84">
      <g>
       <use xlink:href="#mf6361829ca" x="474.807963" y="463.392" style="stroke: #000000; stroke-width: 0.8"/>
      </g>
     </g>
     <g id="text_48">
      <!-- 100 -->
      <g transform="translate(466.218588 477.229891) scale(0.09 -0.09)">
       <use xlink:href="#DejaVuSans-14"/>
       <use xlink:href="#DejaVuSans-13" transform="translate(63.625 0)"/>
       <use xlink:href="#DejaVuSans-13" transform="translate(127.25 0)"/>
      </g>
     </g>
    </g>
    <g id="xtick_20">
     <g id="line2d_85">
      <path d="M 525.373426 463.392 
L 525.373426 293.533277 
" clip-path="url(#p79d6d60b61)" style="fill: none; stroke: #d9dee5; stroke-opacity: 0.55; stroke-width: 0.8; stroke-linecap: square"/>
     </g>
     <g id="line2d_86">
      <g>
       <use xlink:href="#mf6361829ca" x="525.373426" y="463.392" style="stroke: #000000; stroke-width: 0.8"/>
      </g>
     </g>
     <g id="text_49">
      <!-- 200 -->
      <g transform="translate(516.784051 477.229891) scale(0.09 -0.09)">
       <use xlink:href="#DejaVuSans-15"/>
       <use xlink:href="#DejaVuSans-13" transform="translate(63.625 0)"/>
       <use xlink:href="#DejaVuSans-13" transform="translate(127.25 0)"/>
      </g>
     </g>
    </g>
    <g id="xtick_21">
     <g id="line2d_87">
      <path d="M 575.938889 463.392 
L 575.938889 293.533277 
" clip-path="url(#p79d6d60b61)" style="fill: none; stroke: #d9dee5; stroke-opacity: 0.55; stroke-width: 0.8; stroke-linecap: square"/>
     </g>
     <g id="line2d_88">
      <g>
       <use xlink:href="#mf6361829ca" x="575.938889" y="463.392" style="stroke: #000000; stroke-width: 0.8"/>
      </g>
     </g>
     <g id="text_50">
      <!-- 300 -->
      <g transform="translate(567.349514 477.229891) scale(0.09 -0.09)">
       <use xlink:href="#DejaVuSans-16"/>
       <use xlink:href="#DejaVuSans-13" transform="translate(63.625 0)"/>
       <use xlink:href="#DejaVuSans-13" transform="translate(127.25 0)"/>
      </g>
     </g>
    </g>
    <g id="xtick_22">
     <g id="line2d_89">
      <path d="M 626.504352 463.392 
L 626.504352 293.533277 
" clip-path="url(#p79d6d60b61)" style="fill: none; stroke: #d9dee5; stroke-opacity: 0.55; stroke-width: 0.8; stroke-linecap: square"/>
     </g>
     <g id="line2d_90">
      <g>
       <use xlink:href="#mf6361829ca" x="626.504352" y="463.392" style="stroke: #000000; stroke-width: 0.8"/>
      </g>
     </g>
     <g id="text_51">
      <!-- 400 -->
      <g transform="translate(617.914977 477.229891) scale(0.09 -0.09)">
       <use xlink:href="#DejaVuSans-17"/>
       <use xlink:href="#DejaVuSans-13" transform="translate(63.625 0)"/>
       <use xlink:href="#DejaVuSans-13" transform="translate(127.25 0)"/>
      </g>
     </g>
    </g>
    <g id="xtick_23">
     <g id="line2d_91">
      <path d="M 677.069816 463.392 
L 677.069816 293.533277 
" clip-path="url(#p79d6d60b61)" style="fill: none; stroke: #d9dee5; stroke-opacity: 0.55; stroke-width: 0.8; stroke-linecap: square"/>
     </g>
     <g id="line2d_92">
      <g>
       <use xlink:href="#mf6361829ca" x="677.069816" y="463.392" style="stroke: #000000; stroke-width: 0.8"/>
      </g>
     </g>
     <g id="text_52">
      <!-- 500 -->
      <g transform="translate(668.480441 477.229891) scale(0.09 -0.09)">
       <use xlink:href="#DejaVuSans-18"/>
       <use xlink:href="#DejaVuSans-13" transform="translate(63.625 0)"/>
       <use xlink:href="#DejaVuSans-13" transform="translate(127.25 0)"/>
      </g>
     </g>
    </g>
    <g id="xtick_24">
     <g id="line2d_93">
      <path d="M 727.635279 463.392 
L 727.635279 293.533277 
" clip-path="url(#p79d6d60b61)" style="fill: none; stroke: #d9dee5; stroke-opacity: 0.55; stroke-width: 0.8; stroke-linecap: square"/>
     </g>
     <g id="line2d_94">
      <g>
       <use xlink:href="#mf6361829ca" x="727.635279" y="463.392" style="stroke: #000000; stroke-width: 0.8"/>
      </g>
     </g>
     <g id="text_53">
      <!-- 600 -->
      <g transform="translate(719.045904 477.229891) scale(0.09 -0.09)">
       <use xlink:href="#DejaVuSans-19"/>
       <use xlink:href="#DejaVuSans-13" transform="translate(63.625 0)"/>
       <use xlink:href="#DejaVuSans-13" transform="translate(127.25 0)"/>
      </g>
     </g>
    </g>
    <g id="text_54">
     <!-- step -->
     <g transform="translate(577.76463 490.989656) scale(0.1 -0.1)">
      <use xlink:href="#DejaVuSans-56"/>
      <use xlink:href="#DejaVuSans-57" transform="translate(52.09375 0)"/>
      <use xlink:href="#DejaVuSans-48" transform="translate(91.296875 0)"/>
      <use xlink:href="#DejaVuSans-53" transform="translate(152.828125 0)"/>
     </g>
    </g>
   </g>
   <g id="matplotlib.axis_8">
    <g id="ytick_15">
     <g id="line2d_95">
      <path d="M 435.619729 456.382594 
L 741.540781 456.382594 
" clip-path="url(#p79d6d60b61)" style="fill: none; stroke: #d9dee5; stroke-opacity: 0.55; stroke-width: 0.8; stroke-linecap: square"/>
     </g>
     <g id="line2d_96">
      <g>
       <use xlink:href="#m6dd4a92486" x="435.619729" y="456.382594" style="stroke: #000000; stroke-width: 0.8"/>
      </g>
     </g>
     <g id="text_55">
      <!-- $\mathdefault{0}$ -->
      <g transform="translate(422.859729 459.801539) scale(0.09 -0.09)">
       <use xlink:href="#DejaVuSans-13" transform="translate(0 0.78125)"/>
      </g>
     </g>
    </g>
    <g id="ytick_16">
     <g id="line2d_97">
      <path d="M 435.619729 416.558552 
L 741.540781 416.558552 
" clip-path="url(#p79d6d60b61)" style="fill: none; stroke: #d9dee5; stroke-opacity: 0.55; stroke-width: 0.8; stroke-linecap: square"/>
     </g>
     <g id="line2d_98">
      <g>
       <use xlink:href="#m6dd4a92486" x="435.619729" y="416.558552" style="stroke: #000000; stroke-width: 0.8"/>
      </g>
     </g>
     <g id="text_56">
      <!-- $\mathdefault{10^{-2}}$ -->
      <g transform="translate(407.469729 420.788552) scale(0.09 -0.09)">
       <defs>
        <path id="DejaVuSans-c9c" d="M 678 2272 
L 4684 2272 
L 4684 1741 
L 678 1741 
L 678 2272 
z
" transform="scale(0.015625)"/>
       </defs>
       <use xlink:href="#DejaVuSans-14" transform="translate(0 0.746875)"/>
       <use xlink:href="#DejaVuSans-13" transform="translate(63.623047 0.746875)"/>
       <use xlink:href="#DejaVuSans-c9c" transform="translate(128.203125 42.046875) scale(0.7)"/>
       <use xlink:href="#DejaVuSans-15" transform="translate(186.855469 42.046875) scale(0.7)"/>
      </g>
     </g>
    </g>
    <g id="ytick_17">
     <g id="line2d_99">
      <path d="M 435.619729 380.716915 
L 741.540781 380.716915 
" clip-path="url(#p79d6d60b61)" style="fill: none; stroke: #d9dee5; stroke-opacity: 0.55; stroke-width: 0.8; stroke-linecap: square"/>
     </g>
     <g id="line2d_100">
      <g>
       <use xlink:href="#m6dd4a92486" x="435.619729" y="380.716915" style="stroke: #000000; stroke-width: 0.8"/>
      </g>
     </g>
     <g id="text_57">
      <!-- $\mathdefault{10^{-1}}$ -->
      <g transform="translate(407.469729 384.901915) scale(0.09 -0.09)">
       <use xlink:href="#DejaVuSans-14" transform="translate(0 0.665625)"/>
       <use xlink:href="#DejaVuSans-13" transform="translate(63.623047 0.665625)"/>
       <use xlink:href="#DejaVuSans-c9c" transform="translate(128.203125 41.965625) scale(0.7)"/>
       <use xlink:href="#DejaVuSans-14" transform="translate(186.855469 41.965625) scale(0.7)"/>
      </g>
     </g>
    </g>
    <g id="ytick_18">
     <g id="line2d_101">
      <path d="M 435.619729 344.875277 
L 741.540781 344.875277 
" clip-path="url(#p79d6d60b61)" style="fill: none; stroke: #d9dee5; stroke-opacity: 0.55; stroke-width: 0.8; stroke-linecap: square"/>
     </g>
     <g id="line2d_102">
      <g>
       <use xlink:href="#m6dd4a92486" x="435.619729" y="344.875277" style="stroke: #000000; stroke-width: 0.8"/>
      </g>
     </g>
     <g id="text_58">
      <!-- $\mathdefault{10^{0}}$ -->
      <g transform="translate(412.779729 349.105277) scale(0.09 -0.09)">
       <use xlink:href="#DejaVuSans-14" transform="translate(0 0.746875)"/>
       <use xlink:href="#DejaVuSans-13" transform="translate(63.623047 0.746875)"/>
       <use xlink:href="#DejaVuSans-13" transform="translate(128.203125 42.046875) scale(0.7)"/>
      </g>
     </g>
    </g>
    <g id="ytick_19">
     <g id="line2d_103">
      <path d="M 435.619729 309.03364 
L 741.540781 309.03364 
" clip-path="url(#p79d6d60b61)" style="fill: none; stroke: #d9dee5; stroke-opacity: 0.55; stroke-width: 0.8; stroke-linecap: square"/>
     </g>
     <g id="line2d_104">
      <g>
       <use xlink:href="#m6dd4a92486" x="435.619729" y="309.03364" style="stroke: #000000; stroke-width: 0.8"/>
      </g>
     </g>
     <g id="text_59">
      <!-- $\mathdefault{10^{1}}$ -->
      <g transform="translate(412.779729 313.21864) scale(0.09 -0.09)">
       <use xlink:href="#DejaVuSans-14" transform="translate(0 0.665625)"/>
       <use xlink:href="#DejaVuSans-13" transform="translate(63.623047 0.665625)"/>
       <use xlink:href="#DejaVuSans-14" transform="translate(128.203125 41.965625) scale(0.7)"/>
      </g>
     </g>
    </g>
    <g id="text_60">
     <!-- loss -->
     <g transform="translate(401.067385 388.120451) rotate(-90) scale(0.1 -0.1)">
      <use xlink:href="#DejaVuSans-4f"/>
      <use xlink:href="#DejaVuSans-52" transform="translate(27.78125 0)"/>
      <use xlink:href="#DejaVuSans-56" transform="translate(88.96875 0)"/>
      <use xlink:href="#DejaVuSans-56" transform="translate(141.0625 0)"/>
     </g>
    </g>
   </g>
   <g id="line2d_105">
    <path d="M 449.525231 422.067545 
L 474.807963 442.045939 
L 500.090694 448.085919 
L 525.373426 450.895726 
L 550.656158 322.328696 
L 575.938889 305.373338 
L 601.221621 320.863752 
L 626.504352 307.534971 
L 651.787084 332.202327 
L 677.069816 323.318745 
L 702.352547 319.276085 
L 727.635279 331.4913 
" clip-path="url(#p79d6d60b61)" style="fill: none; stroke: #e76f51; stroke-width: 2.2; stroke-linecap: square"/>
   </g>
   <g id="line2d_106">
    <path d="M 449.525231 425.410029 
L 474.807963 436.746523 
L 474.807963 436.746523 
L 500.090694 447.161945 
L 500.090694 447.161945 
L 525.373426 367.35115 
L 525.373426 367.35115 
L 550.656158 353.408642 
L 550.656158 353.408642 
L 575.938889 351.705435 
L 575.938889 351.705435 
L 626.504352 344.620784 
L 626.504352 344.620784 
L 651.787084 341.569342 
L 651.787084 341.569342 
L 677.069816 339.138198 
L 677.069816 339.138198 
L 702.352547 336.379692 
L 702.352547 336.379692 
L 727.635279 334.404406 
L 727.635279 334.404406 
" clip-path="url(#p79d6d60b61)" style="fill: none; stroke-dasharray: 4.81,2.08; stroke-dashoffset: 0; stroke: #e76f51; stroke-opacity: 0.85; stroke-width: 1.3"/>
   </g>
   <g id="line2d_107">
    <path d="M 449.525231 418.322188 
L 474.807963 440.26808 
L 500.090694 447.393739 
L 525.373426 450.309428 
L 550.656158 451.859721 
L 575.938889 453.025996 
L 601.221621 453.879369 
L 626.504352 454.405615 
L 651.787084 455.358547 
L 677.069816 455.145204 
L 702.352547 455.486553 
L 727.635279 455.57189 
" clip-path="url(#p79d6d60b61)" style="fill: none; stroke: #2a9d8f; stroke-width: 2.2; stroke-linecap: square"/>
   </g>
   <g id="line2d_108">
    <path d="M 449.525231 427.600259 
L 474.807963 436.573041 
L 474.807963 436.573041 
L 500.090694 446.204723 
L 500.090694 446.204723 
L 525.373426 449.939114 
L 525.373426 449.939114 
L 550.656158 451.88472 
L 550.656158 451.88472 
L 575.938889 453.026171 
L 575.938889 453.026171 
L 626.504352 454.564427 
L 626.504352 454.564427 
L 651.787084 455.078698 
L 651.787084 455.078698 
L 677.069816 455.350359 
L 677.069816 455.350359 
L 727.635279 455.603443 
L 727.635279 455.603443 
" clip-path="url(#p79d6d60b61)" style="fill: none; stroke-dasharray: 4.81,2.08; stroke-dashoffset: 0; stroke: #2a9d8f; stroke-opacity: 0.85; stroke-width: 1.3"/>
   </g>
   <g id="patch_15">
    <path d="M 435.619729 463.392 
L 435.619729 293.533277 
" style="fill: none; stroke: #000000; stroke-width: 0.8; stroke-linejoin: miter; stroke-linecap: square"/>
   </g>
   <g id="patch_16">
    <path d="M 435.619729 463.392 
L 741.540781 463.392 
" style="fill: none; stroke: #000000; stroke-width: 0.8; stroke-linejoin: miter; stroke-linecap: square"/>
   </g>
   <g id="text_61">
    <!-- Training loss -->
    <g transform="translate(551.410255 287.533277) scale(0.12 -0.12)">
     <defs>
      <path id="DejaVuSans-37" d="M -19 4666 
L 3928 4666 
L 3928 4134 
L 2272 4134 
L 2272 0 
L 1638 0 
L 1638 4134 
L -19 4134 
L -19 4666 
z
" transform="scale(0.015625)"/>
      <path id="DejaVuSans-4a" d="M 2906 1791 
Q 2906 2416 2648 2759 
Q 2391 3103 1925 3103 
Q 1463 3103 1205 2759 
Q 947 2416 947 1791 
Q 947 1169 1205 825 
Q 1463 481 1925 481 
Q 2391 481 2648 825 
Q 2906 1169 2906 1791 
z
M 3481 434 
Q 3481 -459 3084 -895 
Q 2688 -1331 1869 -1331 
Q 1566 -1331 1297 -1286 
Q 1028 -1241 775 -1147 
L 775 -588 
Q 1028 -725 1275 -790 
Q 1522 -856 1778 -856 
Q 2344 -856 2625 -561 
Q 2906 -266 2906 331 
L 2906 616 
Q 2728 306 2450 153 
Q 2172 0 1784 0 
Q 1141 0 747 490 
Q 353 981 353 1791 
Q 353 2603 747 3093 
Q 1141 3584 1784 3584 
Q 2172 3584 2450 3431 
Q 2728 3278 2906 2969 
L 2906 3500 
L 3481 3500 
L 3481 434 
z
" transform="scale(0.015625)"/>
     </defs>
     <use xlink:href="#DejaVuSans-37"/>
     <use xlink:href="#DejaVuSans-55" transform="translate(46.375 0)"/>
     <use xlink:href="#DejaVuSans-44" transform="translate(87.484375 0)"/>
     <use xlink:href="#DejaVuSans-4c" transform="translate(148.765625 0)"/>
     <use xlink:href="#DejaVuSans-51" transform="translate(176.546875 0)"/>
     <use xlink:href="#DejaVuSans-4c" transform="translate(239.921875 0)"/>
     <use xlink:href="#DejaVuSans-51" transform="translate(267.703125 0)"/>
     <use xlink:href="#DejaVuSans-4a" transform="translate(331.078125 0)"/>
     <use xlink:href="#DejaVuSans-3" transform="translate(394.5625 0)"/>
     <use xlink:href="#DejaVuSans-4f" transform="translate(426.34375 0)"/>
     <use xlink:href="#DejaVuSans-52" transform="translate(454.125 0)"/>
     <use xlink:href="#DejaVuSans-56" transform="translate(515.3125 0)"/>
     <use xlink:href="#DejaVuSans-56" transform="translate(567.40625 0)"/>
    </g>
   </g>
   <g id="legend_4">
    <g id="patch_17">
     <path d="M 441.219729 323.934527 
L 488.042229 323.934527 
Q 489.642229 323.934527 489.642229 322.334527 
L 489.642229 299.133277 
Q 489.642229 297.533277 488.042229 297.533277 
L 441.219729 297.533277 
Q 439.619729 297.533277 439.619729 299.133277 
L 439.619729 322.334527 
Q 439.619729 323.934527 441.219729 323.934527 
z
" style="fill: #ffffff; opacity: 0.8; stroke: #cccccc; stroke-linejoin: miter"/>
    </g>
    <g id="line2d_109">
     <path d="M 442.819729 304.012027 
L 450.819729 304.012027 
L 458.819729 304.012027 
" style="fill: none; stroke: #e76f51; stroke-width: 2.2; stroke-linecap: square"/>
    </g>
    <g id="text_62">
     <!-- tf200 -->
     <g transform="translate(465.219729 306.812027) scale(0.08 -0.08)">
      <use xlink:href="#DejaVuSans-57"/>
      <use xlink:href="#DejaVuSans-49" transform="translate(39.203125 0)"/>
      <use xlink:href="#DejaVuSans-15" transform="translate(74.40625 0)"/>
      <use xlink:href="#DejaVuSans-13" transform="translate(138.03125 0)"/>
      <use xlink:href="#DejaVuSans-13" transform="translate(201.65625 0)"/>
     </g>
    </g>
    <g id="line2d_110">
     <path d="M 442.819729 316.012652 
L 450.819729 316.012652 
L 458.819729 316.012652 
" style="fill: none; stroke: #2a9d8f; stroke-width: 2.2; stroke-linecap: square"/>
    </g>
    <g id="text_63">
     <!-- tf600 -->
     <g transform="translate(465.219729 318.812652) scale(0.08 -0.08)">
      <use xlink:href="#DejaVuSans-57"/>
      <use xlink:href="#DejaVuSans-49" transform="translate(39.203125 0)"/>
      <use xlink:href="#DejaVuSans-19" transform="translate(74.40625 0)"/>
      <use xlink:href="#DejaVuSans-13" transform="translate(138.03125 0)"/>
      <use xlink:href="#DejaVuSans-13" transform="translate(201.65625 0)"/>
     </g>
    </g>
   </g>
  </g>
  <g id="text_64">
   <!-- Training dynamics: mean ± SEM with LOWESS trend -->
   <g transform="translate(198.896562 17.837812) scale(0.14 -0.14)">
    <defs>
     <path id="DejaVuSans-47" d="M 2906 2969 
L 2906 4863 
L 3481 4863 
L 3481 0 
L 2906 0 
L 2906 525 
Q 2725 213 2448 61 
Q 2172 -91 1784 -91 
Q 1150 -91 751 415 
Q 353 922 353 1747 
Q 353 2572 751 3078 
Q 1150 3584 1784 3584 
Q 2172 3584 2448 3432 
Q 2725 3281 2906 2969 
z
M 947 1747 
Q 947 1113 1208 752 
Q 1469 391 1925 391 
Q 2381 391 2643 752 
Q 2906 1113 2906 1747 
Q 2906 2381 2643 2742 
Q 2381 3103 1925 3103 
Q 1469 3103 1208 2742 
Q 947 2381 947 1747 
z
" transform="scale(0.015625)"/>
     <path id="DejaVuSans-5c" d="M 2059 -325 
Q 1816 -950 1584 -1140 
Q 1353 -1331 966 -1331 
L 506 -1331 
L 506 -850 
L 844 -850 
Q 1081 -850 1212 -737 
Q 1344 -625 1503 -206 
L 1606 56 
L 191 3500 
L 800 3500 
L 1894 763 
L 2988 3500 
L 3597 3500 
L 2059 -325 
z
" transform="scale(0.015625)"/>
     <path id="DejaVuSans-50" d="M 3328 2828 
Q 3544 3216 3844 3400 
Q 4144 3584 4550 3584 
Q 5097 3584 5394 3201 
Q 5691 2819 5691 2113 
L 5691 0 
L 5113 0 
L 5113 2094 
Q 5113 2597 4934 2840 
Q 4756 3084 4391 3084 
Q 3944 3084 3684 2787 
Q 3425 2491 3425 1978 
L 3425 0 
L 2847 0 
L 2847 2094 
Q 2847 2600 2669 2842 
Q 2491 3084 2119 3084 
Q 1678 3084 1418 2786 
Q 1159 2488 1159 1978 
L 1159 0 
L 581 0 
L 581 3500 
L 1159 3500 
L 1159 2956 
Q 1356 3278 1631 3431 
Q 1906 3584 2284 3584 
Q 2666 3584 2933 3390 
Q 3200 3197 3328 2828 
z
" transform="scale(0.015625)"/>
     <path id="DejaVuSans-1d" d="M 750 794 
L 1409 794 
L 1409 0 
L 750 0 
L 750 794 
z
M 750 3309 
L 1409 3309 
L 1409 2516 
L 750 2516 
L 750 3309 
z
" transform="scale(0.015625)"/>
     <path id="DejaVuSans-73" d="M 2944 4013 
L 2944 2803 
L 4684 2803 
L 4684 2272 
L 2944 2272 
L 2944 1063 
L 2419 1063 
L 2419 2272 
L 678 2272 
L 678 2803 
L 2419 2803 
L 2419 4013 
L 2944 4013 
z
M 678 531 
L 4684 531 
L 4684 0 
L 678 0 
L 678 531 
z
" transform="scale(0.015625)"/>
     <path id="DejaVuSans-36" d="M 3425 4513 
L 3425 3897 
Q 3066 4069 2747 4153 
Q 2428 4238 2131 4238 
Q 1616 4238 1336 4038 
Q 1056 3838 1056 3469 
Q 1056 3159 1242 3001 
Q 1428 2844 1947 2747 
L 2328 2669 
Q 3034 2534 3370 2195 
Q 3706 1856 3706 1288 
Q 3706 609 3251 259 
Q 2797 -91 1919 -91 
Q 1588 -91 1214 -16 
Q 841 59 441 206 
L 441 856 
Q 825 641 1194 531 
Q 1563 422 1919 422 
Q 2459 422 2753 634 
Q 3047 847 3047 1241 
Q 3047 1584 2836 1778 
Q 2625 1972 2144 2069 
L 1759 2144 
Q 1053 2284 737 2584 
Q 422 2884 422 3419 
Q 422 4038 858 4394 
Q 1294 4750 2059 4750 
Q 2388 4750 2728 4690 
Q 3069 4631 3425 4513 
z
" transform="scale(0.015625)"/>
     <path id="DejaVuSans-30" d="M 628 4666 
L 1569 4666 
L 2759 1491 
L 3956 4666 
L 4897 4666 
L 4897 0 
L 4281 0 
L 4281 4097 
L 3078 897 
L 2444 897 
L 1241 4097 
L 1241 0 
L 628 0 
L 628 4666 
z
" transform="scale(0.015625)"/>
     <path id="DejaVuSans-4b" d="M 3513 2113 
L 3513 0 
L 2938 0 
L 2938 2094 
Q 2938 2591 2744 2837 
Q 2550 3084 2163 3084 
Q 1697 3084 1428 2787 
Q 1159 2491 1159 1978 
L 1159 0 
L 581 0 
L 581 4863 
L 1159 4863 
L 1159 2956 
Q 1366 3272 1645 3428 
Q 1925 3584 2291 3584 
Q 2894 3584 3203 3211 
Q 3513 2838 3513 2113 
z
" transform="scale(0.015625)"/>
     <path id="DejaVuSans-2f" d="M 628 4666 
L 1259 4666 
L 1259 531 
L 3531 531 
L 3531 0 
L 628 0 
L 628 4666 
z
" transform="scale(0.015625)"/>
     <path id="DejaVuSans-32" d="M 2522 4238 
Q 1834 4238 1429 3725 
Q 1025 3213 1025 2328 
Q 1025 1447 1429 934 
Q 1834 422 2522 422 
Q 3209 422 3611 934 
Q 4013 1447 4013 2328 
Q 4013 3213 3611 3725 
Q 3209 4238 2522 4238 
z
M 2522 4750 
Q 3503 4750 4090 4092 
Q 4678 3434 4678 2328 
Q 4678 1225 4090 567 
Q 3503 -91 2522 -91 
Q 1538 -91 948 565 
Q 359 1222 359 2328 
Q 359 3434 948 4092 
Q 1538 4750 2522 4750 
z
" transform="scale(0.015625)"/>
    </defs>
    <use xlink:href="#DejaVuSans-37"/>
    <use xlink:href="#DejaVuSans-55" transform="translate(46.375 0)"/>
    <use xlink:href="#DejaVuSans-44" transform="translate(87.484375 0)"/>
    <use xlink:href="#DejaVuSans-4c" transform="translate(148.765625 0)"/>
    <use xlink:href="#DejaVuSans-51" transform="translate(176.546875 0)"/>
    <use xlink:href="#DejaVuSans-4c" transform="translate(239.921875 0)"/>
    <use xlink:href="#DejaVuSans-51" transform="translate(267.703125 0)"/>
    <use xlink:href="#DejaVuSans-4a" transform="translate(331.078125 0)"/>
    <use xlink:href="#DejaVuSans-3" transform="translate(394.5625 0)"/>
    <use xlink:href="#DejaVuSans-47" transform="translate(426.34375 0)"/>
    <use xlink:href="#DejaVuSans-5c" transform="translate(489.828125 0)"/>
    <use xlink:href="#DejaVuSans-51" transform="translate(549.015625 0)"/>
    <use xlink:href="#DejaVuSans-44" transform="translate(612.390625 0)"/>
    <use xlink:href="#DejaVuSans-50" transform="translate(673.671875 0)"/>
    <use xlink:href="#DejaVuSans-4c" transform="translate(771.078125 0)"/>
    <use xlink:href="#DejaVuSans-46" transform="translate(798.859375 0)"/>
    <use xlink:href="#DejaVuSans-56" transform="translate(853.84375 0)"/>
    <use xlink:href="#DejaVuSans-1d" transform="translate(905.9375 0)"/>
    <use xlink:href="#DejaVuSans-3" transform="translate(939.625 0)"/>
    <use xlink:href="#DejaVuSans-50" transform="translate(971.40625 0)"/>
    <use xlink:href="#DejaVuSans-48" transform="translate(1068.8125 0)"/>
    <use xlink:href="#DejaVuSans-44" transform="translate(1130.34375 0)"/>
    <use xlink:href="#DejaVuSans-51" transform="translate(1191.625 0)"/>
    <use xlink:href="#DejaVuSans-3" transform="translate(1255 0)"/>
    <use xlink:href="#DejaVuSans-73" transform="translate(1286.78125 0)"/>
    <use xlink:href="#DejaVuSans-3" transform="translate(1370.578125 0)"/>
    <use xlink:href="#DejaVuSans-36" transform="translate(1402.359375 0)"/>
    <use xlink:href="#DejaVuSans-28" transform="translate(1465.84375 0)"/>
    <use xlink:href="#DejaVuSans-30" transform="translate(1529.03125 0)"/>
    <use xlink:href="#DejaVuSans-3" transform="translate(1615.3125 0)"/>
    <use xlink:href="#DejaVuSans-5a" transform="translate(1647.09375 0)"/>
    <use xlink:href="#DejaVuSans-4c" transform="translate(1728.875 0)"/>
    <use xlink:href="#DejaVuSans-57" transform="translate(1756.65625 0)"/>
    <use xlink:href="#DejaVuSans-4b" transform="translate(1795.859375 0)"/>
    <use xlink:href="#DejaVuSans-3" transform="translate(1859.234375 0)"/>
    <use xlink:href="#DejaVuSans-2f" transform="translate(1891.015625 0)"/>
    <use xlink:href="#DejaVuSans-32" transform="translate(1943.171875 0)"/>
    <use xlink:href="#DejaVuSans-3a" transform="translate(2021.890625 0)"/>
    <use xlink:href="#DejaVuSans-28" transform="translate(2120.765625 0)"/>
    <use xlink:href="#DejaVuSans-36" transform="translate(2183.953125 0)"/>
    <use xlink:href="#DejaVuSans-36" transform="translate(2247.4375 0)"/>
    <use xlink:href="#DejaVuSans-3" transform="translate(2310.921875 0)"/>
    <use xlink:href="#DejaVuSans-57" transform="translate(2342.703125 0)"/>
    <use xlink:href="#DejaVuSans-55" transform="translate(2381.90625 0)"/>
    <use xlink:href="#DejaVuSans-48" transform="translate(2420.8125 0)"/>
    <use xlink:href="#DejaVuSans-51" transform="translate(2482.34375 0)"/>
    <use xlink:href="#DejaVuSans-47" transform="translate(2545.71875 0)"/>
   </g>
  </g>
 </g>
 <defs>
  <clipPath id="p996db7edae">
   <rect x="44.040781" y="64.224" width="305.921053" height="169.858723"/>
  </clipPath>
  <clipPath id="p22f46ffec2">
   <rect x="435.619729" y="64.224" width="305.921053" height="169.858723"/>
  </clipPath>
  <clipPath id="p3aa6844579">
   <rect x="44.040781" y="293.533277" width="305.921053" height="169.858723"/>
  </clipPath>
  <clipPath id="p79d6d60b61">
   <rect x="435.619729" y="293.533277" width="305.921053" height="169.858723"/>
  </clipPath>
 </defs>
</svg>
