<?xml version="1.0" encoding="utf-8" standalone="no"?>
<!DOCTYPE svg PUBLIC "-//W3C//DTD SVG 1.1//EN"
  "http://www.w3.org/Graphics/SVG/1.1/DTD/svg11.dtd">
<svg xmlns:xlink="http://www.w3.org/1999/xlink" width="507.273594pt" height="403.246906pt" viewBox="0 0 507.273594 403.246906" xmlns="http://www.w3.org/2000/svg" version="1.1">
 <metadata>
  <rdf:RDF xmlns:dc="http://purl.org/dc/elements/1.1/" xmlns:cc="http://creativecommons.org/ns#" xmlns:rdf="http://www.w3.org/1999/02/22-rdf-syntax-ns#">
   <cc:Work>
    <dc:type rdf:resource="http://purl.org/dc/dcmitype/StillImage"/>
    <dc:date>2026-06-30T11:19:12.061610</dc:date>
    <dc:format>image/svg+xml</dc:format>
    <dc:creator>
     <cc:Agent>
      <dc:title>Matplotlib v3.11.0, https://matplotlib.org/</dc:title>
     </cc:Agent>
    </dc:creator>
   </cc:Work>
  </rdf:RDF>
 </metadata>
 <defs>
  <style type="text/css">*{stroke-linejoin: round; stroke-linecap: butt}</style>
 </defs>
 <g id="figure_1">
  <g id="patch_1">
   <path d="M -0 403.246906 
L 507.273594 403.246906 
L 507.273594 0 
L -0 0 
z
" style="fill: #ffffff"/>
  </g>
  <g id="axes_1">
   <g id="patch_2">
    <path d="M 42.513594 366.046125 
L 500.073594 366.046125 
L 500.073594 22.318125 
L 42.513594 22.318125 
z
" style="fill: #ffffff"/>
   </g>
   <g id="PathCollection_1">
    <path d="M 412.308852 58.865809 
C 413.560881 58.865809 414.761798 58.368372 415.647115 57.483055 
C 416.532433 56.597737 417.029869 55.39682 417.029869 54.144792 
C 417.029869 52.892763 416.532433 51.691846 415.647115 50.806529 
C 414.761798 49.921211 413.560881 49.423775 412.308852 49.423775 
C 411.056824 49.423775 409.855907 49.921211 408.970589 50.806529 
C 408.085272 51.691846 407.587836 52.892763 407.587836 54.144792 
C 407.587836 55.39682 408.085272 56.597737 408.970589 57.483055 
C 409.855907 58.368372 411.056824 58.865809 412.308852 58.865809 
z
" clip-path="url(#pfafccbb893)" style="fill: #e76f51; fill-opacity: 0.75; stroke: #ffffff; stroke-opacity: 0.75; stroke-width: 0.6"/>
    <path d="M 365.46812 106.605809 
C 366.720148 106.605809 367.921065 106.108372 368.806383 105.223055 
C 369.6917 104.337737 370.189136 103.13682 370.189136 101.884792 
C 370.189136 100.632763 369.6917 99.431846 368.806383 98.546529 
C 367.921065 97.661211 366.720148 97.163775 365.46812 97.163775 
C 364.216091 97.163775 363.015174 97.661211 362.129857 98.546529 
C 361.244539 99.431846 360.747103 100.632763 360.747103 101.884792 
C 360.747103 103.13682 361.244539 104.337737 362.129857 105.223055 
C 363.015174 106.108372 364.216091 106.605809 365.46812 106.605809 
z
" clip-path="url(#pfafccbb893)" style="fill: #e76f51; fill-opacity: 0.75; stroke: #ffffff; stroke-opacity: 0.75; stroke-width: 0.6"/>
    <path d="M 380.25993 90.692475 
C 381.511958 90.692475 382.712875 90.195039 383.598193 89.309721 
C 384.483511 88.424404 384.980947 87.223487 384.980947 85.971458 
C 384.980947 84.71943 384.483511 83.518513 383.598193 82.633195 
C 382.712875 81.747878 381.511958 81.250441 380.25993 81.250441 
C 379.007902 81.250441 377.806985 81.747878 376.921667 82.633195 
C 376.036349 83.518513 375.538913 84.71943 375.538913 85.971458 
C 375.538913 87.223487 376.036349 88.424404 376.921667 89.309721 
C 377.806985 90.195039 379.007902 90.692475 380.25993 90.692475 
z
" clip-path="url(#pfafccbb893)" style="fill: #e76f51; fill-opacity: 0.75; stroke: #ffffff; stroke-opacity: 0.75; stroke-width: 0.6"/>
    <path d="M 286.578464 170.259142 
C 287.830493 170.259142 289.03141 169.761706 289.916727 168.876388 
C 290.802045 167.99107 291.299481 166.790153 291.299481 165.538125 
C 291.299481 164.286097 290.802045 163.08518 289.916727 162.199862 
C 289.03141 161.314544 287.830493 160.817108 286.578464 160.817108 
C 285.326436 160.817108 284.125519 161.314544 283.240201 162.199862 
C 282.354884 163.08518 281.857448 164.286097 281.857448 165.538125 
C 281.857448 166.790153 282.354884 167.99107 283.240201 168.876388 
C 284.125519 169.761706 285.326436 170.259142 286.578464 170.259142 
z
" clip-path="url(#pfafccbb893)" style="fill: #e76f51; fill-opacity: 0.75; stroke: #ffffff; stroke-opacity: 0.75; stroke-width: 0.6"/>
    <path d="M 279.182559 75.938261 
C 280.74199 75.938261 282.23776 75.318693 283.340443 74.216009 
C 284.443127 73.113325 285.062695 71.617555 285.062695 70.058125 
C 285.062695 68.498695 284.443127 67.002925 283.340443 65.900241 
C 282.23776 64.797557 280.74199 64.177989 279.182559 64.177989 
C 277.623129 64.177989 276.127359 64.797557 275.024675 65.900241 
C 273.921991 67.002925 273.302423 68.498695 273.302423 70.058125 
C 273.302423 71.617555 273.921991 73.113325 275.024675 74.216009 
C 276.127359 75.318693 277.623129 75.938261 279.182559 75.938261 
z
" clip-path="url(#pfafccbb893)" style="fill: #e76f51; fill-opacity: 0.75; stroke: #ffffff; stroke-opacity: 0.75; stroke-width: 0.6"/>
    <path d="M 254.529542 123.678261 
C 256.088972 123.678261 257.584742 123.058693 258.687426 121.956009 
C 259.79011 120.853325 260.409678 119.357555 260.409678 117.798125 
C 260.409678 116.238695 259.79011 114.742925 258.687426 113.640241 
C 257.584742 112.537557 256.088972 111.917989 254.529542 111.917989 
C 252.970112 111.917989 251.474342 112.537557 250.371658 113.640241 
C 249.268974 114.742925 248.649406 116.238695 248.649406 117.798125 
C 248.649406 119.357555 249.268974 120.853325 250.371658 121.956009 
C 251.474342 123.058693 252.970112 123.678261 254.529542 123.678261 
z
" clip-path="url(#pfafccbb893)" style="fill: #e76f51; fill-opacity: 0.75; stroke: #ffffff; stroke-opacity: 0.75; stroke-width: 0.6"/>
    <path d="M 318.627387 91.851594 
C 320.186817 91.851594 321.682587 91.232026 322.785271 90.129342 
C 323.887955 89.026659 324.507523 87.530889 324.507523 85.971458 
C 324.507523 84.412028 323.887955 82.916258 322.785271 81.813574 
C 321.682587 80.710891 320.186817 80.091322 318.627387 80.091322 
C 317.067957 80.091322 315.572187 80.710891 314.469503 81.813574 
C 313.366819 82.916258 312.747251 84.412028 312.747251 85.971458 
C 312.747251 87.530889 313.366819 89.026659 314.469503 90.129342 
C 315.572187 91.232026 317.067957 91.851594 318.627387 91.851594 
z
" clip-path="url(#pfafccbb893)" style="fill: #e76f51; fill-opacity: 0.75; stroke: #ffffff; stroke-opacity: 0.75; stroke-width: 0.6"/>
    <path d="M 293.97437 155.504928 
C 295.5338 155.504928 297.02957 154.885359 298.132254 153.782676 
C 299.234937 152.679992 299.854506 151.184222 299.854506 149.624792 
C 299.854506 148.065361 299.234937 146.569591 298.132254 145.466908 
C 297.02957 144.364224 295.5338 143.744656 293.97437 143.744656 
C 292.414939 143.744656 290.919169 144.364224 289.816486 145.466908 
C 288.713802 146.569591 288.094234 148.065361 288.094234 149.624792 
C 288.094234 151.184222 288.713802 152.679992 289.816486 153.782676 
C 290.919169 154.885359 292.414939 155.504928 293.97437 155.504928 
z
" clip-path="url(#pfafccbb893)" style="fill: #e76f51; fill-opacity: 0.75; stroke: #ffffff; stroke-opacity: 0.75; stroke-width: 0.6"/>
    <path d="M 254.529542 139.591594 
C 256.088972 139.591594 257.584742 138.972026 258.687426 137.869342 
C 259.79011 136.766659 260.409678 135.270889 260.409678 133.711458 
C 260.409678 132.152028 259.79011 130.656258 258.687426 129.553574 
C 257.584742 128.450891 256.088972 127.831322 254.529542 127.831322 
C 252.970112 127.831322 251.474342 128.450891 250.371658 129.553574 
C 249.268974 130.656258 248.649406 132.152028 248.649406 133.711458 
C 248.649406 135.270889 249.268974 136.766659 250.371658 137.869342 
C 251.474342 138.972026 252.970112 139.591594 254.529542 139.591594 
z
" clip-path="url(#pfafccbb893)" style="fill: #e76f51; fill-opacity: 0.75; stroke: #ffffff; stroke-opacity: 0.75; stroke-width: 0.6"/>
    <path d="M 200.292904 203.244928 
C 201.852334 203.244928 203.348104 202.625359 204.450788 201.522676 
C 205.553472 200.419992 206.17304 198.924222 206.17304 197.364792 
C 206.17304 195.805361 205.553472 194.309591 204.450788 193.206908 
C 203.348104 192.104224 201.852334 191.484656 200.292904 191.484656 
C 198.733474 191.484656 197.237704 192.104224 196.13502 193.206908 
C 195.032336 194.309591 194.412768 195.805361 194.412768 197.364792 
C 194.412768 198.924222 195.032336 200.419992 196.13502 201.522676 
C 197.237704 202.625359 198.733474 203.244928 200.292904 203.244928 
z
" clip-path="url(#pfafccbb893)" style="fill: #e76f51; fill-opacity: 0.75; stroke: #ffffff; stroke-opacity: 0.75; stroke-width: 0.6"/>
    <path d="M 220.015318 203.244928 
C 221.574748 203.244928 223.070518 202.625359 224.173202 201.522676 
C 225.275886 200.419992 225.895454 198.924222 225.895454 197.364792 
C 225.895454 195.805361 225.275886 194.309591 224.173202 193.206908 
C 223.070518 192.104224 221.574748 191.484656 220.015318 191.484656 
C 218.455888 191.484656 216.960118 192.104224 215.857434 193.206908 
C 214.75475 194.309591 214.135182 195.805361 214.135182 197.364792 
C 214.135182 198.924222 214.75475 200.419992 215.857434 201.522676 
C 216.960118 202.625359 218.455888 203.244928 220.015318 203.244928 
z
" clip-path="url(#pfafccbb893)" style="fill: #e76f51; fill-opacity: 0.75; stroke: #ffffff; stroke-opacity: 0.75; stroke-width: 0.6"/>
    <path d="M 328.488594 139.591594 
C 330.048024 139.591594 331.543794 138.972026 332.646478 137.869342 
C 333.749162 136.766659 334.36873 135.270889 334.36873 133.711458 
C 334.36873 132.152028 333.749162 130.656258 332.646478 129.553574 
C 331.543794 128.450891 330.048024 127.831322 328.488594 127.831322 
C 326.929163 127.831322 325.433393 128.450891 324.33071 129.553574 
C 323.228026 130.656258 322.608458 132.152028 322.608458 133.711458 
C 322.608458 135.270889 323.228026 136.766659 324.33071 137.869342 
C 325.433393 138.972026 326.929163 139.591594 328.488594 139.591594 
z
" clip-path="url(#pfafccbb893)" style="fill: #e76f51; fill-opacity: 0.75; stroke: #ffffff; stroke-opacity: 0.75; stroke-width: 0.6"/>
    <path d="M 259.460145 172.383854 
C 261.275654 172.383854 263.017048 171.662544 264.300807 170.378786 
C 265.584565 169.095028 266.305874 167.353633 266.305874 165.538125 
C 266.305874 163.722617 265.584565 161.981222 264.300807 160.697464 
C 263.017048 159.413706 261.275654 158.692396 259.460145 158.692396 
C 257.644637 158.692396 255.903243 159.413706 254.619484 160.697464 
C 253.335726 161.981222 252.614417 163.722617 252.614417 165.538125 
C 252.614417 167.353633 253.335726 169.095028 254.619484 170.378786 
C 255.903243 171.662544 257.644637 172.383854 259.460145 172.383854 
z
" clip-path="url(#pfafccbb893)" style="fill: #e76f51; fill-opacity: 0.75; stroke: #ffffff; stroke-opacity: 0.75; stroke-width: 0.6"/>
    <path d="M 289.043766 140.557187 
C 290.859275 140.557187 292.600669 139.835878 293.884427 138.552119 
C 295.168186 137.268361 295.889495 135.526967 295.889495 133.711458 
C 295.889495 131.89595 295.168186 130.154556 293.884427 128.870797 
C 292.600669 127.587039 290.859275 126.86573 289.043766 126.86573 
C 287.228258 126.86573 285.486863 127.587039 284.203105 128.870797 
C 282.919347 130.154556 282.198038 131.89595 282.198038 133.711458 
C 282.198038 135.526967 282.919347 137.268361 284.203105 138.552119 
C 285.486863 139.835878 287.228258 140.557187 289.043766 140.557187 
z
" clip-path="url(#pfafccbb893)" style="fill: #e76f51; fill-opacity: 0.75; stroke: #ffffff; stroke-opacity: 0.75; stroke-width: 0.6"/>
    <path d="M 239.737732 76.903854 
C 241.55324 76.903854 243.294634 76.182544 244.578393 74.898786 
C 245.862151 73.615028 246.58346 71.873633 246.58346 70.058125 
C 246.58346 68.242617 245.862151 66.501222 244.578393 65.217464 
C 243.294634 63.933706 241.55324 63.212396 239.737732 63.212396 
C 237.922223 63.212396 236.180829 63.933706 234.897071 65.217464 
C 233.613312 66.501222 232.892003 68.242617 232.892003 70.058125 
C 232.892003 71.873633 233.613312 73.615028 234.897071 74.898786 
C 236.180829 76.182544 237.922223 76.903854 239.737732 76.903854 
z
" clip-path="url(#pfafccbb893)" style="fill: #e76f51; fill-opacity: 0.75; stroke: #ffffff; stroke-opacity: 0.75; stroke-width: 0.6"/>
   </g>
   <g id="PathCollection_2">
    <path d="M 471.68568 42.952475 
L 481.127714 42.952475 
L 481.127714 33.510441 
L 471.68568 33.510441 
z
" clip-path="url(#pfafccbb893)" style="fill: #2a9d8f; fill-opacity: 0.75; stroke: #ffffff; stroke-opacity: 0.75; stroke-width: 0.6"/>
    <path d="M 456.89387 50.909142 
L 466.335904 50.909142 
L 466.335904 41.467108 
L 456.89387 41.467108 
z
" clip-path="url(#pfafccbb893)" style="fill: #2a9d8f; fill-opacity: 0.75; stroke: #ffffff; stroke-opacity: 0.75; stroke-width: 0.6"/>
    <path d="M 471.68568 42.952475 
L 481.127714 42.952475 
L 481.127714 33.510441 
L 471.68568 33.510441 
z
" clip-path="url(#pfafccbb893)" style="fill: #2a9d8f; fill-opacity: 0.75; stroke: #ffffff; stroke-opacity: 0.75; stroke-width: 0.6"/>
    <path d="M 451.963267 42.952475 
L 461.4053 42.952475 
L 461.4053 33.510441 
L 451.963267 33.510441 
z
" clip-path="url(#pfafccbb893)" style="fill: #2a9d8f; fill-opacity: 0.75; stroke: #ffffff; stroke-opacity: 0.75; stroke-width: 0.6"/>
    <path d="M 464.289775 42.952475 
L 473.731809 42.952475 
L 473.731809 33.510441 
L 464.289775 33.510441 
z
" clip-path="url(#pfafccbb893)" style="fill: #2a9d8f; fill-opacity: 0.75; stroke: #ffffff; stroke-opacity: 0.75; stroke-width: 0.6"/>
    <path d="M 471.68568 42.952475 
L 481.127714 42.952475 
L 481.127714 33.510441 
L 471.68568 33.510441 
z
" clip-path="url(#pfafccbb893)" style="fill: #2a9d8f; fill-opacity: 0.75; stroke: #ffffff; stroke-opacity: 0.75; stroke-width: 0.6"/>
    <path d="M 466.755077 42.952475 
L 476.197111 42.952475 
L 476.197111 33.510441 
L 466.755077 33.510441 
z
" clip-path="url(#pfafccbb893)" style="fill: #2a9d8f; fill-opacity: 0.75; stroke: #ffffff; stroke-opacity: 0.75; stroke-width: 0.6"/>
    <path d="M 464.289775 50.909142 
L 473.731809 50.909142 
L 473.731809 41.467108 
L 464.289775 41.467108 
z
" clip-path="url(#pfafccbb893)" style="fill: #2a9d8f; fill-opacity: 0.75; stroke: #ffffff; stroke-opacity: 0.75; stroke-width: 0.6"/>
    <path d="M 471.68568 42.952475 
L 481.127714 42.952475 
L 481.127714 33.510441 
L 471.68568 33.510441 
z
" clip-path="url(#pfafccbb893)" style="fill: #2a9d8f; fill-opacity: 0.75; stroke: #ffffff; stroke-opacity: 0.75; stroke-width: 0.6"/>
    <path d="M 436.012337 75.938261 
L 447.772609 75.938261 
L 447.772609 64.177989 
L 436.012337 64.177989 
z
" clip-path="url(#pfafccbb893)" style="fill: #2a9d8f; fill-opacity: 0.75; stroke: #ffffff; stroke-opacity: 0.75; stroke-width: 0.6"/>
    <path d="M 445.873544 60.024928 
L 457.633816 60.024928 
L 457.633816 48.264656 
L 445.873544 48.264656 
z
" clip-path="url(#pfafccbb893)" style="fill: #2a9d8f; fill-opacity: 0.75; stroke: #ffffff; stroke-opacity: 0.75; stroke-width: 0.6"/>
    <path d="M 460.665354 44.111594 
L 472.425626 44.111594 
L 472.425626 32.351322 
L 460.665354 32.351322 
z
" clip-path="url(#pfafccbb893)" style="fill: #2a9d8f; fill-opacity: 0.75; stroke: #ffffff; stroke-opacity: 0.75; stroke-width: 0.6"/>
    <path d="M 445.873544 44.111594 
L 457.633816 44.111594 
L 457.633816 32.351322 
L 445.873544 32.351322 
z
" clip-path="url(#pfafccbb893)" style="fill: #2a9d8f; fill-opacity: 0.75; stroke: #ffffff; stroke-opacity: 0.75; stroke-width: 0.6"/>
    <path d="M 460.665354 60.024928 
L 472.425626 60.024928 
L 472.425626 48.264656 
L 460.665354 48.264656 
z
" clip-path="url(#pfafccbb893)" style="fill: #2a9d8f; fill-opacity: 0.75; stroke: #ffffff; stroke-opacity: 0.75; stroke-width: 0.6"/>
    <path d="M 460.665354 44.111594 
L 472.425626 44.111594 
L 472.425626 32.351322 
L 460.665354 32.351322 
z
" clip-path="url(#pfafccbb893)" style="fill: #2a9d8f; fill-opacity: 0.75; stroke: #ffffff; stroke-opacity: 0.75; stroke-width: 0.6"/>
    <path d="M 455.734751 44.111594 
L 467.495023 44.111594 
L 467.495023 32.351322 
L 455.734751 32.351322 
z
" clip-path="url(#pfafccbb893)" style="fill: #2a9d8f; fill-opacity: 0.75; stroke: #ffffff; stroke-opacity: 0.75; stroke-width: 0.6"/>
    <path d="M 450.804147 44.111594 
L 462.564419 44.111594 
L 462.564419 32.351322 
L 450.804147 32.351322 
z
" clip-path="url(#pfafccbb893)" style="fill: #2a9d8f; fill-opacity: 0.75; stroke: #ffffff; stroke-opacity: 0.75; stroke-width: 0.6"/>
    <path d="M 450.804147 75.938261 
L 462.564419 75.938261 
L 462.564419 64.177989 
L 450.804147 64.177989 
z
" clip-path="url(#pfafccbb893)" style="fill: #2a9d8f; fill-opacity: 0.75; stroke: #ffffff; stroke-opacity: 0.75; stroke-width: 0.6"/>
    <path d="M 460.665354 44.111594 
L 472.425626 44.111594 
L 472.425626 32.351322 
L 460.665354 32.351322 
z
" clip-path="url(#pfafccbb893)" style="fill: #2a9d8f; fill-opacity: 0.75; stroke: #ffffff; stroke-opacity: 0.75; stroke-width: 0.6"/>
    <path d="M 450.804147 44.111594 
L 462.564419 44.111594 
L 462.564419 32.351322 
L 450.804147 32.351322 
z
" clip-path="url(#pfafccbb893)" style="fill: #2a9d8f; fill-opacity: 0.75; stroke: #ffffff; stroke-opacity: 0.75; stroke-width: 0.6"/>
    <path d="M 439.977348 76.903854 
L 453.668805 76.903854 
L 453.668805 63.212396 
L 439.977348 63.212396 
z
" clip-path="url(#pfafccbb893)" style="fill: #2a9d8f; fill-opacity: 0.75; stroke: #ffffff; stroke-opacity: 0.75; stroke-width: 0.6"/>
    <path d="M 410.393727 45.077187 
L 424.085184 45.077187 
L 424.085184 31.38573 
L 410.393727 31.38573 
z
" clip-path="url(#pfafccbb893)" style="fill: #2a9d8f; fill-opacity: 0.75; stroke: #ffffff; stroke-opacity: 0.75; stroke-width: 0.6"/>
    <path d="M 459.699762 45.077187 
L 473.391219 45.077187 
L 473.391219 31.38573 
L 459.699762 31.38573 
z
" clip-path="url(#pfafccbb893)" style="fill: #2a9d8f; fill-opacity: 0.75; stroke: #ffffff; stroke-opacity: 0.75; stroke-width: 0.6"/>
   </g>
   <g id="matplotlib.axis_1">
    <g id="xtick_1">
     <g id="line2d_1">
      <path d="M 81.958421 366.046125 
L 81.958421 22.318125 
" clip-path="url(#pfafccbb893)" style="fill: none; stroke: #d9dee5; stroke-opacity: 0.55; stroke-width: 0.8; stroke-linecap: square"/>
     </g>
     <g id="line2d_2">
      <defs>
       <path id="mf49b3ea5fc" d="M 0 0 
L 0 3.5 
" style="stroke: #000000; stroke-width: 0.8"/>
      </defs>
      <g>
       <use xlink:href="#mf49b3ea5fc" x="81.958421" y="366.046125" style="stroke: #000000; stroke-width: 0.8"/>
      </g>
     </g>
     <g id="text_1">
      <!-- 0.5 -->
      <g transform="translate(74.802015 379.884016) scale(0.09 -0.09)">
       <defs>
        <path id="DejaVuSans-13" d="M 2034 4250 
Q 1547 4250 1301 3770 
Q 1056 3291 1056 2328 
Q 1056 1369 1301 889 
Q 1547 409 2034 409 
Q 2525 409 2770 889 
Q 3016 1369 3016 2328 
Q 3016 3291 2770 3770 
Q 2525 4250 2034 4250 
z
M 2034 4750 
Q 2819 4750 3233 4129 
Q 3647 3509 3647 2328 
Q 3647 1150 3233 529 
Q 2819 -91 2034 -91 
Q 1250 -91 836 529 
Q 422 1150 422 2328 
Q 422 3509 836 4129 
Q 1250 4750 2034 4750 
z
" transform="scale(0.015625)"/>
        <path id="DejaVuSans-11" d="M 684 794 
L 1344 794 
L 1344 0 
L 684 0 
L 684 794 
z
" transform="scale(0.015625)"/>
        <path id="DejaVuSans-18" d="M 691 4666 
L 3169 4666 
L 3169 4134 
L 1269 4134 
L 1269 2991 
Q 1406 3038 1543 3061 
Q 1681 3084 1819 3084 
Q 2600 3084 3056 2656 
Q 3513 2228 3513 1497 
Q 3513 744 3044 326 
Q 2575 -91 1722 -91 
Q 1428 -91 1123 -41 
Q 819 9 494 109 
L 494 744 
Q 775 591 1075 516 
Q 1375 441 1709 441 
Q 2250 441 2565 725 
Q 2881 1009 2881 1497 
Q 2881 1984 2565 2268 
Q 2250 2553 1709 2553 
Q 1456 2553 1204 2497 
Q 953 2441 691 2322 
L 691 4666 
z
" transform="scale(0.015625)"/>
       </defs>
       <use xlink:href="#DejaVuSans-13"/>
       <use xlink:href="#DejaVuSans-11" transform="translate(63.625 0)"/>
       <use xlink:href="#DejaVuSans-18" transform="translate(95.40625 0)"/>
      </g>
     </g>
    </g>
    <g id="xtick_2">
     <g id="line2d_3">
      <path d="M 160.848077 366.046125 
L 160.848077 22.318125 
" clip-path="url(#pfafccbb893)" style="fill: none; stroke: #d9dee5; stroke-opacity: 0.55; stroke-width: 0.8; stroke-linecap: square"/>
     </g>
     <g id="line2d_4">
      <g>
       <use xlink:href="#mf49b3ea5fc" x="160.848077" y="366.046125" style="stroke: #000000; stroke-width: 0.8"/>
      </g>
     </g>
     <g id="text_2">
      <!-- 0.6 -->
      <g transform="translate(153.69167 379.884016) scale(0.09 -0.09)">
       <defs>
        <path id="DejaVuSans-19" d="M 2113 2584 
Q 1688 2584 1439 2293 
Q 1191 2003 1191 1497 
Q 1191 994 1439 701 
Q 1688 409 2113 409 
Q 2538 409 2786 701 
Q 3034 994 3034 1497 
Q 3034 2003 2786 2293 
Q 2538 2584 2113 2584 
z
M 3366 4563 
L 3366 3988 
Q 3128 4100 2886 4159 
Q 2644 4219 2406 4219 
Q 1781 4219 1451 3797 
Q 1122 3375 1075 2522 
Q 1259 2794 1537 2939 
Q 1816 3084 2150 3084 
Q 2853 3084 3261 2657 
Q 3669 2231 3669 1497 
Q 3669 778 3244 343 
Q 2819 -91 2113 -91 
Q 1303 -91 875 529 
Q 447 1150 447 2328 
Q 447 3434 972 4092 
Q 1497 4750 2381 4750 
Q 2619 4750 2861 4703 
Q 3103 4656 3366 4563 
z
" transform="scale(0.015625)"/>
       </defs>
       <use xlink:href="#DejaVuSans-13"/>
       <use xlink:href="#DejaVuSans-11" transform="translate(63.625 0)"/>
       <use xlink:href="#DejaVuSans-19" transform="translate(95.40625 0)"/>
      </g>
     </g>
    </g>
    <g id="xtick_3">
     <g id="line2d_5">
      <path d="M 239.737732 366.046125 
L 239.737732 22.318125 
" clip-path="url(#pfafccbb893)" style="fill: none; stroke: #d9dee5; stroke-opacity: 0.55; stroke-width: 0.8; stroke-linecap: square"/>
     </g>
     <g id="line2d_6">
      <g>
       <use xlink:href="#mf49b3ea5fc" x="239.737732" y="366.046125" style="stroke: #000000; stroke-width: 0.8"/>
      </g>
     </g>
     <g id="text_3">
      <!-- 0.7 -->
      <g transform="translate(232.581325 379.884016) scale(0.09 -0.09)">
       <defs>
        <path id="DejaVuSans-1a" d="M 525 4666 
L 3525 4666 
L 3525 4397 
L 1831 0 
L 1172 0 
L 2766 4134 
L 525 4134 
L 525 4666 
z
" transform="scale(0.015625)"/>
       </defs>
       <use xlink:href="#DejaVuSans-13"/>
       <use xlink:href="#DejaVuSans-11" transform="translate(63.625 0)"/>
       <use xlink:href="#DejaVuSans-1a" transform="translate(95.40625 0)"/>
      </g>
     </g>
    </g>
    <g id="xtick_4">
     <g id="line2d_7">
      <path d="M 318.627387 366.046125 
L 318.627387 22.318125 
" clip-path="url(#pfafccbb893)" style="fill: none; stroke: #d9dee5; stroke-opacity: 0.55; stroke-width: 0.8; stroke-linecap: square"/>
     </g>
     <g id="line2d_8">
      <g>
       <use xlink:href="#mf49b3ea5fc" x="318.627387" y="366.046125" style="stroke: #000000; stroke-width: 0.8"/>
      </g>
     </g>
     <g id="text_4">
      <!-- 0.8 -->
      <g transform="translate(311.470981 379.884016) scale(0.09 -0.09)">
       <defs>
        <path id="DejaVuSans-1b" d="M 2034 2216 
Q 1584 2216 1326 1975 
Q 1069 1734 1069 1313 
Q 1069 891 1326 650 
Q 1584 409 2034 409 
Q 2484 409 2743 651 
Q 3003 894 3003 1313 
Q 3003 1734 2745 1975 
Q 2488 2216 2034 2216 
z
M 1403 2484 
Q 997 2584 770 2862 
Q 544 3141 544 3541 
Q 544 4100 942 4425 
Q 1341 4750 2034 4750 
Q 2731 4750 3128 4425 
Q 3525 4100 3525 3541 
Q 3525 3141 3298 2862 
Q 3072 2584 2669 2484 
Q 3125 2378 3379 2068 
Q 3634 1759 3634 1313 
Q 3634 634 3220 271 
Q 2806 -91 2034 -91 
Q 1263 -91 848 271 
Q 434 634 434 1313 
Q 434 1759 690 2068 
Q 947 2378 1403 2484 
z
M 1172 3481 
Q 1172 3119 1398 2916 
Q 1625 2713 2034 2713 
Q 2441 2713 2670 2916 
Q 2900 3119 2900 3481 
Q 2900 3844 2670 4047 
Q 2441 4250 2034 4250 
Q 1625 4250 1398 4047 
Q 1172 3844 1172 3481 
z
" transform="scale(0.015625)"/>
       </defs>
       <use xlink:href="#DejaVuSans-13"/>
       <use xlink:href="#DejaVuSans-11" transform="translate(63.625 0)"/>
       <use xlink:href="#DejaVuSans-1b" transform="translate(95.40625 0)"/>
      </g>
     </g>
    </g>
    <g id="xtick_5">
     <g id="line2d_9">
      <path d="M 397.517042 366.046125 
L 397.517042 22.318125 
" clip-path="url(#pfafccbb893)" style="fill: none; stroke: #d9dee5; stroke-opacity: 0.55; stroke-width: 0.8; stroke-linecap: square"/>
     </g>
     <g id="line2d_10">
      <g>
       <use xlink:href="#mf49b3ea5fc" x="397.517042" y="366.046125" style="stroke: #000000; stroke-width: 0.8"/>
      </g>
     </g>
     <g id="text_5">
      <!-- 0.9 -->
      <g transform="translate(390.360636 379.884016) scale(0.09 -0.09)">
       <defs>
        <path id="DejaVuSans-1c" d="M 703 97 
L 703 672 
Q 941 559 1184 500 
Q 1428 441 1663 441 
Q 2288 441 2617 861 
Q 2947 1281 2994 2138 
Q 2813 1869 2534 1725 
Q 2256 1581 1919 1581 
Q 1219 1581 811 2004 
Q 403 2428 403 3163 
Q 403 3881 828 4315 
Q 1253 4750 1959 4750 
Q 2769 4750 3195 4129 
Q 3622 3509 3622 2328 
Q 3622 1225 3098 567 
Q 2575 -91 1691 -91 
Q 1453 -91 1209 -44 
Q 966 3 703 97 
z
M 1959 2075 
Q 2384 2075 2632 2365 
Q 2881 2656 2881 3163 
Q 2881 3666 2632 3958 
Q 2384 4250 1959 4250 
Q 1534 4250 1286 3958 
Q 1038 3666 1038 3163 
Q 1038 2656 1286 2365 
Q 1534 2075 1959 2075 
z
" transform="scale(0.015625)"/>
       </defs>
       <use xlink:href="#DejaVuSans-13"/>
       <use xlink:href="#DejaVuSans-11" transform="translate(63.625 0)"/>
       <use xlink:href="#DejaVuSans-1c" transform="translate(95.40625 0)"/>
      </g>
     </g>
    </g>
    <g id="xtick_6">
     <g id="line2d_11">
      <path d="M 476.406697 366.046125 
L 476.406697 22.318125 
" clip-path="url(#pfafccbb893)" style="fill: none; stroke: #d9dee5; stroke-opacity: 0.55; stroke-width: 0.8; stroke-linecap: square"/>
     </g>
     <g id="line2d_12">
      <g>
       <use xlink:href="#mf49b3ea5fc" x="476.406697" y="366.046125" style="stroke: #000000; stroke-width: 0.8"/>
      </g>
     </g>
     <g id="text_6">
      <!-- 1.0 -->
      <g transform="translate(469.250291 379.884016) scale(0.09 -0.09)">
       <defs>
        <path id="DejaVuSans-14" d="M 794 531 
L 1825 531 
L 1825 4091 
L 703 3866 
L 703 4441 
L 1819 4666 
L 2450 4666 
L 2450 531 
L 3481 531 
L 3481 0 
L 794 0 
L 794 531 
z
" transform="scale(0.015625)"/>
       </defs>
       <use xlink:href="#DejaVuSans-14"/>
       <use xlink:href="#DejaVuSans-11" transform="translate(63.625 0)"/>
       <use xlink:href="#DejaVuSans-13" transform="translate(95.40625 0)"/>
      </g>
     </g>
    </g>
    <g id="text_7">
     <!-- writer true-fact rate -->
     <g transform="translate(221.735 393.644563) scale(0.1 -0.1)">
      <defs>
       <path id="DejaVuSans-5a" d="M 269 3500 
L 844 3500 
L 1563 769 
L 2278 3500 
L 2956 3500 
L 3675 769 
L 4391 3500 
L 4966 3500 
L 4050 0 
L 3372 0 
L 2619 2869 
L 1863 0 
L 1184 0 
L 269 3500 
z
" transform="scale(0.015625)"/>
       <path id="DejaVuSans-55" d="M 2631 2963 
Q 2534 3019 2420 3045 
Q 2306 3072 2169 3072 
Q 1681 3072 1420 2755 
Q 1159 2438 1159 1844 
L 1159 0 
L 581 0 
L 581 3500 
L 1159 3500 
L 1159 2956 
Q 1341 3275 1631 3429 
Q 1922 3584 2338 3584 
Q 2397 3584 2469 3576 
Q 2541 3569 2628 3553 
L 2631 2963 
z
" transform="scale(0.015625)"/>
       <path id="DejaVuSans-4c" d="M 603 3500 
L 1178 3500 
L 1178 0 
L 603 0 
L 603 3500 
z
M 603 4863 
L 1178 4863 
L 1178 4134 
L 603 4134 
L 603 4863 
z
" transform="scale(0.015625)"/>
       <path id="DejaVuSans-57" d="M 1172 4494 
L 1172 3500 
L 2356 3500 
L 2356 3053 
L 1172 3053 
L 1172 1153 
Q 1172 725 1289 603 
Q 1406 481 1766 481 
L 2356 481 
L 2356 0 
L 1766 0 
Q 1100 0 847 248 
Q 594 497 594 1153 
L 594 3053 
L 172 3053 
L 172 3500 
L 594 3500 
L 594 4494 
L 1172 4494 
z
" transform="scale(0.015625)"/>
       <path id="DejaVuSans-48" d="M 3597 1894 
L 3597 1613 
L 953 1613 
Q 991 1019 1311 708 
Q 1631 397 2203 397 
Q 2534 397 2845 478 
Q 3156 559 3463 722 
L 3463 178 
Q 3153 47 2828 -22 
Q 2503 -91 2169 -91 
Q 1331 -91 842 396 
Q 353 884 353 1716 
Q 353 2575 817 3079 
Q 1281 3584 2069 3584 
Q 2775 3584 3186 3129 
Q 3597 2675 3597 1894 
z
M 3022 2063 
Q 3016 2534 2758 2815 
Q 2500 3097 2075 3097 
Q 1594 3097 1305 2825 
Q 1016 2553 972 2059 
L 3022 2063 
z
" transform="scale(0.015625)"/>
       <path id="DejaVuSans-3" transform="scale(0.015625)"/>
       <path id="DejaVuSans-58" d="M 544 1381 
L 544 3500 
L 1119 3500 
L 1119 1403 
Q 1119 906 1312 657 
Q 1506 409 1894 409 
Q 2359 409 2629 706 
Q 2900 1003 2900 1516 
L 2900 3500 
L 3475 3500 
L 3475 0 
L 2900 0 
L 2900 538 
Q 2691 219 2414 64 
Q 2138 -91 1772 -91 
Q 1169 -91 856 284 
Q 544 659 544 1381 
z
M 1991 3584 
L 1991 3584 
z
" transform="scale(0.015625)"/>
       <path id="DejaVuSans-10" d="M 313 2009 
L 1997 2009 
L 1997 1497 
L 313 1497 
L 313 2009 
z
" transform="scale(0.015625)"/>
       <path id="DejaVuSans-49" d="M 2375 4863 
L 2375 4384 
L 1825 4384 
Q 1516 4384 1395 4259 
Q 1275 4134 1275 3809 
L 1275 3500 
L 2222 3500 
L 2222 3053 
L 1275 3053 
L 1275 0 
L 697 0 
L 697 3053 
L 147 3053 
L 147 3500 
L 697 3500 
L 697 3744 
Q 697 4328 969 4595 
Q 1241 4863 1831 4863 
L 2375 4863 
z
" transform="scale(0.015625)"/>
       <path id="DejaVuSans-44" d="M 2194 1759 
Q 1497 1759 1228 1600 
Q 959 1441 959 1056 
Q 959 750 1161 570 
Q 1363 391 1709 391 
Q 2188 391 2477 730 
Q 2766 1069 2766 1631 
L 2766 1759 
L 2194 1759 
z
M 3341 1997 
L 3341 0 
L 2766 0 
L 2766 531 
Q 2569 213 2275 61 
Q 1981 -91 1556 -91 
Q 1019 -91 701 211 
Q 384 513 384 1019 
Q 384 1609 779 1909 
Q 1175 2209 1959 2209 
L 2766 2209 
L 2766 2266 
Q 2766 2663 2505 2880 
Q 2244 3097 1772 3097 
Q 1472 3097 1187 3025 
Q 903 2953 641 2809 
L 641 3341 
Q 956 3463 1253 3523 
Q 1550 3584 1831 3584 
Q 2591 3584 2966 3190 
Q 3341 2797 3341 1997 
z
" transform="scale(0.015625)"/>
       <path id="DejaVuSans-46" d="M 3122 3366 
L 3122 2828 
Q 2878 2963 2633 3030 
Q 2388 3097 2138 3097 
Q 1578 3097 1268 2742 
Q 959 2388 959 1747 
Q 959 1106 1268 751 
Q 1578 397 2138 397 
Q 2388 397 2633 464 
Q 2878 531 3122 666 
L 3122 134 
Q 2881 22 2623 -34 
Q 2366 -91 2075 -91 
Q 1284 -91 818 406 
Q 353 903 353 1747 
Q 353 2603 823 3093 
Q 1294 3584 2113 3584 
Q 2378 3584 2631 3529 
Q 2884 3475 3122 3366 
z
" transform="scale(0.015625)"/>
      </defs>
      <use xlink:href="#DejaVuSans-5a"/>
      <use xlink:href="#DejaVuSans-55" transform="translate(81.78125 0)"/>
      <use xlink:href="#DejaVuSans-4c" transform="translate(122.890625 0)"/>
      <use xlink:href="#DejaVuSans-57" transform="translate(150.671875 0)"/>
      <use xlink:href="#DejaVuSans-48" transform="translate(189.875 0)"/>
      <use xlink:href="#DejaVuSans-55" transform="translate(251.40625 0)"/>
      <use xlink:href="#DejaVuSans-3" transform="translate(292.515625 0)"/>
      <use xlink:href="#DejaVuSans-57" transform="translate(324.296875 0)"/>
      <use xlink:href="#DejaVuSans-55" transform="translate(363.5 0)"/>
      <use xlink:href="#DejaVuSans-58" transform="translate(404.609375 0)"/>
      <use xlink:href="#DejaVuSans-48" transform="translate(467.984375 0)"/>
      <use xlink:href="#DejaVuSans-10" transform="translate(529.515625 0)"/>
      <use xlink:href="#DejaVuSans-49" transform="translate(565.59375 0)"/>
      <use xlink:href="#DejaVuSans-44" transform="translate(600.796875 0)"/>
      <use xlink:href="#DejaVuSans-46" transform="translate(662.078125 0)"/>
      <use xlink:href="#DejaVuSans-57" transform="translate(717.0625 0)"/>
      <use xlink:href="#DejaVuSans-3" transform="translate(756.265625 0)"/>
      <use xlink:href="#DejaVuSans-55" transform="translate(788.046875 0)"/>
      <use xlink:href="#DejaVuSans-44" transform="translate(829.15625 0)"/>
      <use xlink:href="#DejaVuSans-57" transform="translate(890.4375 0)"/>
      <use xlink:href="#DejaVuSans-48" transform="translate(929.640625 0)"/>
     </g>
    </g>
   </g>
   <g id="matplotlib.axis_2">
    <g id="ytick_1">
     <g id="line2d_13">
      <path d="M 42.513594 356.498125 
L 500.073594 356.498125 
" clip-path="url(#pfafccbb893)" style="fill: none; stroke: #d9dee5; stroke-opacity: 0.55; stroke-width: 0.8; stroke-linecap: square"/>
     </g>
     <g id="line2d_14">
      <defs>
       <path id="m10d22d7939" d="M 0 0 
L -3.5 0 
" style="stroke: #000000; stroke-width: 0.8"/>
      </defs>
      <g>
       <use xlink:href="#m10d22d7939" x="42.513594" y="356.498125" style="stroke: #000000; stroke-width: 0.8"/>
      </g>
     </g>
     <g id="text_8">
      <!-- 0.0 -->
      <g transform="translate(21.200781 359.91707) scale(0.09 -0.09)">
       <use xlink:href="#DejaVuSans-13"/>
       <use xlink:href="#DejaVuSans-11" transform="translate(63.625 0)"/>
       <use xlink:href="#DejaVuSans-13" transform="translate(95.40625 0)"/>
      </g>
     </g>
    </g>
    <g id="ytick_2">
     <g id="line2d_15">
      <path d="M 42.513594 292.844792 
L 500.073594 292.844792 
" clip-path="url(#pfafccbb893)" style="fill: none; stroke: #d9dee5; stroke-opacity: 0.55; stroke-width: 0.8; stroke-linecap: square"/>
     </g>
     <g id="line2d_16">
      <g>
       <use xlink:href="#m10d22d7939" x="42.513594" y="292.844792" style="stroke: #000000; stroke-width: 0.8"/>
      </g>
     </g>
     <g id="text_9">
      <!-- 0.2 -->
      <g transform="translate(21.200781 296.263737) scale(0.09 -0.09)">
       <defs>
        <path id="DejaVuSans-15" d="M 1228 531 
L 3431 531 
L 3431 0 
L 469 0 
L 469 531 
Q 828 903 1448 1529 
Q 2069 2156 2228 2338 
Q 2531 2678 2651 2914 
Q 2772 3150 2772 3378 
Q 2772 3750 2511 3984 
Q 2250 4219 1831 4219 
Q 1534 4219 1204 4116 
Q 875 4013 500 3803 
L 500 4441 
Q 881 4594 1212 4672 
Q 1544 4750 1819 4750 
Q 2544 4750 2975 4387 
Q 3406 4025 3406 3419 
Q 3406 3131 3298 2873 
Q 3191 2616 2906 2266 
Q 2828 2175 2409 1742 
Q 1991 1309 1228 531 
z
" transform="scale(0.015625)"/>
       </defs>
       <use xlink:href="#DejaVuSans-13"/>
       <use xlink:href="#DejaVuSans-11" transform="translate(63.625 0)"/>
       <use xlink:href="#DejaVuSans-15" transform="translate(95.40625 0)"/>
      </g>
     </g>
    </g>
    <g id="ytick_3">
     <g id="line2d_17">
      <path d="M 42.513594 229.191458 
L 500.073594 229.191458 
" clip-path="url(#pfafccbb893)" style="fill: none; stroke: #d9dee5; stroke-opacity: 0.55; stroke-width: 0.8; stroke-linecap: square"/>
     </g>
     <g id="line2d_18">
      <g>
       <use xlink:href="#m10d22d7939" x="42.513594" y="229.191458" style="stroke: #000000; stroke-width: 0.8"/>
      </g>
     </g>
     <g id="text_10">
      <!-- 0.4 -->
      <g transform="translate(21.200781 232.610404) scale(0.09 -0.09)">
       <defs>
        <path id="DejaVuSans-17" d="M 2419 4116 
L 825 1625 
L 2419 1625 
L 2419 4116 
z
M 2253 4666 
L 3047 4666 
L 3047 1625 
L 3713 1625 
L 3713 1100 
L 3047 1100 
L 3047 0 
L 2419 0 
L 2419 1100 
L 313 1100 
L 313 1709 
L 2253 4666 
z
" transform="scale(0.015625)"/>
       </defs>
       <use xlink:href="#DejaVuSans-13"/>
       <use xlink:href="#DejaVuSans-11" transform="translate(63.625 0)"/>
       <use xlink:href="#DejaVuSans-17" transform="translate(95.40625 0)"/>
      </g>
     </g>
    </g>
    <g id="ytick_4">
     <g id="line2d_19">
      <path d="M 42.513594 165.538125 
L 500.073594 165.538125 
" clip-path="url(#pfafccbb893)" style="fill: none; stroke: #d9dee5; stroke-opacity: 0.55; stroke-width: 0.8; stroke-linecap: square"/>
     </g>
     <g id="line2d_20">
      <g>
       <use xlink:href="#m10d22d7939" x="42.513594" y="165.538125" style="stroke: #000000; stroke-width: 0.8"/>
      </g>
     </g>
     <g id="text_11">
      <!-- 0.6 -->
      <g transform="translate(21.200781 168.95707) scale(0.09 -0.09)">
       <use xlink:href="#DejaVuSans-13"/>
       <use xlink:href="#DejaVuSans-11" transform="translate(63.625 0)"/>
       <use xlink:href="#DejaVuSans-19" transform="translate(95.40625 0)"/>
      </g>
     </g>
    </g>
    <g id="ytick_5">
     <g id="line2d_21">
      <path d="M 42.513594 101.884792 
L 500.073594 101.884792 
" clip-path="url(#pfafccbb893)" style="fill: none; stroke: #d9dee5; stroke-opacity: 0.55; stroke-width: 0.8; stroke-linecap: square"/>
     </g>
     <g id="line2d_22">
      <g>
       <use xlink:href="#m10d22d7939" x="42.513594" y="101.884792" style="stroke: #000000; stroke-width: 0.8"/>
      </g>
     </g>
     <g id="text_12">
      <!-- 0.8 -->
      <g transform="translate(21.200781 105.303737) scale(0.09 -0.09)">
       <use xlink:href="#DejaVuSans-13"/>
       <use xlink:href="#DejaVuSans-11" transform="translate(63.625 0)"/>
       <use xlink:href="#DejaVuSans-1b" transform="translate(95.40625 0)"/>
      </g>
     </g>
    </g>
    <g id="ytick_6">
     <g id="line2d_23">
      <path d="M 42.513594 38.231458 
L 500.073594 38.231458 
" clip-path="url(#pfafccbb893)" style="fill: none; stroke: #d9dee5; stroke-opacity: 0.55; stroke-width: 0.8; stroke-linecap: square"/>
     </g>
     <g id="line2d_24">
      <g>
       <use xlink:href="#m10d22d7939" x="42.513594" y="38.231458" style="stroke: #000000; stroke-width: 0.8"/>
      </g>
     </g>
     <g id="text_13">
      <!-- 1.0 -->
      <g transform="translate(21.200781 41.650404) scale(0.09 -0.09)">
       <use xlink:href="#DejaVuSans-14"/>
       <use xlink:href="#DejaVuSans-11" transform="translate(63.625 0)"/>
       <use xlink:href="#DejaVuSans-13" transform="translate(95.40625 0)"/>
      </g>
     </g>
    </g>
    <g id="text_14">
     <!-- exact recall -->
     <g transform="translate(14.798437 223.106344) rotate(-90) scale(0.1 -0.1)">
      <defs>
       <path id="DejaVuSans-5b" d="M 3513 3500 
L 2247 1797 
L 3578 0 
L 2900 0 
L 1881 1375 
L 863 0 
L 184 0 
L 1544 1831 
L 300 3500 
L 978 3500 
L 1906 2253 
L 2834 3500 
L 3513 3500 
z
" transform="scale(0.015625)"/>
       <path id="DejaVuSans-4f" d="M 603 4863 
L 1178 4863 
L 1178 0 
L 603 0 
L 603 4863 
z
" transform="scale(0.015625)"/>
      </defs>
      <use xlink:href="#DejaVuSans-48"/>
      <use xlink:href="#DejaVuSans-5b" transform="translate(59.78125 0)"/>
      <use xlink:href="#DejaVuSans-44" transform="translate(118.96875 0)"/>
      <use xlink:href="#DejaVuSans-46" transform="translate(180.25 0)"/>
      <use xlink:href="#DejaVuSans-57" transform="translate(235.234375 0)"/>
      <use xlink:href="#DejaVuSans-3" transform="translate(274.4375 0)"/>
      <use xlink:href="#DejaVuSans-55" transform="translate(306.21875 0)"/>
      <use xlink:href="#DejaVuSans-48" transform="translate(345.125 0)"/>
      <use xlink:href="#DejaVuSans-46" transform="translate(406.65625 0)"/>
      <use xlink:href="#DejaVuSans-44" transform="translate(461.640625 0)"/>
      <use xlink:href="#DejaVuSans-4f" transform="translate(522.921875 0)"/>
      <use xlink:href="#DejaVuSans-4f" transform="translate(550.703125 0)"/>
     </g>
    </g>
   </g>
   <g id="line2d_25">
    <path d="M 200.292904 198.632342 
L 220.015318 186.54846 
L 239.737732 174.470988 
L 254.529542 165.378436 
L 254.529542 165.378436 
L 259.460145 162.333363 
L 279.182559 150.06536 
L 286.578464 145.428163 
L 289.043766 143.878328 
L 293.97437 140.77292 
L 318.627387 125.197308 
L 328.488594 119.037001 
L 365.46812 95.549381 
L 380.25993 86.079129 
L 412.308852 61.312683 
L 417.239456 57.243491 
L 441.892473 64.190951 
L 446.823077 59.252286 
L 451.75368 53.297132 
L 451.75368 53.297132 
L 456.684283 47.165292 
L 456.684283 47.165292 
L 456.684283 47.165292 
L 456.684283 47.165292 
L 461.614887 42.638891 
L 461.614887 42.638891 
L 466.54549 41.186251 
L 466.54549 41.186251 
L 466.54549 41.186251 
L 466.54549 41.186251 
L 466.54549 41.186251 
L 469.010792 40.475204 
L 469.010792 40.475204 
L 471.476094 39.769538 
L 476.406697 38.320887 
L 476.406697 38.320887 
L 476.406697 38.320887 
L 476.406697 38.320887 
" clip-path="url(#pfafccbb893)" style="fill: none; stroke: #222222; stroke-width: 2; stroke-linecap: square"/>
   </g>
   <g id="patch_3">
    <path d="M 42.513594 366.046125 
L 42.513594 22.318125 
" style="fill: none; stroke: #000000; stroke-width: 0.8; stroke-linejoin: miter; stroke-linecap: square"/>
   </g>
   <g id="patch_4">
    <path d="M 42.513594 366.046125 
L 500.073594 366.046125 
" style="fill: none; stroke: #000000; stroke-width: 0.8; stroke-linejoin: miter; stroke-linecap: square"/>
   </g>
   <g id="text_15">
    <g id="patch_5">
     <path d="M 58.291525 59.006901 
L 188.333087 59.006901 
Q 191.033087 59.006901 191.033087 56.306901 
L 191.033087 47.306198 
Q 191.033087 44.606198 188.333087 44.606198 
L 58.291525 44.606198 
Q 55.591525 44.606198 55.591525 47.306198 
L 55.591525 56.306901 
Q 55.591525 59.006901 58.291525 59.006901 
z
" style="fill: #ffffff; stroke: #cccccc; stroke-linejoin: miter"/>
    </g>
    <!-- marker size ∝ context length -->
    <g transform="translate(58.291525 54.144792) scale(0.09 -0.09)">
     <defs>
      <path id="DejaVuSans-50" d="M 3328 2828 
Q 3544 3216 3844 3400 
Q 4144 3584 4550 3584 
Q 5097 3584 5394 3201 
Q 5691 2819 5691 2113 
L 5691 0 
L 5113 0 
L 5113 2094 
Q 5113 2597 4934 2840 
Q 4756 3084 4391 3084 
Q 3944 3084 3684 2787 
Q 3425 2491 3425 1978 
L 3425 0 
L 2847 0 
L 2847 2094 
Q 2847 2600 2669 2842 
Q 2491 3084 2119 3084 
Q 1678 3084 1418 2786 
Q 1159 2488 1159 1978 
L 1159 0 
L 581 0 
L 581 3500 
L 1159 3500 
L 1159 2956 
Q 1356 3278 1631 3431 
Q 1906 3584 2284 3584 
Q 2666 3584 2933 3390 
Q 3200 3197 3328 2828 
z
" transform="scale(0.015625)"/>
      <path id="DejaVuSans-4e" d="M 581 4863 
L 1159 4863 
L 1159 1991 
L 2875 3500 
L 3609 3500 
L 1753 1863 
L 3688 0 
L 2938 0 
L 1159 1709 
L 1159 0 
L 581 0 
L 581 4863 
z
" transform="scale(0.015625)"/>
      <path id="DejaVuSans-56" d="M 2834 3397 
L 2834 2853 
Q 2591 2978 2328 3040 
Q 2066 3103 1784 3103 
Q 1356 3103 1142 2972 
Q 928 2841 928 2578 
Q 928 2378 1081 2264 
Q 1234 2150 1697 2047 
L 1894 2003 
Q 2506 1872 2764 1633 
Q 3022 1394 3022 966 
Q 3022 478 2636 193 
Q 2250 -91 1575 -91 
Q 1294 -91 989 -36 
Q 684 19 347 128 
L 347 722 
Q 666 556 975 473 
Q 1284 391 1588 391 
Q 1994 391 2212 530 
Q 2431 669 2431 922 
Q 2431 1156 2273 1281 
Q 2116 1406 1581 1522 
L 1381 1569 
Q 847 1681 609 1914 
Q 372 2147 372 2553 
Q 372 3047 722 3315 
Q 1072 3584 1716 3584 
Q 2034 3584 2315 3537 
Q 2597 3491 2834 3397 
z
" transform="scale(0.015625)"/>
      <path id="DejaVuSans-5d" d="M 353 3500 
L 3084 3500 
L 3084 2975 
L 922 459 
L 3084 459 
L 3084 0 
L 275 0 
L 275 525 
L 2438 3041 
L 353 3041 
L 353 3500 
z
" transform="scale(0.015625)"/>
      <path id="DejaVuSans-ca7" d="M 1647 1134 
Q 2163 1134 2472 1884 
Q 2075 2703 1647 2703 
Q 1334 2703 1175 2478 
Q 1006 2238 1006 1919 
Q 1006 1569 1175 1353 
Q 1350 1134 1647 1134 
z
M 3884 1128 
L 3884 716 
L 3644 716 
Q 3416 716 3247 809 
Q 3078 894 2916 1091 
Q 2819 1203 2666 1466 
Q 2456 1091 2272 925 
Q 2044 725 1681 725 
Q 1259 725 981 1041 
Q 688 1372 688 1919 
Q 688 2444 981 2800 
Q 1241 3116 1688 3116 
Q 1916 3116 2084 3022 
Q 2281 2919 2416 2741 
Q 2541 2581 2666 2366 
Q 2875 2741 3059 2906 
Q 3288 3106 3650 3106 
L 3884 3106 
L 3884 2697 
L 3684 2697 
Q 3222 2697 2859 1947 
Q 3256 1128 3684 1128 
L 3884 1128 
z
" transform="scale(0.015625)"/>
      <path id="DejaVuSans-52" d="M 1959 3097 
Q 1497 3097 1228 2736 
Q 959 2375 959 1747 
Q 959 1119 1226 758 
Q 1494 397 1959 397 
Q 2419 397 2687 759 
Q 2956 1122 2956 1747 
Q 2956 2369 2687 2733 
Q 2419 3097 1959 3097 
z
M 1959 3584 
Q 2709 3584 3137 3096 
Q 3566 2609 3566 1747 
Q 3566 888 3137 398 
Q 2709 -91 1959 -91 
Q 1206 -91 779 398 
Q 353 888 353 1747 
Q 353 2609 779 3096 
Q 1206 3584 1959 3584 
z
" transform="scale(0.015625)"/>
      <path id="DejaVuSans-51" d="M 3513 2113 
L 3513 0 
L 2938 0 
L 2938 2094 
Q 2938 2591 2744 2837 
Q 2550 3084 2163 3084 
Q 1697 3084 1428 2787 
Q 1159 2491 1159 1978 
L 1159 0 
L 581 0 
L 581 3500 
L 1159 3500 
L 1159 2956 
Q 1366 3272 1645 3428 
Q 1925 3584 2291 3584 
Q 2894 3584 3203 3211 
Q 3513 2838 3513 2113 
z
" transform="scale(0.015625)"/>
      <path id="DejaVuSans-4a" d="M 2906 1791 
Q 2906 2416 2648 2759 
Q 2391 3103 1925 3103 
Q 1463 3103 1205 2759 
Q 947 2416 947 1791 
Q 947 1169 1205 825 
Q 1463 481 1925 481 
Q 2391 481 2648 825 
Q 2906 1169 2906 1791 
z
M 3481 434 
Q 3481 -459 3084 -895 
Q 2688 -1331 1869 -1331 
Q 1566 -1331 1297 -1286 
Q 1028 -1241 775 -1147 
L 775 -588 
Q 1028 -725 1275 -790 
Q 1522 -856 1778 -856 
Q 2344 -856 2625 -561 
Q 2906 -266 2906 331 
L 2906 616 
Q 2728 306 2450 153 
Q 2172 0 1784 0 
Q 1141 0 747 490 
Q 353 981 353 1791 
Q 353 2603 747 3093 
Q 1141 3584 1784 3584 
Q 2172 3584 2450 3431 
Q 2728 3278 2906 2969 
L 2906 3500 
L 3481 3500 
L 3481 434 
z
" transform="scale(0.015625)"/>
      <path id="DejaVuSans-4b" d="M 3513 2113 
L 3513 0 
L 2938 0 
L 2938 2094 
Q 2938 2591 2744 2837 
Q 2550 3084 2163 3084 
Q 1697 3084 1428 2787 
Q 1159 2491 1159 1978 
L 1159 0 
L 581 0 
L 581 4863 
L 1159 4863 
L 1159 2956 
Q 1366 3272 1645 3428 
Q 1925 3584 2291 3584 
Q 2894 3584 3203 3211 
Q 3513 2838 3513 2113 
z
" transform="scale(0.015625)"/>
     </defs>
     <use xlink:href="#DejaVuSans-50"/>
     <use xlink:href="#DejaVuSans-44" transform="translate(97.40625 0)"/>
     <use xlink:href="#DejaVuSans-55" transform="translate(158.6875 0)"/>
     <use xlink:href="#DejaVuSans-4e" transform="translate(199.796875 0)"/>
     <use xlink:href="#DejaVuSans-48" transform="translate(254.140625 0)"/>
     <use xlink:href="#DejaVuSans-55" transform="translate(315.671875 0)"/>
     <use xlink:href="#DejaVuSans-3" transform="translate(356.78125 0)"/>
     <use xlink:href="#DejaVuSans-56" transform="translate(388.5625 0)"/>
     <use xlink:href="#DejaVuSans-4c" transform="translate(440.65625 0)"/>
     <use xlink:href="#DejaVuSans-5d" transform="translate(468.4375 0)"/>
     <use xlink:href="#DejaVuSans-48" transform="translate(520.921875 0)"/>
     <use xlink:href="#DejaVuSans-3" transform="translate(582.453125 0)"/>
     <use xlink:href="#DejaVuSans-ca7" transform="translate(614.234375 0)"/>
     <use xlink:href="#DejaVuSans-3" transform="translate(685.671875 0)"/>
     <use xlink:href="#DejaVuSans-46" transform="translate(717.453125 0)"/>
     <use xlink:href="#DejaVuSans-52" transform="translate(772.4375 0)"/>
     <use xlink:href="#DejaVuSans-51" transform="translate(833.625 0)"/>
     <use xlink:href="#DejaVuSans-57" transform="translate(897 0)"/>
     <use xlink:href="#DejaVuSans-48" transform="translate(936.203125 0)"/>
     <use xlink:href="#DejaVuSans-5b" transform="translate(995.984375 0)"/>
     <use xlink:href="#DejaVuSans-57" transform="translate(1055.171875 0)"/>
     <use xlink:href="#DejaVuSans-3" transform="translate(1094.375 0)"/>
     <use xlink:href="#DejaVuSans-4f" transform="translate(1126.15625 0)"/>
     <use xlink:href="#DejaVuSans-48" transform="translate(1153.9375 0)"/>
     <use xlink:href="#DejaVuSans-51" transform="translate(1215.46875 0)"/>
     <use xlink:href="#DejaVuSans-4a" transform="translate(1278.84375 0)"/>
     <use xlink:href="#DejaVuSans-57" transform="translate(1342.328125 0)"/>
     <use xlink:href="#DejaVuSans-4b" transform="translate(1381.53125 0)"/>
    </g>
   </g>
   <g id="text_16">
    <!-- Writer/retrieval phase plane: failures track writer quality -->
    <g transform="translate(102.227656 16.318125) scale(0.12 -0.12)">
     <defs>
      <path id="DejaVuSans-3a" d="M 213 4666 
L 850 4666 
L 1831 722 
L 2809 4666 
L 3519 4666 
L 4500 722 
L 5478 4666 
L 6119 4666 
L 4947 0 
L 4153 0 
L 3169 4050 
L 2175 0 
L 1381 0 
L 213 4666 
z
" transform="scale(0.015625)"/>
      <path id="DejaVuSans-12" d="M 1625 4666 
L 2156 4666 
L 531 -594 
L 0 -594 
L 1625 4666 
z
" transform="scale(0.015625)"/>
      <path id="DejaVuSans-59" d="M 191 3500 
L 800 3500 
L 1894 563 
L 2988 3500 
L 3597 3500 
L 2284 0 
L 1503 0 
L 191 3500 
z
" transform="scale(0.015625)"/>
      <path id="DejaVuSans-53" d="M 1159 525 
L 1159 -1331 
L 581 -1331 
L 581 3500 
L 1159 3500 
L 1159 2969 
Q 1341 3281 1617 3432 
Q 1894 3584 2278 3584 
Q 2916 3584 3314 3078 
Q 3713 2572 3713 1747 
Q 3713 922 3314 415 
Q 2916 -91 2278 -91 
Q 1894 -91 1617 61 
Q 1341 213 1159 525 
z
M 3116 1747 
Q 3116 2381 2855 2742 
Q 2594 3103 2138 3103 
Q 1681 3103 1420 2742 
Q 1159 2381 1159 1747 
Q 1159 1113 1420 752 
Q 1681 391 2138 391 
Q 2594 391 2855 752 
Q 3116 1113 3116 1747 
z
" transform="scale(0.015625)"/>
      <path id="DejaVuSans-1d" d="M 750 794 
L 1409 794 
L 1409 0 
L 750 0 
L 750 794 
z
M 750 3309 
L 1409 3309 
L 1409 2516 
L 750 2516 
L 750 3309 
z
" transform="scale(0.015625)"/>
      <path id="DejaVuSans-54" d="M 947 1747 
Q 947 1113 1208 752 
Q 1469 391 1925 391 
Q 2381 391 2643 752 
Q 2906 1113 2906 1747 
Q 2906 2381 2643 2742 
Q 2381 3103 1925 3103 
Q 1469 3103 1208 2742 
Q 947 2381 947 1747 
z
M 2906 525 
Q 2725 213 2448 61 
Q 2172 -91 1784 -91 
Q 1150 -91 751 415 
Q 353 922 353 1747 
Q 353 2572 751 3078 
Q 1150 3584 1784 3584 
Q 2172 3584 2448 3432 
Q 2725 3281 2906 2969 
L 2906 3500 
L 3481 3500 
L 3481 -1331 
L 2906 -1331 
L 2906 525 
z
" transform="scale(0.015625)"/>
      <path id="DejaVuSans-5c" d="M 2059 -325 
Q 1816 -950 1584 -1140 
Q 1353 -1331 966 -1331 
L 506 -1331 
L 506 -850 
L 844 -850 
Q 1081 -850 1212 -737 
Q 1344 -625 1503 -206 
L 1606 56 
L 191 3500 
L 800 3500 
L 1894 763 
L 2988 3500 
L 3597 3500 
L 2059 -325 
z
" transform="scale(0.015625)"/>
     </defs>
     <use xlink:href="#DejaVuSans-3a"/>
     <use xlink:href="#DejaVuSans-55" transform="translate(94.390625 0)"/>
     <use xlink:href="#DejaVuSans-4c" transform="translate(135.5 0)"/>
     <use xlink:href="#DejaVuSans-57" transform="translate(163.28125 0)"/>
     <use xlink:href="#DejaVuSans-48" transform="translate(202.484375 0)"/>
     <use xlink:href="#DejaVuSans-55" transform="translate(264.015625 0)"/>
     <use xlink:href="#DejaVuSans-12" transform="translate(305.125 0)"/>
     <use xlink:href="#DejaVuSans-55" transform="translate(338.8125 0)"/>
     <use xlink:href="#DejaVuSans-48" transform="translate(377.71875 0)"/>
     <use xlink:href="#DejaVuSans-57" transform="translate(439.25 0)"/>
     <use xlink:href="#DejaVuSans-55" transform="translate(478.453125 0)"/>
     <use xlink:href="#DejaVuSans-4c" transform="translate(519.5625 0)"/>
     <use xlink:href="#DejaVuSans-48" transform="translate(547.34375 0)"/>
     <use xlink:href="#DejaVuSans-59" transform="translate(608.875 0)"/>
     <use xlink:href="#DejaVuSans-44" transform="translate(668.0625 0)"/>
     <use xlink:href="#DejaVuSans-4f" transform="translate(729.34375 0)"/>
     <use xlink:href="#DejaVuSans-3" transform="translate(757.125 0)"/>
     <use xlink:href="#DejaVuSans-53" transform="translate(788.90625 0)"/>
     <use xlink:href="#DejaVuSans-4b" transform="translate(852.390625 0)"/>
     <use xlink:href="#DejaVuSans-44" transform="translate(915.765625 0)"/>
     <use xlink:href="#DejaVuSans-56" transform="translate(977.046875 0)"/>
     <use xlink:href="#DejaVuSans-48" transform="translate(1029.140625 0)"/>
     <use xlink:href="#DejaVuSans-3" transform="translate(1090.671875 0)"/>
     <use xlink:href="#DejaVuSans-53" transform="translate(1122.453125 0)"/>
     <use xlink:href="#DejaVuSans-4f" transform="translate(1185.9375 0)"/>
     <use xlink:href="#DejaVuSans-44" transform="translate(1213.71875 0)"/>
     <use xlink:href="#DejaVuSans-51" transform="translate(1275 0)"/>
     <use xlink:href="#DejaVuSans-48" transform="translate(1338.375 0)"/>
     <use xlink:href="#DejaVuSans-1d" transform="translate(1399.90625 0)"/>
     <use xlink:href="#DejaVuSans-3" transform="translate(1433.59375 0)"/>
     <use xlink:href="#DejaVuSans-49" transform="translate(1465.375 0)"/>
     <use xlink:href="#DejaVuSans-44" transform="translate(1500.578125 0)"/>
     <use xlink:href="#DejaVuSans-4c" transform="translate(1561.859375 0)"/>
     <use xlink:href="#DejaVuSans-4f" transform="translate(1589.640625 0)"/>
     <use xlink:href="#DejaVuSans-58" transform="translate(1617.421875 0)"/>
     <use xlink:href="#DejaVuSans-55" transform="translate(1680.796875 0)"/>
     <use xlink:href="#DejaVuSans-48" transform="translate(1719.703125 0)"/>
     <use xlink:href="#DejaVuSans-56" transform="translate(1781.234375 0)"/>
     <use xlink:href="#DejaVuSans-3" transform="translate(1833.328125 0)"/>
     <use xlink:href="#DejaVuSans-57" transform="translate(1865.109375 0)"/>
     <use xlink:href="#DejaVuSans-55" transform="translate(1904.3125 0)"/>
     <use xlink:href="#DejaVuSans-44" transform="translate(1945.421875 0)"/>
     <use xlink:href="#DejaVuSans-46" transform="translate(2006.703125 0)"/>
     <use xlink:href="#DejaVuSans-4e" transform="translate(2061.6875 0)"/>
     <use xlink:href="#DejaVuSans-3" transform="translate(2119.59375 0)"/>
     <use xlink:href="#DejaVuSans-5a" transform="translate(2151.375 0)"/>
     <use xlink:href="#DejaVuSans-55" transform="translate(2233.15625 0)"/>
     <use xlink:href="#DejaVuSans-4c" transform="translate(2274.265625 0)"/>
     <use xlink:href="#DejaVuSans-57" transform="translate(2302.046875 0)"/>
     <use xlink:href="#DejaVuSans-48" transform="translate(2341.25 0)"/>
     <use xlink:href="#DejaVuSans-55" transform="translate(2402.78125 0)"/>
     <use xlink:href="#DejaVuSans-3" transform="translate(2443.890625 0)"/>
     <use xlink:href="#DejaVuSans-54" transform="translate(2475.671875 0)"/>
     <use xlink:href="#DejaVuSans-58" transform="translate(2539.15625 0)"/>
     <use xlink:href="#DejaVuSans-44" transform="translate(2602.53125 0)"/>
     <use xlink:href="#DejaVuSans-4f" transform="translate(2663.8125 0)"/>
     <use xlink:href="#DejaVuSans-4c" transform="translate(2691.59375 0)"/>
     <use xlink:href="#DejaVuSans-57" transform="translate(2719.375 0)"/>
     <use xlink:href="#DejaVuSans-5c" transform="translate(2758.578125 0)"/>
    </g>
   </g>
   <g id="legend_1">
    <g id="patch_6">
     <path d="M 48.113594 362.046125 
L 107.306094 362.046125 
Q 108.906094 362.046125 108.906094 360.446125 
L 108.906094 325.24425 
Q 108.906094 323.64425 107.306094 323.64425 
L 48.113594 323.64425 
Q 46.513594 323.64425 46.513594 325.24425 
L 46.513594 360.446125 
Q 46.513594 362.046125 48.113594 362.046125 
z
" style="fill: #ffffff; opacity: 0.8; stroke: #cccccc; stroke-linejoin: miter"/>
    </g>
    <g id="PathCollection_3">
     <defs>
      <path id="mc8bc9a8e65" d="M 0 5.880136 
C 1.55943 5.880136 3.0552 5.260568 4.157884 4.157884 
C 5.260568 3.0552 5.880136 1.55943 5.880136 0 
C 5.880136 -1.55943 5.260568 -3.0552 4.157884 -4.157884 
C 3.0552 -5.260568 1.55943 -5.880136 0 -5.880136 
C -1.55943 -5.880136 -3.0552 -5.260568 -4.157884 -4.157884 
C -5.260568 -3.0552 -5.880136 -1.55943 -5.880136 0 
C -5.880136 1.55943 -5.260568 3.0552 -4.157884 4.157884 
C -3.0552 5.260568 -1.55943 5.880136 0 5.880136 
z
" style="stroke: #ffffff; stroke-opacity: 0.75; stroke-width: 0.6"/>
     </defs>
     <g>
      <use xlink:href="#mc8bc9a8e65" x="57.713594" y="330.823" style="fill: #e76f51; fill-opacity: 0.75; stroke: #ffffff; stroke-opacity: 0.75; stroke-width: 0.6"/>
     </g>
    </g>
    <g id="text_17">
     <!-- tf200 -->
     <g transform="translate(72.113594 332.923) scale(0.08 -0.08)">
      <use xlink:href="#DejaVuSans-57"/>
      <use xlink:href="#DejaVuSans-49" transform="translate(39.203125 0)"/>
      <use xlink:href="#DejaVuSans-15" transform="translate(74.40625 0)"/>
      <use xlink:href="#DejaVuSans-13" transform="translate(138.03125 0)"/>
      <use xlink:href="#DejaVuSans-13" transform="translate(201.65625 0)"/>
     </g>
    </g>
    <g id="PathCollection_4">
     <defs>
      <path id="m9d57bb7c02" d="M -5.880136 5.880136 
L 5.880136 5.880136 
L 5.880136 -5.880136 
L -5.880136 -5.880136 
z
" style="stroke: #ffffff; stroke-opacity: 0.75; stroke-width: 0.6"/>
     </defs>
     <g>
      <use xlink:href="#m9d57bb7c02" x="57.713594" y="342.823625" style="fill: #2a9d8f; fill-opacity: 0.75; stroke: #ffffff; stroke-opacity: 0.75; stroke-width: 0.6"/>
     </g>
    </g>
    <g id="text_18">
     <!-- tf600 -->
     <g transform="translate(72.113594 344.923625) scale(0.08 -0.08)">
      <use xlink:href="#DejaVuSans-57"/>
      <use xlink:href="#DejaVuSans-49" transform="translate(39.203125 0)"/>
      <use xlink:href="#DejaVuSans-19" transform="translate(74.40625 0)"/>
      <use xlink:href="#DejaVuSans-13" transform="translate(138.03125 0)"/>
      <use xlink:href="#DejaVuSans-13" transform="translate(201.65625 0)"/>
     </g>
    </g>
    <g id="line2d_26">
     <path d="M 49.713594 354.12425 
L 57.713594 354.12425 
L 65.713594 354.12425 
" style="fill: none; stroke: #222222; stroke-width: 2; stroke-linecap: square"/>
    </g>
    <g id="text_19">
     <!-- LOWESS -->
     <g transform="translate(72.113594 356.92425) scale(0.08 -0.08)">
      <defs>
       <path id="DejaVuSans-2f" d="M 628 4666 
L 1259 4666 
L 1259 531 
L 3531 531 
L 3531 0 
L 628 0 
L 628 4666 
z
" transform="scale(0.015625)"/>
       <path id="DejaVuSans-32" d="M 2522 4238 
Q 1834 4238 1429 3725 
Q 1025 3213 1025 2328 
Q 1025 1447 1429 934 
Q 1834 422 2522 422 
Q 3209 422 3611 934 
Q 4013 1447 4013 2328 
Q 4013 3213 3611 3725 
Q 3209 4238 2522 4238 
z
M 2522 4750 
Q 3503 4750 4090 4092 
Q 4678 3434 4678 2328 
Q 4678 1225 4090 567 
Q 3503 -91 2522 -91 
Q 1538 -91 948 565 
Q 359 1222 359 2328 
Q 359 3434 948 4092 
Q 1538 4750 2522 4750 
z
" transform="scale(0.015625)"/>
       <path id="DejaVuSans-28" d="M 628 4666 
L 3578 4666 
L 3578 4134 
L 1259 4134 
L 1259 2753 
L 3481 2753 
L 3481 2222 
L 1259 2222 
L 1259 531 
L 3634 531 
L 3634 0 
L 628 0 
L 628 4666 
z
" transform="scale(0.015625)"/>
       <path id="DejaVuSans-36" d="M 3425 4513 
L 3425 3897 
Q 3066 4069 2747 4153 
Q 2428 4238 2131 4238 
Q 1616 4238 1336 4038 
Q 1056 3838 1056 3469 
Q 1056 3159 1242 3001 
Q 1428 2844 1947 2747 
L 2328 2669 
Q 3034 2534 3370 2195 
Q 3706 1856 3706 1288 
Q 3706 609 3251 259 
Q 2797 -91 1919 -91 
Q 1588 -91 1214 -16 
Q 841 59 441 206 
L 441 856 
Q 825 641 1194 531 
Q 1563 422 1919 422 
Q 2459 422 2753 634 
Q 3047 847 3047 1241 
Q 3047 1584 2836 1778 
Q 2625 1972 2144 2069 
L 1759 2144 
Q 1053 2284 737 2584 
Q 422 2884 422 3419 
Q 422 4038 858 4394 
Q 1294 4750 2059 4750 
Q 2388 4750 2728 4690 
Q 3069 4631 3425 4513 
z
" transform="scale(0.015625)"/>
      </defs>
      <use xlink:href="#DejaVuSans-2f"/>
      <use xlink:href="#DejaVuSans-32" transform="translate(52.15625 0)"/>
      <use xlink:href="#DejaVuSans-3a" transform="translate(130.875 0)"/>
      <use xlink:href="#DejaVuSans-28" transform="translate(229.75 0)"/>
      <use xlink:href="#DejaVuSans-36" transform="translate(292.9375 0)"/>
      <use xlink:href="#DejaVuSans-36" transform="translate(356.421875 0)"/>
     </g>
    </g>
   </g>
  </g>
 </g>
 <defs>
  <clipPath id="pfafccbb893">
   <rect x="42.513594" y="22.318125" width="457.56" height="343.728"/>
  </clipPath>
 </defs>
</svg>
