<?xml version="1.0" encoding="utf-8" standalone="no"?>
<!DOCTYPE svg PUBLIC "-//W3C//DTD SVG 1.1//EN"
  "http://www.w3.org/Graphics/SVG/1.1/DTD/svg11.dtd">
<svg xmlns:xlink="http://www.w3.org/1999/xlink" width="806.4pt" height="407.712781pt" viewBox="0 0 806.4 407.712781" xmlns="http://www.w3.org/2000/svg" version="1.1">
 <metadata>
  <rdf:RDF xmlns:dc="http://purl.org/dc/elements/1.1/" xmlns:cc="http://creativecommons.org/ns#" xmlns:rdf="http://www.w3.org/1999/02/22-rdf-syntax-ns#">
   <cc:Work>
    <dc:type rdf:resource="http://purl.org/dc/dcmitype/StillImage"/>
    <dc:date>2026-06-30T10:12:55.379376</dc:date>
    <dc:format>image/svg+xml</dc:format>
    <dc:creator>
     <cc:Agent>
      <dc:title>Matplotlib v3.11.0, https://matplotlib.org/</dc:title>
     </cc:Agent>
    </dc:creator>
   </cc:Work>
  </rdf:RDF>
 </metadata>
 <defs>
  <style type="text/css">*{stroke-linejoin: round; stroke-linecap: butt}</style>
 </defs>
 <g id="figure_1">
  <g id="patch_1">
   <path d="M 0 407.712781 
L 806.4 407.712781 
L 806.4 0 
L 0 0 
z
" style="fill: #ffffff"/>
  </g>
  <g id="axes_1">
   <g id="patch_2">
    <path d="M 101.7 370.512 
L 418.745455 370.512 
L 418.745455 48.96 
L 101.7 48.96 
z
" style="fill: #ffffff"/>
   </g>
   <g id="PathCollection_1">
    <defs>
     <path id="m7d8e9c3077" d="M 0 4.1833 
C 1.109424 4.1833 2.173559 3.742521 2.95804 2.95804 
C 3.742521 2.173559 4.1833 1.109424 4.1833 0 
C 4.1833 -1.109424 3.742521 -2.173559 2.95804 -2.95804 
C 2.173559 -3.742521 1.109424 -4.1833 0 -4.1833 
C -1.109424 -4.1833 -2.173559 -3.742521 -2.95804 -2.95804 
C -3.742521 -2.173559 -4.1833 -1.109424 -4.1833 0 
C -4.1833 1.109424 -3.742521 2.173559 -2.95804 2.95804 
C -2.173559 3.742521 -1.109424 4.1833 0 4.1833 
z
" style="stroke: #ffffff; stroke-opacity: 0.78; stroke-width: 0.7"/>
    </defs>
    <g clip-path="url(#p0cb35d4585)">
     <use xlink:href="#m7d8e9c3077" x="183.0201" y="326.664" style="fill: #e76f51; fill-opacity: 0.78; stroke: #ffffff; stroke-opacity: 0.78; stroke-width: 0.7"/>
     <use xlink:href="#m7d8e9c3077" x="231.915097" y="238.968" style="fill: #e76f51; fill-opacity: 0.78; stroke: #ffffff; stroke-opacity: 0.78; stroke-width: 0.7"/>
     <use xlink:href="#m7d8e9c3077" x="216.474572" y="268.2" style="fill: #e76f51; fill-opacity: 0.78; stroke: #ffffff; stroke-opacity: 0.78; stroke-width: 0.7"/>
     <use xlink:href="#m7d8e9c3077" x="314.264566" y="122.04" style="fill: #e76f51; fill-opacity: 0.78; stroke: #ffffff; stroke-opacity: 0.78; stroke-width: 0.7"/>
     <use xlink:href="#m7d8e9c3077" x="321.984829" y="297.432" style="fill: #e76f51; fill-opacity: 0.78; stroke: #ffffff; stroke-opacity: 0.78; stroke-width: 0.7"/>
     <use xlink:href="#m7d8e9c3077" x="347.719038" y="209.736" style="fill: #e76f51; fill-opacity: 0.78; stroke: #ffffff; stroke-opacity: 0.78; stroke-width: 0.7"/>
     <use xlink:href="#m7d8e9c3077" x="280.810094" y="268.2" style="fill: #e76f51; fill-opacity: 0.78; stroke: #ffffff; stroke-opacity: 0.78; stroke-width: 0.7"/>
     <use xlink:href="#m7d8e9c3077" x="347.719038" y="180.504" style="fill: #e76f51; fill-opacity: 0.78; stroke: #ffffff; stroke-opacity: 0.78; stroke-width: 0.7"/>
     <use xlink:href="#m7d8e9c3077" x="404.334298" y="63.576" style="fill: #e76f51; fill-opacity: 0.78; stroke: #ffffff; stroke-opacity: 0.78; stroke-width: 0.7"/>
     <use xlink:href="#m7d8e9c3077" x="383.74693" y="63.576" style="fill: #e76f51; fill-opacity: 0.78; stroke: #ffffff; stroke-opacity: 0.78; stroke-width: 0.7"/>
     <use xlink:href="#m7d8e9c3077" x="270.516411" y="180.504" style="fill: #e76f51; fill-opacity: 0.78; stroke: #ffffff; stroke-opacity: 0.78; stroke-width: 0.7"/>
     <use xlink:href="#m7d8e9c3077" x="342.572196" y="122.04" style="fill: #e76f51; fill-opacity: 0.78; stroke: #ffffff; stroke-opacity: 0.78; stroke-width: 0.7"/>
     <use xlink:href="#m7d8e9c3077" x="311.691145" y="180.504" style="fill: #e76f51; fill-opacity: 0.78; stroke: #ffffff; stroke-opacity: 0.78; stroke-width: 0.7"/>
     <use xlink:href="#m7d8e9c3077" x="363.159563" y="297.432" style="fill: #e76f51; fill-opacity: 0.78; stroke: #ffffff; stroke-opacity: 0.78; stroke-width: 0.7"/>
    </g>
   </g>
   <g id="PathCollection_2">
    <defs>
     <path id="mec48652276" d="M 0 4.1833 
C 1.109424 4.1833 2.173559 3.742521 2.95804 2.95804 
C 3.742521 2.173559 4.1833 1.109424 4.1833 0 
C 4.1833 -1.109424 3.742521 -2.173559 2.95804 -2.95804 
C 2.173559 -3.742521 1.109424 -4.1833 0 -4.1833 
C -1.109424 -4.1833 -2.173559 -3.742521 -2.95804 -2.95804 
C -3.742521 -2.173559 -4.1833 -1.109424 -4.1833 0 
C -4.1833 1.109424 -3.742521 2.173559 -2.95804 2.95804 
C -2.173559 3.742521 -1.109424 4.1833 0 4.1833 
z
" style="stroke: #ffffff; stroke-opacity: 0.78; stroke-width: 0.7"/>
    </defs>
    <g clip-path="url(#p0cb35d4585)">
     <use xlink:href="#mec48652276" x="116.111157" y="355.896" style="fill: #2a9d8f; fill-opacity: 0.78; stroke: #ffffff; stroke-opacity: 0.78; stroke-width: 0.7"/>
     <use xlink:href="#mec48652276" x="131.551682" y="341.28" style="fill: #2a9d8f; fill-opacity: 0.78; stroke: #ffffff; stroke-opacity: 0.78; stroke-width: 0.7"/>
     <use xlink:href="#mec48652276" x="116.111157" y="355.896" style="fill: #2a9d8f; fill-opacity: 0.78; stroke: #ffffff; stroke-opacity: 0.78; stroke-width: 0.7"/>
     <use xlink:href="#mec48652276" x="136.698524" y="355.896" style="fill: #2a9d8f; fill-opacity: 0.78; stroke: #ffffff; stroke-opacity: 0.78; stroke-width: 0.7"/>
     <use xlink:href="#mec48652276" x="123.83142" y="355.896" style="fill: #2a9d8f; fill-opacity: 0.78; stroke: #ffffff; stroke-opacity: 0.78; stroke-width: 0.7"/>
     <use xlink:href="#mec48652276" x="116.111157" y="355.896" style="fill: #2a9d8f; fill-opacity: 0.78; stroke: #ffffff; stroke-opacity: 0.78; stroke-width: 0.7"/>
     <use xlink:href="#mec48652276" x="121.257999" y="355.896" style="fill: #2a9d8f; fill-opacity: 0.78; stroke: #ffffff; stroke-opacity: 0.78; stroke-width: 0.7"/>
     <use xlink:href="#mec48652276" x="123.83142" y="341.28" style="fill: #2a9d8f; fill-opacity: 0.78; stroke: #ffffff; stroke-opacity: 0.78; stroke-width: 0.7"/>
     <use xlink:href="#mec48652276" x="116.111157" y="355.896" style="fill: #2a9d8f; fill-opacity: 0.78; stroke: #ffffff; stroke-opacity: 0.78; stroke-width: 0.7"/>
     <use xlink:href="#mec48652276" x="152.13905" y="297.432" style="fill: #2a9d8f; fill-opacity: 0.78; stroke: #ffffff; stroke-opacity: 0.78; stroke-width: 0.7"/>
     <use xlink:href="#mec48652276" x="141.845366" y="326.664" style="fill: #2a9d8f; fill-opacity: 0.78; stroke: #ffffff; stroke-opacity: 0.78; stroke-width: 0.7"/>
     <use xlink:href="#mec48652276" x="126.404841" y="355.896" style="fill: #2a9d8f; fill-opacity: 0.78; stroke: #ffffff; stroke-opacity: 0.78; stroke-width: 0.7"/>
     <use xlink:href="#mec48652276" x="141.845366" y="355.896" style="fill: #2a9d8f; fill-opacity: 0.78; stroke: #ffffff; stroke-opacity: 0.78; stroke-width: 0.7"/>
     <use xlink:href="#mec48652276" x="126.404841" y="326.664" style="fill: #2a9d8f; fill-opacity: 0.78; stroke: #ffffff; stroke-opacity: 0.78; stroke-width: 0.7"/>
     <use xlink:href="#mec48652276" x="126.404841" y="355.896" style="fill: #2a9d8f; fill-opacity: 0.78; stroke: #ffffff; stroke-opacity: 0.78; stroke-width: 0.7"/>
     <use xlink:href="#mec48652276" x="131.551682" y="355.896" style="fill: #2a9d8f; fill-opacity: 0.78; stroke: #ffffff; stroke-opacity: 0.78; stroke-width: 0.7"/>
     <use xlink:href="#mec48652276" x="136.698524" y="355.896" style="fill: #2a9d8f; fill-opacity: 0.78; stroke: #ffffff; stroke-opacity: 0.78; stroke-width: 0.7"/>
     <use xlink:href="#mec48652276" x="136.698524" y="297.432" style="fill: #2a9d8f; fill-opacity: 0.78; stroke: #ffffff; stroke-opacity: 0.78; stroke-width: 0.7"/>
     <use xlink:href="#mec48652276" x="126.404841" y="355.896" style="fill: #2a9d8f; fill-opacity: 0.78; stroke: #ffffff; stroke-opacity: 0.78; stroke-width: 0.7"/>
     <use xlink:href="#mec48652276" x="136.698524" y="355.896" style="fill: #2a9d8f; fill-opacity: 0.78; stroke: #ffffff; stroke-opacity: 0.78; stroke-width: 0.7"/>
     <use xlink:href="#mec48652276" x="146.992208" y="297.432" style="fill: #2a9d8f; fill-opacity: 0.78; stroke: #ffffff; stroke-opacity: 0.78; stroke-width: 0.7"/>
     <use xlink:href="#mec48652276" x="177.873259" y="355.896" style="fill: #2a9d8f; fill-opacity: 0.78; stroke: #ffffff; stroke-opacity: 0.78; stroke-width: 0.7"/>
     <use xlink:href="#mec48652276" x="126.404841" y="355.896" style="fill: #2a9d8f; fill-opacity: 0.78; stroke: #ffffff; stroke-opacity: 0.78; stroke-width: 0.7"/>
    </g>
   </g>
   <g id="matplotlib.axis_1">
    <g id="xtick_1">
     <g id="line2d_1">
      <path d="M 116.111157 370.512 
L 116.111157 48.96 
" clip-path="url(#p0cb35d4585)" style="fill: none; stroke: #d9dee5; stroke-opacity: 0.5; stroke-width: 0.8; stroke-linecap: square"/>
     </g>
     <g id="line2d_2">
      <defs>
       <path id="m3cfcefc58c" d="M 0 0 
L 0 3.5 
" style="stroke: #000000; stroke-width: 0.8"/>
      </defs>
      <g>
       <use xlink:href="#m3cfcefc58c" x="116.111157" y="370.512" style="stroke: #000000; stroke-width: 0.8"/>
      </g>
     </g>
     <g id="text_1">
      <!-- 0.00 -->
      <g transform="translate(106.091626 384.349891) scale(0.09 -0.09)">
       <defs>
        <path id="DejaVuSans-13" d="M 2034 4250 
Q 1547 4250 1301 3770 
Q 1056 3291 1056 2328 
Q 1056 1369 1301 889 
Q 1547 409 2034 409 
Q 2525 409 2770 889 
Q 3016 1369 3016 2328 
Q 3016 3291 2770 3770 
Q 2525 4250 2034 4250 
z
M 2034 4750 
Q 2819 4750 3233 4129 
Q 3647 3509 3647 2328 
Q 3647 1150 3233 529 
Q 2819 -91 2034 -91 
Q 1250 -91 836 529 
Q 422 1150 422 2328 
Q 422 3509 836 4129 
Q 1250 4750 2034 4750 
z
" transform="scale(0.015625)"/>
        <path id="DejaVuSans-11" d="M 684 794 
L 1344 794 
L 1344 0 
L 684 0 
L 684 794 
z
" transform="scale(0.015625)"/>
       </defs>
       <use xlink:href="#DejaVuSans-13"/>
       <use xlink:href="#DejaVuSans-11" transform="translate(63.625 0)"/>
       <use xlink:href="#DejaVuSans-13" transform="translate(95.40625 0)"/>
       <use xlink:href="#DejaVuSans-13" transform="translate(159.03125 0)"/>
      </g>
     </g>
    </g>
    <g id="xtick_2">
     <g id="line2d_3">
      <path d="M 157.285891 370.512 
L 157.285891 48.96 
" clip-path="url(#p0cb35d4585)" style="fill: none; stroke: #d9dee5; stroke-opacity: 0.5; stroke-width: 0.8; stroke-linecap: square"/>
     </g>
     <g id="line2d_4">
      <g>
       <use xlink:href="#m3cfcefc58c" x="157.285891" y="370.512" style="stroke: #000000; stroke-width: 0.8"/>
      </g>
     </g>
     <g id="text_2">
      <!-- 0.05 -->
      <g transform="translate(147.26636 384.349891) scale(0.09 -0.09)">
       <defs>
        <path id="DejaVuSans-18" d="M 691 4666 
L 3169 4666 
L 3169 4134 
L 1269 4134 
L 1269 2991 
Q 1406 3038 1543 3061 
Q 1681 3084 1819 3084 
Q 2600 3084 3056 2656 
Q 3513 2228 3513 1497 
Q 3513 744 3044 326 
Q 2575 -91 1722 -91 
Q 1428 -91 1123 -41 
Q 819 9 494 109 
L 494 744 
Q 775 591 1075 516 
Q 1375 441 1709 441 
Q 2250 441 2565 725 
Q 2881 1009 2881 1497 
Q 2881 1984 2565 2268 
Q 2250 2553 1709 2553 
Q 1456 2553 1204 2497 
Q 953 2441 691 2322 
L 691 4666 
z
" transform="scale(0.015625)"/>
       </defs>
       <use xlink:href="#DejaVuSans-13"/>
       <use xlink:href="#DejaVuSans-11" transform="translate(63.625 0)"/>
       <use xlink:href="#DejaVuSans-13" transform="translate(95.40625 0)"/>
       <use xlink:href="#DejaVuSans-18" transform="translate(159.03125 0)"/>
      </g>
     </g>
    </g>
    <g id="xtick_3">
     <g id="line2d_5">
      <path d="M 198.460626 370.512 
L 198.460626 48.96 
" clip-path="url(#p0cb35d4585)" style="fill: none; stroke: #d9dee5; stroke-opacity: 0.5; stroke-width: 0.8; stroke-linecap: square"/>
     </g>
     <g id="line2d_6">
      <g>
       <use xlink:href="#m3cfcefc58c" x="198.460626" y="370.512" style="stroke: #000000; stroke-width: 0.8"/>
      </g>
     </g>
     <g id="text_3">
      <!-- 0.10 -->
      <g transform="translate(188.441094 384.349891) scale(0.09 -0.09)">
       <defs>
        <path id="DejaVuSans-14" d="M 794 531 
L 1825 531 
L 1825 4091 
L 703 3866 
L 703 4441 
L 1819 4666 
L 2450 4666 
L 2450 531 
L 3481 531 
L 3481 0 
L 794 0 
L 794 531 
z
" transform="scale(0.015625)"/>
       </defs>
       <use xlink:href="#DejaVuSans-13"/>
       <use xlink:href="#DejaVuSans-11" transform="translate(63.625 0)"/>
       <use xlink:href="#DejaVuSans-14" transform="translate(95.40625 0)"/>
       <use xlink:href="#DejaVuSans-13" transform="translate(159.03125 0)"/>
      </g>
     </g>
    </g>
    <g id="xtick_4">
     <g id="line2d_7">
      <path d="M 239.63536 370.512 
L 239.63536 48.96 
" clip-path="url(#p0cb35d4585)" style="fill: none; stroke: #d9dee5; stroke-opacity: 0.5; stroke-width: 0.8; stroke-linecap: square"/>
     </g>
     <g id="line2d_8">
      <g>
       <use xlink:href="#m3cfcefc58c" x="239.63536" y="370.512" style="stroke: #000000; stroke-width: 0.8"/>
      </g>
     </g>
     <g id="text_4">
      <!-- 0.15 -->
      <g transform="translate(229.615829 384.349891) scale(0.09 -0.09)">
       <use xlink:href="#DejaVuSans-13"/>
       <use xlink:href="#DejaVuSans-11" transform="translate(63.625 0)"/>
       <use xlink:href="#DejaVuSans-14" transform="translate(95.40625 0)"/>
       <use xlink:href="#DejaVuSans-18" transform="translate(159.03125 0)"/>
      </g>
     </g>
    </g>
    <g id="xtick_5">
     <g id="line2d_9">
      <path d="M 280.810094 370.512 
L 280.810094 48.96 
" clip-path="url(#p0cb35d4585)" style="fill: none; stroke: #d9dee5; stroke-opacity: 0.5; stroke-width: 0.8; stroke-linecap: square"/>
     </g>
     <g id="line2d_10">
      <g>
       <use xlink:href="#m3cfcefc58c" x="280.810094" y="370.512" style="stroke: #000000; stroke-width: 0.8"/>
      </g>
     </g>
     <g id="text_5">
      <!-- 0.20 -->
      <g transform="translate(270.790563 384.349891) scale(0.09 -0.09)">
       <defs>
        <path id="DejaVuSans-15" d="M 1228 531 
L 3431 531 
L 3431 0 
L 469 0 
L 469 531 
Q 828 903 1448 1529 
Q 2069 2156 2228 2338 
Q 2531 2678 2651 2914 
Q 2772 3150 2772 3378 
Q 2772 3750 2511 3984 
Q 2250 4219 1831 4219 
Q 1534 4219 1204 4116 
Q 875 4013 500 3803 
L 500 4441 
Q 881 4594 1212 4672 
Q 1544 4750 1819 4750 
Q 2544 4750 2975 4387 
Q 3406 4025 3406 3419 
Q 3406 3131 3298 2873 
Q 3191 2616 2906 2266 
Q 2828 2175 2409 1742 
Q 1991 1309 1228 531 
z
" transform="scale(0.015625)"/>
       </defs>
       <use xlink:href="#DejaVuSans-13"/>
       <use xlink:href="#DejaVuSans-11" transform="translate(63.625 0)"/>
       <use xlink:href="#DejaVuSans-15" transform="translate(95.40625 0)"/>
       <use xlink:href="#DejaVuSans-13" transform="translate(159.03125 0)"/>
      </g>
     </g>
    </g>
    <g id="xtick_6">
     <g id="line2d_11">
      <path d="M 321.984829 370.512 
L 321.984829 48.96 
" clip-path="url(#p0cb35d4585)" style="fill: none; stroke: #d9dee5; stroke-opacity: 0.5; stroke-width: 0.8; stroke-linecap: square"/>
     </g>
     <g id="line2d_12">
      <g>
       <use xlink:href="#m3cfcefc58c" x="321.984829" y="370.512" style="stroke: #000000; stroke-width: 0.8"/>
      </g>
     </g>
     <g id="text_6">
      <!-- 0.25 -->
      <g transform="translate(311.965298 384.349891) scale(0.09 -0.09)">
       <use xlink:href="#DejaVuSans-13"/>
       <use xlink:href="#DejaVuSans-11" transform="translate(63.625 0)"/>
       <use xlink:href="#DejaVuSans-15" transform="translate(95.40625 0)"/>
       <use xlink:href="#DejaVuSans-18" transform="translate(159.03125 0)"/>
      </g>
     </g>
    </g>
    <g id="xtick_7">
     <g id="line2d_13">
      <path d="M 363.159563 370.512 
L 363.159563 48.96 
" clip-path="url(#p0cb35d4585)" style="fill: none; stroke: #d9dee5; stroke-opacity: 0.5; stroke-width: 0.8; stroke-linecap: square"/>
     </g>
     <g id="line2d_14">
      <g>
       <use xlink:href="#m3cfcefc58c" x="363.159563" y="370.512" style="stroke: #000000; stroke-width: 0.8"/>
      </g>
     </g>
     <g id="text_7">
      <!-- 0.30 -->
      <g transform="translate(353.140032 384.349891) scale(0.09 -0.09)">
       <defs>
        <path id="DejaVuSans-16" d="M 2597 2516 
Q 3050 2419 3304 2112 
Q 3559 1806 3559 1356 
Q 3559 666 3084 287 
Q 2609 -91 1734 -91 
Q 1441 -91 1130 -33 
Q 819 25 488 141 
L 488 750 
Q 750 597 1062 519 
Q 1375 441 1716 441 
Q 2309 441 2620 675 
Q 2931 909 2931 1356 
Q 2931 1769 2642 2001 
Q 2353 2234 1838 2234 
L 1294 2234 
L 1294 2753 
L 1863 2753 
Q 2328 2753 2575 2939 
Q 2822 3125 2822 3475 
Q 2822 3834 2567 4026 
Q 2313 4219 1838 4219 
Q 1578 4219 1281 4162 
Q 984 4106 628 3988 
L 628 4550 
Q 988 4650 1302 4700 
Q 1616 4750 1894 4750 
Q 2613 4750 3031 4423 
Q 3450 4097 3450 3541 
Q 3450 3153 3228 2886 
Q 3006 2619 2597 2516 
z
" transform="scale(0.015625)"/>
       </defs>
       <use xlink:href="#DejaVuSans-13"/>
       <use xlink:href="#DejaVuSans-11" transform="translate(63.625 0)"/>
       <use xlink:href="#DejaVuSans-16" transform="translate(95.40625 0)"/>
       <use xlink:href="#DejaVuSans-13" transform="translate(159.03125 0)"/>
      </g>
     </g>
    </g>
    <g id="xtick_8">
     <g id="line2d_15">
      <path d="M 404.334298 370.512 
L 404.334298 48.96 
" clip-path="url(#p0cb35d4585)" style="fill: none; stroke: #d9dee5; stroke-opacity: 0.5; stroke-width: 0.8; stroke-linecap: square"/>
     </g>
     <g id="line2d_16">
      <g>
       <use xlink:href="#m3cfcefc58c" x="404.334298" y="370.512" style="stroke: #000000; stroke-width: 0.8"/>
      </g>
     </g>
     <g id="text_8">
      <!-- 0.35 -->
      <g transform="translate(394.314766 384.349891) scale(0.09 -0.09)">
       <use xlink:href="#DejaVuSans-13"/>
       <use xlink:href="#DejaVuSans-11" transform="translate(63.625 0)"/>
       <use xlink:href="#DejaVuSans-16" transform="translate(95.40625 0)"/>
       <use xlink:href="#DejaVuSans-18" transform="translate(159.03125 0)"/>
      </g>
     </g>
    </g>
    <g id="text_9">
     <!-- Writer error rate: mean(false write, missed fact) -->
     <g transform="translate(140.098509 398.110437) scale(0.1 -0.1)">
      <defs>
       <path id="DejaVuSans-3a" d="M 213 4666 
L 850 4666 
L 1831 722 
L 2809 4666 
L 3519 4666 
L 4500 722 
L 5478 4666 
L 6119 4666 
L 4947 0 
L 4153 0 
L 3169 4050 
L 2175 0 
L 1381 0 
L 213 4666 
z
" transform="scale(0.015625)"/>
       <path id="DejaVuSans-55" d="M 2631 2963 
Q 2534 3019 2420 3045 
Q 2306 3072 2169 3072 
Q 1681 3072 1420 2755 
Q 1159 2438 1159 1844 
L 1159 0 
L 581 0 
L 581 3500 
L 1159 3500 
L 1159 2956 
Q 1341 3275 1631 3429 
Q 1922 3584 2338 3584 
Q 2397 3584 2469 3576 
Q 2541 3569 2628 3553 
L 2631 2963 
z
" transform="scale(0.015625)"/>
       <path id="DejaVuSans-4c" d="M 603 3500 
L 1178 3500 
L 1178 0 
L 603 0 
L 603 3500 
z
M 603 4863 
L 1178 4863 
L 1178 4134 
L 603 4134 
L 603 4863 
z
" transform="scale(0.015625)"/>
       <path id="DejaVuSans-57" d="M 1172 4494 
L 1172 3500 
L 2356 3500 
L 2356 3053 
L 1172 3053 
L 1172 1153 
Q 1172 725 1289 603 
Q 1406 481 1766 481 
L 2356 481 
L 2356 0 
L 1766 0 
Q 1100 0 847 248 
Q 594 497 594 1153 
L 594 3053 
L 172 3053 
L 172 3500 
L 594 3500 
L 594 4494 
L 1172 4494 
z
" transform="scale(0.015625)"/>
       <path id="DejaVuSans-48" d="M 3597 1894 
L 3597 1613 
L 953 1613 
Q 991 1019 1311 708 
Q 1631 397 2203 397 
Q 2534 397 2845 478 
Q 3156 559 3463 722 
L 3463 178 
Q 3153 47 2828 -22 
Q 2503 -91 2169 -91 
Q 1331 -91 842 396 
Q 353 884 353 1716 
Q 353 2575 817 3079 
Q 1281 3584 2069 3584 
Q 2775 3584 3186 3129 
Q 3597 2675 3597 1894 
z
M 3022 2063 
Q 3016 2534 2758 2815 
Q 2500 3097 2075 3097 
Q 1594 3097 1305 2825 
Q 1016 2553 972 2059 
L 3022 2063 
z
" transform="scale(0.015625)"/>
       <path id="DejaVuSans-3" transform="scale(0.015625)"/>
       <path id="DejaVuSans-52" d="M 1959 3097 
Q 1497 3097 1228 2736 
Q 959 2375 959 1747 
Q 959 1119 1226 758 
Q 1494 397 1959 397 
Q 2419 397 2687 759 
Q 2956 1122 2956 1747 
Q 2956 2369 2687 2733 
Q 2419 3097 1959 3097 
z
M 1959 3584 
Q 2709 3584 3137 3096 
Q 3566 2609 3566 1747 
Q 3566 888 3137 398 
Q 2709 -91 1959 -91 
Q 1206 -91 779 398 
Q 353 888 353 1747 
Q 353 2609 779 3096 
Q 1206 3584 1959 3584 
z
" transform="scale(0.015625)"/>
       <path id="DejaVuSans-44" d="M 2194 1759 
Q 1497 1759 1228 1600 
Q 959 1441 959 1056 
Q 959 750 1161 570 
Q 1363 391 1709 391 
Q 2188 391 2477 730 
Q 2766 1069 2766 1631 
L 2766 1759 
L 2194 1759 
z
M 3341 1997 
L 3341 0 
L 2766 0 
L 2766 531 
Q 2569 213 2275 61 
Q 1981 -91 1556 -91 
Q 1019 -91 701 211 
Q 384 513 384 1019 
Q 384 1609 779 1909 
Q 1175 2209 1959 2209 
L 2766 2209 
L 2766 2266 
Q 2766 2663 2505 2880 
Q 2244 3097 1772 3097 
Q 1472 3097 1187 3025 
Q 903 2953 641 2809 
L 641 3341 
Q 956 3463 1253 3523 
Q 1550 3584 1831 3584 
Q 2591 3584 2966 3190 
Q 3341 2797 3341 1997 
z
" transform="scale(0.015625)"/>
       <path id="DejaVuSans-1d" d="M 750 794 
L 1409 794 
L 1409 0 
L 750 0 
L 750 794 
z
M 750 3309 
L 1409 3309 
L 1409 2516 
L 750 2516 
L 750 3309 
z
" transform="scale(0.015625)"/>
       <path id="DejaVuSans-50" d="M 3328 2828 
Q 3544 3216 3844 3400 
Q 4144 3584 4550 3584 
Q 5097 3584 5394 3201 
Q 5691 2819 5691 2113 
L 5691 0 
L 5113 0 
L 5113 2094 
Q 5113 2597 4934 2840 
Q 4756 3084 4391 3084 
Q 3944 3084 3684 2787 
Q 3425 2491 3425 1978 
L 3425 0 
L 2847 0 
L 2847 2094 
Q 2847 2600 2669 2842 
Q 2491 3084 2119 3084 
Q 1678 3084 1418 2786 
Q 1159 2488 1159 1978 
L 1159 0 
L 581 0 
L 581 3500 
L 1159 3500 
L 1159 2956 
Q 1356 3278 1631 3431 
Q 1906 3584 2284 3584 
Q 2666 3584 2933 3390 
Q 3200 3197 3328 2828 
z
" transform="scale(0.015625)"/>
       <path id="DejaVuSans-51" d="M 3513 2113 
L 3513 0 
L 2938 0 
L 2938 2094 
Q 2938 2591 2744 2837 
Q 2550 3084 2163 3084 
Q 1697 3084 1428 2787 
Q 1159 2491 1159 1978 
L 1159 0 
L 581 0 
L 581 3500 
L 1159 3500 
L 1159 2956 
Q 1366 3272 1645 3428 
Q 1925 3584 2291 3584 
Q 2894 3584 3203 3211 
Q 3513 2838 3513 2113 
z
" transform="scale(0.015625)"/>
       <path id="DejaVuSans-b" d="M 1984 4856 
Q 1566 4138 1362 3434 
Q 1159 2731 1159 2009 
Q 1159 1288 1364 580 
Q 1569 -128 1984 -844 
L 1484 -844 
Q 1016 -109 783 600 
Q 550 1309 550 2009 
Q 550 2706 781 3412 
Q 1013 4119 1484 4856 
L 1984 4856 
z
" transform="scale(0.015625)"/>
       <path id="DejaVuSans-49" d="M 2375 4863 
L 2375 4384 
L 1825 4384 
Q 1516 4384 1395 4259 
Q 1275 4134 1275 3809 
L 1275 3500 
L 2222 3500 
L 2222 3053 
L 1275 3053 
L 1275 0 
L 697 0 
L 697 3053 
L 147 3053 
L 147 3500 
L 697 3500 
L 697 3744 
Q 697 4328 969 4595 
Q 1241 4863 1831 4863 
L 2375 4863 
z
" transform="scale(0.015625)"/>
       <path id="DejaVuSans-4f" d="M 603 4863 
L 1178 4863 
L 1178 0 
L 603 0 
L 603 4863 
z
" transform="scale(0.015625)"/>
       <path id="DejaVuSans-56" d="M 2834 3397 
L 2834 2853 
Q 2591 2978 2328 3040 
Q 2066 3103 1784 3103 
Q 1356 3103 1142 2972 
Q 928 2841 928 2578 
Q 928 2378 1081 2264 
Q 1234 2150 1697 2047 
L 1894 2003 
Q 2506 1872 2764 1633 
Q 3022 1394 3022 966 
Q 3022 478 2636 193 
Q 2250 -91 1575 -91 
Q 1294 -91 989 -36 
Q 684 19 347 128 
L 347 722 
Q 666 556 975 473 
Q 1284 391 1588 391 
Q 1994 391 2212 530 
Q 2431 669 2431 922 
Q 2431 1156 2273 1281 
Q 2116 1406 1581 1522 
L 1381 1569 
Q 847 1681 609 1914 
Q 372 2147 372 2553 
Q 372 3047 722 3315 
Q 1072 3584 1716 3584 
Q 2034 3584 2315 3537 
Q 2597 3491 2834 3397 
z
" transform="scale(0.015625)"/>
       <path id="DejaVuSans-5a" d="M 269 3500 
L 844 3500 
L 1563 769 
L 2278 3500 
L 2956 3500 
L 3675 769 
L 4391 3500 
L 4966 3500 
L 4050 0 
L 3372 0 
L 2619 2869 
L 1863 0 
L 1184 0 
L 269 3500 
z
" transform="scale(0.015625)"/>
       <path id="DejaVuSans-f" d="M 750 794 
L 1409 794 
L 1409 256 
L 897 -744 
L 494 -744 
L 750 256 
L 750 794 
z
" transform="scale(0.015625)"/>
       <path id="DejaVuSans-47" d="M 2906 2969 
L 2906 4863 
L 3481 4863 
L 3481 0 
L 2906 0 
L 2906 525 
Q 2725 213 2448 61 
Q 2172 -91 1784 -91 
Q 1150 -91 751 415 
Q 353 922 353 1747 
Q 353 2572 751 3078 
Q 1150 3584 1784 3584 
Q 2172 3584 2448 3432 
Q 2725 3281 2906 2969 
z
M 947 1747 
Q 947 1113 1208 752 
Q 1469 391 1925 391 
Q 2381 391 2643 752 
Q 2906 1113 2906 1747 
Q 2906 2381 2643 2742 
Q 2381 3103 1925 3103 
Q 1469 3103 1208 2742 
Q 947 2381 947 1747 
z
" transform="scale(0.015625)"/>
       <path id="DejaVuSans-46" d="M 3122 3366 
L 3122 2828 
Q 2878 2963 2633 3030 
Q 2388 3097 2138 3097 
Q 1578 3097 1268 2742 
Q 959 2388 959 1747 
Q 959 1106 1268 751 
Q 1578 397 2138 397 
Q 2388 397 2633 464 
Q 2878 531 3122 666 
L 3122 134 
Q 2881 22 2623 -34 
Q 2366 -91 2075 -91 
Q 1284 -91 818 406 
Q 353 903 353 1747 
Q 353 2603 823 3093 
Q 1294 3584 2113 3584 
Q 2378 3584 2631 3529 
Q 2884 3475 3122 3366 
z
" transform="scale(0.015625)"/>
       <path id="DejaVuSans-c" d="M 513 4856 
L 1013 4856 
Q 1481 4119 1714 3412 
Q 1947 2706 1947 2009 
Q 1947 1309 1714 600 
Q 1481 -109 1013 -844 
L 513 -844 
Q 928 -128 1133 580 
Q 1338 1288 1338 2009 
Q 1338 2731 1133 3434 
Q 928 4138 513 4856 
z
" transform="scale(0.015625)"/>
      </defs>
      <use xlink:href="#DejaVuSans-3a"/>
      <use xlink:href="#DejaVuSans-55" transform="translate(94.390625 0)"/>
      <use xlink:href="#DejaVuSans-4c" transform="translate(135.5 0)"/>
      <use xlink:href="#DejaVuSans-57" transform="translate(163.28125 0)"/>
      <use xlink:href="#DejaVuSans-48" transform="translate(202.484375 0)"/>
      <use xlink:href="#DejaVuSans-55" transform="translate(264.015625 0)"/>
      <use xlink:href="#DejaVuSans-3" transform="translate(305.125 0)"/>
      <use xlink:href="#DejaVuSans-48" transform="translate(336.90625 0)"/>
      <use xlink:href="#DejaVuSans-55" transform="translate(398.4375 0)"/>
      <use xlink:href="#DejaVuSans-55" transform="translate(437.796875 0)"/>
      <use xlink:href="#DejaVuSans-52" transform="translate(476.703125 0)"/>
      <use xlink:href="#DejaVuSans-55" transform="translate(537.890625 0)"/>
      <use xlink:href="#DejaVuSans-3" transform="translate(579 0)"/>
      <use xlink:href="#DejaVuSans-55" transform="translate(610.78125 0)"/>
      <use xlink:href="#DejaVuSans-44" transform="translate(651.890625 0)"/>
      <use xlink:href="#DejaVuSans-57" transform="translate(713.171875 0)"/>
      <use xlink:href="#DejaVuSans-48" transform="translate(752.375 0)"/>
      <use xlink:href="#DejaVuSans-1d" transform="translate(813.90625 0)"/>
      <use xlink:href="#DejaVuSans-3" transform="translate(847.59375 0)"/>
      <use xlink:href="#DejaVuSans-50" transform="translate(879.375 0)"/>
      <use xlink:href="#DejaVuSans-48" transform="translate(976.78125 0)"/>
      <use xlink:href="#DejaVuSans-44" transform="translate(1038.3125 0)"/>
      <use xlink:href="#DejaVuSans-51" transform="translate(1099.59375 0)"/>
      <use xlink:href="#DejaVuSans-b" transform="translate(1162.96875 0)"/>
      <use xlink:href="#DejaVuSans-49" transform="translate(1201.984375 0)"/>
      <use xlink:href="#DejaVuSans-44" transform="translate(1237.1875 0)"/>
      <use xlink:href="#DejaVuSans-4f" transform="translate(1298.46875 0)"/>
      <use xlink:href="#DejaVuSans-56" transform="translate(1326.25 0)"/>
      <use xlink:href="#DejaVuSans-48" transform="translate(1378.34375 0)"/>
      <use xlink:href="#DejaVuSans-3" transform="translate(1439.875 0)"/>
      <use xlink:href="#DejaVuSans-5a" transform="translate(1471.65625 0)"/>
      <use xlink:href="#DejaVuSans-55" transform="translate(1553.4375 0)"/>
      <use xlink:href="#DejaVuSans-4c" transform="translate(1594.546875 0)"/>
      <use xlink:href="#DejaVuSans-57" transform="translate(1622.328125 0)"/>
      <use xlink:href="#DejaVuSans-48" transform="translate(1661.53125 0)"/>
      <use xlink:href="#DejaVuSans-f" transform="translate(1723.0625 0)"/>
      <use xlink:href="#DejaVuSans-3" transform="translate(1754.84375 0)"/>
      <use xlink:href="#DejaVuSans-50" transform="translate(1786.625 0)"/>
      <use xlink:href="#DejaVuSans-4c" transform="translate(1884.03125 0)"/>
      <use xlink:href="#DejaVuSans-56" transform="translate(1911.8125 0)"/>
      <use xlink:href="#DejaVuSans-56" transform="translate(1963.90625 0)"/>
      <use xlink:href="#DejaVuSans-48" transform="translate(2016 0)"/>
      <use xlink:href="#DejaVuSans-47" transform="translate(2077.53125 0)"/>
      <use xlink:href="#DejaVuSans-3" transform="translate(2141.015625 0)"/>
      <use xlink:href="#DejaVuSans-49" transform="translate(2172.796875 0)"/>
      <use xlink:href="#DejaVuSans-44" transform="translate(2208 0)"/>
      <use xlink:href="#DejaVuSans-46" transform="translate(2269.28125 0)"/>
      <use xlink:href="#DejaVuSans-57" transform="translate(2324.265625 0)"/>
      <use xlink:href="#DejaVuSans-c" transform="translate(2363.46875 0)"/>
     </g>
    </g>
   </g>
   <g id="matplotlib.axis_2">
    <g id="ytick_1">
     <g id="line2d_17">
      <path d="M 101.7 355.896 
L 418.745455 355.896 
" clip-path="url(#p0cb35d4585)" style="fill: none; stroke: #d9dee5; stroke-opacity: 0.5; stroke-width: 0.8; stroke-linecap: square"/>
     </g>
     <g id="line2d_18">
      <defs>
       <path id="maded989351" d="M 0 0 
L -3.5 0 
" style="stroke: #000000; stroke-width: 0.8"/>
      </defs>
      <g>
       <use xlink:href="#maded989351" x="101.7" y="355.896" style="stroke: #000000; stroke-width: 0.8"/>
      </g>
     </g>
     <g id="text_10">
      <!-- 0.0 -->
      <g transform="translate(80.387188 359.314945) scale(0.09 -0.09)">
       <use xlink:href="#DejaVuSans-13"/>
       <use xlink:href="#DejaVuSans-11" transform="translate(63.625 0)"/>
       <use xlink:href="#DejaVuSans-13" transform="translate(95.40625 0)"/>
      </g>
     </g>
    </g>
    <g id="ytick_2">
     <g id="line2d_19">
      <path d="M 101.7 297.432 
L 418.745455 297.432 
" clip-path="url(#p0cb35d4585)" style="fill: none; stroke: #d9dee5; stroke-opacity: 0.5; stroke-width: 0.8; stroke-linecap: square"/>
     </g>
     <g id="line2d_20">
      <g>
       <use xlink:href="#maded989351" x="101.7" y="297.432" style="stroke: #000000; stroke-width: 0.8"/>
      </g>
     </g>
     <g id="text_11">
      <!-- 0.1 -->
      <g transform="translate(80.387188 300.850945) scale(0.09 -0.09)">
       <use xlink:href="#DejaVuSans-13"/>
       <use xlink:href="#DejaVuSans-11" transform="translate(63.625 0)"/>
       <use xlink:href="#DejaVuSans-14" transform="translate(95.40625 0)"/>
      </g>
     </g>
    </g>
    <g id="ytick_3">
     <g id="line2d_21">
      <path d="M 101.7 238.968 
L 418.745455 238.968 
" clip-path="url(#p0cb35d4585)" style="fill: none; stroke: #d9dee5; stroke-opacity: 0.5; stroke-width: 0.8; stroke-linecap: square"/>
     </g>
     <g id="line2d_22">
      <g>
       <use xlink:href="#maded989351" x="101.7" y="238.968" style="stroke: #000000; stroke-width: 0.8"/>
      </g>
     </g>
     <g id="text_12">
      <!-- 0.2 -->
      <g transform="translate(80.387188 242.386945) scale(0.09 -0.09)">
       <use xlink:href="#DejaVuSans-13"/>
       <use xlink:href="#DejaVuSans-11" transform="translate(63.625 0)"/>
       <use xlink:href="#DejaVuSans-15" transform="translate(95.40625 0)"/>
      </g>
     </g>
    </g>
    <g id="ytick_4">
     <g id="line2d_23">
      <path d="M 101.7 180.504 
L 418.745455 180.504 
" clip-path="url(#p0cb35d4585)" style="fill: none; stroke: #d9dee5; stroke-opacity: 0.5; stroke-width: 0.8; stroke-linecap: square"/>
     </g>
     <g id="line2d_24">
      <g>
       <use xlink:href="#maded989351" x="101.7" y="180.504" style="stroke: #000000; stroke-width: 0.8"/>
      </g>
     </g>
     <g id="text_13">
      <!-- 0.3 -->
      <g transform="translate(80.387188 183.922945) scale(0.09 -0.09)">
       <use xlink:href="#DejaVuSans-13"/>
       <use xlink:href="#DejaVuSans-11" transform="translate(63.625 0)"/>
       <use xlink:href="#DejaVuSans-16" transform="translate(95.40625 0)"/>
      </g>
     </g>
    </g>
    <g id="ytick_5">
     <g id="line2d_25">
      <path d="M 101.7 122.04 
L 418.745455 122.04 
" clip-path="url(#p0cb35d4585)" style="fill: none; stroke: #d9dee5; stroke-opacity: 0.5; stroke-width: 0.8; stroke-linecap: square"/>
     </g>
     <g id="line2d_26">
      <g>
       <use xlink:href="#maded989351" x="101.7" y="122.04" style="stroke: #000000; stroke-width: 0.8"/>
      </g>
     </g>
     <g id="text_14">
      <!-- 0.4 -->
      <g transform="translate(80.387188 125.458945) scale(0.09 -0.09)">
       <defs>
        <path id="DejaVuSans-17" d="M 2419 4116 
L 825 1625 
L 2419 1625 
L 2419 4116 
z
M 2253 4666 
L 3047 4666 
L 3047 1625 
L 3713 1625 
L 3713 1100 
L 3047 1100 
L 3047 0 
L 2419 0 
L 2419 1100 
L 313 1100 
L 313 1709 
L 2253 4666 
z
" transform="scale(0.015625)"/>
       </defs>
       <use xlink:href="#DejaVuSans-13"/>
       <use xlink:href="#DejaVuSans-11" transform="translate(63.625 0)"/>
       <use xlink:href="#DejaVuSans-17" transform="translate(95.40625 0)"/>
      </g>
     </g>
    </g>
    <g id="ytick_6">
     <g id="line2d_27">
      <path d="M 101.7 63.576 
L 418.745455 63.576 
" clip-path="url(#p0cb35d4585)" style="fill: none; stroke: #d9dee5; stroke-opacity: 0.5; stroke-width: 0.8; stroke-linecap: square"/>
     </g>
     <g id="line2d_28">
      <g>
       <use xlink:href="#maded989351" x="101.7" y="63.576" style="stroke: #000000; stroke-width: 0.8"/>
      </g>
     </g>
     <g id="text_15">
      <!-- 0.5 -->
      <g transform="translate(80.387188 66.994945) scale(0.09 -0.09)">
       <use xlink:href="#DejaVuSans-13"/>
       <use xlink:href="#DejaVuSans-11" transform="translate(63.625 0)"/>
       <use xlink:href="#DejaVuSans-18" transform="translate(95.40625 0)"/>
      </g>
     </g>
    </g>
    <g id="text_16">
     <!-- Exact failure rate -->
     <g transform="translate(73.984844 252.755531) rotate(-90) scale(0.1 -0.1)">
      <defs>
       <path id="DejaVuSans-28" d="M 628 4666 
L 3578 4666 
L 3578 4134 
L 1259 4134 
L 1259 2753 
L 3481 2753 
L 3481 2222 
L 1259 2222 
L 1259 531 
L 3634 531 
L 3634 0 
L 628 0 
L 628 4666 
z
" transform="scale(0.015625)"/>
       <path id="DejaVuSans-5b" d="M 3513 3500 
L 2247 1797 
L 3578 0 
L 2900 0 
L 1881 1375 
L 863 0 
L 184 0 
L 1544 1831 
L 300 3500 
L 978 3500 
L 1906 2253 
L 2834 3500 
L 3513 3500 
z
" transform="scale(0.015625)"/>
       <path id="DejaVuSans-58" d="M 544 1381 
L 544 3500 
L 1119 3500 
L 1119 1403 
Q 1119 906 1312 657 
Q 1506 409 1894 409 
Q 2359 409 2629 706 
Q 2900 1003 2900 1516 
L 2900 3500 
L 3475 3500 
L 3475 0 
L 2900 0 
L 2900 538 
Q 2691 219 2414 64 
Q 2138 -91 1772 -91 
Q 1169 -91 856 284 
Q 544 659 544 1381 
z
M 1991 3584 
L 1991 3584 
z
" transform="scale(0.015625)"/>
      </defs>
      <use xlink:href="#DejaVuSans-28"/>
      <use xlink:href="#DejaVuSans-5b" transform="translate(63.1875 0)"/>
      <use xlink:href="#DejaVuSans-44" transform="translate(122.375 0)"/>
      <use xlink:href="#DejaVuSans-46" transform="translate(183.65625 0)"/>
      <use xlink:href="#DejaVuSans-57" transform="translate(238.640625 0)"/>
      <use xlink:href="#DejaVuSans-3" transform="translate(277.84375 0)"/>
      <use xlink:href="#DejaVuSans-49" transform="translate(309.625 0)"/>
      <use xlink:href="#DejaVuSans-44" transform="translate(344.828125 0)"/>
      <use xlink:href="#DejaVuSans-4c" transform="translate(406.109375 0)"/>
      <use xlink:href="#DejaVuSans-4f" transform="translate(433.890625 0)"/>
      <use xlink:href="#DejaVuSans-58" transform="translate(461.671875 0)"/>
      <use xlink:href="#DejaVuSans-55" transform="translate(525.046875 0)"/>
      <use xlink:href="#DejaVuSans-48" transform="translate(563.953125 0)"/>
      <use xlink:href="#DejaVuSans-3" transform="translate(625.484375 0)"/>
      <use xlink:href="#DejaVuSans-55" transform="translate(657.265625 0)"/>
      <use xlink:href="#DejaVuSans-44" transform="translate(698.375 0)"/>
      <use xlink:href="#DejaVuSans-57" transform="translate(759.65625 0)"/>
      <use xlink:href="#DejaVuSans-48" transform="translate(798.859375 0)"/>
     </g>
    </g>
   </g>
   <g id="line2d_29">
    <path d="M 116.111157 355.730668 
L 116.111157 355.730668 
L 116.111157 355.730668 
L 116.111157 355.730668 
L 121.257999 353.071748 
L 123.83142 351.776802 
L 123.83142 351.776802 
L 126.404841 350.472157 
L 126.404841 350.472157 
L 126.404841 350.472157 
L 126.404841 350.472157 
L 126.404841 350.472157 
L 131.551682 347.807666 
L 131.551682 347.807666 
L 136.698524 339.489563 
L 136.698524 339.489563 
L 136.698524 339.489563 
L 136.698524 339.489563 
L 141.845366 328.223844 
L 141.845366 328.223844 
L 146.992208 317.283135 
L 152.13905 308.199055 
L 177.873259 320.93658 
L 183.0201 311.733411 
L 216.474572 269.371307 
L 231.915097 253.447741 
L 270.516411 213.998301 
L 280.810094 202.837298 
L 311.691145 168.176866 
L 314.264566 165.302122 
L 321.984829 156.6981 
L 342.572196 133.885836 
L 347.719038 128.20738 
L 347.719038 128.20738 
L 363.159563 111.205752 
L 383.74693 88.500191 
L 404.334298 65.631414 
" clip-path="url(#p0cb35d4585)" style="fill: none; stroke: #1f2933; stroke-width: 2; stroke-linecap: square"/>
   </g>
   <g id="patch_3">
    <path d="M 101.7 370.512 
L 101.7 48.96 
" style="fill: none; stroke: #000000; stroke-width: 0.8; stroke-linejoin: miter; stroke-linecap: square"/>
   </g>
   <g id="patch_4">
    <path d="M 101.7 370.512 
L 418.745455 370.512 
" style="fill: none; stroke: #000000; stroke-width: 0.8; stroke-linejoin: miter; stroke-linecap: square"/>
   </g>
   <g id="text_17">
    <!-- Exact failure rate when retrieval top-1 ≥ 0.99 -->
    <g transform="translate(101.7 42.96) scale(0.12 -0.12)">
     <defs>
      <path id="DejaVuSans-Bold-28" d="M 588 4666 
L 3834 4666 
L 3834 3756 
L 1791 3756 
L 1791 2888 
L 3713 2888 
L 3713 1978 
L 1791 1978 
L 1791 909 
L 3903 909 
L 3903 0 
L 588 0 
L 588 4666 
z
" transform="scale(0.015625)"/>
      <path id="DejaVuSans-Bold-5b" d="M 1422 1791 
L 159 3500 
L 1344 3500 
L 2059 2463 
L 2784 3500 
L 3969 3500 
L 2706 1797 
L 4031 0 
L 2847 0 
L 2059 1106 
L 1281 0 
L 97 0 
L 1422 1791 
z
" transform="scale(0.015625)"/>
      <path id="DejaVuSans-Bold-44" d="M 2106 1575 
Q 1756 1575 1579 1456 
Q 1403 1338 1403 1106 
Q 1403 894 1545 773 
Q 1688 653 1941 653 
Q 2256 653 2472 879 
Q 2688 1106 2688 1447 
L 2688 1575 
L 2106 1575 
z
M 3816 1997 
L 3816 0 
L 2688 0 
L 2688 519 
Q 2463 200 2181 54 
Q 1900 -91 1497 -91 
Q 953 -91 614 226 
Q 275 544 275 1050 
Q 275 1666 698 1953 
Q 1122 2241 2028 2241 
L 2688 2241 
L 2688 2328 
Q 2688 2594 2478 2717 
Q 2269 2841 1825 2841 
Q 1466 2841 1156 2769 
Q 847 2697 581 2553 
L 581 3406 
Q 941 3494 1303 3539 
Q 1666 3584 2028 3584 
Q 2975 3584 3395 3211 
Q 3816 2838 3816 1997 
z
" transform="scale(0.015625)"/>
      <path id="DejaVuSans-Bold-46" d="M 3366 3391 
L 3366 2478 
Q 3138 2634 2908 2709 
Q 2678 2784 2431 2784 
Q 1963 2784 1702 2511 
Q 1441 2238 1441 1747 
Q 1441 1256 1702 982 
Q 1963 709 2431 709 
Q 2694 709 2930 787 
Q 3166 866 3366 1019 
L 3366 103 
Q 3103 6 2833 -42 
Q 2563 -91 2291 -91 
Q 1344 -91 809 395 
Q 275 881 275 1747 
Q 275 2613 809 3098 
Q 1344 3584 2291 3584 
Q 2566 3584 2833 3536 
Q 3100 3488 3366 3391 
z
" transform="scale(0.015625)"/>
      <path id="DejaVuSans-Bold-57" d="M 1759 4494 
L 1759 3500 
L 2913 3500 
L 2913 2700 
L 1759 2700 
L 1759 1216 
Q 1759 972 1856 886 
Q 1953 800 2241 800 
L 2816 800 
L 2816 0 
L 1856 0 
Q 1194 0 917 276 
Q 641 553 641 1216 
L 641 2700 
L 84 2700 
L 84 3500 
L 641 3500 
L 641 4494 
L 1759 4494 
z
" transform="scale(0.015625)"/>
      <path id="DejaVuSans-Bold-3" transform="scale(0.015625)"/>
      <path id="DejaVuSans-Bold-49" d="M 2841 4863 
L 2841 4128 
L 2222 4128 
Q 1984 4128 1890 4042 
Q 1797 3956 1797 3744 
L 1797 3500 
L 2753 3500 
L 2753 2700 
L 1797 2700 
L 1797 0 
L 678 0 
L 678 2700 
L 122 2700 
L 122 3500 
L 678 3500 
L 678 3744 
Q 678 4316 997 4589 
Q 1316 4863 1984 4863 
L 2841 4863 
z
" transform="scale(0.015625)"/>
      <path id="DejaVuSans-Bold-4c" d="M 538 3500 
L 1656 3500 
L 1656 0 
L 538 0 
L 538 3500 
z
M 538 4863 
L 1656 4863 
L 1656 3950 
L 538 3950 
L 538 4863 
z
" transform="scale(0.015625)"/>
      <path id="DejaVuSans-Bold-4f" d="M 538 4863 
L 1656 4863 
L 1656 0 
L 538 0 
L 538 4863 
z
" transform="scale(0.015625)"/>
      <path id="DejaVuSans-Bold-58" d="M 500 1363 
L 500 3500 
L 1625 3500 
L 1625 3150 
Q 1625 2866 1622 2436 
Q 1619 2006 1619 1863 
Q 1619 1441 1641 1255 
Q 1663 1069 1716 984 
Q 1784 875 1895 815 
Q 2006 756 2150 756 
Q 2500 756 2700 1025 
Q 2900 1294 2900 1772 
L 2900 3500 
L 4019 3500 
L 4019 0 
L 2900 0 
L 2900 506 
Q 2647 200 2364 54 
Q 2081 -91 1741 -91 
Q 1134 -91 817 281 
Q 500 653 500 1363 
z
" transform="scale(0.015625)"/>
      <path id="DejaVuSans-Bold-55" d="M 3138 2547 
Q 2991 2616 2845 2648 
Q 2700 2681 2553 2681 
Q 2122 2681 1889 2404 
Q 1656 2128 1656 1613 
L 1656 0 
L 538 0 
L 538 3500 
L 1656 3500 
L 1656 2925 
Q 1872 3269 2151 3426 
Q 2431 3584 2822 3584 
Q 2878 3584 2943 3579 
Q 3009 3575 3134 3559 
L 3138 2547 
z
" transform="scale(0.015625)"/>
      <path id="DejaVuSans-Bold-48" d="M 4031 1759 
L 4031 1441 
L 1416 1441 
Q 1456 1047 1700 850 
Q 1944 653 2381 653 
Q 2734 653 3104 758 
Q 3475 863 3866 1075 
L 3866 213 
Q 3469 63 3072 -14 
Q 2675 -91 2278 -91 
Q 1328 -91 801 392 
Q 275 875 275 1747 
Q 275 2603 792 3093 
Q 1309 3584 2216 3584 
Q 3041 3584 3536 3087 
Q 4031 2591 4031 1759 
z
M 2881 2131 
Q 2881 2450 2695 2645 
Q 2509 2841 2209 2841 
Q 1884 2841 1681 2658 
Q 1478 2475 1428 2131 
L 2881 2131 
z
" transform="scale(0.015625)"/>
      <path id="DejaVuSans-Bold-5a" d="M 225 3500 
L 1313 3500 
L 1900 1088 
L 2491 3500 
L 3425 3500 
L 4013 1113 
L 4603 3500 
L 5691 3500 
L 4769 0 
L 3547 0 
L 2956 2406 
L 2369 0 
L 1147 0 
L 225 3500 
z
" transform="scale(0.015625)"/>
      <path id="DejaVuSans-Bold-4b" d="M 4056 2131 
L 4056 0 
L 2931 0 
L 2931 347 
L 2931 1625 
Q 2931 2084 2911 2256 
Q 2891 2428 2841 2509 
Q 2775 2619 2662 2680 
Q 2550 2741 2406 2741 
Q 2056 2741 1856 2470 
Q 1656 2200 1656 1722 
L 1656 0 
L 538 0 
L 538 4863 
L 1656 4863 
L 1656 2988 
Q 1909 3294 2193 3439 
Q 2478 3584 2822 3584 
Q 3428 3584 3742 3212 
Q 4056 2841 4056 2131 
z
" transform="scale(0.015625)"/>
      <path id="DejaVuSans-Bold-51" d="M 4056 2131 
L 4056 0 
L 2931 0 
L 2931 347 
L 2931 1631 
Q 2931 2084 2911 2256 
Q 2891 2428 2841 2509 
Q 2775 2619 2662 2680 
Q 2550 2741 2406 2741 
Q 2056 2741 1856 2470 
Q 1656 2200 1656 1722 
L 1656 0 
L 538 0 
L 538 3500 
L 1656 3500 
L 1656 2988 
Q 1909 3294 2193 3439 
Q 2478 3584 2822 3584 
Q 3428 3584 3742 3212 
Q 4056 2841 4056 2131 
z
" transform="scale(0.015625)"/>
      <path id="DejaVuSans-Bold-59" d="M 97 3500 
L 1216 3500 
L 2088 1081 
L 2956 3500 
L 4078 3500 
L 2700 0 
L 1472 0 
L 97 3500 
z
" transform="scale(0.015625)"/>
      <path id="DejaVuSans-Bold-52" d="M 2203 2784 
Q 1831 2784 1636 2517 
Q 1441 2250 1441 1747 
Q 1441 1244 1636 976 
Q 1831 709 2203 709 
Q 2569 709 2762 976 
Q 2956 1244 2956 1747 
Q 2956 2250 2762 2517 
Q 2569 2784 2203 2784 
z
M 2203 3584 
Q 3106 3584 3614 3096 
Q 4122 2609 4122 1747 
Q 4122 884 3614 396 
Q 3106 -91 2203 -91 
Q 1297 -91 786 396 
Q 275 884 275 1747 
Q 275 2609 786 3096 
Q 1297 3584 2203 3584 
z
" transform="scale(0.015625)"/>
      <path id="DejaVuSans-Bold-53" d="M 1656 506 
L 1656 -1331 
L 538 -1331 
L 538 3500 
L 1656 3500 
L 1656 2988 
Q 1888 3294 2169 3439 
Q 2450 3584 2816 3584 
Q 3463 3584 3878 3070 
Q 4294 2556 4294 1747 
Q 4294 938 3878 423 
Q 3463 -91 2816 -91 
Q 2450 -91 2169 54 
Q 1888 200 1656 506 
z
M 2400 2772 
Q 2041 2772 1848 2508 
Q 1656 2244 1656 1747 
Q 1656 1250 1848 986 
Q 2041 722 2400 722 
Q 2759 722 2948 984 
Q 3138 1247 3138 1747 
Q 3138 2247 2948 2509 
Q 2759 2772 2400 2772 
z
" transform="scale(0.015625)"/>
      <path id="DejaVuSans-Bold-10" d="M 347 2297 
L 2309 2297 
L 2309 1388 
L 347 1388 
L 347 2297 
z
" transform="scale(0.015625)"/>
      <path id="DejaVuSans-Bold-14" d="M 750 831 
L 1813 831 
L 1813 3847 
L 722 3622 
L 722 4441 
L 1806 4666 
L 2950 4666 
L 2950 831 
L 4013 831 
L 4013 0 
L 750 0 
L 750 831 
z
" transform="scale(0.015625)"/>
      <path id="DejaVuSans-Bold-cef" d="M 678 744 
L 4684 744 
L 4684 0 
L 678 0 
L 678 744 
z
M 678 2963 
L 678 3725 
L 4684 2681 
L 4684 1947 
L 678 897 
L 678 1656 
L 3481 2309 
L 678 2963 
z
" transform="scale(0.015625)"/>
      <path id="DejaVuSans-Bold-13" d="M 2944 2338 
Q 2944 3213 2780 3570 
Q 2616 3928 2228 3928 
Q 1841 3928 1675 3570 
Q 1509 3213 1509 2338 
Q 1509 1453 1675 1090 
Q 1841 728 2228 728 
Q 2613 728 2778 1090 
Q 2944 1453 2944 2338 
z
M 4147 2328 
Q 4147 1169 3647 539 
Q 3147 -91 2228 -91 
Q 1306 -91 806 539 
Q 306 1169 306 2328 
Q 306 3491 806 4120 
Q 1306 4750 2228 4750 
Q 3147 4750 3647 4120 
Q 4147 3491 4147 2328 
z
" transform="scale(0.015625)"/>
      <path id="DejaVuSans-Bold-11" d="M 653 1209 
L 1778 1209 
L 1778 0 
L 653 0 
L 653 1209 
z
" transform="scale(0.015625)"/>
      <path id="DejaVuSans-Bold-1c" d="M 641 103 
L 641 966 
Q 928 831 1190 764 
Q 1453 697 1709 697 
Q 2247 697 2547 995 
Q 2847 1294 2900 1881 
Q 2688 1725 2447 1647 
Q 2206 1569 1925 1569 
Q 1209 1569 770 1986 
Q 331 2403 331 3084 
Q 331 3838 820 4291 
Q 1309 4744 2131 4744 
Q 3044 4744 3544 4128 
Q 4044 3513 4044 2388 
Q 4044 1231 3459 570 
Q 2875 -91 1856 -91 
Q 1528 -91 1228 -42 
Q 928 6 641 103 
z
M 2125 2350 
Q 2441 2350 2600 2554 
Q 2759 2759 2759 3169 
Q 2759 3575 2600 3781 
Q 2441 3988 2125 3988 
Q 1809 3988 1650 3781 
Q 1491 3575 1491 3169 
Q 1491 2759 1650 2554 
Q 1809 2350 2125 2350 
z
" transform="scale(0.015625)"/>
     </defs>
     <use xlink:href="#DejaVuSans-Bold-28"/>
     <use xlink:href="#DejaVuSans-Bold-5b" transform="translate(68.3125 0)"/>
     <use xlink:href="#DejaVuSans-Bold-44" transform="translate(132.8125 0)"/>
     <use xlink:href="#DejaVuSans-Bold-46" transform="translate(200.296875 0)"/>
     <use xlink:href="#DejaVuSans-Bold-57" transform="translate(259.578125 0)"/>
     <use xlink:href="#DejaVuSans-Bold-3" transform="translate(307.375 0)"/>
     <use xlink:href="#DejaVuSans-Bold-49" transform="translate(342.1875 0)"/>
     <use xlink:href="#DejaVuSans-Bold-44" transform="translate(385.6875 0)"/>
     <use xlink:href="#DejaVuSans-Bold-4c" transform="translate(453.171875 0)"/>
     <use xlink:href="#DejaVuSans-Bold-4f" transform="translate(487.453125 0)"/>
     <use xlink:href="#DejaVuSans-Bold-58" transform="translate(521.734375 0)"/>
     <use xlink:href="#DejaVuSans-Bold-55" transform="translate(592.921875 0)"/>
     <use xlink:href="#DejaVuSans-Bold-48" transform="translate(642.234375 0)"/>
     <use xlink:href="#DejaVuSans-Bold-3" transform="translate(710.0625 0)"/>
     <use xlink:href="#DejaVuSans-Bold-55" transform="translate(744.875 0)"/>
     <use xlink:href="#DejaVuSans-Bold-44" transform="translate(794.1875 0)"/>
     <use xlink:href="#DejaVuSans-Bold-57" transform="translate(861.671875 0)"/>
     <use xlink:href="#DejaVuSans-Bold-48" transform="translate(909.46875 0)"/>
     <use xlink:href="#DejaVuSans-Bold-3" transform="translate(977.296875 0)"/>
     <use xlink:href="#DejaVuSans-Bold-5a" transform="translate(1012.109375 0)"/>
     <use xlink:href="#DejaVuSans-Bold-4b" transform="translate(1104.5 0)"/>
     <use xlink:href="#DejaVuSans-Bold-48" transform="translate(1175.6875 0)"/>
     <use xlink:href="#DejaVuSans-Bold-51" transform="translate(1243.515625 0)"/>
     <use xlink:href="#DejaVuSans-Bold-3" transform="translate(1314.703125 0)"/>
     <use xlink:href="#DejaVuSans-Bold-55" transform="translate(1349.515625 0)"/>
     <use xlink:href="#DejaVuSans-Bold-48" transform="translate(1398.828125 0)"/>
     <use xlink:href="#DejaVuSans-Bold-57" transform="translate(1466.65625 0)"/>
     <use xlink:href="#DejaVuSans-Bold-55" transform="translate(1514.453125 0)"/>
     <use xlink:href="#DejaVuSans-Bold-4c" transform="translate(1563.765625 0)"/>
     <use xlink:href="#DejaVuSans-Bold-48" transform="translate(1598.046875 0)"/>
     <use xlink:href="#DejaVuSans-Bold-59" transform="translate(1665.875 0)"/>
     <use xlink:href="#DejaVuSans-Bold-44" transform="translate(1731.0625 0)"/>
     <use xlink:href="#DejaVuSans-Bold-4f" transform="translate(1798.546875 0)"/>
     <use xlink:href="#DejaVuSans-Bold-3" transform="translate(1832.828125 0)"/>
     <use xlink:href="#DejaVuSans-Bold-57" transform="translate(1867.640625 0)"/>
     <use xlink:href="#DejaVuSans-Bold-52" transform="translate(1915.4375 0)"/>
     <use xlink:href="#DejaVuSans-Bold-53" transform="translate(1984.140625 0)"/>
     <use xlink:href="#DejaVuSans-Bold-10" transform="translate(2055.71875 0)"/>
     <use xlink:href="#DejaVuSans-Bold-14" transform="translate(2097.21875 0)"/>
     <use xlink:href="#DejaVuSans-Bold-3" transform="translate(2166.796875 0)"/>
     <use xlink:href="#DejaVuSans-Bold-cef" transform="translate(2201.609375 0)"/>
     <use xlink:href="#DejaVuSans-Bold-3" transform="translate(2285.40625 0)"/>
     <use xlink:href="#DejaVuSans-Bold-13" transform="translate(2320.21875 0)"/>
     <use xlink:href="#DejaVuSans-Bold-11" transform="translate(2389.796875 0)"/>
     <use xlink:href="#DejaVuSans-Bold-1c" transform="translate(2427.78125 0)"/>
     <use xlink:href="#DejaVuSans-Bold-1c" transform="translate(2497.359375 0)"/>
    </g>
   </g>
   <g id="legend_1">
    <g id="PathCollection_3">
     <g>
      <use xlink:href="#m7d8e9c3077" x="118.8" y="61.536094" style="fill: #e76f51; fill-opacity: 0.78; stroke: #ffffff; stroke-opacity: 0.78; stroke-width: 0.7"/>
     </g>
    </g>
    <g id="text_18">
     <!-- tf200 -->
     <g transform="translate(135 63.898594) scale(0.09 -0.09)">
      <use xlink:href="#DejaVuSans-57"/>
      <use xlink:href="#DejaVuSans-49" transform="translate(39.203125 0)"/>
      <use xlink:href="#DejaVuSans-15" transform="translate(74.40625 0)"/>
      <use xlink:href="#DejaVuSans-13" transform="translate(138.03125 0)"/>
      <use xlink:href="#DejaVuSans-13" transform="translate(201.65625 0)"/>
     </g>
    </g>
    <g id="PathCollection_4">
     <g>
      <use xlink:href="#mec48652276" x="118.8" y="75.036797" style="fill: #2a9d8f; fill-opacity: 0.78; stroke: #ffffff; stroke-opacity: 0.78; stroke-width: 0.7"/>
     </g>
    </g>
    <g id="text_19">
     <!-- tf600 -->
     <g transform="translate(135 77.399297) scale(0.09 -0.09)">
      <defs>
       <path id="DejaVuSans-19" d="M 2113 2584 
Q 1688 2584 1439 2293 
Q 1191 2003 1191 1497 
Q 1191 994 1439 701 
Q 1688 409 2113 409 
Q 2538 409 2786 701 
Q 3034 994 3034 1497 
Q 3034 2003 2786 2293 
Q 2538 2584 2113 2584 
z
M 3366 4563 
L 3366 3988 
Q 3128 4100 2886 4159 
Q 2644 4219 2406 4219 
Q 1781 4219 1451 3797 
Q 1122 3375 1075 2522 
Q 1259 2794 1537 2939 
Q 1816 3084 2150 3084 
Q 2853 3084 3261 2657 
Q 3669 2231 3669 1497 
Q 3669 778 3244 343 
Q 2819 -91 2113 -91 
Q 1303 -91 875 529 
Q 447 1150 447 2328 
Q 447 3434 972 4092 
Q 1497 4750 2381 4750 
Q 2619 4750 2861 4703 
Q 3103 4656 3366 4563 
z
" transform="scale(0.015625)"/>
      </defs>
      <use xlink:href="#DejaVuSans-57"/>
      <use xlink:href="#DejaVuSans-49" transform="translate(39.203125 0)"/>
      <use xlink:href="#DejaVuSans-19" transform="translate(74.40625 0)"/>
      <use xlink:href="#DejaVuSans-13" transform="translate(138.03125 0)"/>
      <use xlink:href="#DejaVuSans-13" transform="translate(201.65625 0)"/>
     </g>
    </g>
   </g>
  </g>
  <g id="axes_2">
   <g id="patch_5">
    <path d="M 482.154545 370.512 
L 799.2 370.512 
L 799.2 48.96 
L 482.154545 48.96 
z
" style="fill: #ffffff"/>
   </g>
   <g id="PathCollection_5">
    <g clip-path="url(#p063aa3c45b)">
     <use xlink:href="#m7d8e9c3077" x="563.474646" y="332.820527" style="fill: #e76f51; fill-opacity: 0.78; stroke: #ffffff; stroke-opacity: 0.78; stroke-width: 0.7"/>
     <use xlink:href="#m7d8e9c3077" x="612.369643" y="265.171787" style="fill: #e76f51; fill-opacity: 0.78; stroke: #ffffff; stroke-opacity: 0.78; stroke-width: 0.7"/>
     <use xlink:href="#m7d8e9c3077" x="596.929117" y="234.048589" style="fill: #e76f51; fill-opacity: 0.78; stroke: #ffffff; stroke-opacity: 0.78; stroke-width: 0.7"/>
     <use xlink:href="#m7d8e9c3077" x="694.719112" y="131.381079" style="fill: #e76f51; fill-opacity: 0.78; stroke: #ffffff; stroke-opacity: 0.78; stroke-width: 0.7"/>
     <use xlink:href="#m7d8e9c3077" x="702.439374" y="323.362668" style="fill: #e76f51; fill-opacity: 0.78; stroke: #ffffff; stroke-opacity: 0.78; stroke-width: 0.7"/>
     <use xlink:href="#m7d8e9c3077" x="728.173583" y="222.990975" style="fill: #e76f51; fill-opacity: 0.78; stroke: #ffffff; stroke-opacity: 0.78; stroke-width: 0.7"/>
     <use xlink:href="#m7d8e9c3077" x="661.26464" y="290.682071" style="fill: #e76f51; fill-opacity: 0.78; stroke: #ffffff; stroke-opacity: 0.78; stroke-width: 0.7"/>
     <use xlink:href="#m7d8e9c3077" x="728.173583" y="121.237775" style="fill: #e76f51; fill-opacity: 0.78; stroke: #ffffff; stroke-opacity: 0.78; stroke-width: 0.7"/>
     <use xlink:href="#m7d8e9c3077" x="784.788843" y="153.791586" style="fill: #e76f51; fill-opacity: 0.78; stroke: #ffffff; stroke-opacity: 0.78; stroke-width: 0.7"/>
     <use xlink:href="#m7d8e9c3077" x="764.201476" y="94.905934" style="fill: #e76f51; fill-opacity: 0.78; stroke: #ffffff; stroke-opacity: 0.78; stroke-width: 0.7"/>
     <use xlink:href="#m7d8e9c3077" x="650.970956" y="224.017732" style="fill: #e76f51; fill-opacity: 0.78; stroke: #ffffff; stroke-opacity: 0.78; stroke-width: 0.7"/>
     <use xlink:href="#m7d8e9c3077" x="723.026741" y="83.27509" style="fill: #e76f51; fill-opacity: 0.78; stroke: #ffffff; stroke-opacity: 0.78; stroke-width: 0.7"/>
     <use xlink:href="#m7d8e9c3077" x="692.145691" y="302.079806" style="fill: #e76f51; fill-opacity: 0.78; stroke: #ffffff; stroke-opacity: 0.78; stroke-width: 0.7"/>
     <use xlink:href="#m7d8e9c3077" x="743.614109" y="325.045397" style="fill: #e76f51; fill-opacity: 0.78; stroke: #ffffff; stroke-opacity: 0.78; stroke-width: 0.7"/>
    </g>
   </g>
   <g id="PathCollection_6">
    <g clip-path="url(#p063aa3c45b)">
     <use xlink:href="#mec48652276" x="496.565702" y="355.896" style="fill: #2a9d8f; fill-opacity: 0.78; stroke: #ffffff; stroke-opacity: 0.78; stroke-width: 0.7"/>
     <use xlink:href="#mec48652276" x="512.006228" y="268.68269" style="fill: #2a9d8f; fill-opacity: 0.78; stroke: #ffffff; stroke-opacity: 0.78; stroke-width: 0.7"/>
     <use xlink:href="#mec48652276" x="496.565702" y="355.896" style="fill: #2a9d8f; fill-opacity: 0.78; stroke: #ffffff; stroke-opacity: 0.78; stroke-width: 0.7"/>
     <use xlink:href="#mec48652276" x="517.15307" y="355.896" style="fill: #2a9d8f; fill-opacity: 0.78; stroke: #ffffff; stroke-opacity: 0.78; stroke-width: 0.7"/>
     <use xlink:href="#mec48652276" x="504.285965" y="355.896" style="fill: #2a9d8f; fill-opacity: 0.78; stroke: #ffffff; stroke-opacity: 0.78; stroke-width: 0.7"/>
     <use xlink:href="#mec48652276" x="496.565702" y="355.896" style="fill: #2a9d8f; fill-opacity: 0.78; stroke: #ffffff; stroke-opacity: 0.78; stroke-width: 0.7"/>
     <use xlink:href="#mec48652276" x="501.712544" y="355.896" style="fill: #2a9d8f; fill-opacity: 0.78; stroke: #ffffff; stroke-opacity: 0.78; stroke-width: 0.7"/>
     <use xlink:href="#mec48652276" x="504.285965" y="302.662762" style="fill: #2a9d8f; fill-opacity: 0.78; stroke: #ffffff; stroke-opacity: 0.78; stroke-width: 0.7"/>
     <use xlink:href="#mec48652276" x="496.565702" y="355.896" style="fill: #2a9d8f; fill-opacity: 0.78; stroke: #ffffff; stroke-opacity: 0.78; stroke-width: 0.7"/>
     <use xlink:href="#mec48652276" x="532.593595" y="106.500005" style="fill: #2a9d8f; fill-opacity: 0.78; stroke: #ffffff; stroke-opacity: 0.78; stroke-width: 0.7"/>
     <use xlink:href="#mec48652276" x="522.299911" y="185.099903" style="fill: #2a9d8f; fill-opacity: 0.78; stroke: #ffffff; stroke-opacity: 0.78; stroke-width: 0.7"/>
     <use xlink:href="#mec48652276" x="506.859386" y="355.896" style="fill: #2a9d8f; fill-opacity: 0.78; stroke: #ffffff; stroke-opacity: 0.78; stroke-width: 0.7"/>
     <use xlink:href="#mec48652276" x="522.299911" y="355.896" style="fill: #2a9d8f; fill-opacity: 0.78; stroke: #ffffff; stroke-opacity: 0.78; stroke-width: 0.7"/>
     <use xlink:href="#mec48652276" x="506.859386" y="227.507355" style="fill: #2a9d8f; fill-opacity: 0.78; stroke: #ffffff; stroke-opacity: 0.78; stroke-width: 0.7"/>
     <use xlink:href="#mec48652276" x="506.859386" y="355.896" style="fill: #2a9d8f; fill-opacity: 0.78; stroke: #ffffff; stroke-opacity: 0.78; stroke-width: 0.7"/>
     <use xlink:href="#mec48652276" x="512.006228" y="355.896" style="fill: #2a9d8f; fill-opacity: 0.78; stroke: #ffffff; stroke-opacity: 0.78; stroke-width: 0.7"/>
     <use xlink:href="#mec48652276" x="517.15307" y="355.895998" style="fill: #2a9d8f; fill-opacity: 0.78; stroke: #ffffff; stroke-opacity: 0.78; stroke-width: 0.7"/>
     <use xlink:href="#mec48652276" x="517.15307" y="63.576" style="fill: #2a9d8f; fill-opacity: 0.78; stroke: #ffffff; stroke-opacity: 0.78; stroke-width: 0.7"/>
     <use xlink:href="#mec48652276" x="506.859386" y="355.896" style="fill: #2a9d8f; fill-opacity: 0.78; stroke: #ffffff; stroke-opacity: 0.78; stroke-width: 0.7"/>
     <use xlink:href="#mec48652276" x="517.15307" y="355.896" style="fill: #2a9d8f; fill-opacity: 0.78; stroke: #ffffff; stroke-opacity: 0.78; stroke-width: 0.7"/>
     <use xlink:href="#mec48652276" x="527.446753" y="206.132592" style="fill: #2a9d8f; fill-opacity: 0.78; stroke: #ffffff; stroke-opacity: 0.78; stroke-width: 0.7"/>
     <use xlink:href="#mec48652276" x="558.327804" y="355.896" style="fill: #2a9d8f; fill-opacity: 0.78; stroke: #ffffff; stroke-opacity: 0.78; stroke-width: 0.7"/>
     <use xlink:href="#mec48652276" x="506.859386" y="355.896" style="fill: #2a9d8f; fill-opacity: 0.78; stroke: #ffffff; stroke-opacity: 0.78; stroke-width: 0.7"/>
    </g>
   </g>
   <g id="matplotlib.axis_3">
    <g id="xtick_9">
     <g id="line2d_30">
      <path d="M 496.565702 370.512 
L 496.565702 48.96 
" clip-path="url(#p063aa3c45b)" style="fill: none; stroke: #d9dee5; stroke-opacity: 0.5; stroke-width: 0.8; stroke-linecap: square"/>
     </g>
     <g id="line2d_31">
      <g>
       <use xlink:href="#m3cfcefc58c" x="496.565702" y="370.512" style="stroke: #000000; stroke-width: 0.8"/>
      </g>
     </g>
     <g id="text_20">
      <!-- 0.00 -->
      <g transform="translate(486.546171 384.349891) scale(0.09 -0.09)">
       <use xlink:href="#DejaVuSans-13"/>
       <use xlink:href="#DejaVuSans-11" transform="translate(63.625 0)"/>
       <use xlink:href="#DejaVuSans-13" transform="translate(95.40625 0)"/>
       <use xlink:href="#DejaVuSans-13" transform="translate(159.03125 0)"/>
      </g>
     </g>
    </g>
    <g id="xtick_10">
     <g id="line2d_32">
      <path d="M 537.740437 370.512 
L 537.740437 48.96 
" clip-path="url(#p063aa3c45b)" style="fill: none; stroke: #d9dee5; stroke-opacity: 0.5; stroke-width: 0.8; stroke-linecap: square"/>
     </g>
     <g id="line2d_33">
      <g>
       <use xlink:href="#m3cfcefc58c" x="537.740437" y="370.512" style="stroke: #000000; stroke-width: 0.8"/>
      </g>
     </g>
     <g id="text_21">
      <!-- 0.05 -->
      <g transform="translate(527.720906 384.349891) scale(0.09 -0.09)">
       <use xlink:href="#DejaVuSans-13"/>
       <use xlink:href="#DejaVuSans-11" transform="translate(63.625 0)"/>
       <use xlink:href="#DejaVuSans-13" transform="translate(95.40625 0)"/>
       <use xlink:href="#DejaVuSans-18" transform="translate(159.03125 0)"/>
      </g>
     </g>
    </g>
    <g id="xtick_11">
     <g id="line2d_34">
      <path d="M 578.915171 370.512 
L 578.915171 48.96 
" clip-path="url(#p063aa3c45b)" style="fill: none; stroke: #d9dee5; stroke-opacity: 0.5; stroke-width: 0.8; stroke-linecap: square"/>
     </g>
     <g id="line2d_35">
      <g>
       <use xlink:href="#m3cfcefc58c" x="578.915171" y="370.512" style="stroke: #000000; stroke-width: 0.8"/>
      </g>
     </g>
     <g id="text_22">
      <!-- 0.10 -->
      <g transform="translate(568.89564 384.349891) scale(0.09 -0.09)">
       <use xlink:href="#DejaVuSans-13"/>
       <use xlink:href="#DejaVuSans-11" transform="translate(63.625 0)"/>
       <use xlink:href="#DejaVuSans-14" transform="translate(95.40625 0)"/>
       <use xlink:href="#DejaVuSans-13" transform="translate(159.03125 0)"/>
      </g>
     </g>
    </g>
    <g id="xtick_12">
     <g id="line2d_36">
      <path d="M 620.089906 370.512 
L 620.089906 48.96 
" clip-path="url(#p063aa3c45b)" style="fill: none; stroke: #d9dee5; stroke-opacity: 0.5; stroke-width: 0.8; stroke-linecap: square"/>
     </g>
     <g id="line2d_37">
      <g>
       <use xlink:href="#m3cfcefc58c" x="620.089906" y="370.512" style="stroke: #000000; stroke-width: 0.8"/>
      </g>
     </g>
     <g id="text_23">
      <!-- 0.15 -->
      <g transform="translate(610.070374 384.349891) scale(0.09 -0.09)">
       <use xlink:href="#DejaVuSans-13"/>
       <use xlink:href="#DejaVuSans-11" transform="translate(63.625 0)"/>
       <use xlink:href="#DejaVuSans-14" transform="translate(95.40625 0)"/>
       <use xlink:href="#DejaVuSans-18" transform="translate(159.03125 0)"/>
      </g>
     </g>
    </g>
    <g id="xtick_13">
     <g id="line2d_38">
      <path d="M 661.26464 370.512 
L 661.26464 48.96 
" clip-path="url(#p063aa3c45b)" style="fill: none; stroke: #d9dee5; stroke-opacity: 0.5; stroke-width: 0.8; stroke-linecap: square"/>
     </g>
     <g id="line2d_39">
      <g>
       <use xlink:href="#m3cfcefc58c" x="661.26464" y="370.512" style="stroke: #000000; stroke-width: 0.8"/>
      </g>
     </g>
     <g id="text_24">
      <!-- 0.20 -->
      <g transform="translate(651.245109 384.349891) scale(0.09 -0.09)">
       <use xlink:href="#DejaVuSans-13"/>
       <use xlink:href="#DejaVuSans-11" transform="translate(63.625 0)"/>
       <use xlink:href="#DejaVuSans-15" transform="translate(95.40625 0)"/>
       <use xlink:href="#DejaVuSans-13" transform="translate(159.03125 0)"/>
      </g>
     </g>
    </g>
    <g id="xtick_14">
     <g id="line2d_40">
      <path d="M 702.439374 370.512 
L 702.439374 48.96 
" clip-path="url(#p063aa3c45b)" style="fill: none; stroke: #d9dee5; stroke-opacity: 0.5; stroke-width: 0.8; stroke-linecap: square"/>
     </g>
     <g id="line2d_41">
      <g>
       <use xlink:href="#m3cfcefc58c" x="702.439374" y="370.512" style="stroke: #000000; stroke-width: 0.8"/>
      </g>
     </g>
     <g id="text_25">
      <!-- 0.25 -->
      <g transform="translate(692.419843 384.349891) scale(0.09 -0.09)">
       <use xlink:href="#DejaVuSans-13"/>
       <use xlink:href="#DejaVuSans-11" transform="translate(63.625 0)"/>
       <use xlink:href="#DejaVuSans-15" transform="translate(95.40625 0)"/>
       <use xlink:href="#DejaVuSans-18" transform="translate(159.03125 0)"/>
      </g>
     </g>
    </g>
    <g id="xtick_15">
     <g id="line2d_42">
      <path d="M 743.614109 370.512 
L 743.614109 48.96 
" clip-path="url(#p063aa3c45b)" style="fill: none; stroke: #d9dee5; stroke-opacity: 0.5; stroke-width: 0.8; stroke-linecap: square"/>
     </g>
     <g id="line2d_43">
      <g>
       <use xlink:href="#m3cfcefc58c" x="743.614109" y="370.512" style="stroke: #000000; stroke-width: 0.8"/>
      </g>
     </g>
     <g id="text_26">
      <!-- 0.30 -->
      <g transform="translate(733.594577 384.349891) scale(0.09 -0.09)">
       <use xlink:href="#DejaVuSans-13"/>
       <use xlink:href="#DejaVuSans-11" transform="translate(63.625 0)"/>
       <use xlink:href="#DejaVuSans-16" transform="translate(95.40625 0)"/>
       <use xlink:href="#DejaVuSans-13" transform="translate(159.03125 0)"/>
      </g>
     </g>
    </g>
    <g id="xtick_16">
     <g id="line2d_44">
      <path d="M 784.788843 370.512 
L 784.788843 48.96 
" clip-path="url(#p063aa3c45b)" style="fill: none; stroke: #d9dee5; stroke-opacity: 0.5; stroke-width: 0.8; stroke-linecap: square"/>
     </g>
     <g id="line2d_45">
      <g>
       <use xlink:href="#m3cfcefc58c" x="784.788843" y="370.512" style="stroke: #000000; stroke-width: 0.8"/>
      </g>
     </g>
     <g id="text_27">
      <!-- 0.35 -->
      <g transform="translate(774.769312 384.349891) scale(0.09 -0.09)">
       <use xlink:href="#DejaVuSans-13"/>
       <use xlink:href="#DejaVuSans-11" transform="translate(63.625 0)"/>
       <use xlink:href="#DejaVuSans-16" transform="translate(95.40625 0)"/>
       <use xlink:href="#DejaVuSans-18" transform="translate(159.03125 0)"/>
      </g>
     </g>
    </g>
    <g id="text_28">
     <!-- Writer error rate: mean(false write, missed fact) -->
     <g transform="translate(520.553054 398.110437) scale(0.1 -0.1)">
      <use xlink:href="#DejaVuSans-3a"/>
      <use xlink:href="#DejaVuSans-55" transform="translate(94.390625 0)"/>
      <use xlink:href="#DejaVuSans-4c" transform="translate(135.5 0)"/>
      <use xlink:href="#DejaVuSans-57" transform="translate(163.28125 0)"/>
      <use xlink:href="#DejaVuSans-48" transform="translate(202.484375 0)"/>
      <use xlink:href="#DejaVuSans-55" transform="translate(264.015625 0)"/>
      <use xlink:href="#DejaVuSans-3" transform="translate(305.125 0)"/>
      <use xlink:href="#DejaVuSans-48" transform="translate(336.90625 0)"/>
      <use xlink:href="#DejaVuSans-55" transform="translate(398.4375 0)"/>
      <use xlink:href="#DejaVuSans-55" transform="translate(437.796875 0)"/>
      <use xlink:href="#DejaVuSans-52" transform="translate(476.703125 0)"/>
      <use xlink:href="#DejaVuSans-55" transform="translate(537.890625 0)"/>
      <use xlink:href="#DejaVuSans-3" transform="translate(579 0)"/>
      <use xlink:href="#DejaVuSans-55" transform="translate(610.78125 0)"/>
      <use xlink:href="#DejaVuSans-44" transform="translate(651.890625 0)"/>
      <use xlink:href="#DejaVuSans-57" transform="translate(713.171875 0)"/>
      <use xlink:href="#DejaVuSans-48" transform="translate(752.375 0)"/>
      <use xlink:href="#DejaVuSans-1d" transform="translate(813.90625 0)"/>
      <use xlink:href="#DejaVuSans-3" transform="translate(847.59375 0)"/>
      <use xlink:href="#DejaVuSans-50" transform="translate(879.375 0)"/>
      <use xlink:href="#DejaVuSans-48" transform="translate(976.78125 0)"/>
      <use xlink:href="#DejaVuSans-44" transform="translate(1038.3125 0)"/>
      <use xlink:href="#DejaVuSans-51" transform="translate(1099.59375 0)"/>
      <use xlink:href="#DejaVuSans-b" transform="translate(1162.96875 0)"/>
      <use xlink:href="#DejaVuSans-49" transform="translate(1201.984375 0)"/>
      <use xlink:href="#DejaVuSans-44" transform="translate(1237.1875 0)"/>
      <use xlink:href="#DejaVuSans-4f" transform="translate(1298.46875 0)"/>
      <use xlink:href="#DejaVuSans-56" transform="translate(1326.25 0)"/>
      <use xlink:href="#DejaVuSans-48" transform="translate(1378.34375 0)"/>
      <use xlink:href="#DejaVuSans-3" transform="translate(1439.875 0)"/>
      <use xlink:href="#DejaVuSans-5a" transform="translate(1471.65625 0)"/>
      <use xlink:href="#DejaVuSans-55" transform="translate(1553.4375 0)"/>
      <use xlink:href="#DejaVuSans-4c" transform="translate(1594.546875 0)"/>
      <use xlink:href="#DejaVuSans-57" transform="translate(1622.328125 0)"/>
      <use xlink:href="#DejaVuSans-48" transform="translate(1661.53125 0)"/>
      <use xlink:href="#DejaVuSans-f" transform="translate(1723.0625 0)"/>
      <use xlink:href="#DejaVuSans-3" transform="translate(1754.84375 0)"/>
      <use xlink:href="#DejaVuSans-50" transform="translate(1786.625 0)"/>
      <use xlink:href="#DejaVuSans-4c" transform="translate(1884.03125 0)"/>
      <use xlink:href="#DejaVuSans-56" transform="translate(1911.8125 0)"/>
      <use xlink:href="#DejaVuSans-56" transform="translate(1963.90625 0)"/>
      <use xlink:href="#DejaVuSans-48" transform="translate(2016 0)"/>
      <use xlink:href="#DejaVuSans-47" transform="translate(2077.53125 0)"/>
      <use xlink:href="#DejaVuSans-3" transform="translate(2141.015625 0)"/>
      <use xlink:href="#DejaVuSans-49" transform="translate(2172.796875 0)"/>
      <use xlink:href="#DejaVuSans-44" transform="translate(2208 0)"/>
      <use xlink:href="#DejaVuSans-46" transform="translate(2269.28125 0)"/>
      <use xlink:href="#DejaVuSans-57" transform="translate(2324.265625 0)"/>
      <use xlink:href="#DejaVuSans-c" transform="translate(2363.46875 0)"/>
     </g>
    </g>
   </g>
   <g id="matplotlib.axis_4">
    <g id="ytick_7">
     <g id="line2d_46">
      <path d="M 482.154545 355.896 
L 799.2 355.896 
" clip-path="url(#p063aa3c45b)" style="fill: none; stroke: #d9dee5; stroke-opacity: 0.5; stroke-width: 0.8; stroke-linecap: square"/>
     </g>
     <g id="line2d_47">
      <g>
       <use xlink:href="#maded989351" x="482.154545" y="355.896" style="stroke: #000000; stroke-width: 0.8"/>
      </g>
     </g>
     <g id="text_29">
      <!-- 0 -->
      <g transform="translate(469.428295 359.314945) scale(0.09 -0.09)">
       <use xlink:href="#DejaVuSans-13"/>
      </g>
     </g>
    </g>
    <g id="ytick_8">
     <g id="line2d_48">
      <path d="M 482.154545 288.30012 
L 799.2 288.30012 
" clip-path="url(#p063aa3c45b)" style="fill: none; stroke: #d9dee5; stroke-opacity: 0.5; stroke-width: 0.8; stroke-linecap: square"/>
     </g>
     <g id="line2d_49">
      <g>
       <use xlink:href="#maded989351" x="482.154545" y="288.30012" style="stroke: #000000; stroke-width: 0.8"/>
      </g>
     </g>
     <g id="text_30">
      <!-- 2 -->
      <g transform="translate(469.428295 291.719065) scale(0.09 -0.09)">
       <use xlink:href="#DejaVuSans-15"/>
      </g>
     </g>
    </g>
    <g id="ytick_9">
     <g id="line2d_50">
      <path d="M 482.154545 220.70424 
L 799.2 220.70424 
" clip-path="url(#p063aa3c45b)" style="fill: none; stroke: #d9dee5; stroke-opacity: 0.5; stroke-width: 0.8; stroke-linecap: square"/>
     </g>
     <g id="line2d_51">
      <g>
       <use xlink:href="#maded989351" x="482.154545" y="220.70424" style="stroke: #000000; stroke-width: 0.8"/>
      </g>
     </g>
     <g id="text_31">
      <!-- 4 -->
      <g transform="translate(469.428295 224.123185) scale(0.09 -0.09)">
       <use xlink:href="#DejaVuSans-17"/>
      </g>
     </g>
    </g>
    <g id="ytick_10">
     <g id="line2d_52">
      <path d="M 482.154545 153.10836 
L 799.2 153.10836 
" clip-path="url(#p063aa3c45b)" style="fill: none; stroke: #d9dee5; stroke-opacity: 0.5; stroke-width: 0.8; stroke-linecap: square"/>
     </g>
     <g id="line2d_53">
      <g>
       <use xlink:href="#maded989351" x="482.154545" y="153.10836" style="stroke: #000000; stroke-width: 0.8"/>
      </g>
     </g>
     <g id="text_32">
      <!-- 6 -->
      <g transform="translate(469.428295 156.527306) scale(0.09 -0.09)">
       <use xlink:href="#DejaVuSans-19"/>
      </g>
     </g>
    </g>
    <g id="ytick_11">
     <g id="line2d_54">
      <path d="M 482.154545 85.51248 
L 799.2 85.51248 
" clip-path="url(#p063aa3c45b)" style="fill: none; stroke: #d9dee5; stroke-opacity: 0.5; stroke-width: 0.8; stroke-linecap: square"/>
     </g>
     <g id="line2d_55">
      <g>
       <use xlink:href="#maded989351" x="482.154545" y="85.51248" style="stroke: #000000; stroke-width: 0.8"/>
      </g>
     </g>
     <g id="text_33">
      <!-- 8 -->
      <g transform="translate(469.428295 88.931426) scale(0.09 -0.09)">
       <defs>
        <path id="DejaVuSans-1b" d="M 2034 2216 
Q 1584 2216 1326 1975 
Q 1069 1734 1069 1313 
Q 1069 891 1326 650 
Q 1584 409 2034 409 
Q 2484 409 2743 651 
Q 3003 894 3003 1313 
Q 3003 1734 2745 1975 
Q 2488 2216 2034 2216 
z
M 1403 2484 
Q 997 2584 770 2862 
Q 544 3141 544 3541 
Q 544 4100 942 4425 
Q 1341 4750 2034 4750 
Q 2731 4750 3128 4425 
Q 3525 4100 3525 3541 
Q 3525 3141 3298 2862 
Q 3072 2584 2669 2484 
Q 3125 2378 3379 2068 
Q 3634 1759 3634 1313 
Q 3634 634 3220 271 
Q 2806 -91 2034 -91 
Q 1263 -91 848 271 
Q 434 634 434 1313 
Q 434 1759 690 2068 
Q 947 2378 1403 2484 
z
M 1172 3481 
Q 1172 3119 1398 2916 
Q 1625 2713 2034 2713 
Q 2441 2713 2670 2916 
Q 2900 3119 2900 3481 
Q 2900 3844 2670 4047 
Q 2441 4250 2034 4250 
Q 1625 4250 1398 4047 
Q 1172 3844 1172 3481 
z
" transform="scale(0.015625)"/>
       </defs>
       <use xlink:href="#DejaVuSans-1b"/>
      </g>
     </g>
    </g>
    <g id="text_34">
     <!-- Answer CE -->
     <g transform="translate(463.025952 236.390687) rotate(-90) scale(0.1 -0.1)">
      <defs>
       <path id="DejaVuSans-24" d="M 2188 4044 
L 1331 1722 
L 3047 1722 
L 2188 4044 
z
M 1831 4666 
L 2547 4666 
L 4325 0 
L 3669 0 
L 3244 1197 
L 1141 1197 
L 716 0 
L 50 0 
L 1831 4666 
z
" transform="scale(0.015625)"/>
       <path id="DejaVuSans-26" d="M 4122 4306 
L 4122 3641 
Q 3803 3938 3442 4084 
Q 3081 4231 2675 4231 
Q 1875 4231 1450 3742 
Q 1025 3253 1025 2328 
Q 1025 1406 1450 917 
Q 1875 428 2675 428 
Q 3081 428 3442 575 
Q 3803 722 4122 1019 
L 4122 359 
Q 3791 134 3420 21 
Q 3050 -91 2638 -91 
Q 1578 -91 968 557 
Q 359 1206 359 2328 
Q 359 3453 968 4101 
Q 1578 4750 2638 4750 
Q 3056 4750 3426 4639 
Q 3797 4528 4122 4306 
z
" transform="scale(0.015625)"/>
      </defs>
      <use xlink:href="#DejaVuSans-24"/>
      <use xlink:href="#DejaVuSans-51" transform="translate(68.40625 0)"/>
      <use xlink:href="#DejaVuSans-56" transform="translate(131.78125 0)"/>
      <use xlink:href="#DejaVuSans-5a" transform="translate(183.875 0)"/>
      <use xlink:href="#DejaVuSans-48" transform="translate(265.65625 0)"/>
      <use xlink:href="#DejaVuSans-55" transform="translate(327.1875 0)"/>
      <use xlink:href="#DejaVuSans-3" transform="translate(368.296875 0)"/>
      <use xlink:href="#DejaVuSans-26" transform="translate(400.078125 0)"/>
      <use xlink:href="#DejaVuSans-28" transform="translate(469.90625 0)"/>
     </g>
    </g>
   </g>
   <g id="line2d_56">
    <path d="M 496.565702 354.99506 
L 496.565702 354.99506 
L 496.565702 354.99506 
L 496.565702 354.99506 
L 501.712544 344.563645 
L 504.285965 339.764817 
L 504.285965 339.764817 
L 506.859386 335.252982 
L 506.859386 335.252982 
L 506.859386 335.252982 
L 506.859386 335.252982 
L 506.859386 335.252982 
L 512.006228 327.330153 
L 512.006228 327.330153 
L 517.15307 297.121765 
L 517.15307 297.121765 
L 517.15307 297.121765 
L 517.15307 297.121765 
L 522.299911 255.3114 
L 522.299911 255.3114 
L 527.446753 214.292136 
L 532.593595 186.825415 
L 558.327804 293.326018 
L 563.474646 284.130894 
L 596.929117 270.412917 
L 612.369643 266.963424 
L 650.970956 247.171643 
L 661.26464 239.62315 
L 692.145691 216.479391 
L 694.719112 214.540064 
L 702.439374 208.703234 
L 723.026741 192.905297 
L 728.173583 188.876629 
L 728.173583 188.876629 
L 743.614109 176.601088 
L 764.201476 159.853158 
L 784.788843 142.640173 
" clip-path="url(#p063aa3c45b)" style="fill: none; stroke: #1f2933; stroke-width: 2; stroke-linecap: square"/>
   </g>
   <g id="patch_6">
    <path d="M 482.154545 370.512 
L 482.154545 48.96 
" style="fill: none; stroke: #000000; stroke-width: 0.8; stroke-linejoin: miter; stroke-linecap: square"/>
   </g>
   <g id="patch_7">
    <path d="M 482.154545 370.512 
L 799.2 370.512 
" style="fill: none; stroke: #000000; stroke-width: 0.8; stroke-linejoin: miter; stroke-linecap: square"/>
   </g>
   <g id="text_35">
    <!-- Answer CE when retrieval top-1 ≥ 0.99 -->
    <g transform="translate(482.154545 42.96) scale(0.12 -0.12)">
     <defs>
      <path id="DejaVuSans-Bold-24" d="M 3419 850 
L 1538 850 
L 1241 0 
L 31 0 
L 1759 4666 
L 3194 4666 
L 4922 0 
L 3713 0 
L 3419 850 
z
M 1838 1716 
L 3116 1716 
L 2478 3572 
L 1838 1716 
z
" transform="scale(0.015625)"/>
      <path id="DejaVuSans-Bold-56" d="M 3272 3391 
L 3272 2541 
Q 2913 2691 2578 2766 
Q 2244 2841 1947 2841 
Q 1628 2841 1473 2761 
Q 1319 2681 1319 2516 
Q 1319 2381 1436 2309 
Q 1553 2238 1856 2203 
L 2053 2175 
Q 2913 2066 3209 1816 
Q 3506 1566 3506 1031 
Q 3506 472 3093 190 
Q 2681 -91 1863 -91 
Q 1516 -91 1145 -36 
Q 775 19 384 128 
L 384 978 
Q 719 816 1070 734 
Q 1422 653 1784 653 
Q 2113 653 2278 743 
Q 2444 834 2444 1013 
Q 2444 1163 2330 1236 
Q 2216 1309 1875 1350 
L 1678 1375 
Q 931 1469 631 1722 
Q 331 1975 331 2491 
Q 331 3047 712 3315 
Q 1094 3584 1881 3584 
Q 2191 3584 2531 3537 
Q 2872 3491 3272 3391 
z
" transform="scale(0.015625)"/>
      <path id="DejaVuSans-Bold-26" d="M 4288 256 
Q 3956 84 3597 -3 
Q 3238 -91 2847 -91 
Q 1681 -91 1000 561 
Q 319 1213 319 2328 
Q 319 3447 1000 4098 
Q 1681 4750 2847 4750 
Q 3238 4750 3597 4662 
Q 3956 4575 4288 4403 
L 4288 3438 
Q 3953 3666 3628 3772 
Q 3303 3878 2944 3878 
Q 2300 3878 1931 3465 
Q 1563 3053 1563 2328 
Q 1563 1606 1931 1193 
Q 2300 781 2944 781 
Q 3303 781 3628 887 
Q 3953 994 4288 1222 
L 4288 256 
z
" transform="scale(0.015625)"/>
     </defs>
     <use xlink:href="#DejaVuSans-Bold-24"/>
     <use xlink:href="#DejaVuSans-Bold-51" transform="translate(77.390625 0)"/>
     <use xlink:href="#DejaVuSans-Bold-56" transform="translate(148.578125 0)"/>
     <use xlink:href="#DejaVuSans-Bold-5a" transform="translate(208.09375 0)"/>
     <use xlink:href="#DejaVuSans-Bold-48" transform="translate(300.484375 0)"/>
     <use xlink:href="#DejaVuSans-Bold-55" transform="translate(368.3125 0)"/>
     <use xlink:href="#DejaVuSans-Bold-3" transform="translate(417.625 0)"/>
     <use xlink:href="#DejaVuSans-Bold-26" transform="translate(452.4375 0)"/>
     <use xlink:href="#DejaVuSans-Bold-28" transform="translate(525.828125 0)"/>
     <use xlink:href="#DejaVuSans-Bold-3" transform="translate(594.140625 0)"/>
     <use xlink:href="#DejaVuSans-Bold-5a" transform="translate(628.953125 0)"/>
     <use xlink:href="#DejaVuSans-Bold-4b" transform="translate(721.34375 0)"/>
     <use xlink:href="#DejaVuSans-Bold-48" transform="translate(792.53125 0)"/>
     <use xlink:href="#DejaVuSans-Bold-51" transform="translate(860.359375 0)"/>
     <use xlink:href="#DejaVuSans-Bold-3" transform="translate(931.546875 0)"/>
     <use xlink:href="#DejaVuSans-Bold-55" transform="translate(966.359375 0)"/>
     <use xlink:href="#DejaVuSans-Bold-48" transform="translate(1015.671875 0)"/>
     <use xlink:href="#DejaVuSans-Bold-57" transform="translate(1083.5 0)"/>
     <use xlink:href="#DejaVuSans-Bold-55" transform="translate(1131.296875 0)"/>
     <use xlink:href="#DejaVuSans-Bold-4c" transform="translate(1180.609375 0)"/>
     <use xlink:href="#DejaVuSans-Bold-48" transform="translate(1214.890625 0)"/>
     <use xlink:href="#DejaVuSans-Bold-59" transform="translate(1282.71875 0)"/>
     <use xlink:href="#DejaVuSans-Bold-44" transform="translate(1347.90625 0)"/>
     <use xlink:href="#DejaVuSans-Bold-4f" transform="translate(1415.390625 0)"/>
     <use xlink:href="#DejaVuSans-Bold-3" transform="translate(1449.671875 0)"/>
     <use xlink:href="#DejaVuSans-Bold-57" transform="translate(1484.484375 0)"/>
     <use xlink:href="#DejaVuSans-Bold-52" transform="translate(1532.28125 0)"/>
     <use xlink:href="#DejaVuSans-Bold-53" transform="translate(1600.984375 0)"/>
     <use xlink:href="#DejaVuSans-Bold-10" transform="translate(1672.5625 0)"/>
     <use xlink:href="#DejaVuSans-Bold-14" transform="translate(1714.0625 0)"/>
     <use xlink:href="#DejaVuSans-Bold-3" transform="translate(1783.640625 0)"/>
     <use xlink:href="#DejaVuSans-Bold-cef" transform="translate(1818.453125 0)"/>
     <use xlink:href="#DejaVuSans-Bold-3" transform="translate(1902.25 0)"/>
     <use xlink:href="#DejaVuSans-Bold-13" transform="translate(1937.0625 0)"/>
     <use xlink:href="#DejaVuSans-Bold-11" transform="translate(2006.640625 0)"/>
     <use xlink:href="#DejaVuSans-Bold-1c" transform="translate(2044.625 0)"/>
     <use xlink:href="#DejaVuSans-Bold-1c" transform="translate(2114.203125 0)"/>
    </g>
   </g>
  </g>
  <g id="text_36">
   <!-- Retrieval-saturated failure analysis: remaining errors track writer quality -->
   <g transform="translate(7.2 17.837812) scale(0.14 -0.14)">
    <defs>
     <path id="DejaVuSans-Bold-35" d="M 2297 2597 
Q 2675 2597 2839 2737 
Q 3003 2878 3003 3200 
Q 3003 3519 2839 3656 
Q 2675 3794 2297 3794 
L 1791 3794 
L 1791 2597 
L 2297 2597 
z
M 1791 1766 
L 1791 0 
L 588 0 
L 588 4666 
L 2425 4666 
Q 3347 4666 3776 4356 
Q 4206 4047 4206 3378 
Q 4206 2916 3982 2619 
Q 3759 2322 3309 2181 
Q 3556 2125 3751 1926 
Q 3947 1728 4147 1325 
L 4800 0 
L 3519 0 
L 2950 1159 
Q 2778 1509 2601 1637 
Q 2425 1766 2131 1766 
L 1791 1766 
z
" transform="scale(0.015625)"/>
     <path id="DejaVuSans-Bold-47" d="M 2919 2988 
L 2919 4863 
L 4044 4863 
L 4044 0 
L 2919 0 
L 2919 506 
Q 2688 197 2409 53 
Q 2131 -91 1766 -91 
Q 1119 -91 703 423 
Q 288 938 288 1747 
Q 288 2556 703 3070 
Q 1119 3584 1766 3584 
Q 2128 3584 2408 3439 
Q 2688 3294 2919 2988 
z
M 2181 722 
Q 2541 722 2730 984 
Q 2919 1247 2919 1747 
Q 2919 2247 2730 2509 
Q 2541 2772 2181 2772 
Q 1825 2772 1636 2509 
Q 1447 2247 1447 1747 
Q 1447 1247 1636 984 
Q 1825 722 2181 722 
z
" transform="scale(0.015625)"/>
     <path id="DejaVuSans-Bold-5c" d="M 78 3500 
L 1197 3500 
L 2138 1125 
L 2938 3500 
L 4056 3500 
L 2584 -331 
Q 2363 -916 2067 -1148 
Q 1772 -1381 1288 -1381 
L 641 -1381 
L 641 -647 
L 991 -647 
Q 1275 -647 1404 -556 
Q 1534 -466 1606 -231 
L 1638 -134 
L 78 3500 
z
" transform="scale(0.015625)"/>
     <path id="DejaVuSans-Bold-1d" d="M 716 3500 
L 1844 3500 
L 1844 2291 
L 716 2291 
L 716 3500 
z
M 716 1209 
L 1844 1209 
L 1844 0 
L 716 0 
L 716 1209 
z
" transform="scale(0.015625)"/>
     <path id="DejaVuSans-Bold-50" d="M 3781 2919 
Q 3994 3244 4286 3414 
Q 4578 3584 4928 3584 
Q 5531 3584 5847 3212 
Q 6163 2841 6163 2131 
L 6163 0 
L 5038 0 
L 5038 1825 
Q 5041 1866 5042 1909 
Q 5044 1953 5044 2034 
Q 5044 2406 4934 2573 
Q 4825 2741 4581 2741 
Q 4263 2741 4089 2478 
Q 3916 2216 3909 1719 
L 3909 0 
L 2784 0 
L 2784 1825 
Q 2784 2406 2684 2573 
Q 2584 2741 2328 2741 
Q 2006 2741 1831 2477 
Q 1656 2213 1656 1722 
L 1656 0 
L 531 0 
L 531 3500 
L 1656 3500 
L 1656 2988 
Q 1863 3284 2130 3434 
Q 2397 3584 2719 3584 
Q 3081 3584 3359 3409 
Q 3638 3234 3781 2919 
z
" transform="scale(0.015625)"/>
     <path id="DejaVuSans-Bold-4a" d="M 2919 594 
Q 2688 288 2409 144 
Q 2131 0 1766 0 
Q 1125 0 706 504 
Q 288 1009 288 1791 
Q 288 2575 706 3076 
Q 1125 3578 1766 3578 
Q 2131 3578 2409 3434 
Q 2688 3291 2919 2981 
L 2919 3500 
L 4044 3500 
L 4044 353 
Q 4044 -491 3511 -936 
Q 2978 -1381 1966 -1381 
Q 1638 -1381 1331 -1331 
Q 1025 -1281 716 -1178 
L 716 -306 
Q 1009 -475 1290 -558 
Q 1572 -641 1856 -641 
Q 2406 -641 2662 -400 
Q 2919 -159 2919 353 
L 2919 594 
z
M 2181 2772 
Q 1834 2772 1640 2515 
Q 1447 2259 1447 1791 
Q 1447 1309 1634 1061 
Q 1822 813 2181 813 
Q 2531 813 2725 1069 
Q 2919 1325 2919 1791 
Q 2919 2259 2725 2515 
Q 2531 2772 2181 2772 
z
" transform="scale(0.015625)"/>
     <path id="DejaVuSans-Bold-4e" d="M 538 4863 
L 1656 4863 
L 1656 2216 
L 2944 3500 
L 4244 3500 
L 2534 1894 
L 4378 0 
L 3022 0 
L 1656 1459 
L 1656 0 
L 538 0 
L 538 4863 
z
" transform="scale(0.015625)"/>
     <path id="DejaVuSans-Bold-54" d="M 2181 2772 
Q 1825 2772 1636 2509 
Q 1447 2247 1447 1747 
Q 1447 1247 1636 984 
Q 1825 722 2181 722 
Q 2541 722 2730 984 
Q 2919 1247 2919 1747 
Q 2919 2247 2730 2509 
Q 2541 2772 2181 2772 
z
M 2919 506 
Q 2688 197 2409 53 
Q 2131 -91 1766 -91 
Q 1119 -91 703 423 
Q 288 938 288 1747 
Q 288 2556 703 3067 
Q 1119 3578 1766 3578 
Q 2131 3578 2409 3434 
Q 2688 3291 2919 2981 
L 2919 3500 
L 4044 3500 
L 4044 -1331 
L 2919 -1331 
L 2919 506 
z
" transform="scale(0.015625)"/>
    </defs>
    <use xlink:href="#DejaVuSans-Bold-35"/>
    <use xlink:href="#DejaVuSans-Bold-48" transform="translate(77 0)"/>
    <use xlink:href="#DejaVuSans-Bold-57" transform="translate(144.828125 0)"/>
    <use xlink:href="#DejaVuSans-Bold-55" transform="translate(192.625 0)"/>
    <use xlink:href="#DejaVuSans-Bold-4c" transform="translate(241.9375 0)"/>
    <use xlink:href="#DejaVuSans-Bold-48" transform="translate(276.21875 0)"/>
    <use xlink:href="#DejaVuSans-Bold-59" transform="translate(344.046875 0)"/>
    <use xlink:href="#DejaVuSans-Bold-44" transform="translate(409.234375 0)"/>
    <use xlink:href="#DejaVuSans-Bold-4f" transform="translate(476.71875 0)"/>
    <use xlink:href="#DejaVuSans-Bold-10" transform="translate(511 0)"/>
    <use xlink:href="#DejaVuSans-Bold-56" transform="translate(552.5 0)"/>
    <use xlink:href="#DejaVuSans-Bold-44" transform="translate(612.015625 0)"/>
    <use xlink:href="#DejaVuSans-Bold-57" transform="translate(679.5 0)"/>
    <use xlink:href="#DejaVuSans-Bold-58" transform="translate(727.296875 0)"/>
    <use xlink:href="#DejaVuSans-Bold-55" transform="translate(798.484375 0)"/>
    <use xlink:href="#DejaVuSans-Bold-44" transform="translate(847.796875 0)"/>
    <use xlink:href="#DejaVuSans-Bold-57" transform="translate(915.28125 0)"/>
    <use xlink:href="#DejaVuSans-Bold-48" transform="translate(963.078125 0)"/>
    <use xlink:href="#DejaVuSans-Bold-47" transform="translate(1030.90625 0)"/>
    <use xlink:href="#DejaVuSans-Bold-3" transform="translate(1102.484375 0)"/>
    <use xlink:href="#DejaVuSans-Bold-49" transform="translate(1137.296875 0)"/>
    <use xlink:href="#DejaVuSans-Bold-44" transform="translate(1180.796875 0)"/>
    <use xlink:href="#DejaVuSans-Bold-4c" transform="translate(1248.28125 0)"/>
    <use xlink:href="#DejaVuSans-Bold-4f" transform="translate(1282.5625 0)"/>
    <use xlink:href="#DejaVuSans-Bold-58" transform="translate(1316.84375 0)"/>
    <use xlink:href="#DejaVuSans-Bold-55" transform="translate(1388.03125 0)"/>
    <use xlink:href="#DejaVuSans-Bold-48" transform="translate(1437.34375 0)"/>
    <use xlink:href="#DejaVuSans-Bold-3" transform="translate(1505.171875 0)"/>
    <use xlink:href="#DejaVuSans-Bold-44" transform="translate(1539.984375 0)"/>
    <use xlink:href="#DejaVuSans-Bold-51" transform="translate(1607.46875 0)"/>
    <use xlink:href="#DejaVuSans-Bold-44" transform="translate(1678.65625 0)"/>
    <use xlink:href="#DejaVuSans-Bold-4f" transform="translate(1746.140625 0)"/>
    <use xlink:href="#DejaVuSans-Bold-5c" transform="translate(1780.421875 0)"/>
    <use xlink:href="#DejaVuSans-Bold-56" transform="translate(1845.609375 0)"/>
    <use xlink:href="#DejaVuSans-Bold-4c" transform="translate(1905.125 0)"/>
    <use xlink:href="#DejaVuSans-Bold-56" transform="translate(1939.40625 0)"/>
    <use xlink:href="#DejaVuSans-Bold-1d" transform="translate(1998.921875 0)"/>
    <use xlink:href="#DejaVuSans-Bold-3" transform="translate(2038.90625 0)"/>
    <use xlink:href="#DejaVuSans-Bold-55" transform="translate(2073.71875 0)"/>
    <use xlink:href="#DejaVuSans-Bold-48" transform="translate(2123.03125 0)"/>
    <use xlink:href="#DejaVuSans-Bold-50" transform="translate(2190.859375 0)"/>
    <use xlink:href="#DejaVuSans-Bold-44" transform="translate(2295.0625 0)"/>
    <use xlink:href="#DejaVuSans-Bold-4c" transform="translate(2362.546875 0)"/>
    <use xlink:href="#DejaVuSans-Bold-51" transform="translate(2396.828125 0)"/>
    <use xlink:href="#DejaVuSans-Bold-4c" transform="translate(2468.015625 0)"/>
    <use xlink:href="#DejaVuSans-Bold-51" transform="translate(2502.296875 0)"/>
    <use xlink:href="#DejaVuSans-Bold-4a" transform="translate(2573.484375 0)"/>
    <use xlink:href="#DejaVuSans-Bold-3" transform="translate(2645.0625 0)"/>
    <use xlink:href="#DejaVuSans-Bold-48" transform="translate(2679.875 0)"/>
    <use xlink:href="#DejaVuSans-Bold-55" transform="translate(2747.703125 0)"/>
    <use xlink:href="#DejaVuSans-Bold-55" transform="translate(2797.015625 0)"/>
    <use xlink:href="#DejaVuSans-Bold-52" transform="translate(2846.328125 0)"/>
    <use xlink:href="#DejaVuSans-Bold-55" transform="translate(2915.03125 0)"/>
    <use xlink:href="#DejaVuSans-Bold-56" transform="translate(2964.34375 0)"/>
    <use xlink:href="#DejaVuSans-Bold-3" transform="translate(3023.859375 0)"/>
    <use xlink:href="#DejaVuSans-Bold-57" transform="translate(3058.671875 0)"/>
    <use xlink:href="#DejaVuSans-Bold-55" transform="translate(3106.46875 0)"/>
    <use xlink:href="#DejaVuSans-Bold-44" transform="translate(3155.78125 0)"/>
    <use xlink:href="#DejaVuSans-Bold-46" transform="translate(3223.265625 0)"/>
    <use xlink:href="#DejaVuSans-Bold-4e" transform="translate(3282.546875 0)"/>
    <use xlink:href="#DejaVuSans-Bold-3" transform="translate(3349.046875 0)"/>
    <use xlink:href="#DejaVuSans-Bold-5a" transform="translate(3383.859375 0)"/>
    <use xlink:href="#DejaVuSans-Bold-55" transform="translate(3476.25 0)"/>
    <use xlink:href="#DejaVuSans-Bold-4c" transform="translate(3525.5625 0)"/>
    <use xlink:href="#DejaVuSans-Bold-57" transform="translate(3559.84375 0)"/>
    <use xlink:href="#DejaVuSans-Bold-48" transform="translate(3607.640625 0)"/>
    <use xlink:href="#DejaVuSans-Bold-55" transform="translate(3675.46875 0)"/>
    <use xlink:href="#DejaVuSans-Bold-3" transform="translate(3724.78125 0)"/>
    <use xlink:href="#DejaVuSans-Bold-54" transform="translate(3759.59375 0)"/>
    <use xlink:href="#DejaVuSans-Bold-58" transform="translate(3831.171875 0)"/>
    <use xlink:href="#DejaVuSans-Bold-44" transform="translate(3902.359375 0)"/>
    <use xlink:href="#DejaVuSans-Bold-4f" transform="translate(3969.84375 0)"/>
    <use xlink:href="#DejaVuSans-Bold-4c" transform="translate(4004.125 0)"/>
    <use xlink:href="#DejaVuSans-Bold-57" transform="translate(4038.40625 0)"/>
    <use xlink:href="#DejaVuSans-Bold-5c" transform="translate(4086.203125 0)"/>
   </g>
  </g>
 </g>
 <defs>
  <clipPath id="p0cb35d4585">
   <rect x="101.7" y="48.96" width="317.045455" height="321.552"/>
  </clipPath>
  <clipPath id="p063aa3c45b">
   <rect x="482.154545" y="48.96" width="317.045455" height="321.552"/>
  </clipPath>
 </defs>
</svg>
