<?xml version="1.0" encoding="utf-8" standalone="no"?>
<!DOCTYPE svg PUBLIC "-//W3C//DTD SVG 1.1//EN"
  "http://www.w3.org/Graphics/SVG/1.1/DTD/svg11.dtd">
<svg xmlns:xlink="http://www.w3.org/1999/xlink" width="529.593594pt" height="403.246906pt" viewBox="0 0 529.593594 403.246906" xmlns="http://www.w3.org/2000/svg" version="1.1">
 <metadata>
  <rdf:RDF xmlns:dc="http://purl.org/dc/elements/1.1/" xmlns:cc="http://creativecommons.org/ns#" xmlns:rdf="http://www.w3.org/1999/02/22-rdf-syntax-ns#">
   <cc:Work>
    <dc:type rdf:resource="http://purl.org/dc/dcmitype/StillImage"/>
    <dc:date>2026-06-29T22:42:49.949027</dc:date>
    <dc:format>image/svg+xml</dc:format>
    <dc:creator>
     <cc:Agent>
      <dc:title>Matplotlib v3.11.0, https://matplotlib.org/</dc:title>
     </cc:Agent>
    </dc:creator>
   </cc:Work>
  </rdf:RDF>
 </metadata>
 <defs>
  <style type="text/css">*{stroke-linejoin: round; stroke-linecap: butt}</style>
 </defs>
 <g id="figure_1">
  <g id="patch_1">
   <path d="M 0 403.246906 
L 529.593594 403.246906 
L 529.593594 0 
L 0 0 
z
" style="fill: #ffffff"/>
  </g>
  <g id="axes_1">
   <g id="patch_2">
    <path d="M 42.513594 366.046125 
L 522.393594 366.046125 
L 522.393594 22.318125 
L 42.513594 22.318125 
z
" style="fill: #ffffff"/>
   </g>
   <g id="PathCollection_1">
    <path d="M 449.874415 78.286744 
C 450.812049 78.286744 451.711407 77.914217 452.374415 77.25121 
C 453.037422 76.588202 453.409949 75.688844 453.409949 74.75121 
C 453.409949 73.813575 453.037422 72.914217 452.374415 72.25121 
C 451.711407 71.588202 450.812049 71.215676 449.874415 71.215676 
C 448.93678 71.215676 448.037422 71.588202 447.374415 72.25121 
C 446.711407 72.914217 446.338881 73.813575 446.338881 74.75121 
C 446.338881 75.688844 446.711407 76.588202 447.374415 77.25121 
C 448.037422 77.914217 448.93678 78.286744 449.874415 78.286744 
z
" clip-path="url(#p048e8b8605)" style="fill: #e76f51; fill-opacity: 0.78; stroke: #ffffff; stroke-opacity: 0.78; stroke-width: 0.7"/>
    <path d="M 407.347736 165.675218 
C 408.28537 165.675218 409.184728 165.302692 409.847736 164.639684 
C 410.510743 163.976677 410.883269 163.077319 410.883269 162.139684 
C 410.883269 161.20205 410.510743 160.302692 409.847736 159.639684 
C 409.184728 158.976677 408.28537 158.60415 407.347736 158.60415 
C 406.410101 158.60415 405.510743 158.976677 404.847736 159.639684 
C 404.184728 160.302692 403.812202 161.20205 403.812202 162.139684 
C 403.812202 163.077319 404.184728 163.976677 404.847736 164.639684 
C 405.510743 165.302692 406.410101 165.675218 407.347736 165.675218 
z
" clip-path="url(#p048e8b8605)" style="fill: #e76f51; fill-opacity: 0.78; stroke: #ffffff; stroke-opacity: 0.78; stroke-width: 0.7"/>
    <path d="M 420.777213 136.545727 
C 421.714848 136.545727 422.614205 136.173201 423.277213 135.510193 
C 423.940221 134.847185 424.312747 133.947827 424.312747 133.010193 
C 424.312747 132.072558 423.940221 131.173201 423.277213 130.510193 
C 422.614205 129.847185 421.714848 129.474659 420.777213 129.474659 
C 419.839579 129.474659 418.940221 129.847185 418.277213 130.510193 
C 417.614205 131.173201 417.241679 132.072558 417.241679 133.010193 
C 417.241679 133.947827 417.614205 134.847185 418.277213 135.510193 
C 418.940221 136.173201 419.839579 136.545727 420.777213 136.545727 
z
" clip-path="url(#p048e8b8605)" style="fill: #e76f51; fill-opacity: 0.78; stroke: #ffffff; stroke-opacity: 0.78; stroke-width: 0.7"/>
    <path d="M 335.723855 282.193184 
C 336.661489 282.193184 337.560847 281.820658 338.223855 281.15765 
C 338.886863 280.494643 339.259389 279.595285 339.259389 278.65765 
C 339.259389 277.720016 338.886863 276.820658 338.223855 276.15765 
C 337.560847 275.494643 336.661489 275.122117 335.723855 275.122117 
C 334.78622 275.122117 333.886863 275.494643 333.223855 276.15765 
C 332.560847 276.820658 332.188321 277.720016 332.188321 278.65765 
C 332.188321 279.595285 332.560847 280.494643 333.223855 281.15765 
C 333.886863 281.820658 334.78622 282.193184 335.723855 282.193184 
z
" clip-path="url(#p048e8b8605)" style="fill: #e76f51; fill-opacity: 0.78; stroke: #ffffff; stroke-opacity: 0.78; stroke-width: 0.7"/>
    <path d="M 329.009116 108.754098 
C 330.301556 108.754098 331.541235 108.240607 332.455128 107.326713 
C 333.369021 106.41282 333.882513 105.173141 333.882513 103.880701 
C 333.882513 102.588261 333.369021 101.348582 332.455128 100.434689 
C 331.541235 99.520796 330.301556 99.007304 329.009116 99.007304 
C 327.716676 99.007304 326.476997 99.520796 325.563104 100.434689 
C 324.649211 101.348582 324.135719 102.588261 324.135719 103.880701 
C 324.135719 105.173141 324.649211 106.41282 325.563104 107.326713 
C 326.476997 108.240607 327.716676 108.754098 329.009116 108.754098 
z
" clip-path="url(#p048e8b8605)" style="fill: #e76f51; fill-opacity: 0.78; stroke: #ffffff; stroke-opacity: 0.78; stroke-width: 0.7"/>
    <path d="M 306.626653 196.142573 
C 307.919093 196.142573 309.158773 195.629081 310.072666 194.715188 
C 310.986559 193.801295 311.500051 192.561616 311.500051 191.269176 
C 311.500051 189.976736 310.986559 188.737057 310.072666 187.823164 
C 309.158773 186.909271 307.919093 186.395779 306.626653 186.395779 
C 305.334213 186.395779 304.094534 186.909271 303.180641 187.823164 
C 302.266748 188.737057 301.753256 189.976736 301.753256 191.269176 
C 301.753256 192.561616 302.266748 193.801295 303.180641 194.715188 
C 304.094534 195.629081 305.334213 196.142573 306.626653 196.142573 
z
" clip-path="url(#p048e8b8605)" style="fill: #e76f51; fill-opacity: 0.78; stroke: #ffffff; stroke-opacity: 0.78; stroke-width: 0.7"/>
    <path d="M 364.821056 137.88359 
C 366.113496 137.88359 367.353176 137.370098 368.267069 136.456205 
C 369.180962 135.542312 369.694454 134.302633 369.694454 133.010193 
C 369.694454 131.717753 369.180962 130.478074 368.267069 129.564181 
C 367.353176 128.650287 366.113496 128.136796 364.821056 128.136796 
C 363.528616 128.136796 362.288937 128.650287 361.375044 129.564181 
C 360.461151 130.478074 359.947659 131.717753 359.947659 133.010193 
C 359.947659 134.302633 360.461151 135.542312 361.375044 136.456205 
C 362.288937 137.370098 363.528616 137.88359 364.821056 137.88359 
z
" clip-path="url(#p048e8b8605)" style="fill: #e76f51; fill-opacity: 0.78; stroke: #ffffff; stroke-opacity: 0.78; stroke-width: 0.7"/>
    <path d="M 342.438594 254.401556 
C 343.731034 254.401556 344.970713 253.888064 345.884606 252.974171 
C 346.798499 252.060278 347.311991 250.820599 347.311991 249.528159 
C 347.311991 248.235719 346.798499 246.99604 345.884606 246.082147 
C 344.970713 245.168254 343.731034 244.654762 342.438594 244.654762 
C 341.146154 244.654762 339.906475 245.168254 338.992582 246.082147 
C 338.078688 246.99604 337.565197 248.235719 337.565197 249.528159 
C 337.565197 250.820599 338.078688 252.060278 338.992582 252.974171 
C 339.906475 253.888064 341.146154 254.401556 342.438594 254.401556 
z
" clip-path="url(#p048e8b8605)" style="fill: #e76f51; fill-opacity: 0.78; stroke: #ffffff; stroke-opacity: 0.78; stroke-width: 0.7"/>
    <path d="M 306.626653 225.272065 
C 307.919093 225.272065 309.158773 224.758573 310.072666 223.84468 
C 310.986559 222.930786 311.500051 221.691107 311.500051 220.398667 
C 311.500051 219.106227 310.986559 217.866548 310.072666 216.952655 
C 309.158773 216.038762 307.919093 215.52527 306.626653 215.52527 
C 305.334213 215.52527 304.094534 216.038762 303.180641 216.952655 
C 302.266748 217.866548 301.753256 219.106227 301.753256 220.398667 
C 301.753256 221.691107 302.266748 222.930786 303.180641 223.84468 
C 304.094534 224.758573 305.334213 225.272065 306.626653 225.272065 
z
" clip-path="url(#p048e8b8605)" style="fill: #e76f51; fill-opacity: 0.78; stroke: #ffffff; stroke-opacity: 0.78; stroke-width: 0.7"/>
    <path d="M 257.385236 341.790031 
C 258.677676 341.790031 259.917355 341.276539 260.831248 340.362646 
C 261.745141 339.448753 262.258633 338.209074 262.258633 336.916633 
C 262.258633 335.624193 261.745141 334.384514 260.831248 333.470621 
C 259.917355 332.556728 258.677676 332.043236 257.385236 332.043236 
C 256.092796 332.043236 254.853116 332.556728 253.939223 333.470621 
C 253.02533 334.384514 252.511838 335.624193 252.511838 336.916633 
C 252.511838 338.209074 253.02533 339.448753 253.939223 340.362646 
C 254.853116 341.276539 256.092796 341.790031 257.385236 341.790031 
z
" clip-path="url(#p048e8b8605)" style="fill: #e76f51; fill-opacity: 0.78; stroke: #ffffff; stroke-opacity: 0.78; stroke-width: 0.7"/>
    <path d="M 275.291206 341.790031 
C 276.583646 341.790031 277.823325 341.276539 278.737218 340.362646 
C 279.651111 339.448753 280.164603 338.209074 280.164603 336.916633 
C 280.164603 335.624193 279.651111 334.384514 278.737218 333.470621 
C 277.823325 332.556728 276.583646 332.043236 275.291206 332.043236 
C 273.998766 332.043236 272.759087 332.556728 271.845194 333.470621 
C 270.9313 334.384514 270.417809 335.624193 270.417809 336.916633 
C 270.417809 338.209074 270.9313 339.448753 271.845194 340.362646 
C 272.759087 341.276539 273.998766 341.790031 275.291206 341.790031 
z
" clip-path="url(#p048e8b8605)" style="fill: #e76f51; fill-opacity: 0.78; stroke: #ffffff; stroke-opacity: 0.78; stroke-width: 0.7"/>
    <path d="M 373.774042 225.272065 
C 375.066482 225.272065 376.306161 224.758573 377.220054 223.84468 
C 378.133947 222.930786 378.647439 221.691107 378.647439 220.398667 
C 378.647439 219.106227 378.133947 217.866548 377.220054 216.952655 
C 376.306161 216.038762 375.066482 215.52527 373.774042 215.52527 
C 372.481601 215.52527 371.241922 216.038762 370.328029 216.952655 
C 369.414136 217.866548 368.900644 219.106227 368.900644 220.398667 
C 368.900644 221.691107 369.414136 222.930786 370.328029 223.84468 
C 371.241922 224.758573 372.481601 225.272065 373.774042 225.272065 
z
" clip-path="url(#p048e8b8605)" style="fill: #e76f51; fill-opacity: 0.78; stroke: #ffffff; stroke-opacity: 0.78; stroke-width: 0.7"/>
    <path d="M 311.103146 284.57373 
C 312.672109 284.57373 314.177022 283.950375 315.286446 282.840951 
C 316.39587 281.731526 317.019226 280.226613 317.019226 278.65765 
C 317.019226 277.088688 316.39587 275.583774 315.286446 274.47435 
C 314.177022 273.364926 312.672109 272.741571 311.103146 272.741571 
C 309.534183 272.741571 308.02927 273.364926 306.919846 274.47435 
C 305.810422 275.583774 305.187066 277.088688 305.187066 278.65765 
C 305.187066 280.226613 305.810422 281.731526 306.919846 282.840951 
C 308.02927 283.950375 309.534183 284.57373 311.103146 284.57373 
z
" clip-path="url(#p048e8b8605)" style="fill: #e76f51; fill-opacity: 0.78; stroke: #ffffff; stroke-opacity: 0.78; stroke-width: 0.7"/>
    <path d="M 337.962101 226.314747 
C 339.531064 226.314747 341.035977 225.691392 342.145401 224.581968 
C 343.254826 223.472543 343.878181 221.96763 343.878181 220.398667 
C 343.878181 218.829705 343.254826 217.324791 342.145401 216.215367 
C 341.035977 215.105943 339.531064 214.482588 337.962101 214.482588 
C 336.393139 214.482588 334.888225 215.105943 333.778801 216.215367 
C 332.669377 217.324791 332.046021 218.829705 332.046021 220.398667 
C 332.046021 221.96763 332.669377 223.472543 333.778801 224.581968 
C 334.888225 225.691392 336.393139 226.314747 337.962101 226.314747 
z
" clip-path="url(#p048e8b8605)" style="fill: #e76f51; fill-opacity: 0.78; stroke: #ffffff; stroke-opacity: 0.78; stroke-width: 0.7"/>
    <path d="M 293.197176 109.796781 
C 294.766139 109.796781 296.271052 109.173426 297.380476 108.064001 
C 298.4899 106.954577 299.113256 105.449664 299.113256 103.880701 
C 299.113256 102.311739 298.4899 100.806825 297.380476 99.697401 
C 296.271052 98.587977 294.766139 97.964621 293.197176 97.964621 
C 291.628213 97.964621 290.1233 98.587977 289.013876 99.697401 
C 287.904452 100.806825 287.281096 102.311739 287.281096 103.880701 
C 287.281096 105.449664 287.904452 106.954577 289.013876 108.064001 
C 290.1233 109.173426 291.628213 109.796781 293.197176 109.796781 
z
" clip-path="url(#p048e8b8605)" style="fill: #e76f51; fill-opacity: 0.78; stroke: #ffffff; stroke-opacity: 0.78; stroke-width: 0.7"/>
   </g>
   <g id="PathCollection_2">
    <path d="M 508.068818 49.157252 
C 509.006452 49.157252 509.90581 48.784726 510.568818 48.121718 
C 511.231825 47.45871 511.604352 46.559353 511.604352 45.621718 
C 511.604352 44.684084 511.231825 43.784726 510.568818 43.121718 
C 509.90581 42.45871 509.006452 42.086184 508.068818 42.086184 
C 507.131183 42.086184 506.231825 42.45871 505.568818 43.121718 
C 504.90581 43.784726 504.533284 44.684084 504.533284 45.621718 
C 504.533284 46.559353 504.90581 47.45871 505.568818 48.121718 
C 506.231825 48.784726 507.131183 49.157252 508.068818 49.157252 
z
" clip-path="url(#p048e8b8605)" style="fill: #2a9d8f; fill-opacity: 0.78; stroke: #ffffff; stroke-opacity: 0.78; stroke-width: 0.7"/>
    <path d="M 494.63934 63.721998 
C 495.576975 63.721998 496.476332 63.349472 497.13934 62.686464 
C 497.802348 62.023456 498.174874 61.124099 498.174874 60.186464 
C 498.174874 59.248829 497.802348 58.349472 497.13934 57.686464 
C 496.476332 57.023456 495.576975 56.65093 494.63934 56.65093 
C 493.701705 56.65093 492.802348 57.023456 492.13934 57.686464 
C 491.476332 58.349472 491.103806 59.248829 491.103806 60.186464 
C 491.103806 61.124099 491.476332 62.023456 492.13934 62.686464 
C 492.802348 63.349472 493.701705 63.721998 494.63934 63.721998 
z
" clip-path="url(#p048e8b8605)" style="fill: #2a9d8f; fill-opacity: 0.78; stroke: #ffffff; stroke-opacity: 0.78; stroke-width: 0.7"/>
    <path d="M 508.068818 49.157252 
C 509.006452 49.157252 509.90581 48.784726 510.568818 48.121718 
C 511.231825 47.45871 511.604352 46.559353 511.604352 45.621718 
C 511.604352 44.684084 511.231825 43.784726 510.568818 43.121718 
C 509.90581 42.45871 509.006452 42.086184 508.068818 42.086184 
C 507.131183 42.086184 506.231825 42.45871 505.568818 43.121718 
C 504.90581 43.784726 504.533284 44.684084 504.533284 45.621718 
C 504.533284 46.559353 504.90581 47.45871 505.568818 48.121718 
C 506.231825 48.784726 507.131183 49.157252 508.068818 49.157252 
z
" clip-path="url(#p048e8b8605)" style="fill: #2a9d8f; fill-opacity: 0.78; stroke: #ffffff; stroke-opacity: 0.78; stroke-width: 0.7"/>
    <path d="M 490.162847 49.157252 
C 491.100482 49.157252 491.99984 48.784726 492.662847 48.121718 
C 493.325855 47.45871 493.698381 46.559353 493.698381 45.621718 
C 493.698381 44.684084 493.325855 43.784726 492.662847 43.121718 
C 491.99984 42.45871 491.100482 42.086184 490.162847 42.086184 
C 489.225213 42.086184 488.325855 42.45871 487.662847 43.121718 
C 486.99984 43.784726 486.627314 44.684084 486.627314 45.621718 
C 486.627314 46.559353 486.99984 47.45871 487.662847 48.121718 
C 488.325855 48.784726 489.225213 49.157252 490.162847 49.157252 
z
" clip-path="url(#p048e8b8605)" style="fill: #2a9d8f; fill-opacity: 0.78; stroke: #ffffff; stroke-opacity: 0.78; stroke-width: 0.7"/>
    <path d="M 501.354079 49.157252 
C 502.291713 49.157252 503.191071 48.784726 503.854079 48.121718 
C 504.517087 47.45871 504.889613 46.559353 504.889613 45.621718 
C 504.889613 44.684084 504.517087 43.784726 503.854079 43.121718 
C 503.191071 42.45871 502.291713 42.086184 501.354079 42.086184 
C 500.416444 42.086184 499.517087 42.45871 498.854079 43.121718 
C 498.191071 43.784726 497.818545 44.684084 497.818545 45.621718 
C 497.818545 46.559353 498.191071 47.45871 498.854079 48.121718 
C 499.517087 48.784726 500.416444 49.157252 501.354079 49.157252 
z
" clip-path="url(#p048e8b8605)" style="fill: #2a9d8f; fill-opacity: 0.78; stroke: #ffffff; stroke-opacity: 0.78; stroke-width: 0.7"/>
    <path d="M 508.068818 49.157252 
C 509.006452 49.157252 509.90581 48.784726 510.568818 48.121718 
C 511.231825 47.45871 511.604352 46.559353 511.604352 45.621718 
C 511.604352 44.684084 511.231825 43.784726 510.568818 43.121718 
C 509.90581 42.45871 509.006452 42.086184 508.068818 42.086184 
C 507.131183 42.086184 506.231825 42.45871 505.568818 43.121718 
C 504.90581 43.784726 504.533284 44.684084 504.533284 45.621718 
C 504.533284 46.559353 504.90581 47.45871 505.568818 48.121718 
C 506.231825 48.784726 507.131183 49.157252 508.068818 49.157252 
z
" clip-path="url(#p048e8b8605)" style="fill: #2a9d8f; fill-opacity: 0.78; stroke: #ffffff; stroke-opacity: 0.78; stroke-width: 0.7"/>
    <path d="M 503.592325 49.157252 
C 504.52996 49.157252 505.429317 48.784726 506.092325 48.121718 
C 506.755333 47.45871 507.127859 46.559353 507.127859 45.621718 
C 507.127859 44.684084 506.755333 43.784726 506.092325 43.121718 
C 505.429317 42.45871 504.52996 42.086184 503.592325 42.086184 
C 502.654691 42.086184 501.755333 42.45871 501.092325 43.121718 
C 500.429317 43.784726 500.056791 44.684084 500.056791 45.621718 
C 500.056791 46.559353 500.429317 47.45871 501.092325 48.121718 
C 501.755333 48.784726 502.654691 49.157252 503.592325 49.157252 
z
" clip-path="url(#p048e8b8605)" style="fill: #2a9d8f; fill-opacity: 0.78; stroke: #ffffff; stroke-opacity: 0.78; stroke-width: 0.7"/>
    <path d="M 501.354079 63.721998 
C 502.291713 63.721998 503.191071 63.349472 503.854079 62.686464 
C 504.517087 62.023456 504.889613 61.124099 504.889613 60.186464 
C 504.889613 59.248829 504.517087 58.349472 503.854079 57.686464 
C 503.191071 57.023456 502.291713 56.65093 501.354079 56.65093 
C 500.416444 56.65093 499.517087 57.023456 498.854079 57.686464 
C 498.191071 58.349472 497.818545 59.248829 497.818545 60.186464 
C 497.818545 61.124099 498.191071 62.023456 498.854079 62.686464 
C 499.517087 63.349472 500.416444 63.721998 501.354079 63.721998 
z
" clip-path="url(#p048e8b8605)" style="fill: #2a9d8f; fill-opacity: 0.78; stroke: #ffffff; stroke-opacity: 0.78; stroke-width: 0.7"/>
    <path d="M 508.068818 49.157252 
C 509.006452 49.157252 509.90581 48.784726 510.568818 48.121718 
C 511.231825 47.45871 511.604352 46.559353 511.604352 45.621718 
C 511.604352 44.684084 511.231825 43.784726 510.568818 43.121718 
C 509.90581 42.45871 509.006452 42.086184 508.068818 42.086184 
C 507.131183 42.086184 506.231825 42.45871 505.568818 43.121718 
C 504.90581 43.784726 504.533284 44.684084 504.533284 45.621718 
C 504.533284 46.559353 504.90581 47.45871 505.568818 48.121718 
C 506.231825 48.784726 507.131183 49.157252 508.068818 49.157252 
z
" clip-path="url(#p048e8b8605)" style="fill: #2a9d8f; fill-opacity: 0.78; stroke: #ffffff; stroke-opacity: 0.78; stroke-width: 0.7"/>
    <path d="M 476.73337 108.754098 
C 478.02581 108.754098 479.265489 108.240607 480.179382 107.326713 
C 481.093275 106.41282 481.606767 105.173141 481.606767 103.880701 
C 481.606767 102.588261 481.093275 101.348582 480.179382 100.434689 
C 479.265489 99.520796 478.02581 99.007304 476.73337 99.007304 
C 475.44093 99.007304 474.201251 99.520796 473.287358 100.434689 
C 472.373465 101.348582 471.859973 102.588261 471.859973 103.880701 
C 471.859973 105.173141 472.373465 106.41282 473.287358 107.326713 
C 474.201251 108.240607 475.44093 108.754098 476.73337 108.754098 
z
" clip-path="url(#p048e8b8605)" style="fill: #2a9d8f; fill-opacity: 0.78; stroke: #ffffff; stroke-opacity: 0.78; stroke-width: 0.7"/>
    <path d="M 485.686355 79.624607 
C 486.978795 79.624607 488.218474 79.111115 489.132367 78.197222 
C 490.04626 77.283329 490.559752 76.04365 490.559752 74.75121 
C 490.559752 73.45877 490.04626 72.219091 489.132367 71.305198 
C 488.218474 70.391304 486.978795 69.877813 485.686355 69.877813 
C 484.393915 69.877813 483.154236 70.391304 482.240343 71.305198 
C 481.32645 72.219091 480.812958 73.45877 480.812958 74.75121 
C 480.812958 76.04365 481.32645 77.283329 482.240343 78.197222 
C 483.154236 79.111115 484.393915 79.624607 485.686355 79.624607 
z
" clip-path="url(#p048e8b8605)" style="fill: #2a9d8f; fill-opacity: 0.78; stroke: #ffffff; stroke-opacity: 0.78; stroke-width: 0.7"/>
    <path d="M 499.115833 50.495115 
C 500.408273 50.495115 501.647952 49.981624 502.561845 49.06773 
C 503.475738 48.153837 503.98923 46.914158 503.98923 45.621718 
C 503.98923 44.329278 503.475738 43.089599 502.561845 42.175706 
C 501.647952 41.261813 500.408273 40.748321 499.115833 40.748321 
C 497.823393 40.748321 496.583713 41.261813 495.66982 42.175706 
C 494.755927 43.089599 494.242435 44.329278 494.242435 45.621718 
C 494.242435 46.914158 494.755927 48.153837 495.66982 49.06773 
C 496.583713 49.981624 497.823393 50.495115 499.115833 50.495115 
z
" clip-path="url(#p048e8b8605)" style="fill: #2a9d8f; fill-opacity: 0.78; stroke: #ffffff; stroke-opacity: 0.78; stroke-width: 0.7"/>
    <path d="M 485.686355 50.495115 
C 486.978795 50.495115 488.218474 49.981624 489.132367 49.06773 
C 490.04626 48.153837 490.559752 46.914158 490.559752 45.621718 
C 490.559752 44.329278 490.04626 43.089599 489.132367 42.175706 
C 488.218474 41.261813 486.978795 40.748321 485.686355 40.748321 
C 484.393915 40.748321 483.154236 41.261813 482.240343 42.175706 
C 481.32645 43.089599 480.812958 44.329278 480.812958 45.621718 
C 480.812958 46.914158 481.32645 48.153837 482.240343 49.06773 
C 483.154236 49.981624 484.393915 50.495115 485.686355 50.495115 
z
" clip-path="url(#p048e8b8605)" style="fill: #2a9d8f; fill-opacity: 0.78; stroke: #ffffff; stroke-opacity: 0.78; stroke-width: 0.7"/>
    <path d="M 499.115833 79.624607 
C 500.408273 79.624607 501.647952 79.111115 502.561845 78.197222 
C 503.475738 77.283329 503.98923 76.04365 503.98923 74.75121 
C 503.98923 73.45877 503.475738 72.219091 502.561845 71.305198 
C 501.647952 70.391304 500.408273 69.877813 499.115833 69.877813 
C 497.823393 69.877813 496.583713 70.391304 495.66982 71.305198 
C 494.755927 72.219091 494.242435 73.45877 494.242435 74.75121 
C 494.242435 76.04365 494.755927 77.283329 495.66982 78.197222 
C 496.583713 79.111115 497.823393 79.624607 499.115833 79.624607 
z
" clip-path="url(#p048e8b8605)" style="fill: #2a9d8f; fill-opacity: 0.78; stroke: #ffffff; stroke-opacity: 0.78; stroke-width: 0.7"/>
    <path d="M 499.115833 50.495115 
C 500.408273 50.495115 501.647952 49.981624 502.561845 49.06773 
C 503.475738 48.153837 503.98923 46.914158 503.98923 45.621718 
C 503.98923 44.329278 503.475738 43.089599 502.561845 42.175706 
C 501.647952 41.261813 500.408273 40.748321 499.115833 40.748321 
C 497.823393 40.748321 496.583713 41.261813 495.66982 42.175706 
C 494.755927 43.089599 494.242435 44.329278 494.242435 45.621718 
C 494.242435 46.914158 494.755927 48.153837 495.66982 49.06773 
C 496.583713 49.981624 497.823393 50.495115 499.115833 50.495115 
z
" clip-path="url(#p048e8b8605)" style="fill: #2a9d8f; fill-opacity: 0.78; stroke: #ffffff; stroke-opacity: 0.78; stroke-width: 0.7"/>
    <path d="M 494.63934 50.495115 
C 495.93178 50.495115 497.171459 49.981624 498.085352 49.06773 
C 498.999245 48.153837 499.512737 46.914158 499.512737 45.621718 
C 499.512737 44.329278 498.999245 43.089599 498.085352 42.175706 
C 497.171459 41.261813 495.93178 40.748321 494.63934 40.748321 
C 493.3469 40.748321 492.107221 41.261813 491.193328 42.175706 
C 490.279435 43.089599 489.765943 44.329278 489.765943 45.621718 
C 489.765943 46.914158 490.279435 48.153837 491.193328 49.06773 
C 492.107221 49.981624 493.3469 50.495115 494.63934 50.495115 
z
" clip-path="url(#p048e8b8605)" style="fill: #2a9d8f; fill-opacity: 0.78; stroke: #ffffff; stroke-opacity: 0.78; stroke-width: 0.7"/>
    <path d="M 490.162847 50.495115 
C 491.455288 50.495115 492.694967 49.981624 493.60886 49.06773 
C 494.522753 48.153837 495.036245 46.914158 495.036245 45.621718 
C 495.036245 44.329278 494.522753 43.089599 493.60886 42.175706 
C 492.694967 41.261813 491.455288 40.748321 490.162847 40.748321 
C 488.870407 40.748321 487.630728 41.261813 486.716835 42.175706 
C 485.802942 43.089599 485.28945 44.329278 485.28945 45.621718 
C 485.28945 46.914158 485.802942 48.153837 486.716835 49.06773 
C 487.630728 49.981624 488.870407 50.495115 490.162847 50.495115 
z
" clip-path="url(#p048e8b8605)" style="fill: #2a9d8f; fill-opacity: 0.78; stroke: #ffffff; stroke-opacity: 0.78; stroke-width: 0.7"/>
    <path d="M 490.162847 108.754098 
C 491.455288 108.754098 492.694967 108.240607 493.60886 107.326713 
C 494.522753 106.41282 495.036245 105.173141 495.036245 103.880701 
C 495.036245 102.588261 494.522753 101.348582 493.60886 100.434689 
C 492.694967 99.520796 491.455288 99.007304 490.162847 99.007304 
C 488.870407 99.007304 487.630728 99.520796 486.716835 100.434689 
C 485.802942 101.348582 485.28945 102.588261 485.28945 103.880701 
C 485.28945 105.173141 485.802942 106.41282 486.716835 107.326713 
C 487.630728 108.240607 488.870407 108.754098 490.162847 108.754098 
z
" clip-path="url(#p048e8b8605)" style="fill: #2a9d8f; fill-opacity: 0.78; stroke: #ffffff; stroke-opacity: 0.78; stroke-width: 0.7"/>
    <path d="M 499.115833 50.495115 
C 500.408273 50.495115 501.647952 49.981624 502.561845 49.06773 
C 503.475738 48.153837 503.98923 46.914158 503.98923 45.621718 
C 503.98923 44.329278 503.475738 43.089599 502.561845 42.175706 
C 501.647952 41.261813 500.408273 40.748321 499.115833 40.748321 
C 497.823393 40.748321 496.583713 41.261813 495.66982 42.175706 
C 494.755927 43.089599 494.242435 44.329278 494.242435 45.621718 
C 494.242435 46.914158 494.755927 48.153837 495.66982 49.06773 
C 496.583713 49.981624 497.823393 50.495115 499.115833 50.495115 
z
" clip-path="url(#p048e8b8605)" style="fill: #2a9d8f; fill-opacity: 0.78; stroke: #ffffff; stroke-opacity: 0.78; stroke-width: 0.7"/>
    <path d="M 490.162847 50.495115 
C 491.455288 50.495115 492.694967 49.981624 493.60886 49.06773 
C 494.522753 48.153837 495.036245 46.914158 495.036245 45.621718 
C 495.036245 44.329278 494.522753 43.089599 493.60886 42.175706 
C 492.694967 41.261813 491.455288 40.748321 490.162847 40.748321 
C 488.870407 40.748321 487.630728 41.261813 486.716835 42.175706 
C 485.802942 43.089599 485.28945 44.329278 485.28945 45.621718 
C 485.28945 46.914158 485.802942 48.153837 486.716835 49.06773 
C 487.630728 49.981624 488.870407 50.495115 490.162847 50.495115 
z
" clip-path="url(#p048e8b8605)" style="fill: #2a9d8f; fill-opacity: 0.78; stroke: #ffffff; stroke-opacity: 0.78; stroke-width: 0.7"/>
    <path d="M 481.209862 109.796781 
C 482.778825 109.796781 484.283738 109.173426 485.393163 108.064001 
C 486.502587 106.954577 487.125942 105.449664 487.125942 103.880701 
C 487.125942 102.311739 486.502587 100.806825 485.393163 99.697401 
C 484.283738 98.587977 482.778825 97.964621 481.209862 97.964621 
C 479.6409 97.964621 478.135986 98.587977 477.026562 99.697401 
C 475.917138 100.806825 475.293783 102.311739 475.293783 103.880701 
C 475.293783 105.449664 475.917138 106.954577 477.026562 108.064001 
C 478.135986 109.173426 479.6409 109.796781 481.209862 109.796781 
z
" clip-path="url(#p048e8b8605)" style="fill: #2a9d8f; fill-opacity: 0.78; stroke: #ffffff; stroke-opacity: 0.78; stroke-width: 0.7"/>
    <path d="M 454.350907 51.537798 
C 455.91987 51.537798 457.424783 50.914443 458.534207 49.805018 
C 459.643631 48.695594 460.266987 47.190681 460.266987 45.621718 
C 460.266987 44.052756 459.643631 42.547842 458.534207 41.438418 
C 457.424783 40.328994 455.91987 39.705638 454.350907 39.705638 
C 452.781944 39.705638 451.277031 40.328994 450.167607 41.438418 
C 449.058183 42.547842 448.434827 44.052756 448.434827 45.621718 
C 448.434827 47.190681 449.058183 48.695594 450.167607 49.805018 
C 451.277031 50.914443 452.781944 51.537798 454.350907 51.537798 
z
" clip-path="url(#p048e8b8605)" style="fill: #2a9d8f; fill-opacity: 0.78; stroke: #ffffff; stroke-opacity: 0.78; stroke-width: 0.7"/>
    <path d="M 499.115833 51.537798 
C 500.684795 51.537798 502.189709 50.914443 503.299133 49.805018 
C 504.408557 48.695594 505.031912 47.190681 505.031912 45.621718 
C 505.031912 44.052756 504.408557 42.547842 503.299133 41.438418 
C 502.189709 40.328994 500.684795 39.705638 499.115833 39.705638 
C 497.54687 39.705638 496.041957 40.328994 494.932532 41.438418 
C 493.823108 42.547842 493.199753 44.052756 493.199753 45.621718 
C 493.199753 47.190681 493.823108 48.695594 494.932532 49.805018 
C 496.041957 50.914443 497.54687 51.537798 499.115833 51.537798 
z
" clip-path="url(#p048e8b8605)" style="fill: #2a9d8f; fill-opacity: 0.78; stroke: #ffffff; stroke-opacity: 0.78; stroke-width: 0.7"/>
   </g>
   <g id="matplotlib.axis_1">
    <g id="xtick_1">
     <g id="line2d_1">
      <path d="M 78.325534 366.046125 
L 78.325534 22.318125 
" clip-path="url(#p048e8b8605)" style="fill: none; stroke: #d9dee5; stroke-opacity: 0.5; stroke-width: 0.8; stroke-linecap: square"/>
     </g>
     <g id="line2d_2">
      <defs>
       <path id="mca8af8495e" d="M 0 0 
L 0 3.5 
" style="stroke: #000000; stroke-width: 0.8"/>
      </defs>
      <g>
       <use xlink:href="#mca8af8495e" x="78.325534" y="366.046125" style="stroke: #000000; stroke-width: 0.8"/>
      </g>
     </g>
     <g id="text_1">
      <!-- 0.4 -->
      <g transform="translate(71.169128 379.884016) scale(0.09 -0.09)">
       <defs>
        <path id="DejaVuSans-13" d="M 2034 4250 
Q 1547 4250 1301 3770 
Q 1056 3291 1056 2328 
Q 1056 1369 1301 889 
Q 1547 409 2034 409 
Q 2525 409 2770 889 
Q 3016 1369 3016 2328 
Q 3016 3291 2770 3770 
Q 2525 4250 2034 4250 
z
M 2034 4750 
Q 2819 4750 3233 4129 
Q 3647 3509 3647 2328 
Q 3647 1150 3233 529 
Q 2819 -91 2034 -91 
Q 1250 -91 836 529 
Q 422 1150 422 2328 
Q 422 3509 836 4129 
Q 1250 4750 2034 4750 
z
" transform="scale(0.015625)"/>
        <path id="DejaVuSans-11" d="M 684 794 
L 1344 794 
L 1344 0 
L 684 0 
L 684 794 
z
" transform="scale(0.015625)"/>
        <path id="DejaVuSans-17" d="M 2419 4116 
L 825 1625 
L 2419 1625 
L 2419 4116 
z
M 2253 4666 
L 3047 4666 
L 3047 1625 
L 3713 1625 
L 3713 1100 
L 3047 1100 
L 3047 0 
L 2419 0 
L 2419 1100 
L 313 1100 
L 313 1709 
L 2253 4666 
z
" transform="scale(0.015625)"/>
       </defs>
       <use xlink:href="#DejaVuSans-13"/>
       <use xlink:href="#DejaVuSans-11" transform="translate(63.625 0)"/>
       <use xlink:href="#DejaVuSans-17" transform="translate(95.40625 0)"/>
      </g>
     </g>
    </g>
    <g id="xtick_2">
     <g id="line2d_3">
      <path d="M 149.949415 366.046125 
L 149.949415 22.318125 
" clip-path="url(#p048e8b8605)" style="fill: none; stroke: #d9dee5; stroke-opacity: 0.5; stroke-width: 0.8; stroke-linecap: square"/>
     </g>
     <g id="line2d_4">
      <g>
       <use xlink:href="#mca8af8495e" x="149.949415" y="366.046125" style="stroke: #000000; stroke-width: 0.8"/>
      </g>
     </g>
     <g id="text_2">
      <!-- 0.5 -->
      <g transform="translate(142.793008 379.884016) scale(0.09 -0.09)">
       <defs>
        <path id="DejaVuSans-18" d="M 691 4666 
L 3169 4666 
L 3169 4134 
L 1269 4134 
L 1269 2991 
Q 1406 3038 1543 3061 
Q 1681 3084 1819 3084 
Q 2600 3084 3056 2656 
Q 3513 2228 3513 1497 
Q 3513 744 3044 326 
Q 2575 -91 1722 -91 
Q 1428 -91 1123 -41 
Q 819 9 494 109 
L 494 744 
Q 775 591 1075 516 
Q 1375 441 1709 441 
Q 2250 441 2565 725 
Q 2881 1009 2881 1497 
Q 2881 1984 2565 2268 
Q 2250 2553 1709 2553 
Q 1456 2553 1204 2497 
Q 953 2441 691 2322 
L 691 4666 
z
" transform="scale(0.015625)"/>
       </defs>
       <use xlink:href="#DejaVuSans-13"/>
       <use xlink:href="#DejaVuSans-11" transform="translate(63.625 0)"/>
       <use xlink:href="#DejaVuSans-18" transform="translate(95.40625 0)"/>
      </g>
     </g>
    </g>
    <g id="xtick_3">
     <g id="line2d_5">
      <path d="M 221.573295 366.046125 
L 221.573295 22.318125 
" clip-path="url(#p048e8b8605)" style="fill: none; stroke: #d9dee5; stroke-opacity: 0.5; stroke-width: 0.8; stroke-linecap: square"/>
     </g>
     <g id="line2d_6">
      <g>
       <use xlink:href="#mca8af8495e" x="221.573295" y="366.046125" style="stroke: #000000; stroke-width: 0.8"/>
      </g>
     </g>
     <g id="text_3">
      <!-- 0.6 -->
      <g transform="translate(214.416889 379.884016) scale(0.09 -0.09)">
       <defs>
        <path id="DejaVuSans-19" d="M 2113 2584 
Q 1688 2584 1439 2293 
Q 1191 2003 1191 1497 
Q 1191 994 1439 701 
Q 1688 409 2113 409 
Q 2538 409 2786 701 
Q 3034 994 3034 1497 
Q 3034 2003 2786 2293 
Q 2538 2584 2113 2584 
z
M 3366 4563 
L 3366 3988 
Q 3128 4100 2886 4159 
Q 2644 4219 2406 4219 
Q 1781 4219 1451 3797 
Q 1122 3375 1075 2522 
Q 1259 2794 1537 2939 
Q 1816 3084 2150 3084 
Q 2853 3084 3261 2657 
Q 3669 2231 3669 1497 
Q 3669 778 3244 343 
Q 2819 -91 2113 -91 
Q 1303 -91 875 529 
Q 447 1150 447 2328 
Q 447 3434 972 4092 
Q 1497 4750 2381 4750 
Q 2619 4750 2861 4703 
Q 3103 4656 3366 4563 
z
" transform="scale(0.015625)"/>
       </defs>
       <use xlink:href="#DejaVuSans-13"/>
       <use xlink:href="#DejaVuSans-11" transform="translate(63.625 0)"/>
       <use xlink:href="#DejaVuSans-19" transform="translate(95.40625 0)"/>
      </g>
     </g>
    </g>
    <g id="xtick_4">
     <g id="line2d_7">
      <path d="M 293.197176 366.046125 
L 293.197176 22.318125 
" clip-path="url(#p048e8b8605)" style="fill: none; stroke: #d9dee5; stroke-opacity: 0.5; stroke-width: 0.8; stroke-linecap: square"/>
     </g>
     <g id="line2d_8">
      <g>
       <use xlink:href="#mca8af8495e" x="293.197176" y="366.046125" style="stroke: #000000; stroke-width: 0.8"/>
      </g>
     </g>
     <g id="text_4">
      <!-- 0.7 -->
      <g transform="translate(286.04077 379.884016) scale(0.09 -0.09)">
       <defs>
        <path id="DejaVuSans-1a" d="M 525 4666 
L 3525 4666 
L 3525 4397 
L 1831 0 
L 1172 0 
L 2766 4134 
L 525 4134 
L 525 4666 
z
" transform="scale(0.015625)"/>
       </defs>
       <use xlink:href="#DejaVuSans-13"/>
       <use xlink:href="#DejaVuSans-11" transform="translate(63.625 0)"/>
       <use xlink:href="#DejaVuSans-1a" transform="translate(95.40625 0)"/>
      </g>
     </g>
    </g>
    <g id="xtick_5">
     <g id="line2d_9">
      <path d="M 364.821056 366.046125 
L 364.821056 22.318125 
" clip-path="url(#p048e8b8605)" style="fill: none; stroke: #d9dee5; stroke-opacity: 0.5; stroke-width: 0.8; stroke-linecap: square"/>
     </g>
     <g id="line2d_10">
      <g>
       <use xlink:href="#mca8af8495e" x="364.821056" y="366.046125" style="stroke: #000000; stroke-width: 0.8"/>
      </g>
     </g>
     <g id="text_5">
      <!-- 0.8 -->
      <g transform="translate(357.66465 379.884016) scale(0.09 -0.09)">
       <defs>
        <path id="DejaVuSans-1b" d="M 2034 2216 
Q 1584 2216 1326 1975 
Q 1069 1734 1069 1313 
Q 1069 891 1326 650 
Q 1584 409 2034 409 
Q 2484 409 2743 651 
Q 3003 894 3003 1313 
Q 3003 1734 2745 1975 
Q 2488 2216 2034 2216 
z
M 1403 2484 
Q 997 2584 770 2862 
Q 544 3141 544 3541 
Q 544 4100 942 4425 
Q 1341 4750 2034 4750 
Q 2731 4750 3128 4425 
Q 3525 4100 3525 3541 
Q 3525 3141 3298 2862 
Q 3072 2584 2669 2484 
Q 3125 2378 3379 2068 
Q 3634 1759 3634 1313 
Q 3634 634 3220 271 
Q 2806 -91 2034 -91 
Q 1263 -91 848 271 
Q 434 634 434 1313 
Q 434 1759 690 2068 
Q 947 2378 1403 2484 
z
M 1172 3481 
Q 1172 3119 1398 2916 
Q 1625 2713 2034 2713 
Q 2441 2713 2670 2916 
Q 2900 3119 2900 3481 
Q 2900 3844 2670 4047 
Q 2441 4250 2034 4250 
Q 1625 4250 1398 4047 
Q 1172 3844 1172 3481 
z
" transform="scale(0.015625)"/>
       </defs>
       <use xlink:href="#DejaVuSans-13"/>
       <use xlink:href="#DejaVuSans-11" transform="translate(63.625 0)"/>
       <use xlink:href="#DejaVuSans-1b" transform="translate(95.40625 0)"/>
      </g>
     </g>
    </g>
    <g id="xtick_6">
     <g id="line2d_11">
      <path d="M 436.444937 366.046125 
L 436.444937 22.318125 
" clip-path="url(#p048e8b8605)" style="fill: none; stroke: #d9dee5; stroke-opacity: 0.5; stroke-width: 0.8; stroke-linecap: square"/>
     </g>
     <g id="line2d_12">
      <g>
       <use xlink:href="#mca8af8495e" x="436.444937" y="366.046125" style="stroke: #000000; stroke-width: 0.8"/>
      </g>
     </g>
     <g id="text_6">
      <!-- 0.9 -->
      <g transform="translate(429.288531 379.884016) scale(0.09 -0.09)">
       <defs>
        <path id="DejaVuSans-1c" d="M 703 97 
L 703 672 
Q 941 559 1184 500 
Q 1428 441 1663 441 
Q 2288 441 2617 861 
Q 2947 1281 2994 2138 
Q 2813 1869 2534 1725 
Q 2256 1581 1919 1581 
Q 1219 1581 811 2004 
Q 403 2428 403 3163 
Q 403 3881 828 4315 
Q 1253 4750 1959 4750 
Q 2769 4750 3195 4129 
Q 3622 3509 3622 2328 
Q 3622 1225 3098 567 
Q 2575 -91 1691 -91 
Q 1453 -91 1209 -44 
Q 966 3 703 97 
z
M 1959 2075 
Q 2384 2075 2632 2365 
Q 2881 2656 2881 3163 
Q 2881 3666 2632 3958 
Q 2384 4250 1959 4250 
Q 1534 4250 1286 3958 
Q 1038 3666 1038 3163 
Q 1038 2656 1286 2365 
Q 1534 2075 1959 2075 
z
" transform="scale(0.015625)"/>
       </defs>
       <use xlink:href="#DejaVuSans-13"/>
       <use xlink:href="#DejaVuSans-11" transform="translate(63.625 0)"/>
       <use xlink:href="#DejaVuSans-1c" transform="translate(95.40625 0)"/>
      </g>
     </g>
    </g>
    <g id="xtick_7">
     <g id="line2d_13">
      <path d="M 508.068818 366.046125 
L 508.068818 22.318125 
" clip-path="url(#p048e8b8605)" style="fill: none; stroke: #d9dee5; stroke-opacity: 0.5; stroke-width: 0.8; stroke-linecap: square"/>
     </g>
     <g id="line2d_14">
      <g>
       <use xlink:href="#mca8af8495e" x="508.068818" y="366.046125" style="stroke: #000000; stroke-width: 0.8"/>
      </g>
     </g>
     <g id="text_7">
      <!-- 1.0 -->
      <g transform="translate(500.912411 379.884016) scale(0.09 -0.09)">
       <defs>
        <path id="DejaVuSans-14" d="M 794 531 
L 1825 531 
L 1825 4091 
L 703 3866 
L 703 4441 
L 1819 4666 
L 2450 4666 
L 2450 531 
L 3481 531 
L 3481 0 
L 794 0 
L 794 531 
z
" transform="scale(0.015625)"/>
       </defs>
       <use xlink:href="#DejaVuSans-14"/>
       <use xlink:href="#DejaVuSans-11" transform="translate(63.625 0)"/>
       <use xlink:href="#DejaVuSans-13" transform="translate(95.40625 0)"/>
      </g>
     </g>
    </g>
    <g id="text_8">
     <!-- True fact written rate -->
     <g transform="translate(229.677813 393.644563) scale(0.1 -0.1)">
      <defs>
       <path id="DejaVuSans-37" d="M -19 4666 
L 3928 4666 
L 3928 4134 
L 2272 4134 
L 2272 0 
L 1638 0 
L 1638 4134 
L -19 4134 
L -19 4666 
z
" transform="scale(0.015625)"/>
       <path id="DejaVuSans-55" d="M 2631 2963 
Q 2534 3019 2420 3045 
Q 2306 3072 2169 3072 
Q 1681 3072 1420 2755 
Q 1159 2438 1159 1844 
L 1159 0 
L 581 0 
L 581 3500 
L 1159 3500 
L 1159 2956 
Q 1341 3275 1631 3429 
Q 1922 3584 2338 3584 
Q 2397 3584 2469 3576 
Q 2541 3569 2628 3553 
L 2631 2963 
z
" transform="scale(0.015625)"/>
       <path id="DejaVuSans-58" d="M 544 1381 
L 544 3500 
L 1119 3500 
L 1119 1403 
Q 1119 906 1312 657 
Q 1506 409 1894 409 
Q 2359 409 2629 706 
Q 2900 1003 2900 1516 
L 2900 3500 
L 3475 3500 
L 3475 0 
L 2900 0 
L 2900 538 
Q 2691 219 2414 64 
Q 2138 -91 1772 -91 
Q 1169 -91 856 284 
Q 544 659 544 1381 
z
M 1991 3584 
L 1991 3584 
z
" transform="scale(0.015625)"/>
       <path id="DejaVuSans-48" d="M 3597 1894 
L 3597 1613 
L 953 1613 
Q 991 1019 1311 708 
Q 1631 397 2203 397 
Q 2534 397 2845 478 
Q 3156 559 3463 722 
L 3463 178 
Q 3153 47 2828 -22 
Q 2503 -91 2169 -91 
Q 1331 -91 842 396 
Q 353 884 353 1716 
Q 353 2575 817 3079 
Q 1281 3584 2069 3584 
Q 2775 3584 3186 3129 
Q 3597 2675 3597 1894 
z
M 3022 2063 
Q 3016 2534 2758 2815 
Q 2500 3097 2075 3097 
Q 1594 3097 1305 2825 
Q 1016 2553 972 2059 
L 3022 2063 
z
" transform="scale(0.015625)"/>
       <path id="DejaVuSans-3" transform="scale(0.015625)"/>
       <path id="DejaVuSans-49" d="M 2375 4863 
L 2375 4384 
L 1825 4384 
Q 1516 4384 1395 4259 
Q 1275 4134 1275 3809 
L 1275 3500 
L 2222 3500 
L 2222 3053 
L 1275 3053 
L 1275 0 
L 697 0 
L 697 3053 
L 147 3053 
L 147 3500 
L 697 3500 
L 697 3744 
Q 697 4328 969 4595 
Q 1241 4863 1831 4863 
L 2375 4863 
z
" transform="scale(0.015625)"/>
       <path id="DejaVuSans-44" d="M 2194 1759 
Q 1497 1759 1228 1600 
Q 959 1441 959 1056 
Q 959 750 1161 570 
Q 1363 391 1709 391 
Q 2188 391 2477 730 
Q 2766 1069 2766 1631 
L 2766 1759 
L 2194 1759 
z
M 3341 1997 
L 3341 0 
L 2766 0 
L 2766 531 
Q 2569 213 2275 61 
Q 1981 -91 1556 -91 
Q 1019 -91 701 211 
Q 384 513 384 1019 
Q 384 1609 779 1909 
Q 1175 2209 1959 2209 
L 2766 2209 
L 2766 2266 
Q 2766 2663 2505 2880 
Q 2244 3097 1772 3097 
Q 1472 3097 1187 3025 
Q 903 2953 641 2809 
L 641 3341 
Q 956 3463 1253 3523 
Q 1550 3584 1831 3584 
Q 2591 3584 2966 3190 
Q 3341 2797 3341 1997 
z
" transform="scale(0.015625)"/>
       <path id="DejaVuSans-46" d="M 3122 3366 
L 3122 2828 
Q 2878 2963 2633 3030 
Q 2388 3097 2138 3097 
Q 1578 3097 1268 2742 
Q 959 2388 959 1747 
Q 959 1106 1268 751 
Q 1578 397 2138 397 
Q 2388 397 2633 464 
Q 2878 531 3122 666 
L 3122 134 
Q 2881 22 2623 -34 
Q 2366 -91 2075 -91 
Q 1284 -91 818 406 
Q 353 903 353 1747 
Q 353 2603 823 3093 
Q 1294 3584 2113 3584 
Q 2378 3584 2631 3529 
Q 2884 3475 3122 3366 
z
" transform="scale(0.015625)"/>
       <path id="DejaVuSans-57" d="M 1172 4494 
L 1172 3500 
L 2356 3500 
L 2356 3053 
L 1172 3053 
L 1172 1153 
Q 1172 725 1289 603 
Q 1406 481 1766 481 
L 2356 481 
L 2356 0 
L 1766 0 
Q 1100 0 847 248 
Q 594 497 594 1153 
L 594 3053 
L 172 3053 
L 172 3500 
L 594 3500 
L 594 4494 
L 1172 4494 
z
" transform="scale(0.015625)"/>
       <path id="DejaVuSans-5a" d="M 269 3500 
L 844 3500 
L 1563 769 
L 2278 3500 
L 2956 3500 
L 3675 769 
L 4391 3500 
L 4966 3500 
L 4050 0 
L 3372 0 
L 2619 2869 
L 1863 0 
L 1184 0 
L 269 3500 
z
" transform="scale(0.015625)"/>
       <path id="DejaVuSans-4c" d="M 603 3500 
L 1178 3500 
L 1178 0 
L 603 0 
L 603 3500 
z
M 603 4863 
L 1178 4863 
L 1178 4134 
L 603 4134 
L 603 4863 
z
" transform="scale(0.015625)"/>
       <path id="DejaVuSans-51" d="M 3513 2113 
L 3513 0 
L 2938 0 
L 2938 2094 
Q 2938 2591 2744 2837 
Q 2550 3084 2163 3084 
Q 1697 3084 1428 2787 
Q 1159 2491 1159 1978 
L 1159 0 
L 581 0 
L 581 3500 
L 1159 3500 
L 1159 2956 
Q 1366 3272 1645 3428 
Q 1925 3584 2291 3584 
Q 2894 3584 3203 3211 
Q 3513 2838 3513 2113 
z
" transform="scale(0.015625)"/>
      </defs>
      <use xlink:href="#DejaVuSans-37"/>
      <use xlink:href="#DejaVuSans-55" transform="translate(46.375 0)"/>
      <use xlink:href="#DejaVuSans-58" transform="translate(87.484375 0)"/>
      <use xlink:href="#DejaVuSans-48" transform="translate(150.859375 0)"/>
      <use xlink:href="#DejaVuSans-3" transform="translate(212.390625 0)"/>
      <use xlink:href="#DejaVuSans-49" transform="translate(244.171875 0)"/>
      <use xlink:href="#DejaVuSans-44" transform="translate(279.375 0)"/>
      <use xlink:href="#DejaVuSans-46" transform="translate(340.65625 0)"/>
      <use xlink:href="#DejaVuSans-57" transform="translate(395.640625 0)"/>
      <use xlink:href="#DejaVuSans-3" transform="translate(434.84375 0)"/>
      <use xlink:href="#DejaVuSans-5a" transform="translate(466.625 0)"/>
      <use xlink:href="#DejaVuSans-55" transform="translate(548.40625 0)"/>
      <use xlink:href="#DejaVuSans-4c" transform="translate(589.515625 0)"/>
      <use xlink:href="#DejaVuSans-57" transform="translate(617.296875 0)"/>
      <use xlink:href="#DejaVuSans-57" transform="translate(656.5 0)"/>
      <use xlink:href="#DejaVuSans-48" transform="translate(695.703125 0)"/>
      <use xlink:href="#DejaVuSans-51" transform="translate(757.234375 0)"/>
      <use xlink:href="#DejaVuSans-3" transform="translate(820.609375 0)"/>
      <use xlink:href="#DejaVuSans-55" transform="translate(852.390625 0)"/>
      <use xlink:href="#DejaVuSans-44" transform="translate(893.5 0)"/>
      <use xlink:href="#DejaVuSans-57" transform="translate(954.78125 0)"/>
      <use xlink:href="#DejaVuSans-48" transform="translate(993.984375 0)"/>
     </g>
    </g>
   </g>
   <g id="matplotlib.axis_2">
    <g id="ytick_1">
     <g id="line2d_15">
      <path d="M 42.513594 336.916633 
L 522.393594 336.916633 
" clip-path="url(#p048e8b8605)" style="fill: none; stroke: #d9dee5; stroke-opacity: 0.5; stroke-width: 0.8; stroke-linecap: square"/>
     </g>
     <g id="line2d_16">
      <defs>
       <path id="m2dbc42afaf" d="M 0 0 
L -3.5 0 
" style="stroke: #000000; stroke-width: 0.8"/>
      </defs>
      <g>
       <use xlink:href="#m2dbc42afaf" x="42.513594" y="336.916633" style="stroke: #000000; stroke-width: 0.8"/>
      </g>
     </g>
     <g id="text_9">
      <!-- 0.5 -->
      <g transform="translate(21.200781 340.335579) scale(0.09 -0.09)">
       <use xlink:href="#DejaVuSans-13"/>
       <use xlink:href="#DejaVuSans-11" transform="translate(63.625 0)"/>
       <use xlink:href="#DejaVuSans-18" transform="translate(95.40625 0)"/>
      </g>
     </g>
    </g>
    <g id="ytick_2">
     <g id="line2d_17">
      <path d="M 42.513594 278.65765 
L 522.393594 278.65765 
" clip-path="url(#p048e8b8605)" style="fill: none; stroke: #d9dee5; stroke-opacity: 0.5; stroke-width: 0.8; stroke-linecap: square"/>
     </g>
     <g id="line2d_18">
      <g>
       <use xlink:href="#m2dbc42afaf" x="42.513594" y="278.65765" style="stroke: #000000; stroke-width: 0.8"/>
      </g>
     </g>
     <g id="text_10">
      <!-- 0.6 -->
      <g transform="translate(21.200781 282.076596) scale(0.09 -0.09)">
       <use xlink:href="#DejaVuSans-13"/>
       <use xlink:href="#DejaVuSans-11" transform="translate(63.625 0)"/>
       <use xlink:href="#DejaVuSans-19" transform="translate(95.40625 0)"/>
      </g>
     </g>
    </g>
    <g id="ytick_3">
     <g id="line2d_19">
      <path d="M 42.513594 220.398667 
L 522.393594 220.398667 
" clip-path="url(#p048e8b8605)" style="fill: none; stroke: #d9dee5; stroke-opacity: 0.5; stroke-width: 0.8; stroke-linecap: square"/>
     </g>
     <g id="line2d_20">
      <g>
       <use xlink:href="#m2dbc42afaf" x="42.513594" y="220.398667" style="stroke: #000000; stroke-width: 0.8"/>
      </g>
     </g>
     <g id="text_11">
      <!-- 0.7 -->
      <g transform="translate(21.200781 223.817613) scale(0.09 -0.09)">
       <use xlink:href="#DejaVuSans-13"/>
       <use xlink:href="#DejaVuSans-11" transform="translate(63.625 0)"/>
       <use xlink:href="#DejaVuSans-1a" transform="translate(95.40625 0)"/>
      </g>
     </g>
    </g>
    <g id="ytick_4">
     <g id="line2d_21">
      <path d="M 42.513594 162.139684 
L 522.393594 162.139684 
" clip-path="url(#p048e8b8605)" style="fill: none; stroke: #d9dee5; stroke-opacity: 0.5; stroke-width: 0.8; stroke-linecap: square"/>
     </g>
     <g id="line2d_22">
      <g>
       <use xlink:href="#m2dbc42afaf" x="42.513594" y="162.139684" style="stroke: #000000; stroke-width: 0.8"/>
      </g>
     </g>
     <g id="text_12">
      <!-- 0.8 -->
      <g transform="translate(21.200781 165.55863) scale(0.09 -0.09)">
       <use xlink:href="#DejaVuSans-13"/>
       <use xlink:href="#DejaVuSans-11" transform="translate(63.625 0)"/>
       <use xlink:href="#DejaVuSans-1b" transform="translate(95.40625 0)"/>
      </g>
     </g>
    </g>
    <g id="ytick_5">
     <g id="line2d_23">
      <path d="M 42.513594 103.880701 
L 522.393594 103.880701 
" clip-path="url(#p048e8b8605)" style="fill: none; stroke: #d9dee5; stroke-opacity: 0.5; stroke-width: 0.8; stroke-linecap: square"/>
     </g>
     <g id="line2d_24">
      <g>
       <use xlink:href="#m2dbc42afaf" x="42.513594" y="103.880701" style="stroke: #000000; stroke-width: 0.8"/>
      </g>
     </g>
     <g id="text_13">
      <!-- 0.9 -->
      <g transform="translate(21.200781 107.299647) scale(0.09 -0.09)">
       <use xlink:href="#DejaVuSans-13"/>
       <use xlink:href="#DejaVuSans-11" transform="translate(63.625 0)"/>
       <use xlink:href="#DejaVuSans-1c" transform="translate(95.40625 0)"/>
      </g>
     </g>
    </g>
    <g id="ytick_6">
     <g id="line2d_25">
      <path d="M 42.513594 45.621718 
L 522.393594 45.621718 
" clip-path="url(#p048e8b8605)" style="fill: none; stroke: #d9dee5; stroke-opacity: 0.5; stroke-width: 0.8; stroke-linecap: square"/>
     </g>
     <g id="line2d_26">
      <g>
       <use xlink:href="#m2dbc42afaf" x="42.513594" y="45.621718" style="stroke: #000000; stroke-width: 0.8"/>
      </g>
     </g>
     <g id="text_14">
      <!-- 1.0 -->
      <g transform="translate(21.200781 49.040664) scale(0.09 -0.09)">
       <use xlink:href="#DejaVuSans-14"/>
       <use xlink:href="#DejaVuSans-11" transform="translate(63.625 0)"/>
       <use xlink:href="#DejaVuSans-13" transform="translate(95.40625 0)"/>
      </g>
     </g>
    </g>
    <g id="text_15">
     <!-- Exact recall -->
     <g transform="translate(14.798438 223.276656) rotate(-90) scale(0.1 -0.1)">
      <defs>
       <path id="DejaVuSans-28" d="M 628 4666 
L 3578 4666 
L 3578 4134 
L 1259 4134 
L 1259 2753 
L 3481 2753 
L 3481 2222 
L 1259 2222 
L 1259 531 
L 3634 531 
L 3634 0 
L 628 0 
L 628 4666 
z
" transform="scale(0.015625)"/>
       <path id="DejaVuSans-5b" d="M 3513 3500 
L 2247 1797 
L 3578 0 
L 2900 0 
L 1881 1375 
L 863 0 
L 184 0 
L 1544 1831 
L 300 3500 
L 978 3500 
L 1906 2253 
L 2834 3500 
L 3513 3500 
z
" transform="scale(0.015625)"/>
       <path id="DejaVuSans-4f" d="M 603 4863 
L 1178 4863 
L 1178 0 
L 603 0 
L 603 4863 
z
" transform="scale(0.015625)"/>
      </defs>
      <use xlink:href="#DejaVuSans-28"/>
      <use xlink:href="#DejaVuSans-5b" transform="translate(63.1875 0)"/>
      <use xlink:href="#DejaVuSans-44" transform="translate(122.375 0)"/>
      <use xlink:href="#DejaVuSans-46" transform="translate(183.65625 0)"/>
      <use xlink:href="#DejaVuSans-57" transform="translate(238.640625 0)"/>
      <use xlink:href="#DejaVuSans-3" transform="translate(277.84375 0)"/>
      <use xlink:href="#DejaVuSans-55" transform="translate(309.625 0)"/>
      <use xlink:href="#DejaVuSans-48" transform="translate(348.53125 0)"/>
      <use xlink:href="#DejaVuSans-46" transform="translate(410.0625 0)"/>
      <use xlink:href="#DejaVuSans-44" transform="translate(465.046875 0)"/>
      <use xlink:href="#DejaVuSans-4f" transform="translate(526.328125 0)"/>
      <use xlink:href="#DejaVuSans-4f" transform="translate(554.109375 0)"/>
     </g>
    </g>
   </g>
   <g id="line2d_27">
    <path d="M 257.385236 338.103895 
L 275.291206 315.954094 
L 293.197176 293.837175 
L 306.626653 277.191916 
L 306.626653 277.191916 
L 311.103146 271.617106 
L 329.009116 249.157844 
L 335.723855 240.671925 
L 337.962101 237.836801 
L 342.438594 232.158192 
L 364.821056 203.763128 
L 373.774042 192.235614 
L 407.347736 149.583415 
L 420.777213 132.660572 
L 449.874415 89.340088 
L 454.350907 80.091198 
L 476.73337 92.88205 
L 481.209862 84.160218 
L 485.686355 73.289909 
L 485.686355 73.289909 
L 490.162847 62.105806 
L 490.162847 62.105806 
L 490.162847 62.105806 
L 490.162847 62.105806 
L 494.63934 53.879654 
L 494.63934 53.879654 
L 499.115833 51.123885 
L 499.115833 51.123885 
L 499.115833 51.123885 
L 499.115833 51.123885 
L 499.115833 51.123885 
L 501.354079 49.786513 
L 501.354079 49.786513 
L 503.592325 48.463203 
L 508.068818 45.759482 
L 508.068818 45.759482 
L 508.068818 45.759482 
L 508.068818 45.759482 
" clip-path="url(#p048e8b8605)" style="fill: none; stroke: #1f2933; stroke-width: 2.2; stroke-linecap: square"/>
   </g>
   <g id="patch_3">
    <path d="M 42.513594 366.046125 
L 42.513594 22.318125 
" style="fill: none; stroke: #000000; stroke-width: 0.8; stroke-linejoin: miter; stroke-linecap: square"/>
   </g>
   <g id="patch_4">
    <path d="M 42.513594 366.046125 
L 522.393594 366.046125 
" style="fill: none; stroke: #000000; stroke-width: 0.8; stroke-linejoin: miter; stroke-linecap: square"/>
   </g>
   <g id="text_16">
    <!-- Point size ≈ sequence length; trend is exploratory aggregate-run LOWESS. -->
    <g style="fill: #4a5560" transform="translate(56.83837 48.534667) scale(0.085 -0.085)">
     <defs>
      <path id="DejaVuSans-33" d="M 1259 4147 
L 1259 2394 
L 2053 2394 
Q 2494 2394 2734 2622 
Q 2975 2850 2975 3272 
Q 2975 3691 2734 3919 
Q 2494 4147 2053 4147 
L 1259 4147 
z
M 628 4666 
L 2053 4666 
Q 2838 4666 3239 4311 
Q 3641 3956 3641 3272 
Q 3641 2581 3239 2228 
Q 2838 1875 2053 1875 
L 1259 1875 
L 1259 0 
L 628 0 
L 628 4666 
z
" transform="scale(0.015625)"/>
      <path id="DejaVuSans-52" d="M 1959 3097 
Q 1497 3097 1228 2736 
Q 959 2375 959 1747 
Q 959 1119 1226 758 
Q 1494 397 1959 397 
Q 2419 397 2687 759 
Q 2956 1122 2956 1747 
Q 2956 2369 2687 2733 
Q 2419 3097 1959 3097 
z
M 1959 3584 
Q 2709 3584 3137 3096 
Q 3566 2609 3566 1747 
Q 3566 888 3137 398 
Q 2709 -91 1959 -91 
Q 1206 -91 779 398 
Q 353 888 353 1747 
Q 353 2609 779 3096 
Q 1206 3584 1959 3584 
z
" transform="scale(0.015625)"/>
      <path id="DejaVuSans-56" d="M 2834 3397 
L 2834 2853 
Q 2591 2978 2328 3040 
Q 2066 3103 1784 3103 
Q 1356 3103 1142 2972 
Q 928 2841 928 2578 
Q 928 2378 1081 2264 
Q 1234 2150 1697 2047 
L 1894 2003 
Q 2506 1872 2764 1633 
Q 3022 1394 3022 966 
Q 3022 478 2636 193 
Q 2250 -91 1575 -91 
Q 1294 -91 989 -36 
Q 684 19 347 128 
L 347 722 
Q 666 556 975 473 
Q 1284 391 1588 391 
Q 1994 391 2212 530 
Q 2431 669 2431 922 
Q 2431 1156 2273 1281 
Q 2116 1406 1581 1522 
L 1381 1569 
Q 847 1681 609 1914 
Q 372 2147 372 2553 
Q 372 3047 722 3315 
Q 1072 3584 1716 3584 
Q 2034 3584 2315 3537 
Q 2597 3491 2834 3397 
z
" transform="scale(0.015625)"/>
      <path id="DejaVuSans-5d" d="M 353 3500 
L 3084 3500 
L 3084 2975 
L 922 459 
L 3084 459 
L 3084 0 
L 275 0 
L 275 525 
L 2438 3041 
L 353 3041 
L 353 3500 
z
" transform="scale(0.015625)"/>
      <path id="DejaVuSans-cd2" d="M 4684 1947 
L 4684 1388 
Q 4356 1144 4076 1036 
Q 3797 928 3494 928 
Q 3150 928 2694 1113 
Q 2663 1125 2641 1134 
Q 2622 1141 2575 1159 
Q 2091 1350 1797 1350 
Q 1522 1350 1253 1231 
Q 984 1113 678 850 
L 678 1409 
Q 1006 1653 1286 1761 
Q 1566 1869 1869 1869 
Q 2213 1869 2672 1684 
Q 2706 1669 2722 1663 
Q 2741 1656 2788 1638 
Q 3272 1447 3566 1447 
Q 3834 1447 4098 1564 
Q 4363 1681 4684 1947 
z
M 4684 3163 
L 4684 2606 
Q 4356 2359 4076 2251 
Q 3797 2144 3494 2144 
Q 3150 2144 2694 2328 
Q 2663 2341 2641 2350 
Q 2622 2356 2575 2375 
Q 2091 2566 1797 2566 
Q 1522 2566 1253 2447 
Q 984 2328 678 2069 
L 678 2625 
Q 1006 2869 1286 2976 
Q 1566 3084 1869 3084 
Q 2213 3084 2672 2900 
Q 2703 2888 2719 2881 
Q 2741 2872 2788 2853 
Q 3272 2663 3566 2663 
Q 3834 2663 4098 2780 
Q 4363 2897 4684 3163 
z
" transform="scale(0.015625)"/>
      <path id="DejaVuSans-54" d="M 947 1747 
Q 947 1113 1208 752 
Q 1469 391 1925 391 
Q 2381 391 2643 752 
Q 2906 1113 2906 1747 
Q 2906 2381 2643 2742 
Q 2381 3103 1925 3103 
Q 1469 3103 1208 2742 
Q 947 2381 947 1747 
z
M 2906 525 
Q 2725 213 2448 61 
Q 2172 -91 1784 -91 
Q 1150 -91 751 415 
Q 353 922 353 1747 
Q 353 2572 751 3078 
Q 1150 3584 1784 3584 
Q 2172 3584 2448 3432 
Q 2725 3281 2906 2969 
L 2906 3500 
L 3481 3500 
L 3481 -1331 
L 2906 -1331 
L 2906 525 
z
" transform="scale(0.015625)"/>
      <path id="DejaVuSans-4a" d="M 2906 1791 
Q 2906 2416 2648 2759 
Q 2391 3103 1925 3103 
Q 1463 3103 1205 2759 
Q 947 2416 947 1791 
Q 947 1169 1205 825 
Q 1463 481 1925 481 
Q 2391 481 2648 825 
Q 2906 1169 2906 1791 
z
M 3481 434 
Q 3481 -459 3084 -895 
Q 2688 -1331 1869 -1331 
Q 1566 -1331 1297 -1286 
Q 1028 -1241 775 -1147 
L 775 -588 
Q 1028 -725 1275 -790 
Q 1522 -856 1778 -856 
Q 2344 -856 2625 -561 
Q 2906 -266 2906 331 
L 2906 616 
Q 2728 306 2450 153 
Q 2172 0 1784 0 
Q 1141 0 747 490 
Q 353 981 353 1791 
Q 353 2603 747 3093 
Q 1141 3584 1784 3584 
Q 2172 3584 2450 3431 
Q 2728 3278 2906 2969 
L 2906 3500 
L 3481 3500 
L 3481 434 
z
" transform="scale(0.015625)"/>
      <path id="DejaVuSans-4b" d="M 3513 2113 
L 3513 0 
L 2938 0 
L 2938 2094 
Q 2938 2591 2744 2837 
Q 2550 3084 2163 3084 
Q 1697 3084 1428 2787 
Q 1159 2491 1159 1978 
L 1159 0 
L 581 0 
L 581 4863 
L 1159 4863 
L 1159 2956 
Q 1366 3272 1645 3428 
Q 1925 3584 2291 3584 
Q 2894 3584 3203 3211 
Q 3513 2838 3513 2113 
z
" transform="scale(0.015625)"/>
      <path id="DejaVuSans-1e" d="M 750 3309 
L 1409 3309 
L 1409 2516 
L 750 2516 
L 750 3309 
z
M 750 794 
L 1409 794 
L 1409 256 
L 897 -744 
L 494 -744 
L 750 256 
L 750 794 
z
" transform="scale(0.015625)"/>
      <path id="DejaVuSans-47" d="M 2906 2969 
L 2906 4863 
L 3481 4863 
L 3481 0 
L 2906 0 
L 2906 525 
Q 2725 213 2448 61 
Q 2172 -91 1784 -91 
Q 1150 -91 751 415 
Q 353 922 353 1747 
Q 353 2572 751 3078 
Q 1150 3584 1784 3584 
Q 2172 3584 2448 3432 
Q 2725 3281 2906 2969 
z
M 947 1747 
Q 947 1113 1208 752 
Q 1469 391 1925 391 
Q 2381 391 2643 752 
Q 2906 1113 2906 1747 
Q 2906 2381 2643 2742 
Q 2381 3103 1925 3103 
Q 1469 3103 1208 2742 
Q 947 2381 947 1747 
z
" transform="scale(0.015625)"/>
      <path id="DejaVuSans-53" d="M 1159 525 
L 1159 -1331 
L 581 -1331 
L 581 3500 
L 1159 3500 
L 1159 2969 
Q 1341 3281 1617 3432 
Q 1894 3584 2278 3584 
Q 2916 3584 3314 3078 
Q 3713 2572 3713 1747 
Q 3713 922 3314 415 
Q 2916 -91 2278 -91 
Q 1894 -91 1617 61 
Q 1341 213 1159 525 
z
M 3116 1747 
Q 3116 2381 2855 2742 
Q 2594 3103 2138 3103 
Q 1681 3103 1420 2742 
Q 1159 2381 1159 1747 
Q 1159 1113 1420 752 
Q 1681 391 2138 391 
Q 2594 391 2855 752 
Q 3116 1113 3116 1747 
z
" transform="scale(0.015625)"/>
      <path id="DejaVuSans-5c" d="M 2059 -325 
Q 1816 -950 1584 -1140 
Q 1353 -1331 966 -1331 
L 506 -1331 
L 506 -850 
L 844 -850 
Q 1081 -850 1212 -737 
Q 1344 -625 1503 -206 
L 1606 56 
L 191 3500 
L 800 3500 
L 1894 763 
L 2988 3500 
L 3597 3500 
L 2059 -325 
z
" transform="scale(0.015625)"/>
      <path id="DejaVuSans-10" d="M 313 2009 
L 1997 2009 
L 1997 1497 
L 313 1497 
L 313 2009 
z
" transform="scale(0.015625)"/>
      <path id="DejaVuSans-2f" d="M 628 4666 
L 1259 4666 
L 1259 531 
L 3531 531 
L 3531 0 
L 628 0 
L 628 4666 
z
" transform="scale(0.015625)"/>
      <path id="DejaVuSans-32" d="M 2522 4238 
Q 1834 4238 1429 3725 
Q 1025 3213 1025 2328 
Q 1025 1447 1429 934 
Q 1834 422 2522 422 
Q 3209 422 3611 934 
Q 4013 1447 4013 2328 
Q 4013 3213 3611 3725 
Q 3209 4238 2522 4238 
z
M 2522 4750 
Q 3503 4750 4090 4092 
Q 4678 3434 4678 2328 
Q 4678 1225 4090 567 
Q 3503 -91 2522 -91 
Q 1538 -91 948 565 
Q 359 1222 359 2328 
Q 359 3434 948 4092 
Q 1538 4750 2522 4750 
z
" transform="scale(0.015625)"/>
      <path id="DejaVuSans-3a" d="M 213 4666 
L 850 4666 
L 1831 722 
L 2809 4666 
L 3519 4666 
L 4500 722 
L 5478 4666 
L 6119 4666 
L 4947 0 
L 4153 0 
L 3169 4050 
L 2175 0 
L 1381 0 
L 213 4666 
z
" transform="scale(0.015625)"/>
      <path id="DejaVuSans-36" d="M 3425 4513 
L 3425 3897 
Q 3066 4069 2747 4153 
Q 2428 4238 2131 4238 
Q 1616 4238 1336 4038 
Q 1056 3838 1056 3469 
Q 1056 3159 1242 3001 
Q 1428 2844 1947 2747 
L 2328 2669 
Q 3034 2534 3370 2195 
Q 3706 1856 3706 1288 
Q 3706 609 3251 259 
Q 2797 -91 1919 -91 
Q 1588 -91 1214 -16 
Q 841 59 441 206 
L 441 856 
Q 825 641 1194 531 
Q 1563 422 1919 422 
Q 2459 422 2753 634 
Q 3047 847 3047 1241 
Q 3047 1584 2836 1778 
Q 2625 1972 2144 2069 
L 1759 2144 
Q 1053 2284 737 2584 
Q 422 2884 422 3419 
Q 422 4038 858 4394 
Q 1294 4750 2059 4750 
Q 2388 4750 2728 4690 
Q 3069 4631 3425 4513 
z
" transform="scale(0.015625)"/>
     </defs>
     <use xlink:href="#DejaVuSans-33"/>
     <use xlink:href="#DejaVuSans-52" transform="translate(56.734375 0)"/>
     <use xlink:href="#DejaVuSans-4c" transform="translate(117.921875 0)"/>
     <use xlink:href="#DejaVuSans-51" transform="translate(145.703125 0)"/>
     <use xlink:href="#DejaVuSans-57" transform="translate(209.078125 0)"/>
     <use xlink:href="#DejaVuSans-3" transform="translate(248.28125 0)"/>
     <use xlink:href="#DejaVuSans-56" transform="translate(280.0625 0)"/>
     <use xlink:href="#DejaVuSans-4c" transform="translate(332.15625 0)"/>
     <use xlink:href="#DejaVuSans-5d" transform="translate(359.9375 0)"/>
     <use xlink:href="#DejaVuSans-48" transform="translate(412.421875 0)"/>
     <use xlink:href="#DejaVuSans-3" transform="translate(473.953125 0)"/>
     <use xlink:href="#DejaVuSans-cd2" transform="translate(505.734375 0)"/>
     <use xlink:href="#DejaVuSans-3" transform="translate(589.53125 0)"/>
     <use xlink:href="#DejaVuSans-56" transform="translate(621.3125 0)"/>
     <use xlink:href="#DejaVuSans-48" transform="translate(673.40625 0)"/>
     <use xlink:href="#DejaVuSans-54" transform="translate(734.9375 0)"/>
     <use xlink:href="#DejaVuSans-58" transform="translate(798.421875 0)"/>
     <use xlink:href="#DejaVuSans-48" transform="translate(861.796875 0)"/>
     <use xlink:href="#DejaVuSans-51" transform="translate(923.328125 0)"/>
     <use xlink:href="#DejaVuSans-46" transform="translate(986.703125 0)"/>
     <use xlink:href="#DejaVuSans-48" transform="translate(1041.6875 0)"/>
     <use xlink:href="#DejaVuSans-3" transform="translate(1103.21875 0)"/>
     <use xlink:href="#DejaVuSans-4f" transform="translate(1135 0)"/>
     <use xlink:href="#DejaVuSans-48" transform="translate(1162.78125 0)"/>
     <use xlink:href="#DejaVuSans-51" transform="translate(1224.3125 0)"/>
     <use xlink:href="#DejaVuSans-4a" transform="translate(1287.6875 0)"/>
     <use xlink:href="#DejaVuSans-57" transform="translate(1351.171875 0)"/>
     <use xlink:href="#DejaVuSans-4b" transform="translate(1390.375 0)"/>
     <use xlink:href="#DejaVuSans-1e" transform="translate(1453.75 0)"/>
     <use xlink:href="#DejaVuSans-3" transform="translate(1487.4375 0)"/>
     <use xlink:href="#DejaVuSans-57" transform="translate(1519.21875 0)"/>
     <use xlink:href="#DejaVuSans-55" transform="translate(1558.421875 0)"/>
     <use xlink:href="#DejaVuSans-48" transform="translate(1597.328125 0)"/>
     <use xlink:href="#DejaVuSans-51" transform="translate(1658.859375 0)"/>
     <use xlink:href="#DejaVuSans-47" transform="translate(1722.234375 0)"/>
     <use xlink:href="#DejaVuSans-3" transform="translate(1785.71875 0)"/>
     <use xlink:href="#DejaVuSans-4c" transform="translate(1817.5 0)"/>
     <use xlink:href="#DejaVuSans-56" transform="translate(1845.28125 0)"/>
     <use xlink:href="#DejaVuSans-3" transform="translate(1897.375 0)"/>
     <use xlink:href="#DejaVuSans-48" transform="translate(1929.15625 0)"/>
     <use xlink:href="#DejaVuSans-5b" transform="translate(1988.9375 0)"/>
     <use xlink:href="#DejaVuSans-53" transform="translate(2048.125 0)"/>
     <use xlink:href="#DejaVuSans-4f" transform="translate(2111.609375 0)"/>
     <use xlink:href="#DejaVuSans-52" transform="translate(2139.390625 0)"/>
     <use xlink:href="#DejaVuSans-55" transform="translate(2200.578125 0)"/>
     <use xlink:href="#DejaVuSans-44" transform="translate(2241.6875 0)"/>
     <use xlink:href="#DejaVuSans-57" transform="translate(2302.96875 0)"/>
     <use xlink:href="#DejaVuSans-52" transform="translate(2342.171875 0)"/>
     <use xlink:href="#DejaVuSans-55" transform="translate(2403.359375 0)"/>
     <use xlink:href="#DejaVuSans-5c" transform="translate(2444.46875 0)"/>
     <use xlink:href="#DejaVuSans-3" transform="translate(2503.65625 0)"/>
     <use xlink:href="#DejaVuSans-44" transform="translate(2535.4375 0)"/>
     <use xlink:href="#DejaVuSans-4a" transform="translate(2596.71875 0)"/>
     <use xlink:href="#DejaVuSans-4a" transform="translate(2660.203125 0)"/>
     <use xlink:href="#DejaVuSans-55" transform="translate(2723.6875 0)"/>
     <use xlink:href="#DejaVuSans-48" transform="translate(2762.59375 0)"/>
     <use xlink:href="#DejaVuSans-4a" transform="translate(2824.125 0)"/>
     <use xlink:href="#DejaVuSans-44" transform="translate(2887.609375 0)"/>
     <use xlink:href="#DejaVuSans-57" transform="translate(2948.890625 0)"/>
     <use xlink:href="#DejaVuSans-48" transform="translate(2988.09375 0)"/>
     <use xlink:href="#DejaVuSans-10" transform="translate(3049.625 0)"/>
     <use xlink:href="#DejaVuSans-55" transform="translate(3085.703125 0)"/>
     <use xlink:href="#DejaVuSans-58" transform="translate(3126.8125 0)"/>
     <use xlink:href="#DejaVuSans-51" transform="translate(3190.1875 0)"/>
     <use xlink:href="#DejaVuSans-3" transform="translate(3253.5625 0)"/>
     <use xlink:href="#DejaVuSans-2f" transform="translate(3285.34375 0)"/>
     <use xlink:href="#DejaVuSans-32" transform="translate(3337.5 0)"/>
     <use xlink:href="#DejaVuSans-3a" transform="translate(3416.21875 0)"/>
     <use xlink:href="#DejaVuSans-28" transform="translate(3515.09375 0)"/>
     <use xlink:href="#DejaVuSans-36" transform="translate(3578.28125 0)"/>
     <use xlink:href="#DejaVuSans-36" transform="translate(3641.765625 0)"/>
     <use xlink:href="#DejaVuSans-11" transform="translate(3705.25 0)"/>
    </g>
   </g>
   <g id="text_17">
    <!-- Writer quality explains most long-context exact-recall variation -->
    <g transform="translate(42.513594 16.318125) scale(0.12 -0.12)">
     <defs>
      <path id="DejaVuSans-Bold-3a" d="M 191 4666 
L 1344 4666 
L 2150 1275 
L 2950 4666 
L 4109 4666 
L 4909 1275 
L 5716 4666 
L 6859 4666 
L 5759 0 
L 4372 0 
L 3525 3547 
L 2688 0 
L 1300 0 
L 191 4666 
z
" transform="scale(0.015625)"/>
      <path id="DejaVuSans-Bold-55" d="M 3138 2547 
Q 2991 2616 2845 2648 
Q 2700 2681 2553 2681 
Q 2122 2681 1889 2404 
Q 1656 2128 1656 1613 
L 1656 0 
L 538 0 
L 538 3500 
L 1656 3500 
L 1656 2925 
Q 1872 3269 2151 3426 
Q 2431 3584 2822 3584 
Q 2878 3584 2943 3579 
Q 3009 3575 3134 3559 
L 3138 2547 
z
" transform="scale(0.015625)"/>
      <path id="DejaVuSans-Bold-4c" d="M 538 3500 
L 1656 3500 
L 1656 0 
L 538 0 
L 538 3500 
z
M 538 4863 
L 1656 4863 
L 1656 3950 
L 538 3950 
L 538 4863 
z
" transform="scale(0.015625)"/>
      <path id="DejaVuSans-Bold-57" d="M 1759 4494 
L 1759 3500 
L 2913 3500 
L 2913 2700 
L 1759 2700 
L 1759 1216 
Q 1759 972 1856 886 
Q 1953 800 2241 800 
L 2816 800 
L 2816 0 
L 1856 0 
Q 1194 0 917 276 
Q 641 553 641 1216 
L 641 2700 
L 84 2700 
L 84 3500 
L 641 3500 
L 641 4494 
L 1759 4494 
z
" transform="scale(0.015625)"/>
      <path id="DejaVuSans-Bold-48" d="M 4031 1759 
L 4031 1441 
L 1416 1441 
Q 1456 1047 1700 850 
Q 1944 653 2381 653 
Q 2734 653 3104 758 
Q 3475 863 3866 1075 
L 3866 213 
Q 3469 63 3072 -14 
Q 2675 -91 2278 -91 
Q 1328 -91 801 392 
Q 275 875 275 1747 
Q 275 2603 792 3093 
Q 1309 3584 2216 3584 
Q 3041 3584 3536 3087 
Q 4031 2591 4031 1759 
z
M 2881 2131 
Q 2881 2450 2695 2645 
Q 2509 2841 2209 2841 
Q 1884 2841 1681 2658 
Q 1478 2475 1428 2131 
L 2881 2131 
z
" transform="scale(0.015625)"/>
      <path id="DejaVuSans-Bold-3" transform="scale(0.015625)"/>
      <path id="DejaVuSans-Bold-54" d="M 2181 2772 
Q 1825 2772 1636 2509 
Q 1447 2247 1447 1747 
Q 1447 1247 1636 984 
Q 1825 722 2181 722 
Q 2541 722 2730 984 
Q 2919 1247 2919 1747 
Q 2919 2247 2730 2509 
Q 2541 2772 2181 2772 
z
M 2919 506 
Q 2688 197 2409 53 
Q 2131 -91 1766 -91 
Q 1119 -91 703 423 
Q 288 938 288 1747 
Q 288 2556 703 3067 
Q 1119 3578 1766 3578 
Q 2131 3578 2409 3434 
Q 2688 3291 2919 2981 
L 2919 3500 
L 4044 3500 
L 4044 -1331 
L 2919 -1331 
L 2919 506 
z
" transform="scale(0.015625)"/>
      <path id="DejaVuSans-Bold-58" d="M 500 1363 
L 500 3500 
L 1625 3500 
L 1625 3150 
Q 1625 2866 1622 2436 
Q 1619 2006 1619 1863 
Q 1619 1441 1641 1255 
Q 1663 1069 1716 984 
Q 1784 875 1895 815 
Q 2006 756 2150 756 
Q 2500 756 2700 1025 
Q 2900 1294 2900 1772 
L 2900 3500 
L 4019 3500 
L 4019 0 
L 2900 0 
L 2900 506 
Q 2647 200 2364 54 
Q 2081 -91 1741 -91 
Q 1134 -91 817 281 
Q 500 653 500 1363 
z
" transform="scale(0.015625)"/>
      <path id="DejaVuSans-Bold-44" d="M 2106 1575 
Q 1756 1575 1579 1456 
Q 1403 1338 1403 1106 
Q 1403 894 1545 773 
Q 1688 653 1941 653 
Q 2256 653 2472 879 
Q 2688 1106 2688 1447 
L 2688 1575 
L 2106 1575 
z
M 3816 1997 
L 3816 0 
L 2688 0 
L 2688 519 
Q 2463 200 2181 54 
Q 1900 -91 1497 -91 
Q 953 -91 614 226 
Q 275 544 275 1050 
Q 275 1666 698 1953 
Q 1122 2241 2028 2241 
L 2688 2241 
L 2688 2328 
Q 2688 2594 2478 2717 
Q 2269 2841 1825 2841 
Q 1466 2841 1156 2769 
Q 847 2697 581 2553 
L 581 3406 
Q 941 3494 1303 3539 
Q 1666 3584 2028 3584 
Q 2975 3584 3395 3211 
Q 3816 2838 3816 1997 
z
" transform="scale(0.015625)"/>
      <path id="DejaVuSans-Bold-4f" d="M 538 4863 
L 1656 4863 
L 1656 0 
L 538 0 
L 538 4863 
z
" transform="scale(0.015625)"/>
      <path id="DejaVuSans-Bold-5c" d="M 78 3500 
L 1197 3500 
L 2138 1125 
L 2938 3500 
L 4056 3500 
L 2584 -331 
Q 2363 -916 2067 -1148 
Q 1772 -1381 1288 -1381 
L 641 -1381 
L 641 -647 
L 991 -647 
Q 1275 -647 1404 -556 
Q 1534 -466 1606 -231 
L 1638 -134 
L 78 3500 
z
" transform="scale(0.015625)"/>
      <path id="DejaVuSans-Bold-5b" d="M 1422 1791 
L 159 3500 
L 1344 3500 
L 2059 2463 
L 2784 3500 
L 3969 3500 
L 2706 1797 
L 4031 0 
L 2847 0 
L 2059 1106 
L 1281 0 
L 97 0 
L 1422 1791 
z
" transform="scale(0.015625)"/>
      <path id="DejaVuSans-Bold-53" d="M 1656 506 
L 1656 -1331 
L 538 -1331 
L 538 3500 
L 1656 3500 
L 1656 2988 
Q 1888 3294 2169 3439 
Q 2450 3584 2816 3584 
Q 3463 3584 3878 3070 
Q 4294 2556 4294 1747 
Q 4294 938 3878 423 
Q 3463 -91 2816 -91 
Q 2450 -91 2169 54 
Q 1888 200 1656 506 
z
M 2400 2772 
Q 2041 2772 1848 2508 
Q 1656 2244 1656 1747 
Q 1656 1250 1848 986 
Q 2041 722 2400 722 
Q 2759 722 2948 984 
Q 3138 1247 3138 1747 
Q 3138 2247 2948 2509 
Q 2759 2772 2400 2772 
z
" transform="scale(0.015625)"/>
      <path id="DejaVuSans-Bold-51" d="M 4056 2131 
L 4056 0 
L 2931 0 
L 2931 347 
L 2931 1631 
Q 2931 2084 2911 2256 
Q 2891 2428 2841 2509 
Q 2775 2619 2662 2680 
Q 2550 2741 2406 2741 
Q 2056 2741 1856 2470 
Q 1656 2200 1656 1722 
L 1656 0 
L 538 0 
L 538 3500 
L 1656 3500 
L 1656 2988 
Q 1909 3294 2193 3439 
Q 2478 3584 2822 3584 
Q 3428 3584 3742 3212 
Q 4056 2841 4056 2131 
z
" transform="scale(0.015625)"/>
      <path id="DejaVuSans-Bold-56" d="M 3272 3391 
L 3272 2541 
Q 2913 2691 2578 2766 
Q 2244 2841 1947 2841 
Q 1628 2841 1473 2761 
Q 1319 2681 1319 2516 
Q 1319 2381 1436 2309 
Q 1553 2238 1856 2203 
L 2053 2175 
Q 2913 2066 3209 1816 
Q 3506 1566 3506 1031 
Q 3506 472 3093 190 
Q 2681 -91 1863 -91 
Q 1516 -91 1145 -36 
Q 775 19 384 128 
L 384 978 
Q 719 816 1070 734 
Q 1422 653 1784 653 
Q 2113 653 2278 743 
Q 2444 834 2444 1013 
Q 2444 1163 2330 1236 
Q 2216 1309 1875 1350 
L 1678 1375 
Q 931 1469 631 1722 
Q 331 1975 331 2491 
Q 331 3047 712 3315 
Q 1094 3584 1881 3584 
Q 2191 3584 2531 3537 
Q 2872 3491 3272 3391 
z
" transform="scale(0.015625)"/>
      <path id="DejaVuSans-Bold-50" d="M 3781 2919 
Q 3994 3244 4286 3414 
Q 4578 3584 4928 3584 
Q 5531 3584 5847 3212 
Q 6163 2841 6163 2131 
L 6163 0 
L 5038 0 
L 5038 1825 
Q 5041 1866 5042 1909 
Q 5044 1953 5044 2034 
Q 5044 2406 4934 2573 
Q 4825 2741 4581 2741 
Q 4263 2741 4089 2478 
Q 3916 2216 3909 1719 
L 3909 0 
L 2784 0 
L 2784 1825 
Q 2784 2406 2684 2573 
Q 2584 2741 2328 2741 
Q 2006 2741 1831 2477 
Q 1656 2213 1656 1722 
L 1656 0 
L 531 0 
L 531 3500 
L 1656 3500 
L 1656 2988 
Q 1863 3284 2130 3434 
Q 2397 3584 2719 3584 
Q 3081 3584 3359 3409 
Q 3638 3234 3781 2919 
z
" transform="scale(0.015625)"/>
      <path id="DejaVuSans-Bold-52" d="M 2203 2784 
Q 1831 2784 1636 2517 
Q 1441 2250 1441 1747 
Q 1441 1244 1636 976 
Q 1831 709 2203 709 
Q 2569 709 2762 976 
Q 2956 1244 2956 1747 
Q 2956 2250 2762 2517 
Q 2569 2784 2203 2784 
z
M 2203 3584 
Q 3106 3584 3614 3096 
Q 4122 2609 4122 1747 
Q 4122 884 3614 396 
Q 3106 -91 2203 -91 
Q 1297 -91 786 396 
Q 275 884 275 1747 
Q 275 2609 786 3096 
Q 1297 3584 2203 3584 
z
" transform="scale(0.015625)"/>
      <path id="DejaVuSans-Bold-4a" d="M 2919 594 
Q 2688 288 2409 144 
Q 2131 0 1766 0 
Q 1125 0 706 504 
Q 288 1009 288 1791 
Q 288 2575 706 3076 
Q 1125 3578 1766 3578 
Q 2131 3578 2409 3434 
Q 2688 3291 2919 2981 
L 2919 3500 
L 4044 3500 
L 4044 353 
Q 4044 -491 3511 -936 
Q 2978 -1381 1966 -1381 
Q 1638 -1381 1331 -1331 
Q 1025 -1281 716 -1178 
L 716 -306 
Q 1009 -475 1290 -558 
Q 1572 -641 1856 -641 
Q 2406 -641 2662 -400 
Q 2919 -159 2919 353 
L 2919 594 
z
M 2181 2772 
Q 1834 2772 1640 2515 
Q 1447 2259 1447 1791 
Q 1447 1309 1634 1061 
Q 1822 813 2181 813 
Q 2531 813 2725 1069 
Q 2919 1325 2919 1791 
Q 2919 2259 2725 2515 
Q 2531 2772 2181 2772 
z
" transform="scale(0.015625)"/>
      <path id="DejaVuSans-Bold-10" d="M 347 2297 
L 2309 2297 
L 2309 1388 
L 347 1388 
L 347 2297 
z
" transform="scale(0.015625)"/>
      <path id="DejaVuSans-Bold-46" d="M 3366 3391 
L 3366 2478 
Q 3138 2634 2908 2709 
Q 2678 2784 2431 2784 
Q 1963 2784 1702 2511 
Q 1441 2238 1441 1747 
Q 1441 1256 1702 982 
Q 1963 709 2431 709 
Q 2694 709 2930 787 
Q 3166 866 3366 1019 
L 3366 103 
Q 3103 6 2833 -42 
Q 2563 -91 2291 -91 
Q 1344 -91 809 395 
Q 275 881 275 1747 
Q 275 2613 809 3098 
Q 1344 3584 2291 3584 
Q 2566 3584 2833 3536 
Q 3100 3488 3366 3391 
z
" transform="scale(0.015625)"/>
      <path id="DejaVuSans-Bold-59" d="M 97 3500 
L 1216 3500 
L 2088 1081 
L 2956 3500 
L 4078 3500 
L 2700 0 
L 1472 0 
L 97 3500 
z
" transform="scale(0.015625)"/>
     </defs>
     <use xlink:href="#DejaVuSans-Bold-3a"/>
     <use xlink:href="#DejaVuSans-Bold-55" transform="translate(108.546875 0)"/>
     <use xlink:href="#DejaVuSans-Bold-4c" transform="translate(157.859375 0)"/>
     <use xlink:href="#DejaVuSans-Bold-57" transform="translate(192.140625 0)"/>
     <use xlink:href="#DejaVuSans-Bold-48" transform="translate(239.9375 0)"/>
     <use xlink:href="#DejaVuSans-Bold-55" transform="translate(307.765625 0)"/>
     <use xlink:href="#DejaVuSans-Bold-3" transform="translate(357.078125 0)"/>
     <use xlink:href="#DejaVuSans-Bold-54" transform="translate(391.890625 0)"/>
     <use xlink:href="#DejaVuSans-Bold-58" transform="translate(463.46875 0)"/>
     <use xlink:href="#DejaVuSans-Bold-44" transform="translate(534.65625 0)"/>
     <use xlink:href="#DejaVuSans-Bold-4f" transform="translate(602.140625 0)"/>
     <use xlink:href="#DejaVuSans-Bold-4c" transform="translate(636.421875 0)"/>
     <use xlink:href="#DejaVuSans-Bold-57" transform="translate(670.703125 0)"/>
     <use xlink:href="#DejaVuSans-Bold-5c" transform="translate(718.5 0)"/>
     <use xlink:href="#DejaVuSans-Bold-3" transform="translate(783.6875 0)"/>
     <use xlink:href="#DejaVuSans-Bold-48" transform="translate(818.5 0)"/>
     <use xlink:href="#DejaVuSans-Bold-5b" transform="translate(886.328125 0)"/>
     <use xlink:href="#DejaVuSans-Bold-53" transform="translate(950.828125 0)"/>
     <use xlink:href="#DejaVuSans-Bold-4f" transform="translate(1022.40625 0)"/>
     <use xlink:href="#DejaVuSans-Bold-44" transform="translate(1056.6875 0)"/>
     <use xlink:href="#DejaVuSans-Bold-4c" transform="translate(1124.171875 0)"/>
     <use xlink:href="#DejaVuSans-Bold-51" transform="translate(1158.453125 0)"/>
     <use xlink:href="#DejaVuSans-Bold-56" transform="translate(1229.640625 0)"/>
     <use xlink:href="#DejaVuSans-Bold-3" transform="translate(1289.15625 0)"/>
     <use xlink:href="#DejaVuSans-Bold-50" transform="translate(1323.96875 0)"/>
     <use xlink:href="#DejaVuSans-Bold-52" transform="translate(1428.171875 0)"/>
     <use xlink:href="#DejaVuSans-Bold-56" transform="translate(1496.875 0)"/>
     <use xlink:href="#DejaVuSans-Bold-57" transform="translate(1556.390625 0)"/>
     <use xlink:href="#DejaVuSans-Bold-3" transform="translate(1604.1875 0)"/>
     <use xlink:href="#DejaVuSans-Bold-4f" transform="translate(1639 0)"/>
     <use xlink:href="#DejaVuSans-Bold-52" transform="translate(1673.28125 0)"/>
     <use xlink:href="#DejaVuSans-Bold-51" transform="translate(1741.984375 0)"/>
     <use xlink:href="#DejaVuSans-Bold-4a" transform="translate(1813.171875 0)"/>
     <use xlink:href="#DejaVuSans-Bold-10" transform="translate(1884.75 0)"/>
     <use xlink:href="#DejaVuSans-Bold-46" transform="translate(1926.25 0)"/>
     <use xlink:href="#DejaVuSans-Bold-52" transform="translate(1985.53125 0)"/>
     <use xlink:href="#DejaVuSans-Bold-51" transform="translate(2054.234375 0)"/>
     <use xlink:href="#DejaVuSans-Bold-57" transform="translate(2125.421875 0)"/>
     <use xlink:href="#DejaVuSans-Bold-48" transform="translate(2173.21875 0)"/>
     <use xlink:href="#DejaVuSans-Bold-5b" transform="translate(2241.046875 0)"/>
     <use xlink:href="#DejaVuSans-Bold-57" transform="translate(2305.546875 0)"/>
     <use xlink:href="#DejaVuSans-Bold-3" transform="translate(2353.34375 0)"/>
     <use xlink:href="#DejaVuSans-Bold-48" transform="translate(2388.15625 0)"/>
     <use xlink:href="#DejaVuSans-Bold-5b" transform="translate(2455.984375 0)"/>
     <use xlink:href="#DejaVuSans-Bold-44" transform="translate(2520.484375 0)"/>
     <use xlink:href="#DejaVuSans-Bold-46" transform="translate(2587.96875 0)"/>
     <use xlink:href="#DejaVuSans-Bold-57" transform="translate(2647.25 0)"/>
     <use xlink:href="#DejaVuSans-Bold-10" transform="translate(2695.046875 0)"/>
     <use xlink:href="#DejaVuSans-Bold-55" transform="translate(2736.546875 0)"/>
     <use xlink:href="#DejaVuSans-Bold-48" transform="translate(2785.859375 0)"/>
     <use xlink:href="#DejaVuSans-Bold-46" transform="translate(2853.6875 0)"/>
     <use xlink:href="#DejaVuSans-Bold-44" transform="translate(2912.96875 0)"/>
     <use xlink:href="#DejaVuSans-Bold-4f" transform="translate(2980.453125 0)"/>
     <use xlink:href="#DejaVuSans-Bold-4f" transform="translate(3014.734375 0)"/>
     <use xlink:href="#DejaVuSans-Bold-3" transform="translate(3049.015625 0)"/>
     <use xlink:href="#DejaVuSans-Bold-59" transform="translate(3083.828125 0)"/>
     <use xlink:href="#DejaVuSans-Bold-44" transform="translate(3149.015625 0)"/>
     <use xlink:href="#DejaVuSans-Bold-55" transform="translate(3216.5 0)"/>
     <use xlink:href="#DejaVuSans-Bold-4c" transform="translate(3265.8125 0)"/>
     <use xlink:href="#DejaVuSans-Bold-44" transform="translate(3300.09375 0)"/>
     <use xlink:href="#DejaVuSans-Bold-57" transform="translate(3367.578125 0)"/>
     <use xlink:href="#DejaVuSans-Bold-4c" transform="translate(3415.375 0)"/>
     <use xlink:href="#DejaVuSans-Bold-52" transform="translate(3449.65625 0)"/>
     <use xlink:href="#DejaVuSans-Bold-51" transform="translate(3518.359375 0)"/>
    </g>
   </g>
   <g id="legend_1">
    <g id="PathCollection_3">
     <defs>
      <path id="mfcad4bdb7a" d="M 0 4.873397 
C 1.29244 4.873397 2.532119 4.359905 3.446012 3.446012 
C 4.359905 2.532119 4.873397 1.29244 4.873397 0 
C 4.873397 -1.29244 4.359905 -2.532119 3.446012 -3.446012 
C 2.532119 -4.359905 1.29244 -4.873397 0 -4.873397 
C -1.29244 -4.873397 -2.532119 -4.359905 -3.446012 -3.446012 
C -4.359905 -2.532119 -4.873397 -1.29244 -4.873397 0 
C -4.873397 1.29244 -4.359905 2.532119 -3.446012 3.446012 
C -2.532119 4.359905 -1.29244 4.873397 0 4.873397 
z
" style="stroke: #ffffff; stroke-opacity: 0.78; stroke-width: 0.7"/>
     </defs>
     <g>
      <use xlink:href="#mfcad4bdb7a" x="59.613594" y="326.420109" style="fill: #e76f51; fill-opacity: 0.78; stroke: #ffffff; stroke-opacity: 0.78; stroke-width: 0.7"/>
     </g>
    </g>
    <g id="text_18">
     <!-- tf200 -->
     <g transform="translate(75.813594 328.782609) scale(0.09 -0.09)">
      <defs>
       <path id="DejaVuSans-15" d="M 1228 531 
L 3431 531 
L 3431 0 
L 469 0 
L 469 531 
Q 828 903 1448 1529 
Q 2069 2156 2228 2338 
Q 2531 2678 2651 2914 
Q 2772 3150 2772 3378 
Q 2772 3750 2511 3984 
Q 2250 4219 1831 4219 
Q 1534 4219 1204 4116 
Q 875 4013 500 3803 
L 500 4441 
Q 881 4594 1212 4672 
Q 1544 4750 1819 4750 
Q 2544 4750 2975 4387 
Q 3406 4025 3406 3419 
Q 3406 3131 3298 2873 
Q 3191 2616 2906 2266 
Q 2828 2175 2409 1742 
Q 1991 1309 1228 531 
z
" transform="scale(0.015625)"/>
      </defs>
      <use xlink:href="#DejaVuSans-57"/>
      <use xlink:href="#DejaVuSans-49" transform="translate(39.203125 0)"/>
      <use xlink:href="#DejaVuSans-15" transform="translate(74.40625 0)"/>
      <use xlink:href="#DejaVuSans-13" transform="translate(138.03125 0)"/>
      <use xlink:href="#DejaVuSans-13" transform="translate(201.65625 0)"/>
     </g>
    </g>
    <g id="PathCollection_4">
     <defs>
      <path id="m390046f291" d="M 0 4.873397 
C 1.29244 4.873397 2.532119 4.359905 3.446012 3.446012 
C 4.359905 2.532119 4.873397 1.29244 4.873397 0 
C 4.873397 -1.29244 4.359905 -2.532119 3.446012 -3.446012 
C 2.532119 -4.359905 1.29244 -4.873397 0 -4.873397 
C -1.29244 -4.873397 -2.532119 -4.359905 -3.446012 -3.446012 
C -4.359905 -2.532119 -4.873397 -1.29244 -4.873397 0 
C -4.873397 1.29244 -4.359905 2.532119 -3.446012 3.446012 
C -2.532119 4.359905 -1.29244 4.873397 0 4.873397 
z
" style="stroke: #ffffff; stroke-opacity: 0.78; stroke-width: 0.7"/>
     </defs>
     <g>
      <use xlink:href="#m390046f291" x="59.613594" y="339.920813" style="fill: #2a9d8f; fill-opacity: 0.78; stroke: #ffffff; stroke-opacity: 0.78; stroke-width: 0.7"/>
     </g>
    </g>
    <g id="text_19">
     <!-- tf600 -->
     <g transform="translate(75.813594 342.283313) scale(0.09 -0.09)">
      <use xlink:href="#DejaVuSans-57"/>
      <use xlink:href="#DejaVuSans-49" transform="translate(39.203125 0)"/>
      <use xlink:href="#DejaVuSans-19" transform="translate(74.40625 0)"/>
      <use xlink:href="#DejaVuSans-13" transform="translate(138.03125 0)"/>
      <use xlink:href="#DejaVuSans-13" transform="translate(201.65625 0)"/>
     </g>
    </g>
    <g id="line2d_28">
     <path d="M 50.613594 352.634016 
L 59.613594 352.634016 
L 68.613594 352.634016 
" style="fill: none; stroke: #1f2933; stroke-width: 2.2; stroke-linecap: square"/>
    </g>
    <g id="text_20">
     <!-- LOWESS trend -->
     <g transform="translate(75.813594 355.784016) scale(0.09 -0.09)">
      <use xlink:href="#DejaVuSans-2f"/>
      <use xlink:href="#DejaVuSans-32" transform="translate(52.15625 0)"/>
      <use xlink:href="#DejaVuSans-3a" transform="translate(130.875 0)"/>
      <use xlink:href="#DejaVuSans-28" transform="translate(229.75 0)"/>
      <use xlink:href="#DejaVuSans-36" transform="translate(292.9375 0)"/>
      <use xlink:href="#DejaVuSans-36" transform="translate(356.421875 0)"/>
      <use xlink:href="#DejaVuSans-3" transform="translate(419.90625 0)"/>
      <use xlink:href="#DejaVuSans-57" transform="translate(451.6875 0)"/>
      <use xlink:href="#DejaVuSans-55" transform="translate(490.890625 0)"/>
      <use xlink:href="#DejaVuSans-48" transform="translate(529.796875 0)"/>
      <use xlink:href="#DejaVuSans-51" transform="translate(591.328125 0)"/>
      <use xlink:href="#DejaVuSans-47" transform="translate(654.703125 0)"/>
     </g>
    </g>
   </g>
  </g>
 </g>
 <defs>
  <clipPath id="p048e8b8605">
   <rect x="42.513594" y="22.318125" width="479.88" height="343.728"/>
  </clipPath>
 </defs>
</svg>
